<svg width="198" height="204" viewBox="0 0 198 204" fill="none" xmlns="http://www.w3.org/2000/svg">
<g id="Group 701">
<path id="Vector" d="M187.575 108.535C188.406 108.076 189.199 107.552 189.948 106.968C194.372 103.522 197.339 98.4562 197.884 93.417C198.305 89.5436 197.252 85.8635 194.912 83.0544C191.795 79.3014 188.182 78.9326 186.023 78.7075C184.473 78.5479 184.31 78.4961 183.837 77.9909C182.821 76.9118 182.673 76.2545 182.404 75.0591C182.051 73.4897 181.456 70.8633 178.777 68.8595C176.856 67.4253 174.798 66.7289 172.484 66.7289C171.762 66.7384 171.04 66.7885 170.324 66.8789C169.835 66.9433 169.342 66.9807 168.849 66.991C168.155 66.988 167.467 66.8628 166.816 66.621C165.94 66.318 165.02 66.164 164.093 66.1655C161.911 66.1733 159.81 66.9923 158.195 68.4642C156.509 69.9882 155.427 72.139 155.14 74.5212C155.047 75.289 155.059 76.0659 155.176 76.8305C155.021 77.113 154.891 77.4082 154.786 77.7129C154.443 78.7191 154.378 79.8001 154.6 80.8402C154.364 81.6573 154.287 82.5125 154.373 83.3588C153.741 83.5025 153.091 83.6705 152.441 83.8703L153.389 54.9997C153.584 55.2866 153.805 55.5548 154.049 55.8008C155.081 56.8368 156.482 57.4188 157.942 57.4188C159.402 57.4188 160.802 56.8368 161.835 55.8008L185.077 32.4798C185.822 31.7326 186.338 30.7866 186.563 29.7541C186.788 28.7215 186.714 27.6459 186.348 26.6548C185.982 25.6637 185.34 24.7988 184.499 24.1627C183.657 23.5266 182.652 23.1461 181.602 23.0663L188.432 16.2114C189.456 15.1733 190.028 13.7708 190.024 12.3105C190.02 10.8502 189.44 9.45094 188.411 8.41863C187.381 7.38632 185.986 6.80495 184.531 6.80166C183.076 6.79837 181.678 7.37344 180.644 8.40108L176.068 12.9921C175.575 12.1944 174.887 11.5362 174.069 11.0796C173.251 10.623 172.331 10.3832 171.395 10.3827C169.948 10.3819 168.533 10.8107 167.329 11.6153C166.125 12.4198 165.185 13.5641 164.627 14.9038C164.07 16.2435 163.92 17.7187 164.197 19.1437C164.474 20.5686 165.165 21.8793 166.183 22.9109L165.695 23.4002C164.95 24.1474 164.434 25.0935 164.209 26.1262C163.984 27.1589 164.058 28.2347 164.424 29.226C164.79 30.2173 165.432 31.0824 166.274 31.7185C167.115 32.3547 168.121 32.7352 169.171 32.8149L154.049 47.9873C153.89 48.147 153.742 48.3164 153.604 48.4946L154.236 29.1951C154.236 29.1612 154.236 29.1274 154.236 29.0894C154.298 24.6072 152.625 21.9502 151.21 20.5107C149.488 18.7584 147.208 17.7808 144.584 17.6646C143.19 17.0499 141.682 16.7397 140.16 16.7546H117.745C117.499 16.3874 117.221 16.0426 116.915 15.7241C116.225 15.0034 115.396 14.4308 114.479 14.0409C113.562 13.6511 112.575 13.4521 111.579 13.4561H103.679C103.294 10.6624 102.031 8.06468 100.075 6.04002C98.8491 4.76268 97.378 3.74815 95.7504 3.05784C94.1227 2.36752 92.3724 2.01578 90.6053 2.0239C87.0202 2.02814 83.5818 3.4525 81.038 5.98718C78.9795 8.00471 77.596 10.6137 77.0786 13.454H68.9133C66.9385 13.4525 65.0428 14.2321 63.6372 15.6237C63.2859 15.9686 62.9684 16.3466 62.6892 16.7525H60.9891L61.2124 11.651C62.0753 10.4771 62.5401 9.05646 62.5386 7.59785V6.86333C62.5369 5.04357 61.8157 3.29882 60.5332 2.01206C59.2508 0.725297 57.5119 0.001679 55.6983 0H9.11316C7.29971 0.00195877 5.5611 0.725715 4.2789 2.01245C2.99669 3.29918 2.27561 5.04376 2.27394 6.86333V7.59785C2.27244 9.05841 2.73804 10.4809 3.60221 11.6562L3.78757 17.5494C3.8008 17.9827 3.8648 18.413 3.97823 18.8314C4.78191 21.7959 7.62589 23.8663 10.8943 23.8663H11.9634L11.9803 24.8175C11.7119 25.5631 11.5747 26.3498 11.5748 27.1426V27.8771C11.5763 29.4433 12.1111 30.9619 13.0906 32.1814C14.0701 33.4008 15.4354 34.2478 16.9604 34.5819C16.6242 35.6734 16.4558 36.8099 16.4611 37.9523C16.4611 41.7634 18.7553 44.3992 20.2731 46.1452C20.607 46.5299 21.0747 47.0679 21.3317 47.4272C21.2444 47.5933 21.1214 47.7377 20.9714 47.8499C19.9588 48.4867 19.1801 49.4367 18.7528 50.5565C18.3256 51.6763 18.273 52.9053 18.603 54.0577C18.933 55.2102 19.6277 56.2237 20.5823 56.9451C21.5368 57.6666 22.6993 58.0569 23.8944 58.0572C24.288 58.0564 24.6804 58.0128 25.0646 57.9272C25.0877 58.4644 25.1891 58.9954 25.3659 59.503L23.8712 104.025L17.0415 90.5782C16.3784 89.2728 15.2257 88.285 13.8368 87.8323C12.4479 87.3796 10.9367 87.4991 9.6356 88.1644C8.33449 88.8297 7.3501 89.9863 6.89893 91.3799C6.44776 92.7734 6.56678 94.2897 7.22984 95.5952L10.2455 101.532L9.89893 101.253C9.33485 100.799 8.68722 100.461 7.99298 100.258C7.29874 100.056 6.57146 99.992 5.85276 100.071C5.13405 100.151 4.43799 100.371 3.80424 100.72C3.17048 101.07 2.61146 101.541 2.15914 102.107C1.70683 102.673 1.37003 103.322 1.16801 104.019C0.965984 104.716 0.902691 105.445 0.981721 106.166C1.06075 106.888 1.28058 107.586 1.62863 108.222C1.97668 108.858 2.44615 109.419 3.01024 109.873L15.1834 119.668C15.5963 119.999 16.0542 120.27 16.5433 120.471C15.345 120.866 14.3193 121.664 13.6393 122.729C8.7715 130.337 6.25748 139.221 6.41418 148.26C6.57089 157.299 9.39131 166.089 14.5199 173.523C15.0266 174.258 15.7034 174.858 16.4923 175.273C17.2811 175.688 18.1585 175.905 19.0491 175.905C19.1745 175.905 19.2998 175.905 19.4241 175.892C20.4175 177.033 21.4698 178.12 22.5767 179.15C23.0612 180.143 23.6986 181.054 24.4653 181.849C24.5411 181.928 24.6191 182.005 24.697 182.081V191.293C24.6987 192.758 25.2793 194.162 26.3114 195.197C27.3436 196.233 28.743 196.816 30.2027 196.817H73.629C75.067 196.815 76.4475 196.25 77.4757 195.241C78.5039 194.232 79.0985 192.86 79.1326 191.418C80.665 191.042 82.1619 190.534 83.606 189.897L81.8659 191.643C81.3504 192.155 80.9409 192.764 80.6607 193.435C80.3806 194.107 80.2355 194.827 80.2337 195.555C80.2318 196.283 80.3733 197.004 80.65 197.676C80.9268 198.349 81.3333 198.96 81.8462 199.475C82.3591 199.99 82.9683 200.398 83.6388 200.675C84.3093 200.953 85.0279 201.095 85.7532 201.093C86.4786 201.091 87.1964 200.946 87.8655 200.665C88.5346 200.383 89.1418 199.972 89.6521 199.455L100.501 188.569C101.447 187.627 102.017 186.371 102.103 185.036H134.898C136.35 185.037 137.786 184.74 139.119 184.163C141.827 184.099 144.409 183 146.335 181.089C148.261 179.178 149.387 176.6 149.482 173.884L150.083 155.624C150.135 156.543 150.188 157.441 150.245 158.313C151.118 171.92 152.714 182.764 153.182 185.762C153.203 185.903 153.231 186.042 153.263 186.18C153.178 186.382 153.105 186.59 153.045 186.801C152.99 186.996 152.933 187.194 152.876 187.396L152.835 187.54C152.428 188.988 151.745 191.41 151.213 192.219C150.137 193.855 149.885 195.918 150.505 198.013C150.769 198.902 151.857 201.907 154.824 203.205C156.064 203.747 157.642 203.98 160.1 203.98C161.259 203.98 162.56 203.921 163.41 203.829C167.125 203.429 169.966 199.998 169.876 196.019C169.876 195.847 169.86 195.675 169.839 195.503L168.919 187.876C168.863 187.418 168.753 186.968 168.59 186.536C168.631 186.398 168.667 186.258 168.695 186.113C169.545 182.251 171.411 173.372 171.774 168.252C171.957 169.171 172.047 169.554 172.147 169.881C172.884 172.271 173.609 174.482 174.247 176.433C175.215 179.393 176.052 181.951 176.404 183.507C176.512 183.981 176.671 184.442 176.881 184.881C176.791 185.247 176.739 185.622 176.727 185.999C176.706 186.633 176.606 189.885 176.744 191.55C176.829 192.589 177.12 194.119 179.489 199.159C180.002 200.249 180.753 201.209 181.687 201.968C182.62 202.726 183.712 203.264 184.882 203.541C185.816 203.771 186.773 203.891 187.735 203.898C188.488 203.89 189.239 203.819 189.981 203.687C192.234 203.319 194.101 202.072 195.241 200.175C196.419 198.213 196.65 195.764 195.873 193.454C195.278 191.682 194.375 189.924 193.037 187.94C192.814 187.428 192.418 186.037 192.179 184.91C192.129 184.675 192.065 184.445 191.985 184.219C192.255 183.48 192.389 182.698 192.381 181.911C192.322 174.952 192.195 166.229 191.92 164.196C191.532 161.326 190.349 158.721 189.306 156.423C188.442 154.52 187.627 152.723 187.426 151.196C187.254 149.885 187.094 147.799 186.908 145.383C186.533 140.491 186.077 134.545 185.14 129.742C185.241 129.515 185.334 129.284 185.417 129.048C186.421 126.175 186.33 121.577 185.706 116.762C185.852 116.473 185.99 116.176 186.121 115.872C187.126 113.538 187.546 111.017 187.575 108.535Z" fill="#1F2F5C"/>
<path id="Vector_2" d="M183.836 108.237C184.632 107.799 185.392 107.299 186.109 106.742C190.346 103.452 193.188 98.6168 193.71 93.8067C194.113 90.1093 193.105 86.5966 190.864 83.9151C187.878 80.3327 184.417 79.9807 182.35 79.7658C180.865 79.6134 180.709 79.564 180.256 79.0818C179.284 78.0518 179.141 77.4243 178.884 76.2833C178.546 74.7852 177.976 72.2782 175.41 70.3655C173.571 68.9965 171.599 68.3317 169.383 68.3317C168.691 68.3407 168 68.3885 167.314 68.4749C166.845 68.5363 166.374 68.572 165.901 68.5818C165.237 68.579 164.578 68.4595 163.954 68.2287C163.115 67.9395 162.234 67.7925 161.347 67.7939C159.257 67.8013 157.244 68.5831 155.697 69.9882C154.083 71.4429 153.046 73.4959 152.771 75.7698C152.682 76.5027 152.694 77.2443 152.806 77.9741C152.658 78.2438 152.533 78.5256 152.432 78.8165C152.103 79.7769 152.042 80.8088 152.254 81.8016C152.028 82.5816 151.954 83.3978 152.037 84.2057C151.432 84.3429 150.809 84.5033 150.187 84.6939L151.095 57.1356C151.281 57.4095 151.493 57.6655 151.726 57.9003C152.715 58.8892 154.056 59.4448 155.455 59.4448C156.853 59.4448 158.195 58.8892 159.184 57.9003L181.444 35.6394C182.158 34.9261 182.652 34.0231 182.867 33.0375C183.083 32.052 183.011 31.0252 182.661 30.0792C182.31 29.1331 181.696 28.3075 180.89 27.7003C180.084 27.0932 179.121 26.7299 178.115 26.6537L184.658 20.1104C185.638 19.1195 186.186 17.7808 186.182 16.3869C186.178 14.9929 185.623 13.6573 184.637 12.6719C183.651 11.6865 182.315 11.1316 180.921 11.1284C179.527 11.1253 178.189 11.6742 177.198 12.6551L172.816 17.0375C172.343 16.2761 171.684 15.6478 170.901 15.2119C170.117 14.7761 169.236 14.5472 168.34 14.5467C166.954 14.5459 165.599 14.9553 164.446 15.7232C163.292 16.4912 162.392 17.5834 161.858 18.8623C161.324 20.1411 161.181 21.5493 161.446 22.9094C161.711 24.2696 162.373 25.5208 163.348 26.5054L162.881 26.9725C162.167 27.6857 161.673 28.5888 161.457 29.5746C161.241 30.5603 161.313 31.5872 161.664 32.5335C162.014 33.4797 162.629 34.3055 163.435 34.9127C164.241 35.5199 165.204 35.8832 166.21 35.9592L151.726 50.442C151.574 50.5944 151.432 50.7561 151.301 50.9262L151.906 32.5039C151.906 32.4717 151.906 32.4394 151.906 32.4031C151.965 28.1246 150.362 25.5884 149.007 24.2143C147.358 22.5417 145.174 21.6085 142.661 21.4976C141.326 20.9108 139.882 20.6148 138.424 20.6289H116.956C116.72 20.2784 116.454 19.9493 116.161 19.6453C115.5 18.9574 114.706 18.4108 113.828 18.0386C112.949 17.6665 112.004 17.4766 111.05 17.4804H103.484C103.115 14.8137 101.906 12.334 100.032 10.4014C98.8578 9.18212 97.4489 8.21371 95.89 7.55477C94.3311 6.89583 92.6546 6.56008 90.9622 6.56783C87.5285 6.57188 84.2354 7.9315 81.799 10.351C79.8274 12.2768 78.5023 14.7672 78.0068 17.4784H70.1863C68.295 17.4769 66.4793 18.2211 65.1331 19.5495C64.7966 19.8787 64.4925 20.2395 64.2251 20.6269H62.5968L62.8107 15.7573C63.6372 14.6368 64.0823 13.2807 64.0808 11.8884V11.1873C64.0792 9.45025 63.3885 7.7848 62.1602 6.55653C60.9319 5.32825 59.2665 4.63753 57.5295 4.63593H12.9118C11.1749 4.6378 9.50974 5.32865 8.28169 6.5569C7.05363 7.78514 6.36301 9.45042 6.3614 11.1873V11.8884C6.35997 13.2826 6.8059 14.6404 7.63358 15.7623L7.81111 21.3876C7.82378 21.8012 7.88508 22.212 7.99371 22.6113C8.76345 25.4411 11.4873 27.4174 14.6177 27.4174H15.6417L15.6578 28.3253C15.4008 29.0371 15.2693 29.788 15.2694 30.5448V31.2459C15.2709 32.7409 15.7831 34.1905 16.7212 35.3545C17.6593 36.5185 18.967 37.327 20.4276 37.646C20.1056 38.6878 19.9443 39.7727 19.9494 40.8631C19.9494 44.501 22.1467 47.017 23.6004 48.6836C23.9202 49.0508 24.3681 49.5643 24.6142 49.9073C24.5307 50.0659 24.4128 50.2037 24.2692 50.3109C23.2994 50.9187 22.5535 51.8255 22.1443 52.8944C21.7351 53.9633 21.6848 55.1364 22.0008 56.2365C22.3169 57.3366 22.9823 58.304 23.8965 58.9926C24.8107 59.6813 25.9242 60.0539 27.0687 60.0542C27.4457 60.0534 27.8215 60.0118 28.1895 59.9301C28.2116 60.4429 28.3088 60.9497 28.4781 61.4343L27.0465 103.932L20.5053 91.097C19.8702 89.8508 18.7661 88.908 17.4359 88.4759C16.1057 88.0437 14.6583 88.1578 13.4122 88.7928C12.166 89.4279 11.2232 90.5319 10.7911 91.8622C10.3589 93.1924 10.4729 94.6398 11.108 95.8859L13.9963 101.553L13.6644 101.286C13.1241 100.853 12.5038 100.53 11.8389 100.337C11.174 100.143 10.4774 100.083 9.78907 100.159C9.10072 100.234 8.43406 100.445 7.82707 100.778C7.22008 101.111 6.68467 101.561 6.25146 102.101C5.81824 102.642 5.49567 103.262 5.30218 103.927C5.10869 104.592 5.04807 105.288 5.12376 105.977C5.19945 106.665 5.40999 107.332 5.74335 107.939C6.0767 108.546 6.52634 109.081 7.0666 109.514L18.7257 118.864C19.1211 119.18 19.5597 119.439 20.0281 119.631C18.8804 120.008 17.898 120.769 17.2468 121.787C12.5846 129.049 10.1767 137.528 10.3268 146.157C10.4769 154.785 13.1782 163.176 18.0901 170.271C18.5755 170.973 19.2237 171.546 19.9792 171.942C20.7348 172.338 21.5751 172.545 22.4281 172.545C22.5482 172.545 22.6682 172.545 22.7873 172.533C23.7387 173.622 24.7465 174.659 25.8067 175.642C26.2708 176.591 26.8812 177.46 27.6155 178.219C27.6882 178.295 27.7628 178.368 27.8375 178.441V187.234C27.8391 188.632 28.3951 189.972 29.3837 190.961C30.3723 191.949 31.7126 192.505 33.1107 192.507H74.7028C76.0802 192.505 77.4023 191.965 78.3871 191.002C79.3719 190.039 79.9414 188.73 79.974 187.353C81.4417 186.995 82.8754 186.509 84.2585 185.901L82.5919 187.568C82.0982 188.056 81.7059 188.638 81.4376 189.279C81.1693 189.92 81.0303 190.607 81.0286 191.302C81.0268 191.997 81.1623 192.685 81.4274 193.327C81.6924 193.969 82.0818 194.553 82.573 195.044C83.0643 195.535 83.6477 195.924 84.2899 196.19C84.9321 196.455 85.6203 196.59 86.3151 196.588C87.0098 196.587 87.6973 196.448 88.3381 196.179C88.979 195.911 89.5605 195.519 90.0492 195.025L100.44 184.634C101.346 183.735 101.892 182.535 101.975 181.261H133.385C134.775 181.262 136.151 180.979 137.427 180.428C140.021 180.367 142.493 179.317 144.338 177.493C146.183 175.669 147.261 173.209 147.352 170.616L147.928 153.186C147.977 154.063 148.029 154.921 148.083 155.753C148.92 168.742 150.448 179.093 150.896 181.955C150.916 182.089 150.943 182.222 150.974 182.353C150.892 182.546 150.822 182.745 150.765 182.946C150.712 183.132 150.658 183.321 150.603 183.514L150.564 183.651C150.174 185.034 149.52 187.346 149.01 188.118C147.979 189.679 147.738 191.648 148.333 193.648C148.585 194.497 149.627 197.366 152.469 198.604C153.656 199.122 155.167 199.344 157.522 199.344C158.632 199.344 159.878 199.287 160.692 199.2C164.25 198.818 166.971 195.544 166.885 191.745C166.885 191.581 166.87 191.416 166.85 191.252L165.968 183.972C165.915 183.535 165.809 183.105 165.653 182.693C165.693 182.561 165.727 182.428 165.754 182.289C166.568 178.603 168.355 170.127 168.703 165.24C168.878 166.117 168.964 166.483 169.06 166.795C169.766 169.077 170.46 171.187 171.072 173.05C171.999 175.874 172.8 178.317 173.138 179.802C173.24 180.255 173.393 180.694 173.594 181.113C173.508 181.463 173.459 181.821 173.446 182.181C173.426 182.786 173.33 185.89 173.463 187.479C173.544 188.471 173.823 189.931 176.092 194.743C176.583 195.783 177.303 196.699 178.197 197.423C179.091 198.147 180.137 198.661 181.257 198.925C182.152 199.144 183.069 199.259 183.99 199.266C184.711 199.258 185.43 199.191 186.141 199.064C188.299 198.713 190.087 197.523 191.179 195.712C192.307 193.84 192.529 191.501 191.784 189.297C191.214 187.605 190.349 185.927 189.068 184.033C188.854 183.545 188.475 182.217 188.246 181.14C188.199 180.917 188.137 180.697 188.06 180.482C188.319 179.776 188.448 179.03 188.44 178.278C188.383 171.635 188.261 163.309 187.998 161.368C187.627 158.629 186.494 156.143 185.494 153.948C184.667 152.132 183.886 150.417 183.694 148.96C183.529 147.708 183.375 145.717 183.198 143.411C182.839 138.741 182.402 133.065 181.504 128.48C181.602 128.264 181.69 128.043 181.769 127.819C182.731 125.076 182.644 120.687 182.047 116.091C182.186 115.814 182.318 115.531 182.444 115.241C183.407 113.013 183.809 110.607 183.836 108.237Z" fill="white"/>
<g id="Group 708">
<g id="Fire alarm system">
<path id="Vector_3" d="M38.6591 175.395H137.237C139.949 175.395 142.22 173.185 142.31 170.459L146.874 32.3423C146.925 28.6429 145.222 26.5395 142.161 26.5395H43.5812C41.1449 26.5395 39.0081 28.3282 38.537 30.7574L33.9125 170.452C33.884 171.092 33.9857 171.731 34.2116 172.331C34.4375 172.93 34.7829 173.478 35.2267 173.94C35.6706 174.402 36.2036 174.77 36.7936 175.02C37.3836 175.27 38.0183 175.397 38.6591 175.395Z" fill="#1A3A68"/>
<path id="Vector_4" d="M34.8053 175.992H133.383C136.095 175.992 138.368 173.764 138.461 171.015L143.142 31.7572C143.196 28.0245 141.497 25.906 138.435 25.906H39.8555C37.6795 25.906 35.7415 27.3436 35.0131 29.3955C34.8736 29.8066 34.798 30.2367 34.7891 30.6707L30.0618 171.015C29.971 173.764 32.0936 175.992 34.8053 175.992Z" fill="white"/>
<path id="Vector_5" d="M133.384 176.221H34.8055C34.1409 176.225 33.4824 176.093 32.87 175.835C32.2575 175.577 31.7038 175.197 31.2423 174.719C30.769 174.228 30.4001 173.645 30.1582 173.007C29.9164 172.37 29.8064 171.689 29.835 171.007L34.5624 30.6626C34.5722 30.2052 34.6521 29.752 34.7995 29.3188C35.5712 27.1408 37.602 25.6769 39.8558 25.6769H138.435C139.857 25.6769 141.006 26.1117 141.852 26.9692C142.877 28.0094 143.402 29.6669 143.371 31.7602L138.69 171.023C138.594 173.889 136.213 176.221 133.384 176.221ZM39.8558 26.1349C37.7957 26.1349 35.9385 27.4767 35.2313 29.4722C35.0997 29.8609 35.0285 30.2674 35.0204 30.6777L30.293 171.023C30.2665 171.643 30.3662 172.262 30.5861 172.843C30.806 173.423 31.1415 173.953 31.5722 174.4C31.991 174.834 32.4934 175.179 33.0491 175.413C33.6049 175.647 34.2024 175.766 34.8055 175.763H133.384C135.969 175.763 138.144 173.629 138.232 171.007L142.913 31.7491C142.942 29.7849 142.462 28.2424 141.525 27.2911C140.769 26.5243 139.729 26.1349 138.435 26.1349H39.8558Z" fill="#1A3A68"/>
<path id="Vector_6" d="M69.7343 36.2284H110.597C111.111 36.2214 111.603 36.0168 111.97 35.6571C112.337 35.2973 112.551 34.8101 112.568 34.2965L112.891 24.6903C112.903 24.441 112.865 24.1918 112.778 23.9579C112.691 23.7239 112.557 23.5101 112.385 23.3293C112.213 23.1486 112.006 23.0047 111.776 22.9064C111.547 22.808 111.3 22.7574 111.05 22.7574H70.1923C69.6783 22.7644 69.1866 22.9691 68.8196 23.3291C68.4525 23.689 68.2381 24.1765 68.2211 24.6903L67.8972 34.2965C67.8854 34.5453 67.9241 34.794 68.011 35.0275C68.0979 35.261 68.2312 35.4745 68.4029 35.655C68.5746 35.8356 68.7811 35.9795 69.0099 36.078C69.2387 36.1765 69.4852 36.2277 69.7343 36.2284Z" fill="white"/>
<path id="Vector_7" d="M110.597 36.4574H69.7344C69.4576 36.4589 69.1833 36.4043 68.9282 36.2968C68.6732 36.1893 68.4426 36.0311 68.2504 35.8319C68.0535 35.6277 67.9 35.3858 67.7993 35.1206C67.6986 34.8555 67.6526 34.5727 67.6642 34.2894L67.9881 24.6822C68.0082 24.1094 68.2479 23.5663 68.6575 23.1653C69.0671 22.7644 69.6152 22.5363 70.1883 22.5284H111.046C111.323 22.527 111.597 22.5817 111.852 22.6894C112.107 22.7971 112.338 22.9555 112.53 23.1549C112.727 23.3588 112.881 23.6007 112.982 23.8659C113.082 24.1311 113.128 24.414 113.116 24.6974L112.793 34.3045C112.773 34.8764 112.534 35.4188 112.125 35.8194C111.716 36.22 111.169 36.4484 110.597 36.4574ZM70.1883 22.9864C69.7331 22.9934 69.2981 23.1756 68.9737 23.4949C68.6493 23.8143 68.4603 24.2464 68.4461 24.7014L68.1223 34.3085C68.1126 34.5308 68.1482 34.7527 68.227 34.9608C68.3057 35.169 68.4259 35.3589 68.5803 35.5191C68.7297 35.6741 68.909 35.7972 69.1074 35.8808C69.3058 35.9644 69.5191 36.0068 69.7344 36.0054H110.597C111.052 35.9984 111.486 35.817 111.81 35.4987C112.134 35.1804 112.324 34.7496 112.339 34.2954L112.662 24.6883C112.672 24.466 112.637 24.244 112.559 24.0359C112.48 23.8277 112.36 23.6378 112.205 23.4777C112.056 23.3226 111.876 23.1994 111.678 23.1156C111.479 23.0319 111.266 22.9893 111.05 22.9904L70.1883 22.9864Z" fill="#1A3A68"/>
<path id="Vector_8" d="M90.9631 11.8468C86.7392 11.8468 83.2143 15.3182 83.071 19.6007L82.6796 31.2225C82.6678 31.4664 82.7058 31.7103 82.791 31.9391C82.8762 32.168 83.007 32.3772 83.1755 32.554C83.3439 32.7309 83.5466 32.8717 83.771 32.968C83.9955 33.0642 84.2372 33.1139 84.4814 33.114H96.0144C96.5174 33.1071 96.9983 32.9067 97.3575 32.5545C97.7167 32.2022 97.9265 31.7253 97.9433 31.2225L98.3347 19.6007C98.4789 15.3182 95.1881 11.8468 90.9631 11.8468ZM91.0327 22.4668C88.9919 22.7271 87.3404 20.9939 87.6663 18.9359C87.7787 18.2477 88.108 17.6132 88.6061 17.1251C89.1042 16.637 89.7451 16.3207 90.4355 16.2221C92.4764 15.9629 94.1278 17.695 93.802 19.7531C93.6895 20.4413 93.3602 21.0757 92.8621 21.5638C92.364 22.052 91.7232 22.3683 91.0327 22.4668Z" fill="white"/>
<path id="Vector_9" d="M96.0146 33.3431H84.4817C84.2101 33.3444 83.9411 33.2906 83.6909 33.185C83.4407 33.0794 83.2144 32.9242 83.0259 32.7287C82.8327 32.5285 82.6821 32.2911 82.5833 32.031C82.4844 31.7709 82.4394 31.4935 82.4508 31.2155L82.8423 19.5937C82.9896 15.1962 86.6335 11.6239 90.9644 11.6239C91.9805 11.6173 92.9874 11.8173 93.9238 12.2116C94.8603 12.606 95.7068 13.1865 96.4121 13.918C97.1384 14.6722 97.7041 15.566 98.0748 16.5452C98.4456 17.5245 98.6137 18.5688 98.569 19.6149L98.1725 31.2326C98.1522 31.794 97.9168 32.3261 97.5152 32.7189C97.1136 33.1117 96.5764 33.3352 96.0146 33.3431ZM90.9644 12.0759C86.8776 12.0759 83.4395 15.4555 83.2973 19.6088L82.9089 31.2326C82.8995 31.4493 82.9342 31.6656 83.0108 31.8685C83.0875 32.0714 83.2045 32.2566 83.3548 32.4129C83.5006 32.5643 83.6758 32.6845 83.8695 32.7662C84.0632 32.8478 84.2715 32.8893 84.4817 32.8881H96.0146C96.4583 32.8811 96.8822 32.7037 97.1986 32.3927C97.5151 32.0817 97.6998 31.6609 97.7145 31.2175L98.1059 19.5957C98.1484 18.611 97.9905 17.628 97.6417 16.7061C97.293 15.7843 96.7607 14.9428 96.0772 14.2328C95.4154 13.5459 94.621 13.0005 93.7421 12.6298C92.8633 12.259 91.9182 12.0706 90.9644 12.0759ZM90.6305 22.7221C90.2001 22.7237 89.7738 22.6384 89.3772 22.4713C88.9805 22.3042 88.6217 22.0587 88.3223 21.7496C87.963 21.3761 87.6964 20.9234 87.5441 20.428C87.3919 19.9327 87.3581 19.4084 87.4456 18.8976C87.6817 17.4025 88.9296 16.1798 90.4116 15.9922C90.9111 15.9235 91.4198 15.9732 91.8966 16.1372C92.3734 16.3012 92.805 16.575 93.1566 16.9364C93.5159 17.3099 93.7825 17.7626 93.9348 18.258C94.087 18.7534 94.1208 19.2776 94.0333 19.7884C93.7972 21.2835 92.5503 22.5062 91.0673 22.6949C90.9224 22.7131 90.7765 22.7222 90.6305 22.7221ZM90.8383 16.4229C90.7139 16.4227 90.5895 16.4304 90.4661 16.4461C89.1808 16.6096 88.0993 17.6709 87.8935 18.9682C87.8177 19.4088 87.8463 19.861 87.977 20.2885C88.1077 20.716 88.3369 21.1069 88.6461 21.4298C88.9487 21.7397 89.32 21.9742 89.7298 22.1144C90.1397 22.2546 90.5767 22.2966 91.0058 22.2369C92.29 22.0734 93.3715 21.0121 93.5773 19.7148C93.6531 19.2742 93.6245 18.822 93.4938 18.3945C93.3631 17.967 93.1339 17.5761 92.8247 17.2532C92.5664 16.9882 92.2572 16.778 91.9157 16.6353C91.5742 16.4927 91.2074 16.4204 90.8373 16.4229H90.8383Z" fill="#1A3A68"/>
<path id="Vector_10" d="M53.6603 73.9587H45.3737C45.1007 73.9602 44.8302 73.9063 44.5785 73.8002C44.3269 73.694 44.0995 73.5379 43.9099 73.3413C43.7156 73.1399 43.5641 72.9011 43.4648 72.6394C43.3654 72.3778 43.3202 72.0986 43.3319 71.819L43.6143 63.4184C43.6342 62.8535 43.8706 62.3178 44.2746 61.9223C44.6785 61.5268 45.2191 61.3018 45.7844 61.2938H54.0719C54.3448 61.2925 54.6152 61.3465 54.8666 61.4526C55.1181 61.5587 55.3453 61.7147 55.5347 61.9112C55.7293 62.1125 55.8809 62.3513 55.9802 62.613C56.0796 62.8747 56.1247 63.1539 56.1128 63.4336L55.8303 71.8351C55.8102 72.3999 55.5737 72.9354 55.1698 73.3306C54.7658 73.7259 54.2254 73.9508 53.6603 73.9587ZM45.7844 61.7518C45.3372 61.7578 44.9096 61.9357 44.5903 62.2487C44.2709 62.5617 44.0843 62.9856 44.0693 63.4325L43.7868 71.8341C43.7775 72.0521 43.8125 72.2697 43.8897 72.4738C43.9669 72.6779 44.0846 72.8642 44.2358 73.0215C44.3827 73.1739 44.5591 73.2948 44.7542 73.377C44.9493 73.4592 45.159 73.501 45.3707 73.4997H53.6573C54.1045 73.4935 54.5321 73.3153 54.8514 73.0022C55.1708 72.689 55.3573 72.265 55.3723 71.818L55.6548 63.4174C55.6642 63.1993 55.6293 62.9815 55.5522 62.7772C55.475 62.5729 55.3572 62.3864 55.2059 62.229C55.0589 62.077 54.8827 61.9563 54.6878 61.8743C54.4929 61.7923 54.2834 61.7506 54.0719 61.7518H45.7844Z" fill="#1A3A68"/>
<path id="Vector_11" d="M48.7092 71.2107C48.567 71.2115 48.4285 71.1657 48.3148 71.0802C48.2011 70.9948 48.1186 70.8744 48.0798 70.7376L46.7683 66.9282C46.7505 66.8714 46.7555 66.8098 46.7824 66.7566C46.8093 66.7034 46.8558 66.6628 46.9121 66.6433C46.9684 66.6239 47.0302 66.6272 47.0841 66.6525C47.1381 66.6778 47.18 66.7232 47.2011 66.7789L48.5176 70.5994C48.5263 70.6358 48.545 70.669 48.5716 70.6954C48.5981 70.7217 48.6315 70.7402 48.6679 70.7487C48.7046 70.7555 48.7424 70.7527 48.7777 70.7407C48.813 70.7287 48.8447 70.7078 48.8697 70.6801L53.0684 64.2357C53.0843 64.2094 53.1054 64.1867 53.1303 64.1688C53.1552 64.1508 53.1835 64.1381 53.2134 64.1313C53.2434 64.1245 53.2743 64.1238 53.3046 64.1292C53.3348 64.1346 53.3636 64.146 53.3893 64.1628C53.415 64.1796 53.437 64.2014 53.4542 64.2268C53.4713 64.2523 53.4831 64.281 53.4889 64.3111C53.4948 64.3412 53.4945 64.3722 53.4881 64.4022C53.4817 64.4323 53.4694 64.4607 53.4518 64.4859L49.2439 70.9424C49.2388 70.9505 49.2331 70.9583 49.2268 70.9656C49.1636 71.0416 49.0845 71.103 48.9951 71.1453C48.9057 71.1876 48.8081 71.21 48.7092 71.2107Z" fill="#1A3A68"/>
<path id="Vector_12" d="M52.8948 95.5145H44.6072C44.3342 95.516 44.0636 95.462 43.812 95.3559C43.5604 95.2498 43.3329 95.0937 43.1434 94.8971C42.9492 94.6955 42.7979 94.4567 42.6986 94.1951C42.5992 93.9334 42.5539 93.6544 42.5653 93.3747L42.8488 84.9742C42.8685 84.4094 43.1046 83.8738 43.5085 83.4785C43.9123 83.0831 44.4527 82.8583 45.0178 82.8506H53.3054C53.5784 82.8491 53.849 82.903 54.1006 83.0092C54.3522 83.1153 54.5797 83.2714 54.7692 83.468C54.9634 83.6693 55.1148 83.9079 55.2142 84.1694C55.3135 84.4309 55.3588 84.7098 55.3473 84.9893L55.0638 93.3909C55.0439 93.9556 54.8076 94.491 54.4039 94.8863C54.0001 95.2817 53.4598 95.5065 52.8948 95.5145ZM45.0178 83.3076C44.5706 83.3133 44.1428 83.4912 43.8234 83.8042C43.504 84.1172 43.3176 84.5413 43.3028 84.9883L43.0193 93.3899C43.0101 93.6079 43.0453 93.8256 43.1226 94.0297C43.1999 94.2338 43.3179 94.42 43.4692 94.5773C43.6159 94.7297 43.7921 94.8507 43.9871 94.9329C44.182 95.0152 44.3916 95.0568 44.6032 95.0555H52.8908C53.338 95.0492 53.7656 94.8711 54.0849 94.5579C54.4042 94.2448 54.5908 93.8207 54.6058 93.3737L54.8893 84.9732C54.8986 84.755 54.8635 84.5371 54.7862 84.3328C54.7088 84.1286 54.5908 83.9421 54.4393 83.7848C54.2924 83.6326 54.1162 83.5119 53.9213 83.4299C53.7264 83.3479 53.5168 83.3063 53.3054 83.3076H45.0178Z" fill="#1A3A68"/>
<path id="Vector_13" d="M47.9435 92.7716C47.897 92.7719 47.8507 92.7672 47.8053 92.7575C47.689 92.7337 47.5816 92.6782 47.4949 92.5972C47.4082 92.5162 47.3456 92.4128 47.3139 92.2984L46.0025 88.4891C45.9827 88.4316 45.9866 88.3685 46.0132 88.3138C46.0399 88.2592 46.0872 88.2173 46.1447 88.1975C46.2022 88.1777 46.2653 88.1816 46.32 88.2083C46.3747 88.2349 46.4165 88.2823 46.4363 88.3398L47.7478 92.1602C47.7565 92.1966 47.7752 92.2298 47.8018 92.2562C47.8283 92.2826 47.8616 92.301 47.8981 92.3095C47.9348 92.3164 47.9726 92.3137 48.008 92.3017C48.0433 92.2897 48.0749 92.2688 48.0998 92.2409L52.2986 85.7965C52.3318 85.7455 52.3839 85.7098 52.4434 85.6973C52.5029 85.6847 52.5649 85.6962 52.6159 85.7294C52.6669 85.7626 52.7026 85.8147 52.7151 85.8742C52.7277 85.9337 52.7162 85.9957 52.683 86.0467L48.4741 92.5032C48.469 92.5111 48.4633 92.5185 48.457 92.5254C48.3943 92.6012 48.316 92.6625 48.2273 92.705C48.1386 92.7475 48.0418 92.7702 47.9435 92.7716Z" fill="#1A3A68"/>
<path id="Vector_14" d="M52.1857 116.564H43.8981C43.625 116.565 43.3545 116.511 43.1029 116.405C42.8512 116.299 42.6238 116.143 42.4343 115.946C42.2401 115.745 42.0887 115.506 41.9894 115.245C41.89 114.983 41.8447 114.705 41.8563 114.425L42.1397 106.024C42.1596 105.459 42.3959 104.923 42.7996 104.528C43.2034 104.133 43.7437 103.908 44.3087 103.9H52.5963C52.8694 103.898 53.1399 103.952 53.3915 104.058C53.6432 104.165 53.8706 104.321 54.0601 104.517C54.2544 104.719 54.4059 104.958 54.5052 105.219C54.6046 105.481 54.6498 105.76 54.6381 106.04L54.3557 114.44C54.3356 115.005 54.099 115.54 53.6951 115.936C53.2912 116.331 52.7508 116.556 52.1857 116.564ZM44.3087 104.357C43.8615 104.363 43.4339 104.541 43.1145 104.854C42.7952 105.168 42.6087 105.592 42.5937 106.039L42.3102 114.439C42.3009 114.657 42.336 114.875 42.4133 115.08C42.4907 115.284 42.6087 115.47 42.7602 115.628C42.9071 115.78 43.0833 115.9 43.2782 115.982C43.4731 116.065 43.6826 116.106 43.8941 116.105H52.1816C52.6287 116.099 53.0562 115.921 53.3755 115.608C53.6948 115.295 53.8814 114.871 53.8966 114.424L54.1791 106.023C54.1883 105.804 54.1532 105.587 54.0758 105.383C53.9985 105.179 53.8806 104.992 53.7292 104.835C53.5825 104.683 53.4063 104.562 53.2114 104.479C53.0165 104.397 52.8068 104.356 52.5953 104.357H44.3087Z" fill="#1A3A68"/>
<path id="Vector_15" d="M51.6399 138.098H43.3534C43.1074 138.099 42.864 138.049 42.6378 137.952C42.4117 137.856 42.2075 137.714 42.0377 137.536C41.8678 137.358 41.736 137.148 41.65 136.917C41.564 136.687 41.5257 136.441 41.5375 136.196L41.8199 127.795C41.8367 127.289 42.0479 126.809 42.4093 126.455C42.7708 126.101 43.2548 125.899 43.7609 125.892H52.0475C52.2935 125.892 52.5369 125.942 52.7631 126.039C52.9892 126.135 53.1934 126.277 53.3632 126.455C53.533 126.633 53.6649 126.843 53.7509 127.074C53.8369 127.304 53.8752 127.549 53.8634 127.795L53.5809 136.196C53.5641 136.702 53.353 137.181 52.9916 137.536C52.6301 137.89 52.1461 138.092 51.6399 138.098Z" fill="white"/>
<path id="Vector_16" d="M51.0112 159.571H42.7226C42.4767 159.572 42.2333 159.522 42.0071 159.425C41.7809 159.329 41.5767 159.187 41.4069 159.009C41.2371 158.831 41.1052 158.621 41.0192 158.39C40.9333 158.16 40.895 157.914 40.9067 157.669L41.1892 149.267C41.2063 148.761 41.4174 148.282 41.7788 147.927C42.1402 147.573 42.6242 147.371 43.1302 147.364H51.4178C51.6637 147.364 51.9071 147.414 52.1333 147.511C52.3595 147.607 52.5637 147.749 52.7335 147.927C52.9033 148.105 53.0352 148.315 53.1212 148.546C53.2071 148.776 53.2454 149.021 53.2337 149.267L52.9512 157.669C52.9342 158.174 52.7232 158.654 52.362 159.008C52.0008 159.363 51.5171 159.564 51.0112 159.571Z" fill="white"/>
<path id="Vector_17" d="M113.718 50.8988H66.6323C66.375 50.9002 66.1201 50.8492 65.8831 50.7492C65.646 50.6491 65.4318 50.502 65.2532 50.3167C65.0701 50.1271 64.9274 49.9023 64.8337 49.6559C64.7401 49.4095 64.6975 49.1466 64.7085 48.8832L64.7589 47.4012C64.7778 46.8694 65.0003 46.3653 65.3806 45.9931C65.7609 45.6209 66.2697 45.4091 66.8018 45.4017H113.892C114.149 45.4002 114.404 45.4509 114.641 45.5508C114.878 45.6507 115.093 45.7977 115.271 45.9828C115.454 46.1726 115.597 46.3974 115.69 46.6438C115.784 46.8902 115.827 47.153 115.816 47.4163L115.766 48.8993C115.747 49.4321 115.524 49.9371 115.142 50.3095C114.761 50.6819 114.251 50.8929 113.718 50.8988ZM66.7967 45.8547C66.3835 45.8619 65.9888 46.0274 65.6939 46.317C65.399 46.6066 65.2265 46.9983 65.2119 47.4113L65.1614 48.8943C65.1529 49.0962 65.1855 49.2978 65.2571 49.4868C65.3287 49.6758 65.4379 49.8483 65.5781 49.9939C65.714 50.1346 65.8771 50.2463 66.0574 50.3222C66.2378 50.3982 66.4316 50.4368 66.6273 50.4358H113.718C114.131 50.4286 114.526 50.263 114.821 49.9731C115.116 49.6833 115.288 49.2914 115.302 48.8781L115.353 47.3962C115.362 47.1942 115.329 46.9926 115.257 46.8036C115.186 46.6146 115.077 46.4421 114.936 46.2966C114.801 46.1556 114.637 46.0437 114.457 45.9677C114.277 45.8918 114.083 45.8533 113.887 45.8547H66.7967Z" fill="#1A3A68"/>
<path id="Vector_18" d="M130.661 70.0545H64.4499C64.1926 70.0559 63.9377 70.005 63.7006 69.905C63.4635 69.8049 63.2493 69.6577 63.0708 69.4724C62.8876 69.2828 62.7448 69.058 62.6512 68.8116C62.5575 68.5651 62.5149 68.3022 62.526 68.0388C62.5446 67.5069 62.7671 67.0024 63.1474 66.63C63.5277 66.2576 64.0367 66.0457 64.5689 66.0383H130.78C131.037 66.037 131.292 66.0878 131.529 66.1879C131.767 66.2879 131.981 66.4351 132.16 66.6204C132.343 66.8101 132.485 67.035 132.579 67.2814C132.672 67.5278 132.715 67.7906 132.704 68.0539C132.685 68.5858 132.462 69.0901 132.082 69.4625C131.702 69.8348 131.193 70.0468 130.661 70.0545ZM64.5689 66.4963C64.1555 66.5036 63.7607 66.6692 63.4658 66.959C63.1709 67.2488 62.9984 67.6407 62.984 68.0539C62.9752 68.2558 63.0074 68.4574 63.0789 68.6465C63.1504 68.8355 63.2595 69.008 63.3997 69.1536C63.5356 69.2946 63.6988 69.4065 63.8794 69.4824C64.0599 69.5584 64.254 69.5968 64.4499 69.5954H130.661C131.074 69.5882 131.469 69.4227 131.763 69.1331C132.058 68.8435 132.231 68.4519 132.246 68.0388C132.254 67.8368 132.222 67.6351 132.151 67.4459C132.079 67.2567 131.97 67.084 131.83 66.9382C131.694 66.7974 131.531 66.6856 131.35 66.6097C131.17 66.5337 130.975 66.4952 130.78 66.4963H64.5689Z" fill="#1A3A68"/>
<path id="Vector_19" d="M120.999 79.2249H64.1505C63.8931 79.2264 63.6382 79.1755 63.4012 79.0755C63.1641 78.9754 62.9499 78.8282 62.7714 78.6428C62.5884 78.4531 62.4457 78.2283 62.3521 77.9819C62.2585 77.7355 62.2158 77.4727 62.2266 77.2093C62.2455 76.6772 62.4682 76.1728 62.8486 75.8004C63.2291 75.4281 63.7382 75.2162 64.2705 75.2088H121.119C121.377 75.2074 121.631 75.2584 121.868 75.3584C122.106 75.4585 122.32 75.6056 122.498 75.7909C122.681 75.9806 122.824 76.2054 122.918 76.4518C123.011 76.6982 123.054 76.961 123.043 77.2244C123.024 77.7564 122.801 78.2607 122.421 78.633C122.04 79.0053 121.532 79.2173 120.999 79.2249ZM64.2705 75.6668C63.8569 75.6738 63.4618 75.8393 63.1667 76.1291C62.8716 76.419 62.6991 76.811 62.6846 77.2244C62.6758 77.4263 62.7081 77.6279 62.7795 77.8169C62.851 78.006 62.9601 78.1785 63.1003 78.3241C63.2363 78.4651 63.3994 78.5771 63.5799 78.6532C63.7605 78.7293 63.9545 78.768 64.1505 78.7669H120.999C121.413 78.7599 121.808 78.5944 122.103 78.3046C122.398 78.0148 122.571 77.6227 122.585 77.2093C122.594 77.0073 122.561 76.8057 122.49 76.6167C122.418 76.4277 122.309 76.2552 122.168 76.1097C122.033 75.9686 121.87 75.8565 121.689 75.7804C121.509 75.7043 121.315 75.6656 121.119 75.6668H64.2705Z" fill="#1A3A68"/>
<path id="Vector_20" d="M125.135 91.7688H63.7982C63.541 91.7704 63.286 91.7197 63.049 91.6198C62.8119 91.5199 62.5977 91.3729 62.4191 91.1877C62.2361 90.9978 62.0934 90.7728 61.9998 90.5262C61.9062 90.2796 61.8635 90.0166 61.8743 89.7531C61.8934 89.2213 62.1163 88.7171 62.4967 88.3449C62.8772 87.9727 63.3861 87.761 63.9183 87.7536H125.255C125.513 87.7523 125.767 87.8032 126.005 87.9033C126.242 88.0033 126.456 88.1504 126.634 88.3357C126.818 88.5253 126.96 88.7502 127.054 88.9966C127.147 89.243 127.19 89.5059 127.179 89.7693C127.16 90.3011 126.937 90.8053 126.557 91.1775C126.176 91.5496 125.667 91.7614 125.135 91.7688ZM63.9162 88.2116C63.5027 88.2186 63.1075 88.3841 62.8124 88.6739C62.5173 88.9638 62.3448 89.3559 62.3303 89.7693C62.3218 89.9711 62.3542 90.1726 62.4257 90.3616C62.4971 90.5506 62.606 90.7231 62.746 90.8689C62.882 91.0098 63.0453 91.1216 63.2258 91.1976C63.4063 91.2735 63.6004 91.312 63.7962 91.3108H125.133C125.547 91.3038 125.942 91.1383 126.237 90.8484C126.532 90.5586 126.705 90.1665 126.719 89.7531C126.728 89.5513 126.695 89.3498 126.624 89.1608C126.552 88.9719 126.443 88.7993 126.304 88.6535C126.167 88.5128 126.004 88.4011 125.824 88.3251C125.643 88.2492 125.449 88.2106 125.253 88.2116H63.9162Z" fill="#1A3A68"/>
<path id="Vector_21" d="M98.0705 100.769H63.5684C63.3111 100.77 63.0562 100.719 62.8192 100.619C62.5822 100.519 62.3679 100.372 62.1893 100.186C62.0063 99.9968 61.8638 99.7719 61.7703 99.5255C61.6768 99.2791 61.6344 99.0162 61.6455 98.7529C61.6639 98.2209 61.8863 97.7163 62.2667 97.3438C62.647 96.9714 63.1561 96.7596 63.6884 96.7524H98.1905C98.4478 96.7511 98.7027 96.802 98.9398 96.902C99.1768 97.0021 99.3911 97.1492 99.5697 97.3345C99.7528 97.5241 99.8955 97.7489 99.9891 97.9954C100.083 98.2418 100.125 98.5046 100.114 98.768C100.095 99.3 99.8725 99.8043 99.4921 100.177C99.1117 100.549 98.6027 100.761 98.0705 100.769ZM63.6844 97.2104C63.2708 97.2174 62.8757 97.3829 62.5806 97.6727C62.2855 97.9626 62.113 98.3546 62.0985 98.768C62.0899 98.97 62.1223 99.1716 62.1939 99.3606C62.2656 99.5496 62.3749 99.7222 62.5152 99.8677C62.651 100.009 62.8141 100.12 62.9944 100.196C63.1748 100.272 63.3687 100.311 63.5643 100.31H98.0665C98.4799 100.303 98.8748 100.137 99.1699 99.8476C99.465 99.5579 99.6377 99.1661 99.6524 98.7529C99.661 98.5508 99.6285 98.3491 99.5569 98.1599C99.4853 97.9707 99.376 97.798 99.2357 97.6522C99.0998 97.5115 98.9368 97.3997 98.7564 97.3238C98.5761 97.2478 98.3822 97.2093 98.1865 97.2104H63.6844Z" fill="#1A3A68"/>
<path id="Vector_22" d="M129.237 112.362H63.0264C62.7691 112.363 62.5143 112.312 62.2772 112.212C62.0402 112.112 61.8259 111.965 61.6474 111.78C61.4643 111.59 61.3217 111.365 61.2281 111.119C61.1344 110.872 61.0918 110.61 61.1026 110.346C61.1217 109.814 61.3445 109.31 61.7249 108.938C62.1053 108.565 62.6143 108.353 63.1465 108.346H129.357C129.615 108.344 129.87 108.395 130.107 108.495C130.344 108.595 130.558 108.742 130.736 108.928C130.919 109.118 131.062 109.342 131.156 109.589C131.249 109.835 131.292 110.098 131.281 110.361C131.262 110.893 131.039 111.398 130.659 111.77C130.278 112.142 129.769 112.354 129.237 112.362ZM63.1465 108.804C62.7329 108.811 62.3378 108.976 62.0427 109.266C61.7476 109.556 61.575 109.948 61.5606 110.361C61.552 110.563 61.5844 110.765 61.6558 110.954C61.7273 111.143 61.8363 111.315 61.9763 111.461C62.1122 111.602 62.2754 111.714 62.456 111.79C62.6365 111.866 62.8305 111.905 63.0264 111.904H129.237C129.651 111.897 130.046 111.731 130.341 111.442C130.636 111.152 130.809 110.76 130.823 110.346C130.832 110.144 130.799 109.943 130.728 109.754C130.656 109.565 130.547 109.392 130.407 109.247C130.271 109.106 130.108 108.994 129.928 108.917C129.747 108.841 129.553 108.803 129.357 108.804H63.1465Z" fill="#1A3A68"/>
<path id="Vector_23" d="M119.577 121.532H62.7269C62.4696 121.534 62.2147 121.483 61.9777 121.383C61.7406 121.283 61.5264 121.136 61.3478 120.95C61.1647 120.761 61.022 120.536 60.9283 120.289C60.8347 120.043 60.7921 119.78 60.8031 119.517C60.8222 118.985 61.0449 118.48 61.4253 118.108C61.8057 117.736 62.3147 117.524 62.847 117.516H119.697C119.954 117.515 120.209 117.566 120.446 117.666C120.684 117.766 120.898 117.913 121.077 118.098C121.26 118.288 121.402 118.513 121.496 118.759C121.589 119.006 121.631 119.269 121.621 119.532C121.602 120.064 121.379 120.569 120.999 120.941C120.618 121.313 120.109 121.525 119.577 121.532ZM62.847 117.975C62.4335 117.982 62.0386 118.148 61.7435 118.437C61.4484 118.727 61.2757 119.119 61.261 119.532C61.2527 119.734 61.2853 119.936 61.3569 120.125C61.4285 120.314 61.5376 120.487 61.6777 120.633C61.8137 120.773 61.9768 120.885 62.1571 120.961C62.3374 121.037 62.5312 121.075 62.7269 121.074H119.577C119.99 121.067 120.385 120.902 120.68 120.612C120.975 120.322 121.147 119.93 121.162 119.517C121.17 119.315 121.138 119.113 121.067 118.924C120.995 118.735 120.886 118.563 120.746 118.417C120.61 118.276 120.447 118.164 120.266 118.088C120.086 118.012 119.892 117.974 119.696 117.975H62.847Z" fill="#1A3A68"/>
<path id="Vector_24" d="M127.099 134.077H62.2307C61.9734 134.079 61.7185 134.028 61.4814 133.928C61.2444 133.828 61.0301 133.68 60.8516 133.495C60.6687 133.305 60.5261 133.08 60.4325 132.834C60.3388 132.588 60.2961 132.325 60.3068 132.062C60.3256 131.53 60.5484 131.025 60.9288 130.653C61.3093 130.28 61.8184 130.068 62.3507 130.061H127.219C127.476 130.06 127.731 130.111 127.968 130.211C128.205 130.311 128.419 130.458 128.598 130.643C128.781 130.833 128.924 131.058 129.017 131.304C129.111 131.55 129.154 131.813 129.143 132.077C129.123 132.609 128.901 133.113 128.52 133.485C128.14 133.858 127.631 134.07 127.099 134.077ZM62.3537 130.519C61.9401 130.526 61.5451 130.692 61.25 130.981C60.9549 131.271 60.7823 131.663 60.7679 132.077C60.7592 132.279 60.7916 132.48 60.8631 132.669C60.9345 132.858 61.0435 133.031 61.1835 133.176C61.3195 133.317 61.4826 133.429 61.6632 133.505C61.8437 133.582 62.0378 133.62 62.2337 133.619H127.102C127.515 133.612 127.91 133.447 128.205 133.157C128.501 132.867 128.673 132.475 128.688 132.062C128.696 131.86 128.664 131.658 128.592 131.469C128.521 131.28 128.412 131.107 128.272 130.961C128.136 130.82 127.973 130.709 127.792 130.633C127.612 130.557 127.418 130.518 127.222 130.519H62.3537Z" fill="#1A3A68"/>
<path id="Vector_25" d="M96.6681 142.45H62.166C61.9087 142.452 61.6538 142.401 61.4167 142.301C61.1796 142.201 60.9654 142.054 60.7869 141.868C60.6038 141.679 60.4611 141.454 60.3674 141.207C60.2738 140.961 60.2312 140.698 60.2422 140.435C60.2608 139.903 60.4832 139.398 60.8635 139.026C61.2438 138.654 61.7528 138.442 62.2851 138.434H96.7872C97.0445 138.433 97.2994 138.484 97.5364 138.584C97.7735 138.684 97.9878 138.831 98.1662 139.016C98.3493 139.206 98.492 139.431 98.5857 139.677C98.6793 139.924 98.722 140.187 98.711 140.45C98.6922 140.982 98.4696 141.486 98.0893 141.858C97.7091 142.231 97.2003 142.443 96.6681 142.45ZM62.282 138.892C61.8686 138.9 61.4737 139.065 61.1788 139.355C60.8839 139.645 60.7115 140.037 60.6971 140.45C60.6883 140.652 60.7205 140.853 60.792 141.042C60.8635 141.231 60.9726 141.404 61.1128 141.55C61.2487 141.691 61.4119 141.802 61.5925 141.878C61.773 141.954 61.9671 141.993 62.163 141.991H96.6651C97.0785 141.984 97.4735 141.819 97.7686 141.529C98.0636 141.24 98.2363 140.848 98.251 140.435C98.2597 140.233 98.2274 140.031 98.1559 139.842C98.0845 139.653 97.9754 139.48 97.8353 139.334C97.6992 139.193 97.536 139.082 97.3555 139.006C97.175 138.93 96.981 138.891 96.7851 138.892H62.282Z" fill="#1A3A68"/>
<path id="Vector_26" d="M128.034 154.461H61.823C61.5657 154.462 61.3107 154.411 61.0737 154.311C60.8366 154.211 60.6224 154.064 60.4439 153.879C60.2606 153.689 60.1177 153.464 60.0241 153.218C59.9304 152.971 59.8879 152.708 59.8991 152.445C59.9179 151.913 60.1407 151.409 60.5211 151.036C60.9016 150.664 61.4107 150.452 61.943 150.445H128.154C128.411 150.443 128.666 150.494 128.903 150.594C129.14 150.694 129.354 150.841 129.533 151.027C129.716 151.216 129.858 151.441 129.952 151.688C130.045 151.934 130.088 152.197 130.077 152.46C130.058 152.992 129.836 153.497 129.456 153.869C129.075 154.242 128.566 154.454 128.034 154.461ZM61.943 150.904C61.5296 150.911 61.1346 151.076 60.8396 151.366C60.5445 151.655 60.3718 152.047 60.3571 152.46C60.3484 152.662 60.3807 152.864 60.4521 153.053C60.5236 153.242 60.6326 153.415 60.7728 153.561C60.9089 153.702 61.0721 153.813 61.2526 153.889C61.4331 153.965 61.6271 154.004 61.823 154.003H128.034C128.447 153.996 128.842 153.83 129.138 153.54C129.433 153.251 129.605 152.858 129.62 152.445C129.628 152.243 129.596 152.041 129.524 151.852C129.453 151.663 129.343 151.491 129.203 151.345C129.067 151.205 128.904 151.093 128.724 151.017C128.543 150.941 128.349 150.902 128.154 150.904H61.943Z" fill="#1A3A68"/>
<path id="Vector_27" d="M118.372 163.631H61.5236C61.2664 163.632 61.0117 163.581 60.7746 163.482C60.5376 163.382 60.3233 163.235 60.1446 163.05C59.9615 162.86 59.8189 162.635 59.7252 162.388C59.6316 162.142 59.5889 161.879 59.5998 161.615C59.6189 161.083 59.8417 160.579 60.2221 160.207C60.6026 159.835 61.1115 159.623 61.6437 159.616H118.492C118.75 159.614 119.005 159.665 119.242 159.765C119.479 159.865 119.693 160.012 119.872 160.197C120.055 160.387 120.197 160.612 120.291 160.858C120.385 161.105 120.427 161.368 120.416 161.631C120.397 162.163 120.174 162.667 119.794 163.04C119.414 163.412 118.905 163.624 118.372 163.631ZM61.6437 160.074C61.2301 160.081 60.835 160.246 60.5399 160.536C60.2448 160.826 60.0722 161.218 60.0578 161.631C60.0493 161.833 60.0817 162.035 60.1531 162.224C60.2245 162.413 60.3335 162.585 60.4735 162.731C60.6095 162.872 60.7727 162.984 60.9532 163.06C61.1337 163.136 61.3278 163.174 61.5236 163.173H118.372C118.786 163.166 119.181 163 119.476 162.711C119.771 162.421 119.944 162.029 119.958 161.615C119.967 161.413 119.934 161.212 119.863 161.023C119.791 160.834 119.683 160.661 119.543 160.516C119.407 160.375 119.243 160.263 119.063 160.187C118.882 160.111 118.688 160.073 118.492 160.074H61.6437Z" fill="#1A3A68"/>
<path id="Vector_28" d="M117.326 82.9433H73.896C73.6584 82.9407 73.4237 82.8913 73.2052 82.7979C72.9868 82.7046 72.7889 82.5691 72.6228 82.3993C72.4567 82.2294 72.3257 82.0285 72.2372 81.8081C72.1488 81.5876 72.1046 81.3518 72.1073 81.1143V57.8657C72.1022 57.3861 72.2877 56.924 72.6231 56.581C72.9585 56.2381 73.4163 56.0423 73.896 56.0367H117.258C117.525 56.0373 117.788 56.0982 118.029 56.2149C118.269 56.3316 118.48 56.501 118.646 56.7106L128.573 69.1748C128.846 69.5201 128.988 69.9512 128.974 70.3914C128.959 70.8316 128.789 71.2524 128.493 71.5788L118.639 82.3592C118.473 82.5429 118.27 82.6897 118.044 82.7903C117.818 82.891 117.574 82.9431 117.326 82.9433Z" fill="white"/>
<path id="Vector_29" d="M117.326 83.1735H73.8957C73.3553 83.1674 72.8393 82.9472 72.4611 82.5612C72.0828 82.1752 71.8732 81.6549 71.878 81.1145V57.8659C71.8732 57.3256 72.0829 56.8054 72.4612 56.4196C72.8395 56.0338 73.3554 55.8138 73.8957 55.8079H117.257C117.559 55.808 117.857 55.8764 118.128 56.0082C118.4 56.1399 118.637 56.3315 118.824 56.5686L128.752 69.0317C129.058 69.4205 129.216 69.9048 129.2 70.3991C129.183 70.8934 128.992 71.3659 128.661 71.7334L118.808 82.5138C118.62 82.7208 118.392 82.8865 118.137 83.0001C117.881 83.1137 117.605 83.1728 117.326 83.1735ZM73.8957 56.27C73.4768 56.2758 73.0774 56.4475 72.785 56.7475C72.4926 57.0474 72.3312 57.4511 72.336 57.87V81.1145C72.3312 81.5333 72.4926 81.937 72.785 82.237C73.0774 82.5369 73.4768 82.7087 73.8957 82.7145H117.326C117.54 82.714 117.752 82.6689 117.948 82.582C118.144 82.4952 118.32 82.3685 118.464 82.2101L128.318 71.4287C128.577 71.1422 128.725 70.7737 128.738 70.3882C128.751 70.0027 128.627 69.6251 128.388 69.3223L118.461 56.8571C118.317 56.6737 118.133 56.5254 117.923 56.4235C117.714 56.3216 117.483 56.2688 117.25 56.2689L73.8957 56.27Z" fill="#1A3A68"/>
<path id="Vector_30" d="M87.4505 70.5922H82.2782V74.1726H88.3494V76.386H79.5836V63.0169H88.3312V65.2484H82.2782V68.4344H87.4505V70.5922Z" fill="#1A3A68"/>
<path id="Vector_31" d="M94.6091 67.6263L97.0606 63.0169H100.159L96.3513 69.646L100.258 76.386H97.1231L94.6091 71.703L92.0941 76.386H88.9596L92.8668 69.646L89.0585 63.0169H92.1556L94.6091 67.6263Z" fill="#1A3A68"/>
<path id="Vector_32" d="M104.478 76.386H101.785V63.0169H104.478V76.386Z" fill="#1A3A68"/>
<path id="Vector_33" d="M116.558 65.2484H112.553V76.386H109.858V65.2484H105.907V63.0169H116.558V65.2484Z" fill="#1A3A68"/>
<path id="Vector_34" d="M156.675 179.928V186.173L159.675 185.99L160.266 179.928H156.675Z" fill="white"/>
<path id="Vector_35" d="M156.674 186.402C156.613 186.402 156.555 186.378 156.512 186.335C156.469 186.292 156.445 186.234 156.445 186.173V179.929C156.445 179.868 156.469 179.81 156.512 179.767C156.555 179.724 156.613 179.7 156.674 179.7H160.266C160.298 179.7 160.33 179.706 160.359 179.719C160.388 179.732 160.414 179.751 160.436 179.775C160.457 179.799 160.473 179.826 160.484 179.857C160.494 179.887 160.497 179.919 160.494 179.951L159.903 186.013C159.898 186.067 159.873 186.118 159.834 186.156C159.795 186.194 159.743 186.216 159.689 186.22L156.688 186.402H156.674ZM156.903 180.158V185.93L159.466 185.774L160.013 180.158H156.903Z" fill="#1A3A68"/>
<path id="Vector_36" d="M160.126 193.957C158.903 194.089 155.532 194.191 154.577 193.772C153.732 193.403 152.987 191.67 153.415 191.023C154.484 189.409 155.209 186.594 155.836 184.399C155.844 184.371 155.86 184.346 155.882 184.327C155.903 184.307 155.93 184.295 155.959 184.29C155.988 184.286 156.017 184.29 156.044 184.302C156.07 184.314 156.093 184.333 156.109 184.357L156.75 185.326L157.217 184.19C157.255 184.127 157.306 184.075 157.368 184.036C157.429 183.997 157.499 183.973 157.571 183.966L158.625 183.947C158.865 183.924 159.124 184.158 159.268 184.378L160.026 185.326L160.448 184.551C160.463 184.523 160.487 184.5 160.516 184.487C160.545 184.473 160.578 184.469 160.61 184.475C160.641 184.481 160.67 184.497 160.692 184.52C160.714 184.544 160.728 184.574 160.732 184.606L161.614 191.887C161.636 193.06 160.836 193.884 160.126 193.957Z" fill="white"/>
<path id="Vector_37" d="M157.519 194.302C156.293 194.302 155.035 194.227 154.481 193.985C153.858 193.712 153.363 192.875 153.17 192.218C153.006 191.666 153.024 191.198 153.222 190.9C154.162 189.475 154.83 187.112 155.419 185.027C155.486 184.792 155.551 184.563 155.615 184.339C155.636 184.27 155.676 184.207 155.731 184.16C155.786 184.112 155.853 184.081 155.925 184.071C155.997 184.06 156.07 184.07 156.137 184.1C156.203 184.13 156.259 184.178 156.299 184.238L156.703 184.844L157.005 184.107C157.005 184.097 157.015 184.087 157.02 184.077C157.076 183.984 157.153 183.905 157.245 183.847C157.337 183.789 157.442 183.753 157.55 183.743L158.62 183.723C158.955 183.69 159.285 183.99 159.46 184.258L159.989 184.918L160.247 184.447C160.285 184.376 160.345 184.319 160.418 184.284C160.491 184.25 160.573 184.239 160.653 184.255C160.732 184.27 160.804 184.31 160.86 184.369C160.915 184.428 160.949 184.503 160.959 184.583L161.842 191.865C161.871 193.153 160.991 194.101 160.153 194.19C159.616 194.246 158.579 194.302 157.519 194.302ZM156.008 184.627C155.958 184.798 155.907 184.974 155.858 185.151C155.26 187.27 154.582 189.668 153.602 191.152C153.484 191.33 153.487 191.681 153.608 192.089C153.804 192.753 154.258 193.387 154.665 193.565C155.508 193.933 158.709 193.882 160.1 193.732C160.724 193.666 161.404 192.895 161.382 191.895L160.53 184.876L160.227 185.438C160.209 185.471 160.183 185.499 160.152 185.52C160.12 185.541 160.084 185.553 160.046 185.557C160.009 185.56 159.971 185.554 159.936 185.539C159.901 185.524 159.871 185.501 159.847 185.471L159.09 184.524C158.951 184.314 158.758 184.169 158.646 184.178L157.575 184.198C157.544 184.203 157.515 184.215 157.488 184.233C157.462 184.25 157.439 184.272 157.422 184.299L156.962 185.417C156.946 185.455 156.92 185.488 156.886 185.513C156.853 185.538 156.814 185.554 156.772 185.558C156.731 185.562 156.689 185.555 156.652 185.537C156.614 185.519 156.582 185.492 156.559 185.457L156.008 184.627Z" fill="#1A3A68"/>
<path id="Vector_38" d="M157.629 192.911C156.728 192.912 155.83 192.798 154.958 192.569C154.9 192.553 154.852 192.514 154.823 192.462C154.793 192.41 154.785 192.349 154.8 192.291C154.816 192.234 154.852 192.184 154.904 192.154C154.955 192.123 155.016 192.113 155.074 192.126C157.883 192.866 160.253 192.101 160.276 192.093C160.334 192.074 160.397 192.079 160.451 192.106C160.505 192.133 160.547 192.181 160.566 192.238C160.585 192.296 160.58 192.359 160.553 192.413C160.526 192.468 160.478 192.509 160.42 192.528C160.353 192.551 159.237 192.911 157.629 192.911Z" fill="#1A3A68"/>
<path id="Vector_39" d="M158.932 189.64H156.193C156.133 189.64 156.074 189.616 156.031 189.573C155.989 189.53 155.964 189.471 155.964 189.411C155.964 189.35 155.989 189.292 156.031 189.249C156.074 189.206 156.133 189.182 156.193 189.182H158.932C158.993 189.182 159.051 189.206 159.094 189.249C159.137 189.292 159.161 189.35 159.161 189.411C159.161 189.471 159.137 189.53 159.094 189.573C159.051 189.616 158.993 189.64 158.932 189.64Z" fill="#1A3A68"/>
<path id="Vector_40" d="M178.749 176.624L179.636 184.154L182.449 184.055V176.624H178.749Z" fill="white"/>
<path id="Vector_41" d="M179.635 184.383C179.58 184.383 179.526 184.362 179.484 184.325C179.442 184.288 179.415 184.236 179.409 184.181L178.521 176.651C178.517 176.619 178.52 176.586 178.53 176.556C178.54 176.525 178.556 176.497 178.577 176.472C178.599 176.448 178.625 176.428 178.655 176.415C178.684 176.402 178.716 176.395 178.749 176.395H182.446C182.507 176.395 182.565 176.419 182.608 176.462C182.651 176.506 182.675 176.564 182.675 176.625V184.056C182.675 184.115 182.652 184.172 182.611 184.215C182.569 184.258 182.513 184.283 182.453 184.285L179.641 184.386L179.635 184.383ZM179.006 176.854L179.838 183.916L182.219 183.833V176.852L179.006 176.854Z" fill="#1A3A68"/>
<path id="Vector_42" d="M178.714 182.362C178.714 182.362 178.602 185.701 178.714 187.046C178.793 188.008 180.113 190.916 180.856 192.494C181.01 192.81 181.23 193.089 181.501 193.312C181.773 193.535 182.089 193.697 182.429 193.786C183.618 194.058 184.194 194.043 185.288 193.865C186.762 193.625 187.22 192.276 186.785 190.983C186.382 189.791 185.717 188.48 184.614 186.866C183.815 185.697 183.086 182.234 183.086 182.234H180.794L180.146 184.151L178.714 182.362Z" fill="white"/>
<path id="Vector_43" d="M183.99 194.222C183.447 194.213 182.908 194.141 182.382 194.008C182.007 193.912 181.659 193.735 181.36 193.49C181.062 193.245 180.82 192.938 180.652 192.59C179.708 190.589 178.566 188.007 178.489 187.065C178.377 185.722 178.482 182.491 178.489 182.355C178.491 182.309 178.507 182.265 178.535 182.228C178.562 182.192 178.6 182.164 178.644 182.15C178.687 182.135 178.734 182.134 178.779 182.146C178.823 182.158 178.862 182.184 178.892 182.219L180.062 183.683L180.577 182.159C180.592 182.114 180.621 182.074 180.66 182.046C180.699 182.018 180.746 182.003 180.794 182.003H183.086C183.138 182.003 183.189 182.021 183.23 182.055C183.271 182.088 183.299 182.134 183.31 182.185C183.317 182.219 184.039 185.616 184.804 186.735C185.871 188.298 186.57 189.624 187.002 190.908C187.27 191.707 187.217 192.51 186.855 193.111C186.536 193.64 186.007 193.978 185.324 194.09C184.884 194.17 184.437 194.214 183.99 194.222ZM178.927 182.994C178.902 184.023 178.865 186.061 178.945 187.029C179.001 187.702 179.774 189.658 181.063 192.396C181.201 192.68 181.399 192.932 181.642 193.133C181.886 193.334 182.17 193.481 182.475 193.563C183.628 193.826 184.177 193.813 185.246 193.639C185.791 193.55 186.21 193.287 186.456 192.877C186.749 192.391 186.787 191.727 186.562 191.056C186.144 189.813 185.463 188.523 184.419 186.996C183.702 185.945 183.06 183.203 182.895 182.464H180.952L180.357 184.228C180.344 184.267 180.32 184.302 180.289 184.329C180.258 184.356 180.22 184.373 180.179 184.381C180.139 184.388 180.097 184.384 180.059 184.37C180.02 184.355 179.987 184.33 179.961 184.298L178.927 182.994Z" fill="#1A3A68"/>
<path id="Vector_44" d="M184.347 192.836C184.156 192.837 183.966 192.826 183.777 192.804C183.111 192.718 182.497 192.401 182.042 191.907C181.739 191.591 181.482 191.236 181.277 190.85C180.99 190.273 180.7 189.619 180.488 189.14C180.344 188.814 180.195 188.479 180.15 188.403C180.113 188.359 180.094 188.304 180.096 188.247C180.098 188.19 180.121 188.136 180.161 188.095C180.2 188.054 180.254 188.03 180.311 188.026C180.367 188.023 180.423 188.04 180.468 188.076C180.54 188.135 180.576 188.208 180.907 188.955C181.118 189.429 181.405 190.079 181.688 190.648C181.873 190.994 182.106 191.313 182.379 191.596C182.76 192.011 183.276 192.278 183.835 192.35C184.155 192.392 184.985 192.411 185.507 192.207C185.535 192.194 185.566 192.188 185.597 192.187C185.628 192.187 185.659 192.192 185.687 192.204C185.716 192.216 185.742 192.233 185.764 192.255C185.786 192.277 185.803 192.303 185.814 192.332C185.825 192.361 185.831 192.392 185.83 192.423C185.829 192.454 185.822 192.484 185.809 192.512C185.796 192.541 185.777 192.566 185.754 192.586C185.731 192.607 185.704 192.623 185.674 192.633C185.271 192.793 184.752 192.836 184.347 192.836Z" fill="#1A3A68"/>
<path id="Vector_45" d="M184.826 189.733H182.317C182.256 189.733 182.198 189.708 182.155 189.665C182.112 189.623 182.088 189.564 182.088 189.504C182.088 189.443 182.112 189.385 182.155 189.342C182.198 189.299 182.256 189.275 182.317 189.275H184.826C184.887 189.275 184.945 189.299 184.988 189.342C185.031 189.385 185.055 189.443 185.055 189.504C185.055 189.564 185.031 189.623 184.988 189.665C184.945 189.708 184.887 189.733 184.826 189.733Z" fill="#1A3A68"/>
<path id="Vector_46" d="M151.853 117.494C151.853 117.494 152.156 140.473 153.116 155.433C153.946 168.298 155.468 178.558 155.879 181.18C155.908 181.373 156 181.552 156.14 181.689C156.28 181.827 156.46 181.915 156.654 181.941C157.438 182.042 158.794 182.154 160.099 181.909C160.275 181.876 160.439 181.793 160.569 181.668C160.698 181.543 160.788 181.383 160.828 181.208C161.396 178.635 163.717 167.877 163.717 163.767C163.717 159.313 162.919 158.196 162.828 154.567C162.761 151.849 163.67 142.182 164.132 137.494C164.145 137.363 164.202 137.241 164.294 137.147C164.386 137.053 164.507 136.993 164.637 136.978C164.768 136.962 164.9 136.992 165.011 137.061C165.123 137.13 165.207 137.236 165.251 137.36C166.729 141.61 169.88 150.796 172.83 160.225C172.981 160.708 173.73 164.828 173.877 165.305C175.705 171.195 177.425 175.917 178.056 178.687C178.106 178.906 178.22 179.105 178.384 179.259C178.548 179.413 178.754 179.514 178.976 179.55C179.851 179.691 181.319 179.82 182.622 179.408C182.85 179.334 183.049 179.189 183.189 178.994C183.329 178.798 183.402 178.564 183.399 178.323C183.372 175.277 183.26 163.952 183.002 162.05C182.449 157.97 179.269 153.954 178.695 149.621C178.121 145.288 177.792 134.415 176.218 127.893C174.643 121.371 171.557 114.043 171.557 114.043L151.853 117.494Z" fill="#1A3A68"/>
<path id="Vector_47" d="M162.313 72.9984C160.525 72.382 158.116 73.5804 157.785 76.3658C157.515 78.6418 159.718 79.7797 160.565 81.1901C163.301 85.751 161.255 97.512 165.865 102.065C169.544 105.697 177.523 107.024 183.015 102.76C188.238 98.7044 190.66 91.5518 186.988 87.1472C183.688 83.1876 180.186 86.3603 176.586 82.5459C173.037 78.786 174.733 76.152 172.396 74.4138C169.203 72.0339 167.376 74.7446 162.313 72.9984Z" fill="#1A3A68"/>
<path id="Vector_48" d="M172.873 126.028C172.844 126.028 172.814 126.022 172.787 126.01C168.585 124.286 167.376 120.287 167.327 120.118C167.318 120.089 167.316 120.059 167.319 120.029C167.322 119.999 167.331 119.97 167.346 119.944C167.36 119.917 167.38 119.894 167.403 119.875C167.427 119.856 167.454 119.842 167.483 119.834C167.512 119.825 167.542 119.823 167.572 119.826C167.602 119.829 167.631 119.839 167.657 119.853C167.683 119.867 167.707 119.887 167.725 119.91C167.744 119.934 167.758 119.961 167.767 119.99C167.779 120.029 168.968 123.949 172.96 125.587C173.009 125.607 173.05 125.643 173.075 125.69C173.1 125.737 173.108 125.791 173.098 125.843C173.088 125.895 173.06 125.942 173.019 125.975C172.978 126.009 172.926 126.028 172.873 126.028Z" fill="white"/>
<path id="Vector_49" d="M134.022 70.097L135.187 73.2577C135.375 73.7404 135.445 74.2606 135.394 74.7758C135.342 75.291 135.169 75.7867 134.89 76.2226L133.847 77.8923C133.674 78.1687 133.639 78.4975 133.65 78.8204C133.672 79.5498 133.839 80.6564 133.839 80.6564L131.162 80.835C131.162 80.835 131.385 79.4085 131.496 78.9182C131.637 78.2887 131.608 77.6068 131.308 77.0388C130.354 75.2229 130.512 73.3424 130.512 73.3424L132.371 73.7399C132.371 73.7399 132.89 72.7452 132.698 71.0645C132.65 70.7404 132.668 70.4102 132.749 70.093C132.936 69.4675 133.832 69.4725 134.022 70.097Z" fill="white"/>
<path id="Vector_50" d="M131.165 81.0689C131.132 81.0691 131.099 81.062 131.069 81.0481C131.039 81.0343 131.012 81.014 130.99 80.9888C130.969 80.9635 130.953 80.9338 130.944 80.9019C130.935 80.8699 130.934 80.8364 130.939 80.8036C130.948 80.7451 131.164 79.364 131.275 78.8707C131.418 78.2371 131.359 77.6258 131.109 77.1486C130.507 75.9675 130.224 74.6501 130.286 73.3261C130.289 73.2937 130.298 73.2622 130.314 73.2338C130.33 73.2055 130.352 73.1808 130.378 73.1617C130.404 73.1423 130.434 73.1287 130.466 73.1218C130.498 73.1148 130.531 73.1147 130.563 73.1213L132.237 73.4795C132.363 73.1466 132.612 72.3042 132.472 71.0936C132.423 70.739 132.443 70.3781 132.532 70.0313C132.583 69.8484 132.693 69.6875 132.845 69.5733C132.997 69.4592 133.182 69.3982 133.372 69.3998H133.381C133.574 69.3969 133.761 69.4565 133.917 69.5697C134.072 69.6829 134.186 69.8435 134.242 70.0272L135.405 73.1829C135.604 73.6988 135.679 74.2543 135.623 74.8044C135.567 75.3545 135.383 75.8838 135.085 76.3496L134.044 78.0172C133.922 78.2129 133.871 78.4671 133.881 78.8172C133.904 79.5234 134.066 80.616 134.067 80.6271C134.072 80.6583 134.07 80.6902 134.062 80.7207C134.054 80.7513 134.039 80.7797 134.019 80.8044C134 80.829 133.975 80.8493 133.947 80.8639C133.919 80.8785 133.888 80.8872 133.857 80.8894L131.18 81.0679L131.165 81.0689ZM130.734 73.6268C130.734 74.1937 130.808 75.591 131.514 76.9357C131.817 77.5088 131.888 78.2311 131.722 78.9716C131.644 79.3176 131.507 80.1519 131.436 80.5918L133.579 80.4485C133.529 80.0773 133.44 79.363 133.424 78.8344C133.415 78.5539 133.429 78.1403 133.656 77.7771L134.698 76.1075C134.958 75.7018 135.119 75.2406 135.167 74.7612C135.215 74.2818 135.15 73.7978 134.976 73.3483L133.81 70.1735C133.81 70.1735 133.81 70.1665 133.81 70.1624C133.785 70.0692 133.729 69.9874 133.65 69.9308C133.572 69.8742 133.477 69.8463 133.38 69.8517C133.289 69.8504 133.2 69.8794 133.127 69.9342C133.054 69.989 133.001 70.0664 132.977 70.1544C132.905 70.4423 132.89 70.7415 132.934 71.0351C133.135 72.7662 132.605 73.7993 132.581 73.8427C132.558 73.8869 132.521 73.9224 132.476 73.9437C132.431 73.965 132.38 73.971 132.331 73.9607L130.734 73.6268Z" fill="#1A3A68"/>
<path id="Vector_51" d="M165.512 89.8621C161.886 88.4205 155.323 88.3166 150.572 90.1345C147.452 91.0879 142.651 92.3903 139.348 89.3275C135.025 85.3153 134.54 79.7173 134.54 79.7173L130.504 79.573C130.504 79.573 128.069 86.2909 131.327 93.8127C134.354 100.81 146.468 103.124 148.593 103.479L148.75 106.739C148.817 108.167 148.829 109.595 148.784 111.023C148.631 115.723 148.487 127.467 150.802 129.32C156.226 133.666 174.876 131.578 176.803 126.082C178.904 120.061 173.21 92.9249 165.512 89.8621Z" fill="white"/>
<path id="Vector_52" d="M160.704 131.886C156.576 131.886 152.721 131.154 150.652 129.496C148.359 127.659 148.353 117.127 148.552 111.013C148.599 109.601 148.588 108.169 148.518 106.747L148.37 103.672C145.621 103.193 134.103 100.8 131.119 93.9013C127.861 86.3815 130.265 79.5598 130.291 79.4912C130.307 79.4455 130.337 79.4063 130.377 79.3792C130.417 79.3522 130.465 79.3387 130.514 79.3409L134.549 79.4851C134.605 79.4871 134.658 79.5094 134.698 79.5479C134.739 79.5864 134.764 79.6383 134.769 79.6939C134.769 79.7484 135.3 85.2536 139.504 89.1568C142.844 92.2569 147.828 90.7336 150.506 89.9144C155.531 87.9976 162.129 88.27 165.598 89.6491C173.554 92.8148 179.106 120.18 177.013 126.155C176.38 127.96 173.979 129.541 170.254 130.61C167.393 131.429 163.963 131.886 160.704 131.886ZM130.665 79.8049C130.334 80.8541 128.624 86.9989 131.534 93.7187C134.5 100.565 146.294 102.86 148.627 103.25C148.679 103.259 148.726 103.285 148.761 103.324C148.795 103.363 148.816 103.413 148.819 103.465L148.976 106.725C149.046 108.159 149.058 109.608 149.01 111.027C148.68 121.136 149.4 127.906 150.938 129.138C154.477 131.973 163.889 131.957 170.123 130.17C173.705 129.143 175.997 127.663 176.58 126.002C177.596 123.104 176.749 114.905 174.611 106.921C172.133 97.6744 168.7 91.3772 165.43 90.0738C162.045 88.727 155.592 88.4597 150.657 90.3472C147.877 91.1977 142.728 92.7684 139.196 89.4917C135.322 85.8962 134.478 80.9842 134.338 79.935L130.665 79.8049Z" fill="#1A3A68"/>
<path id="Vector_53" d="M151.576 104.396C151.149 104.869 151.987 105.523 152.322 106.06C152.529 106.389 152.271 106.624 151.919 106.473C150.883 106.039 147.471 104.533 146.716 105.474C146.453 105.803 146.629 106.494 147.158 107.14C148.268 108.494 151.671 110.14 153.582 110.58C154.715 110.841 156.556 111.892 156.753 111.834C157.593 111.607 157.496 110.566 157.674 109.587C157.691 109.486 156.148 108.546 154.524 106.2C153.668 104.978 151.966 103.96 151.576 104.396Z" fill="white"/>
<path id="Vector_54" d="M156.726 112.066C156.582 112.066 156.354 111.966 155.686 111.663C155.038 111.36 154.151 110.957 153.522 110.807C151.471 110.335 148.092 108.661 146.972 107.29C146.366 106.546 146.187 105.76 146.529 105.333C147.257 104.426 149.62 105.261 151.835 106.197L151.998 106.266C152.099 106.31 152.158 106.292 152.166 106.286C152.16 106.25 152.146 106.215 152.125 106.185C152.025 106.037 151.917 105.896 151.8 105.761C151.424 105.306 150.956 104.74 151.401 104.248C151.468 104.18 151.549 104.129 151.639 104.098C151.729 104.067 151.825 104.058 151.919 104.071C152.684 104.121 154.011 105.08 154.702 106.075C155.5 107.239 156.461 108.282 157.554 109.174C157.835 109.406 157.919 109.477 157.89 109.632C157.854 109.834 157.829 110.046 157.805 110.25C157.711 111.032 157.613 111.842 156.805 112.065C156.779 112.069 156.752 112.069 156.726 112.066ZM147.575 105.39C147.238 105.39 147.008 105.465 146.887 105.617C146.719 105.825 146.838 106.398 147.327 106.996C148.363 108.263 151.656 109.904 153.625 110.356C154.299 110.512 155.212 110.935 155.879 111.243C156.152 111.378 156.431 111.499 156.717 111.604C157.174 111.46 157.256 110.969 157.35 110.192C157.37 110.017 157.392 109.838 157.421 109.657L157.262 109.523C156.135 108.606 155.147 107.531 154.326 106.332C153.663 105.376 152.452 104.563 151.889 104.526C151.802 104.52 151.757 104.536 151.741 104.553C151.574 104.738 151.796 105.035 152.153 105.468C152.283 105.617 152.403 105.775 152.513 105.94C152.684 106.213 152.626 106.45 152.513 106.581C152.363 106.759 152.09 106.8 151.82 106.682L151.656 106.613C149.726 105.8 148.36 105.39 147.575 105.39Z" fill="#1A3A68"/>
<path id="Vector_55" d="M155.819 112.673L158.131 108.83C158.131 108.83 164.713 110.747 167.331 109.6C171.904 107.588 171.039 100.559 170.256 97.0611C169.474 93.5635 165.086 90.1657 165.086 90.1657C165.086 90.1657 172.76 92.6363 176.059 98.1416C179.118 103.246 181.062 115.969 171.535 118.081C165.305 119.464 155.819 112.673 155.819 112.673Z" fill="white"/>
<path id="Vector_56" d="M169.721 118.497C163.64 118.497 156.039 113.111 155.686 112.857C155.64 112.824 155.608 112.774 155.596 112.718C155.584 112.662 155.594 112.604 155.624 112.555L157.932 108.711C157.958 108.668 157.998 108.635 158.045 108.617C158.093 108.598 158.144 108.596 158.193 108.61C158.258 108.629 164.724 110.495 167.236 109.39C169.644 108.33 170.789 105.709 170.638 101.599C170.636 101.538 170.658 101.479 170.699 101.434C170.74 101.39 170.798 101.363 170.858 101.361C170.919 101.359 170.978 101.381 171.023 101.422C171.067 101.464 171.094 101.521 171.096 101.582C171.252 105.838 169.981 108.683 167.421 109.809C164.964 110.89 159.312 109.399 158.234 109.102L156.123 112.611C157.305 113.418 164.274 118.041 169.742 118.041C170.328 118.045 170.912 117.985 171.484 117.862C174.304 117.237 176.29 115.626 177.388 113.075C179.483 108.205 177.717 101.358 175.863 98.2636C172.646 92.8946 165.091 90.4129 165.016 90.3876C164.96 90.3678 164.913 90.3267 164.887 90.2733C164.86 90.2199 164.856 90.1583 164.874 90.1016C164.892 90.0449 164.932 89.9975 164.985 89.9695C165.037 89.9416 165.099 89.9352 165.156 89.9518C165.234 89.977 172.951 92.5132 176.253 98.0225C178.157 101.198 179.966 108.234 177.807 113.256C176.648 115.95 174.553 117.65 171.582 118.309C170.97 118.439 170.346 118.502 169.721 118.497Z" fill="#1A3A68"/>
<path id="Vector_57" d="M169.78 118.497C163.687 118.497 156.039 112.88 155.685 112.616C155.639 112.583 155.607 112.533 155.596 112.477C155.585 112.421 155.595 112.362 155.624 112.314L157.743 108.765C157.769 108.722 157.808 108.689 157.855 108.671C157.901 108.653 157.952 108.65 158 108.664C158.068 108.683 164.727 110.502 167.24 109.396C171.326 107.598 170.878 101.575 170.246 98.1435C170.236 98.0837 170.249 98.022 170.283 97.972C170.318 97.922 170.371 97.8877 170.431 97.8767C170.49 97.8657 170.552 97.879 170.602 97.9135C170.652 97.948 170.686 98.001 170.697 98.0608C171.352 101.625 171.798 107.891 167.425 109.815C164.965 110.897 159.139 109.439 158.048 109.151L156.131 112.371C157.425 113.292 165.882 119.108 171.493 117.864C172.637 117.626 173.725 117.174 174.702 116.533C174.752 116.498 174.814 116.486 174.873 116.497C174.933 116.509 174.986 116.543 175.02 116.594C175.054 116.644 175.067 116.706 175.055 116.765C175.044 116.825 175.009 116.878 174.959 116.912C173.935 117.586 172.793 118.061 171.593 118.311C170.998 118.439 170.39 118.501 169.78 118.497Z" fill="#1A3A68"/>
<path id="Vector_58" d="M163.861 82.0517C163.823 82.0556 163.784 82.0511 163.748 82.0385C163.712 82.026 163.679 82.0056 163.651 81.979C163.623 81.9523 163.601 81.9199 163.587 81.884C163.573 81.8481 163.567 81.8097 163.57 81.7713C163.614 80.9864 163.79 79.5105 163.011 78.892C162.011 78.0991 160.354 76.8986 159.776 77.7127C159.271 78.427 158.793 79.8474 157.512 80.4315C157.389 80.487 157.386 80.6686 157.448 80.7887L157.757 81.4686C157.827 81.6028 157.787 81.9246 157.736 82.0678C157.576 82.5097 157.203 83.4338 157.294 83.6194C157.47 83.9806 158.931 84.5688 158.931 84.5688L158.21 89.0288C158.182 89.1983 158.084 89.4818 157.917 89.4485L156.18 89.6664C156.18 89.6664 156.409 92.0523 160.15 92.5254C165.039 93.1449 165.577 91.0505 165.577 91.0505C165.577 91.0505 160.771 90.0266 162.574 84.7574C162.594 84.7007 162.628 84.65 162.673 84.6104C162.718 84.5708 162.773 84.5436 162.831 84.5314C163.288 84.4386 164.546 84.1279 164.748 83.2916C164.964 82.4078 164.422 81.9993 163.861 82.0517Z" fill="white"/>
<path id="Vector_59" d="M161.829 92.8723C161.258 92.8694 160.688 92.8307 160.122 92.7563C156.244 92.265 155.962 89.7964 155.952 89.6914C155.946 89.6318 155.964 89.5723 156.002 89.5257C156.04 89.4791 156.094 89.4491 156.154 89.4423L157.891 89.2244H157.908C157.948 89.1538 157.974 89.0765 157.985 88.9964L158.678 84.7149C158.205 84.5131 157.266 84.0823 157.09 83.7242C156.989 83.5134 157.107 83.1098 157.436 82.2261C157.468 82.1403 157.498 82.0616 157.522 81.994C157.566 81.8595 157.577 81.7162 157.554 81.5764L157.241 80.8874C157.175 80.7559 157.163 80.6038 157.208 80.4637C157.225 80.4119 157.253 80.3643 157.289 80.3235C157.325 80.2828 157.37 80.2498 157.419 80.2266C158.311 79.823 158.798 78.9504 159.189 78.2513C159.312 78.0221 159.447 77.7995 159.593 77.5844C159.661 77.4864 159.749 77.4039 159.851 77.3423C159.954 77.2808 160.068 77.2416 160.186 77.2273C160.83 77.1355 161.745 77.5955 163.157 78.7163C163.964 79.3559 163.874 80.6896 163.816 81.5713L163.803 81.7873C163.802 81.7927 163.802 81.7983 163.804 81.8036C163.806 81.8089 163.809 81.8136 163.813 81.8175C163.817 81.8213 163.822 81.8242 163.827 81.826C163.833 81.8277 163.839 81.8283 163.844 81.8276C164.016 81.8067 164.19 81.8274 164.352 81.8879C164.514 81.9485 164.659 82.0472 164.774 82.1756C164.948 82.3774 165.123 82.7416 164.976 83.3489C164.759 84.2498 163.57 84.619 162.881 84.7613C162.861 84.7653 162.843 84.7743 162.827 84.7876C162.812 84.8009 162.801 84.8179 162.794 84.837C162.245 86.44 162.272 87.7908 162.874 88.8531C163.76 90.4178 165.61 90.8274 165.629 90.8314C165.659 90.8375 165.687 90.8496 165.712 90.867C165.737 90.8843 165.759 90.9065 165.775 90.9323C165.792 90.9584 165.803 90.9877 165.807 91.0183C165.812 91.0488 165.81 91.08 165.802 91.1099C165.778 91.1896 165.296 92.8723 161.829 92.8723ZM156.454 89.866C156.614 90.436 157.302 91.9371 160.179 92.3013C163.867 92.7684 164.961 91.6778 165.256 91.2037C164.661 91.0191 163.254 90.4561 162.472 89.0771C161.803 87.8957 161.766 86.4188 162.357 84.6866C162.39 84.5921 162.447 84.5077 162.522 84.4417C162.597 84.3757 162.688 84.3304 162.786 84.3103C163.255 84.2145 164.365 83.9189 164.528 83.24C164.608 82.9101 164.572 82.6447 164.427 82.4742C164.359 82.4014 164.274 82.346 164.18 82.3127C164.086 82.2793 163.985 82.269 163.887 82.2826C163.815 82.2896 163.744 82.281 163.676 82.2576C163.609 82.2341 163.547 82.1963 163.495 82.1467C163.444 82.0971 163.404 82.037 163.378 81.9704C163.352 81.9038 163.341 81.8324 163.345 81.761L163.359 81.5401C163.408 80.8016 163.49 79.5648 162.873 79.0745C161.62 78.0798 160.739 77.6107 160.25 77.6793C160.193 77.6853 160.138 77.7036 160.089 77.7328C160.04 77.7621 159.998 77.8017 159.966 77.8488C159.846 78.0172 159.722 78.2392 159.59 78.4742C159.17 79.2238 158.649 80.1549 157.64 80.6281C157.641 80.648 157.645 80.6676 157.654 80.6856L157.969 81.3766C158.077 81.5865 158.013 81.9819 157.955 82.1484L157.867 82.3855C157.758 82.678 157.506 83.355 157.511 83.5366C157.62 83.697 158.308 84.0723 159.024 84.3588C159.072 84.3782 159.112 84.4135 159.138 84.4588C159.163 84.504 159.173 84.5567 159.164 84.6079L158.443 89.069C158.428 89.1618 158.363 89.4725 158.162 89.6158C158.093 89.6645 158.01 89.6879 157.925 89.6824L156.454 89.866Z" fill="#1A3A68"/>
<path id="Vector_60" d="M75.6975 174.184C75.6497 174.184 75.6031 174.169 75.5643 174.141C75.5255 174.113 75.4963 174.074 75.481 174.029C75.4656 173.984 75.4649 173.935 75.4787 173.889C75.4926 173.843 75.5204 173.803 75.5583 173.774C84.4028 166.963 89.4802 156.663 89.4802 145.514C89.4802 134.417 84.4462 124.148 75.6693 117.338C75.6213 117.3 75.59 117.245 75.5825 117.185C75.5749 117.125 75.5916 117.064 75.629 117.016C75.6663 116.968 75.7212 116.936 75.7815 116.929C75.8419 116.921 75.9028 116.938 75.9508 116.975C84.8396 123.874 89.9382 134.276 89.9382 145.514C89.9382 156.806 84.8003 167.238 75.8418 174.137C75.8006 174.169 75.7497 174.186 75.6975 174.184Z" fill="#1A3A68"/>
<path id="Vector_61" d="M31.6658 173.955C31.6144 173.956 31.5646 173.938 31.5246 173.906C22.7568 167.008 17.7288 156.66 17.7288 145.518C17.7328 139.7 19.141 133.968 21.8337 128.81C24.5265 123.652 28.4243 119.22 33.1962 115.89C33.2461 115.855 33.3078 115.842 33.3676 115.852C33.4275 115.863 33.4807 115.897 33.5155 115.947C33.5503 115.997 33.5638 116.059 33.5531 116.118C33.5424 116.178 33.5084 116.232 33.4585 116.266C28.7464 119.554 24.8974 123.93 22.2387 129.024C19.5799 134.117 18.1899 139.777 18.1868 145.522C18.1868 156.519 23.1512 166.739 31.806 173.55C31.8437 173.579 31.8713 173.62 31.8848 173.666C31.8984 173.711 31.8972 173.76 31.8815 173.806C31.8659 173.851 31.8364 173.89 31.7974 173.917C31.7583 173.945 31.7116 173.96 31.6638 173.959L31.6658 173.955Z" fill="#1A3A68"/>
<path id="Vector_62" d="M86.3173 166.391C86.2762 166.391 86.2359 166.38 86.2006 166.359C86.1654 166.338 86.1365 166.308 86.1169 166.271C86.0973 166.235 86.0877 166.195 86.0893 166.154C86.0908 166.112 86.1034 166.073 86.1256 166.038C90.0765 159.882 92.1767 152.72 92.1767 145.405C92.1767 138.09 90.0765 130.928 86.1256 124.772C86.0927 124.721 86.0815 124.659 86.0943 124.599C86.1072 124.54 86.1431 124.488 86.1942 124.455C86.2453 124.422 86.3074 124.411 86.3668 124.424C86.4262 124.437 86.4781 124.472 86.511 124.524C90.5101 130.754 92.6361 138.003 92.6361 145.406C92.6361 152.81 90.5101 160.058 86.511 166.289C86.4898 166.321 86.4609 166.347 86.4271 166.365C86.3933 166.383 86.3555 166.392 86.3173 166.391Z" fill="#1A3A68"/>
<path id="Vector_63" d="M22.4279 167.507C22.3907 167.507 22.354 167.497 22.3211 167.48C22.2883 167.462 22.2602 167.437 22.2393 167.406C17.8943 161.13 15.5045 153.708 15.3709 146.076C15.2373 138.444 17.366 130.944 21.4887 124.519C21.505 124.494 21.5261 124.472 21.5509 124.455C21.5756 124.438 21.6035 124.426 21.6329 124.42C21.6623 124.413 21.6927 124.413 21.7223 124.418C21.7519 124.423 21.7802 124.435 21.8055 124.451C21.8308 124.467 21.8526 124.488 21.8698 124.513C21.8869 124.538 21.899 124.566 21.9054 124.595C21.9117 124.624 21.9123 124.655 21.9069 124.684C21.9015 124.714 21.8903 124.742 21.874 124.768C17.8004 131.115 15.697 138.527 15.8289 146.068C15.9609 153.61 18.3223 160.943 22.6155 167.145C22.6396 167.179 22.6538 167.219 22.6566 167.261C22.6593 167.303 22.6505 167.344 22.6311 167.381C22.6117 167.419 22.5825 167.45 22.5467 167.471C22.5108 167.493 22.4698 167.504 22.4279 167.504V167.507Z" fill="#1A3A68"/>
<path id="Vector_64" d="M53.9058 178.901C72.2816 178.901 87.1781 164.004 87.1781 145.628C87.1781 127.252 72.2816 112.356 53.9058 112.356C35.53 112.356 20.6334 127.252 20.6334 145.628C20.6334 164.004 35.53 178.901 53.9058 178.901Z" fill="white"/>
<path id="Vector_65" d="M53.9059 179.128C35.4331 179.128 20.4045 164.096 20.4045 145.626C20.4045 127.157 35.4362 112.125 53.9059 112.125C72.3756 112.125 87.4072 127.157 87.4072 145.626C87.4072 164.096 72.3827 179.128 53.9059 179.128ZM53.9059 112.584C35.6864 112.584 20.8635 127.407 20.8635 145.626C20.8635 163.846 35.6864 178.67 53.9059 178.67C72.1254 178.67 86.9492 163.847 86.9492 145.626C86.9492 127.406 72.1264 112.586 53.9059 112.586V112.584Z" fill="#1A3A68"/>
<path id="Vector_66" d="M72.6943 183.206C72.6336 183.206 72.5754 183.182 72.5324 183.139C72.4895 183.096 72.4653 183.038 72.4653 182.977C72.4653 182.917 72.4895 182.858 72.5324 182.815C72.5754 182.772 72.6336 182.748 72.6943 182.748C81.9322 182.598 88.2223 178.607 91.9238 170.548C95.3376 163.115 96.295 152.916 96.983 143.108C96.9873 143.048 97.0155 142.991 97.0614 142.951C97.1072 142.912 97.1671 142.892 97.2277 142.896C97.2883 142.9 97.3447 142.928 97.3845 142.974C97.4243 143.02 97.4443 143.08 97.44 143.14C96.749 152.992 95.7856 163.237 92.3404 170.74C88.5573 178.976 82.133 183.054 72.7014 183.207L72.6943 183.206Z" fill="#1A3A68"/>
<path id="Vector_67" d="M74.7008 177.787H33.1106V187.239H74.7008V177.787Z" fill="white"/>
<path id="Vector_68" d="M74.7028 187.469H33.1106C33.0499 187.469 32.9916 187.445 32.9486 187.402C32.9057 187.359 32.8816 187.3 32.8816 187.24V177.787C32.8816 177.726 32.9057 177.668 32.9486 177.625C32.9916 177.582 33.0499 177.558 33.1106 177.558H74.7028C74.7635 177.558 74.8217 177.582 74.8647 177.625C74.9076 177.668 74.9318 177.726 74.9318 177.787V187.24C74.9318 187.3 74.9076 187.359 74.8647 187.402C74.8217 187.445 74.7635 187.469 74.7028 187.469ZM33.3406 187.011H74.4728V178.018H33.3406V187.011Z" fill="#1A3A68"/>
<path id="Vector_69" d="M73.9375 165.66C85.0007 154.597 85.0007 136.66 73.9375 125.597C62.8744 114.533 44.9374 114.533 33.8742 125.597C22.811 136.66 22.811 154.597 33.8742 165.66C44.9374 176.723 62.8744 176.723 73.9375 165.66Z" fill="#1A3A68"/>
<path id="Vector_70" d="M96.544 152.347C99.814 152.347 102.465 149.696 102.465 146.426C102.465 143.156 99.814 140.505 96.544 140.505C93.274 140.505 90.6232 143.156 90.6232 146.426C90.6232 149.696 93.274 152.347 96.544 152.347Z" fill="white"/>
<path id="Vector_71" d="M96.544 152.576C95.3269 152.576 94.1371 152.215 93.1251 151.539C92.1131 150.863 91.3244 149.902 90.8586 148.777C90.3928 147.653 90.2709 146.415 90.5084 145.222C90.7458 144.028 91.332 142.931 92.1926 142.071C93.0532 141.21 94.1497 140.624 95.3435 140.387C96.5372 140.149 97.7746 140.271 98.899 140.737C100.024 141.203 100.985 141.991 101.661 143.003C102.337 144.015 102.698 145.205 102.698 146.422C102.698 148.054 102.05 149.62 100.895 150.774C99.7414 151.928 98.1761 152.576 96.544 152.576ZM96.544 140.735C95.4183 140.735 94.3178 141.069 93.3817 141.695C92.4457 142.32 91.7161 143.209 91.2853 144.249C90.8546 145.289 90.742 146.434 90.9617 147.538C91.1814 148.642 91.7235 149.656 92.5196 150.452C93.3158 151.248 94.33 151.79 95.4342 152.01C96.5384 152.229 97.6829 152.117 98.7229 151.686C99.763 151.255 100.652 150.525 101.277 149.589C101.902 148.653 102.236 147.552 102.236 146.426C102.234 144.917 101.634 143.471 100.567 142.404C99.4998 141.337 98.053 140.737 96.544 140.735Z" fill="#1A3A68"/>
<path id="Vector_72" d="M48.4728 32.3424H21.7579C21.2696 32.3424 20.8499 31.8884 20.7541 31.2579L20.5432 19.2064H49.9527L49.6632 31.1177C49.529 31.838 49.0387 32.3424 48.4728 32.3424Z" fill="#1A3A68"/>
<path id="Vector_73" d="M22.1263 31.0199C21.9313 31.0199 21.7442 30.9424 21.6063 30.8045C21.4684 30.6665 21.3909 30.4795 21.3909 30.2844V21.2352C21.3909 21.0401 21.4684 20.8531 21.6063 20.7151C21.7442 20.5772 21.9313 20.4998 22.1263 20.4998C22.3214 20.4998 22.5084 20.5772 22.6463 20.7151C22.7843 20.8531 22.8618 21.0401 22.8618 21.2352V30.2844C22.8618 30.4795 22.7843 30.6665 22.6463 30.8045C22.5084 30.9424 22.3214 31.0199 22.1263 31.0199Z" fill="white"/>
<path id="Vector_74" d="M30.849 31.0199C30.6539 31.0199 30.4669 30.9424 30.3289 30.8045C30.191 30.6665 30.1135 30.4795 30.1135 30.2844V21.2352C30.1135 21.0401 30.191 20.8531 30.3289 20.7151C30.4669 20.5772 30.6539 20.4998 30.849 20.4998C31.044 20.4998 31.2311 20.5772 31.369 20.7151C31.5069 20.8531 31.5844 21.0401 31.5844 21.2352V30.2844C31.5844 30.4795 31.5069 30.6665 31.369 30.8045C31.2311 30.9424 31.044 31.0199 30.849 31.0199Z" fill="white"/>
<path id="Vector_75" d="M26.4878 31.0199C26.2927 31.0199 26.1057 30.9424 25.9677 30.8045C25.8298 30.6665 25.7523 30.4795 25.7523 30.2844V21.2352C25.7523 21.0401 25.8298 20.8531 25.9677 20.7151C26.1057 20.5772 26.2927 20.4998 26.4878 20.4998C26.6828 20.4998 26.8699 20.5772 27.0078 20.7151C27.1457 20.8531 27.2232 21.0401 27.2232 21.2352V30.2844C27.2232 30.4795 27.1457 30.6665 27.0078 30.8045C26.8699 30.9424 26.6828 31.0199 26.4878 31.0199Z" fill="white"/>
<path id="Vector_76" d="M35.2101 31.1056C35.0151 31.1056 34.828 31.0281 34.6901 30.8902C34.5522 30.7523 34.4747 30.5652 34.4747 30.3702V21.3209C34.4747 21.1259 34.5522 20.9388 34.6901 20.8009C34.828 20.663 35.0151 20.5855 35.2101 20.5855C35.4052 20.5855 35.5922 20.663 35.7302 20.8009C35.8681 20.9388 35.9456 21.1259 35.9456 21.3209V30.3702C35.9456 30.5652 35.8681 30.7523 35.7302 30.8902C35.5922 31.0281 35.4052 31.1056 35.2101 31.1056Z" fill="white"/>
<path id="Vector_77" d="M39.571 31.0197C39.3759 31.0197 39.1889 30.9423 39.051 30.8043C38.913 30.6664 38.8356 30.4793 38.8356 30.2843V21.235C38.8319 21.1362 38.8482 21.0377 38.8835 20.9453C38.9188 20.853 38.9723 20.7687 39.041 20.6975C39.1096 20.6263 39.1918 20.5697 39.2828 20.531C39.3738 20.4923 39.4716 20.4724 39.5705 20.4724C39.6694 20.4724 39.7672 20.4923 39.8582 20.531C39.9492 20.5697 40.0315 20.6263 40.1001 20.6975C40.1687 20.7687 40.2222 20.853 40.2575 20.9453C40.2928 21.0377 40.3091 21.1362 40.3054 21.235V30.2843C40.3056 30.3808 40.2867 30.4764 40.2498 30.5656C40.213 30.6549 40.1589 30.736 40.0907 30.8043C40.0225 30.8726 39.9415 30.9268 39.8523 30.9637C39.7631 31.0007 39.6675 31.0197 39.571 31.0197Z" fill="white"/>
<path id="Vector_78" d="M43.9333 31.0197C43.8367 31.0197 43.7412 31.0007 43.652 30.9637C43.5628 30.9268 43.4818 30.8726 43.4136 30.8043C43.3454 30.736 43.2913 30.6549 43.2545 30.5656C43.2176 30.4764 43.1987 30.3808 43.1989 30.2843V21.235C43.1952 21.1362 43.2115 21.0377 43.2467 20.9453C43.282 20.853 43.3356 20.7687 43.4042 20.6975C43.4728 20.6263 43.5551 20.5697 43.646 20.531C43.737 20.4923 43.8349 20.4724 43.9338 20.4724C44.0326 20.4724 44.1305 20.4923 44.2215 20.531C44.3125 20.5697 44.3948 20.6263 44.4634 20.6975C44.532 20.7687 44.5855 20.853 44.6208 20.9453C44.6561 21.0377 44.6724 21.1362 44.6687 21.235V30.2843C44.6687 30.4793 44.5912 30.6664 44.4533 30.8043C44.3154 30.9423 44.1283 31.0197 43.9333 31.0197Z" fill="white"/>
<path id="Vector_79" d="M48.2922 31.0199C48.0972 31.0199 47.9101 30.9424 47.7722 30.8045C47.6343 30.6665 47.5568 30.4795 47.5568 30.2844V21.2352C47.5568 21.0401 47.6343 20.8531 47.7722 20.7151C47.9101 20.5772 48.0972 20.4998 48.2922 20.4998C48.4873 20.4998 48.6743 20.5772 48.8122 20.7151C48.9502 20.8531 49.0276 21.0401 49.0276 21.2352V30.2844C49.0276 30.4795 48.9502 30.6665 48.8122 30.8045C48.6743 30.9424 48.4873 31.0199 48.2922 31.0199Z" fill="white"/>
<path id="Vector_80" d="M48.6762 29.2715H21.821C21.1156 29.2715 20.5438 29.8433 20.5438 30.5486V31.2508C20.5438 31.9562 21.1156 32.528 21.821 32.528H48.6762C49.3815 32.528 49.9533 31.9562 49.9533 31.2508V30.5486C49.9533 29.8433 49.3815 29.2715 48.6762 29.2715Z" fill="white"/>
<path id="Vector_81" d="M48.6749 32.7571H21.8198C21.4209 32.7552 21.0388 32.5959 20.7568 32.3138C20.4747 32.0318 20.3155 31.6497 20.3136 31.2509V30.5497C20.3152 30.1506 20.4743 29.7684 20.7564 29.4861C21.0385 29.2038 21.4207 29.0444 21.8198 29.0425H48.6749C49.0742 29.0441 49.4566 29.2034 49.7389 29.4857C50.0212 29.768 50.1805 30.1505 50.1821 30.5497V31.2509C50.1803 31.6499 50.0209 32.0321 49.7386 32.3142C49.4563 32.5963 49.074 32.7555 48.6749 32.7571ZM21.8198 29.5005C21.5418 29.5011 21.2753 29.6118 21.0788 29.8085C20.8824 30.0052 20.7719 30.2717 20.7716 30.5497V31.2509C20.7719 31.5288 20.8824 31.7952 21.0789 31.9917C21.2754 32.1883 21.5418 32.2988 21.8198 32.299H48.6749C48.9528 32.2988 49.2193 32.1883 49.4158 31.9917C49.6123 31.7952 49.7228 31.5288 49.7231 31.2509V30.5497C49.7229 30.2717 49.6124 30.0052 49.4159 29.8085C49.2194 29.6118 48.9529 29.5011 48.6749 29.5005H21.8198Z" fill="#1A3A68"/>
<path id="Vector_82" d="M55.4774 22.1531H14.6197C13.8721 22.1531 13.2285 21.7687 13.0832 21.2361L12.7614 11.0469H57.7372L57.2933 21.1211C57.0885 21.7223 56.342 22.1531 55.4774 22.1531Z" fill="white"/>
<path id="Vector_83" d="M55.4776 22.3791H14.6199C13.7593 22.3791 13.037 21.9332 12.8624 21.2936C12.8582 21.276 12.8555 21.2581 12.8544 21.2401L12.5326 11.0509C12.5316 11.0202 12.5368 10.9897 12.5479 10.9611C12.559 10.9325 12.5757 10.9064 12.5971 10.8844C12.6185 10.8625 12.6441 10.8451 12.6723 10.8331C12.7006 10.8212 12.7309 10.8149 12.7615 10.8148H57.7374C57.7683 10.8148 57.799 10.821 57.8274 10.8332C57.8559 10.8453 57.8816 10.8631 57.903 10.8854C57.9244 10.9078 57.941 10.9342 57.9519 10.9632C57.9628 10.9921 57.9678 11.023 57.9664 11.0539L57.5225 21.1281C57.5216 21.1498 57.5175 21.1712 57.5104 21.1917C57.2743 21.8888 56.4431 22.3791 55.4776 22.3791ZM13.3084 21.1967C13.4405 21.6184 13.9843 21.9211 14.6199 21.9211H55.4776C56.2181 21.9211 56.8789 21.565 57.0655 21.0696L57.4973 11.2688H12.9976L13.3084 21.1967Z" fill="#1A3A68"/>
<path id="Vector_84" d="M57.5253 9.91499H12.9117C12.2063 9.91499 11.6345 10.4868 11.6345 11.1922V11.8943C11.6345 12.5997 12.2063 13.1715 12.9117 13.1715H57.5253C58.2307 13.1715 58.8025 12.5997 58.8025 11.8943V11.1922C58.8025 10.4868 58.2307 9.91499 57.5253 9.91499Z" fill="white"/>
<path id="Vector_85" d="M57.5252 13.4005H12.9126C12.5135 13.3989 12.1313 13.2397 11.849 12.9576C11.5667 12.6755 11.4073 12.2934 11.4054 11.8943V11.1932C11.407 10.7939 11.5663 10.4115 11.8486 10.1292C12.1309 9.84685 12.5133 9.68754 12.9126 9.68594H57.5252C57.9243 9.6878 58.3065 9.84724 58.5886 10.1295C58.8707 10.4118 59.0299 10.7941 59.0315 11.1932V11.8943C59.0296 12.2932 58.8703 12.6752 58.5882 12.9573C58.3062 13.2393 57.9241 13.3986 57.5252 13.4005ZM12.9126 10.148C12.6345 10.148 12.3678 10.2584 12.1711 10.4549C11.9744 10.6515 11.8637 10.9181 11.8634 11.1962V11.8973C11.8637 12.1754 11.9744 12.442 12.1711 12.6386C12.3678 12.8351 12.6345 12.9455 12.9126 12.9455H57.5252C57.8032 12.9452 58.0696 12.8347 58.2661 12.6382C58.4626 12.4417 58.5732 12.1752 58.5734 11.8973V11.1962C58.5732 10.9183 58.4626 10.6518 58.2661 10.4553C58.0696 10.2588 57.8032 10.1483 57.5252 10.148H12.9126Z" fill="#1A3A68"/>
<path id="Vector_86" d="M166.608 30.93C166.562 30.9298 166.518 30.9163 166.481 30.8911C166.443 30.8659 166.414 30.8302 166.397 30.7885C166.38 30.7468 166.375 30.7009 166.384 30.6566C166.393 30.6123 166.414 30.5716 166.446 30.5396L180.764 16.2222C180.785 16.2005 180.81 16.1832 180.838 16.1713C180.866 16.1595 180.896 16.1532 180.926 16.1531C180.956 16.1529 180.986 16.1587 181.015 16.1702C181.043 16.1817 181.068 16.1987 181.09 16.2201C181.111 16.2416 181.128 16.267 181.139 16.2951C181.151 16.3231 181.157 16.3532 181.157 16.3835C181.156 16.4139 181.15 16.4438 181.138 16.4717C181.126 16.4996 181.109 16.5249 181.087 16.546L166.77 30.8634C166.727 30.906 166.668 30.9299 166.608 30.93Z" fill="#1A3A68"/>
<path id="Vector_87" d="M155.462 54.4006C155.401 54.4001 155.343 54.3759 155.299 54.333C155.278 54.3118 155.261 54.2866 155.249 54.2588C155.238 54.231 155.232 54.2012 155.232 54.1711C155.232 54.141 155.238 54.1112 155.249 54.0834C155.261 54.0556 155.278 54.0303 155.299 54.0092L177.56 31.7482C177.603 31.7062 177.661 31.6828 177.722 31.6832C177.782 31.6836 177.839 31.7077 177.882 31.7503C177.925 31.7929 177.949 31.8505 177.949 31.9107C177.949 31.971 177.926 32.0289 177.884 32.0721L155.623 54.335C155.58 54.3773 155.522 54.4008 155.462 54.4006Z" fill="#1A3A68"/>
<path id="Vector_88" d="M86.3185 191.536C86.2883 191.537 86.2583 191.531 86.2304 191.519C86.2025 191.507 86.1772 191.49 86.1561 191.469C86.1347 191.448 86.1177 191.422 86.1062 191.394C86.0946 191.367 86.0886 191.337 86.0886 191.307C86.0886 191.277 86.0946 191.247 86.1062 191.219C86.1177 191.191 86.1347 191.166 86.1561 191.145L96.5531 180.754C96.5962 180.712 96.6542 180.689 96.7144 180.689C96.7747 180.689 96.8323 180.713 96.8749 180.756C96.9175 180.799 96.9416 180.856 96.942 180.916C96.9423 180.977 96.919 181.035 96.8769 181.078L86.4799 191.474C86.4585 191.494 86.4332 191.51 86.4055 191.521C86.3778 191.532 86.3482 191.537 86.3185 191.536Z" fill="#1A3A68"/>
<path id="Vector_89" d="M168.342 23.5494C168.082 23.5494 167.824 23.4982 167.584 23.3987C167.344 23.2993 167.126 23.1535 166.942 22.9697C166.758 22.7859 166.612 22.5677 166.513 22.3275C166.414 22.0874 166.362 21.83 166.362 21.5701C166.362 21.3101 166.414 21.0527 166.513 20.8126C166.612 20.5725 166.758 20.3543 166.942 20.1705C167.126 19.9867 167.344 19.8409 167.584 19.7414C167.824 19.6419 168.082 19.5907 168.342 19.5907C168.4 19.5946 168.454 19.6205 168.494 19.6631C168.534 19.7057 168.556 19.7619 168.556 19.8202C168.556 19.8786 168.534 19.9348 168.494 19.9774C168.454 20.02 168.4 20.0459 168.342 20.0497C168.041 20.0497 167.747 20.139 167.496 20.3062C167.246 20.4734 167.051 20.7111 166.936 20.9891C166.821 21.2672 166.791 21.5731 166.85 21.8682C166.908 22.1634 167.053 22.4344 167.266 22.6472C167.479 22.8599 167.75 23.0047 168.046 23.0633C168.341 23.1219 168.647 23.0916 168.925 22.9763C169.203 22.861 169.44 22.6659 169.607 22.4156C169.774 22.1652 169.863 21.871 169.863 21.5701C169.863 21.5093 169.887 21.4511 169.93 21.4081C169.973 21.3652 170.031 21.3411 170.092 21.3411C170.153 21.3411 170.211 21.3652 170.254 21.4081C170.297 21.4511 170.321 21.5093 170.321 21.5701C170.32 22.0949 170.112 22.598 169.741 22.9691C169.37 23.3402 168.866 23.5489 168.342 23.5494Z" fill="#1A3A68"/>
<path id="Vector_90" d="M33.4565 59.934C33.4051 59.9336 33.3553 59.9159 33.3151 59.8838C33.2749 59.8517 33.2467 59.8069 33.2351 59.7568C33.2234 59.7067 33.229 59.6542 33.2509 59.6076C33.2727 59.561 33.3096 59.5232 33.3556 59.5002C33.392 59.482 36.9289 57.65 36.9289 53.9355C36.9289 52.1054 35.7971 50.6487 34.5986 49.1072C33.4192 47.5939 32.2006 46.0212 32.2006 44.0792C32.2006 40.1387 34.9799 38.7555 35.0979 38.698C35.125 38.6848 35.1545 38.677 35.1846 38.6751C35.2147 38.6733 35.2448 38.6773 35.2733 38.6871C35.3018 38.6969 35.3282 38.7122 35.3508 38.7322C35.3734 38.7522 35.3918 38.7764 35.4051 38.8034C35.4183 38.8305 35.4261 38.86 35.428 38.8901C35.4299 38.9202 35.4258 38.9504 35.416 38.9789C35.4062 39.0074 35.3909 39.0337 35.3709 39.0563C35.351 39.079 35.3268 39.0974 35.2997 39.1107C35.1907 39.1641 32.6616 40.4373 32.6616 44.0792C32.6616 45.8638 33.7794 47.3024 34.9637 48.8207C36.1481 50.339 37.39 51.9481 37.39 53.9304C37.39 57.9314 33.6038 59.8825 33.5655 59.9037C33.5323 59.9229 33.4948 59.9333 33.4565 59.934Z" fill="#1A3A68"/>
<path id="Vector_91" d="M41.3972 55.7029C41.3466 55.7032 41.2974 55.6867 41.2571 55.6561C41.2169 55.6254 41.1879 55.5823 41.1748 55.5334C41.1617 55.4845 41.1651 55.4327 41.1845 55.386C41.2039 55.3393 41.2383 55.3003 41.2822 55.2752C41.3094 55.2591 44.0504 53.6348 44.0504 50.3319C44.0504 48.7178 42.9226 47.4244 41.7301 46.0565C40.5377 44.6885 39.323 43.2983 39.323 41.552C39.323 38.0211 42.2002 36.746 42.2295 36.7328C42.2852 36.7088 42.3483 36.7078 42.4048 36.7302C42.4613 36.7527 42.5065 36.7966 42.5306 36.8524C42.5547 36.9082 42.5556 36.9712 42.5332 37.0277C42.5108 37.0842 42.4669 37.1294 42.4111 37.1535C42.3031 37.1999 39.781 38.3298 39.781 41.552C39.781 43.1268 40.8958 44.403 42.0751 45.7548C43.2716 47.1268 44.5094 48.5453 44.5094 50.3319C44.5094 53.9032 41.6343 55.599 41.5112 55.6686C41.4771 55.6903 41.4376 55.7022 41.3972 55.7029Z" fill="#1A3A68"/>
<path id="Vector_92" d="M27.0685 55.0159C27.018 55.016 26.9689 54.9993 26.9288 54.9686C26.8888 54.9378 26.86 54.8947 26.847 54.8459C26.834 54.7971 26.8375 54.7454 26.8569 54.6988C26.8764 54.6522 26.9107 54.6133 26.9545 54.5882C26.9817 54.5721 29.7227 52.9478 29.7227 49.6449C29.7227 48.0308 28.5949 46.7374 27.4024 45.3695C26.21 44.0015 24.9963 42.6113 24.9963 40.865C24.9963 37.3341 27.8735 36.0579 27.9028 36.0458C27.9586 36.0217 28.0216 36.0208 28.0781 36.0432C28.1346 36.0657 28.1798 36.1096 28.2039 36.1654C28.228 36.2212 28.2289 36.2842 28.2065 36.3407C28.1841 36.3972 28.1401 36.4424 28.0844 36.4665C27.9764 36.5129 25.4544 37.6418 25.4544 40.865C25.4544 42.4398 26.564 43.716 27.7484 45.0678C28.9449 46.4398 30.1828 47.8583 30.1828 49.6449C30.1828 53.2152 27.3076 54.911 27.1845 54.9816C27.1498 55.0036 27.1096 55.0155 27.0685 55.0159Z" fill="#1A3A68"/>
<path id="Vector_93" d="M32.8259 111.762C32.788 111.761 32.7507 111.752 32.7173 111.734C32.684 111.715 32.6557 111.689 32.6349 111.658C32.6142 111.626 32.6016 111.589 32.5983 111.552C32.595 111.514 32.6011 111.476 32.6161 111.441L34.9445 106.148C34.9634 106.105 34.9951 106.069 35.0351 106.045C35.0751 106.02 35.1216 106.009 35.1683 106.012C35.2151 106.015 35.2597 106.032 35.2964 106.061C35.333 106.09 35.3598 106.13 35.3732 106.175L36.5838 110.272C36.6007 110.328 36.595 110.389 36.5677 110.442C36.5404 110.495 36.4937 110.534 36.4376 110.553L32.8975 111.75C32.8744 111.757 32.8503 111.761 32.8259 111.762ZM35.1119 106.905L33.2446 111.149L36.0845 110.19L35.1119 106.905Z" fill="#1A3A68"/>
<path id="Vector_94" d="M25.5725 112.888C25.5307 112.887 25.4897 112.875 25.4542 112.853C25.4186 112.831 25.3898 112.8 25.3708 112.762L15.6043 93.6017C15.5767 93.5475 15.5718 93.4846 15.5906 93.4268C15.6094 93.369 15.6505 93.321 15.7046 93.2935C15.7588 93.2659 15.8217 93.261 15.8795 93.2798C15.9373 93.2987 15.9853 93.3397 16.0129 93.3938L25.7743 112.555C25.8017 112.609 25.8065 112.672 25.7876 112.729C25.7686 112.787 25.7276 112.835 25.6734 112.862C25.6422 112.878 25.6077 112.887 25.5725 112.888Z" fill="#1A3A68"/>
<path id="Vector_95" d="M22.0305 114.989C21.9784 114.989 21.9278 114.971 21.8873 114.939L10.2221 105.584C10.1766 105.545 10.1479 105.49 10.1422 105.431C10.1364 105.371 10.1541 105.312 10.1915 105.266C10.2288 105.219 10.2829 105.189 10.3421 105.182C10.4014 105.174 10.4611 105.19 10.5087 105.227L22.1738 114.581C22.2092 114.611 22.2346 114.651 22.2467 114.696C22.2588 114.74 22.2569 114.788 22.2414 114.832C22.2258 114.875 22.1974 114.913 22.1597 114.941C22.122 114.968 22.077 114.983 22.0305 114.984V114.989Z" fill="#1A3A68"/>
<path id="Vector_96" d="M83.657 117.438C83.6106 117.438 83.5653 117.424 83.5269 117.398C83.5022 117.381 83.4811 117.359 83.4648 117.334C83.4485 117.308 83.4374 117.28 83.4321 117.251C83.4268 117.221 83.4273 117.191 83.4337 117.161C83.4401 117.132 83.4522 117.104 83.4694 117.079L92.7385 103.675C92.7732 103.625 92.8263 103.591 92.8862 103.58C92.9461 103.569 93.0078 103.582 93.0578 103.617C93.1079 103.652 93.1421 103.705 93.153 103.765C93.1639 103.824 93.1505 103.886 93.1159 103.936L83.8457 117.34C83.8247 117.37 83.7965 117.395 83.7636 117.412C83.7307 117.43 83.6941 117.439 83.657 117.438Z" fill="#1A3A68"/>
<path id="Vector_97" d="M86.4244 120.293C86.3759 120.293 86.3286 120.278 86.2893 120.249C86.2499 120.221 86.2206 120.181 86.2056 120.135C86.1906 120.088 86.1906 120.039 86.2056 119.993C86.2206 119.946 86.2499 119.906 86.2893 119.878L95.0479 113.505C95.0722 113.486 95.0999 113.473 95.1295 113.465C95.1591 113.457 95.1899 113.456 95.2201 113.46C95.2504 113.464 95.2795 113.475 95.3057 113.491C95.3318 113.506 95.3546 113.527 95.3726 113.552C95.3906 113.577 95.4034 113.605 95.4104 113.635C95.4173 113.664 95.4183 113.695 95.4131 113.725C95.408 113.755 95.3968 113.784 95.3804 113.81C95.3639 113.836 95.3425 113.858 95.3173 113.875L86.5596 120.248C86.5205 120.277 86.4731 120.293 86.4244 120.293Z" fill="#1A3A68"/>
<path id="Vector_98" d="M99.2891 113.229C98.7017 113.228 98.1371 113.001 97.7137 112.593C97.2903 112.186 97.0408 111.631 97.0175 111.044C96.9943 110.457 97.199 109.884 97.5888 109.444C97.9786 109.005 98.5234 108.733 99.109 108.686C99.6946 108.639 100.276 108.821 100.73 109.192C101.185 109.564 101.479 110.098 101.549 110.681C101.62 111.264 101.462 111.852 101.109 112.321C100.755 112.791 100.234 113.105 99.6543 113.199C99.5335 113.219 99.4114 113.228 99.2891 113.229ZM99.2891 109.136C99.1918 109.136 99.0946 109.144 98.9986 109.16C98.5372 109.236 98.1232 109.488 97.8433 109.863C97.5633 110.237 97.4391 110.706 97.4967 111.17C97.5543 111.634 97.7891 112.058 98.1521 112.352C98.5151 112.647 98.9781 112.79 99.4442 112.751C99.9102 112.712 100.343 112.495 100.652 112.144C100.961 111.793 101.123 111.336 101.103 110.869C101.083 110.402 100.883 109.961 100.545 109.637C100.207 109.314 99.7568 109.135 99.2891 109.136Z" fill="#1A3A68"/>
<path id="Vector_99" d="M82.349 113.068C82.318 113.068 82.2873 113.062 82.2589 113.049C82.2305 113.037 82.2048 113.019 82.1835 112.997C81.0788 111.843 80.6702 110.93 80.9335 110.207C81.1424 109.636 81.6811 109.436 82.2027 109.244C82.6879 109.064 83.1459 108.895 83.3638 108.448C83.6241 107.912 83.3527 107.33 83.0612 106.714C82.7424 106.03 82.4135 105.323 82.7585 104.595C83.0612 103.946 83.7008 103.734 84.2627 103.546C84.7933 103.367 85.2524 103.214 85.4077 102.756C85.5399 102.364 85.3785 101.974 85.206 101.561C85.0042 101.072 84.7732 100.517 85.0859 99.9363C85.227 99.6923 85.4298 99.4898 85.6741 99.3491C85.8657 99.221 86.0171 99.1191 86.0978 98.8931C86.2279 98.5279 86.1028 98.0548 85.7245 97.4808C85.7067 97.4558 85.694 97.4274 85.6874 97.3974C85.6807 97.3675 85.6802 97.3364 85.6857 97.3062C85.6913 97.276 85.7029 97.2472 85.7198 97.2216C85.7368 97.196 85.7587 97.174 85.7843 97.157C85.8098 97.14 85.8386 97.1283 85.8688 97.1227C85.899 97.117 85.93 97.1175 85.96 97.1241C85.99 97.1307 86.0184 97.1432 86.0435 97.161C86.0685 97.1788 86.0897 97.2014 86.1058 97.2276C86.5689 97.9226 86.7111 98.534 86.5296 99.0435C86.3974 99.4117 86.1482 99.5781 85.9243 99.7254C85.7425 99.8254 85.5907 99.972 85.4844 100.15C85.2746 100.539 85.437 100.93 85.6246 101.382C85.8123 101.834 86.0231 102.343 85.8355 102.895C85.6075 103.569 84.9669 103.784 84.4019 103.973C83.8814 104.147 83.3931 104.312 83.1671 104.78C82.9139 105.317 83.1843 105.898 83.4698 106.513C83.7896 107.2 84.1204 107.909 83.7643 108.64C83.4617 109.254 82.8735 109.473 82.352 109.666C81.8889 109.838 81.4894 109.985 81.3543 110.357C81.1616 110.884 81.556 111.685 82.5053 112.677C82.5359 112.709 82.5564 112.75 82.5641 112.794C82.5719 112.839 82.5666 112.884 82.5489 112.925C82.5312 112.966 82.502 113.001 82.4647 113.026C82.4274 113.051 82.3836 113.064 82.3389 113.064L82.349 113.068Z" fill="#1A3A68"/>
</g>
<path id="Vector_100" d="M65.7108 134.373L63.879 132.706C63.0832 131.982 61.8511 132.04 61.127 132.836L41.1433 154.798C40.4192 155.594 40.4773 156.826 41.2731 157.55L43.1049 159.217C43.9006 159.941 45.1327 159.883 45.8568 159.087L65.8406 137.125C66.5646 136.329 66.5065 135.097 65.7108 134.373Z" fill="white"/>
<path id="Vector_101" d="M63.8802 159.218L65.712 157.551C66.5077 156.827 66.5658 155.595 65.8418 154.799L45.858 132.837C45.1339 132.042 43.9018 131.983 43.1061 132.707L41.2743 134.374C40.4785 135.098 40.4204 136.33 41.1445 137.126L61.1282 159.088C61.8523 159.884 63.0844 159.942 63.8802 159.218Z" fill="white"/>
</g>
</g>
</svg>
