<svg width="203" height="204" viewBox="0 0 203 204" fill="none" xmlns="http://www.w3.org/2000/svg">
<g id="Group 693">
<path id="Vector" d="M199.635 37.9143C198.763 36.9128 197.689 36.1098 196.483 35.5589C195.278 35.0081 193.97 34.7219 192.647 34.7196H189.387C188.413 34.395 187.395 34.2287 186.369 34.227H174.87L179.526 30.0165C180.505 29.1292 181.132 27.9159 181.292 26.6003C181.452 25.2846 181.133 23.9553 180.395 22.8571C179.657 21.759 178.549 20.966 177.276 20.6243C176.002 20.2826 174.649 20.4152 173.465 20.9977C174.568 20.3447 175.465 19.3907 176.052 18.2462C176.627 17.1378 177.164 15.3789 176.649 13.1031C177.716 12.4213 178.581 11.4644 179.155 10.3321C179.728 9.19971 179.99 7.93338 179.911 6.66501C179.833 5.39663 179.417 4.17262 178.709 3.1205C178 2.06838 177.023 1.22665 175.881 0.683022C174.739 0.13939 173.472 -0.0862573 172.214 0.0295908C170.955 0.145439 169.75 0.598544 168.725 1.3417C167.7 2.08485 166.892 3.09086 166.385 4.2549C165.878 5.41894 165.69 6.69843 165.842 7.96005C165.262 8.61413 164.846 9.39784 164.627 10.2462C164.409 11.0945 164.395 11.9829 164.586 12.8379C163.834 13.3687 163.188 14.0372 162.683 14.8084C161.402 16.7588 161.322 18.7135 161.554 20.2598C160.058 20.9357 158.848 22.1207 158.135 23.6061C157.715 24.4579 157.466 25.3847 157.403 26.3334L154.966 21.9524C153.969 20.1611 152.515 18.6695 150.754 17.6312C148.993 16.593 146.989 16.0456 144.947 16.0456C142.906 16.0456 140.901 16.593 139.14 17.6312C137.379 18.6695 135.926 20.1611 134.929 21.9524L133.178 25.0977L133.254 24.3819C133.389 23.0994 133.094 21.8084 132.416 20.7135C132.677 19.4737 132.528 18.182 131.99 17.0357L131.422 15.8252C130.874 14.6638 129.963 13.715 128.828 13.1242C128.454 11.9143 127.7 10.8593 126.678 10.1179L125.561 9.30845C124.563 8.58163 123.362 8.19137 122.13 8.19373H122.013C121.116 7.29413 119.953 6.711 118.699 6.53165L117.328 6.33692C117.056 6.29868 116.782 6.27933 116.508 6.27902C115.831 6.65554 115.086 6.89181 114.316 6.97389C113.546 7.05597 112.768 6.98219 112.028 6.75691C111.326 6.75614 110.631 6.88347 109.975 7.1327L108.719 7.60743C107.534 8.05065 106.527 8.87368 105.854 9.94949C104.614 10.2569 103.512 10.9706 102.721 11.9779L101.918 12.9958C101.44 13.5988 101.089 14.2921 100.883 15.0346C100.677 15.7771 100.622 16.5535 100.721 17.3178C100.024 17.8012 99.4426 18.434 99.0181 19.1706C98.5937 19.9072 98.3369 20.7293 98.2664 21.5777L98.1617 22.8714C98.0528 24.1546 98.3725 25.4377 99.0703 26.5176C98.8327 27.7621 99.007 29.0506 99.5665 30.186L100.159 31.3881C100.714 32.5069 101.61 33.4185 102.716 33.9901L51.5662 34.2312H46.7687C47.671 33.5544 48.4666 33.0007 48.4666 33.0007C53.9671 29.0515 60.0046 25.9197 66.3932 23.7019C67.2201 23.4158 67.9665 22.9342 68.5695 22.2974C69.1725 21.6606 69.6144 20.8874 69.8581 20.043C71.5684 20.7593 73.4884 20.7801 75.2136 20.1009C76.0824 20.6221 77.0782 20.8901 78.0897 20.8751C79.1012 20.86 80.0887 20.5624 80.9417 20.0156C81.9988 20.2614 83.1048 20.1851 84.1186 19.7966C85.1325 19.408 86.0083 18.7247 86.6346 17.8338C87.2609 16.9429 87.6092 15.8847 87.6353 14.794C87.6613 13.7033 87.3639 12.6295 86.7808 11.7095C87.0276 10.6459 86.9533 9.53258 86.5674 8.51175C86.1815 7.49092 85.5017 6.60903 84.6147 5.97886C83.7277 5.34868 82.6739 4.99886 81.5881 4.97414C80.5023 4.94942 79.4339 5.25092 78.5194 5.84008C77.1845 5.52958 75.7823 5.73589 74.5918 6.41797C73.3633 6.06288 72.0631 6.04273 70.8243 6.35959C69.5856 6.67645 68.453 7.31891 67.5426 8.2211C67.4212 8.21267 67.2987 8.20741 67.1751 8.20741C66.6827 8.20749 66.1925 8.27477 65.718 8.40741C53.016 11.9347 41.3274 18.3683 30.964 27.5323C30.0436 28.3498 29.4232 29.4547 29.2026 30.6695C28.982 31.8842 29.1739 33.1383 29.7476 34.2301H22.2242C20.4004 34.2412 18.6399 34.9038 17.2571 36.0996C16.3689 36.777 15.6235 37.6252 15.0643 38.5948C14.505 39.5645 14.143 40.6363 13.9994 41.7479L0.113519 149.297C-0.039692 150.49 0.0617149 151.702 0.41095 152.852C0.760185 154.003 1.34921 155.065 2.13885 155.969C2.92848 156.872 3.90058 157.596 4.99032 158.092C6.08007 158.588 7.26245 158.845 8.45869 158.846H8.4681L29.6597 158.808H29.7183C29.8858 160.434 30.0323 162.005 30.1653 163.507C28.8292 163.848 27.6329 164.601 26.7446 165.661C25.8562 166.721 25.3206 168.034 25.2128 169.416L25.0035 172.229C24.9517 172.901 24.8417 173.568 24.6748 174.221C23.2909 179.661 23.6698 182.018 24.1514 183.464C25.0223 186.06 27.1285 188.757 27.9932 189.795C28.9295 190.92 30.19 191.726 31.6009 192.101C33.0117 192.476 34.5034 192.401 35.8704 191.887C36.4503 191.669 37.0009 191.437 37.5222 191.193C37.6395 192.597 38.1388 194.233 39.552 195.802C41.6121 198.092 46.1301 201.01 51.1831 202.013C53.172 202.405 54.7328 202.587 56.1114 202.587C58.7347 202.587 60.7907 201.901 62.3923 200.482C64.3739 198.736 65.2804 196.244 65.0857 193.076C65.0409 192.355 64.9001 191.644 64.667 190.961C65.304 191.16 65.9671 191.26 66.6339 191.26H100.096C102.312 191.251 104.504 190.797 106.542 189.924L109.434 188.7C111.096 190.613 113.33 191.753 115.77 191.935L120.082 192.251C120.266 192.447 120.455 192.642 120.65 192.835C123.058 195.204 126.279 197.204 130.234 198.779C135.042 200.696 140.976 201.993 147.871 202.634C151.558 202.977 155.401 203.151 159.302 203.154C159.395 203.154 159.52 203.154 159.679 203.154C161.169 203.154 165.145 202.996 169.874 201.543C176.306 199.568 181.582 196.082 185.555 191.181C190.81 184.702 193.487 176.047 193.511 165.452C193.586 164.172 193.909 157.155 192.653 148.958C193.32 145.962 193.03 143.379 191.785 141.274C191.442 140.691 191.025 140.155 190.545 139.68C190.392 139.196 190.234 138.719 190.071 138.248L201.954 45.6331C202.134 44.2547 202.02 42.8536 201.621 41.5227C201.221 40.1919 200.544 38.9618 199.635 37.9143Z" fill="#1F2F5C"/>
<path id="Vector_2" d="M193.89 40.8246C193.053 39.8689 192.022 39.1027 190.865 38.5769C189.709 38.0512 188.454 37.7782 187.184 37.776H184.056C183.121 37.4662 182.144 37.3075 181.16 37.3059H170.125L174.593 33.2879C175.533 32.4411 176.135 31.2833 176.288 30.0278C176.441 28.7723 176.136 27.5037 175.427 26.4558C174.719 25.4078 173.656 24.6511 172.434 24.325C171.212 23.9989 169.913 24.1255 168.777 24.6814C169.836 24.0583 170.697 23.1478 171.259 22.0556C171.812 20.9979 172.327 19.3194 171.833 17.1477C172.856 16.497 173.687 15.5839 174.237 14.5033C174.788 13.4227 175.038 12.2143 174.963 11.0039C174.888 9.79348 174.489 8.62542 173.809 7.6214C173.129 6.61738 172.192 5.81413 171.096 5.29535C169.999 4.77657 168.784 4.56124 167.577 4.67179C166.369 4.78234 165.213 5.21474 164.229 5.92392C163.245 6.63309 162.47 7.59311 161.983 8.70394C161.497 9.81477 161.317 11.0358 161.463 12.2397C160.906 12.8639 160.506 13.6118 160.297 14.4213C160.087 15.2309 160.074 16.0787 160.257 16.8945C159.536 17.4012 158.916 18.0391 158.431 18.775C157.202 20.6363 157.125 22.5016 157.348 23.9772C155.913 24.6222 154.751 25.753 154.067 27.1705C153.664 27.9834 153.425 28.8678 153.364 29.7732L151.026 25.5925C150.069 23.883 148.674 22.4596 146.984 21.4688C145.295 20.478 143.371 19.9557 141.412 19.9557C139.453 19.9557 137.53 20.478 135.84 21.4688C134.15 22.4596 132.755 23.883 131.799 25.5925L130.119 28.5939L130.192 27.9108C130.321 26.687 130.038 25.455 129.388 24.4102C129.638 23.227 129.495 21.9944 128.979 20.9005L128.434 19.7453C127.908 18.637 127.034 17.7316 125.945 17.1678C125.586 16.0132 124.862 15.0064 123.881 14.2989L122.81 13.5265C121.852 12.8329 120.7 12.4605 119.518 12.4627H119.405C118.545 11.6042 117.429 11.0478 116.225 10.8766L114.909 10.6908C114.649 10.6543 114.386 10.6358 114.123 10.6355C113.473 10.9948 112.758 11.2203 112.019 11.2986C111.281 11.377 110.534 11.3066 109.823 11.0916C109.151 11.0908 108.483 11.2123 107.854 11.4502L106.648 11.9032C105.511 12.3262 104.545 13.1116 103.899 14.1382C102.71 14.4316 101.652 15.1126 100.892 16.0739L100.122 17.0452C99.664 17.6207 99.3264 18.2823 99.1292 18.9909C98.9319 19.6994 98.8791 20.4403 98.9739 21.1697C98.3051 21.631 97.747 22.2348 97.3397 22.9378C96.9324 23.6407 96.6861 24.4253 96.6184 25.2349L96.5179 26.4694C96.4135 27.6939 96.7202 28.9184 97.3898 29.9489C97.1618 31.1365 97.329 32.3661 97.866 33.4496L98.4345 34.5967C98.9675 35.6645 99.8271 36.5343 100.888 37.0798L51.8059 37.3099H47.2023C48.0681 36.664 48.8316 36.1356 48.8316 36.1356C54.1097 32.367 59.9032 29.3784 66.0335 27.2619C66.827 26.989 67.5432 26.5293 68.1218 25.9216C68.7005 25.314 69.1245 24.5761 69.3584 23.7703C70.9995 24.4538 72.8419 24.4737 74.4974 23.8256C75.3311 24.3229 76.2866 24.5787 77.2572 24.5643C78.2279 24.55 79.1754 24.266 79.994 23.7442C81.0084 23.9787 82.0696 23.9059 83.0425 23.5351C84.0153 23.1643 84.8558 22.5123 85.4568 21.6621C86.0577 20.812 86.392 19.8021 86.417 18.7613C86.442 17.7205 86.1565 16.6958 85.5971 15.8177C85.8339 14.8028 85.7626 13.7404 85.3923 12.7662C85.022 11.792 84.3696 10.9505 83.5185 10.3491C82.6673 9.74772 81.6561 9.4139 80.6142 9.39031C79.5723 9.36672 78.5471 9.65443 77.6696 10.2167C76.3886 9.92035 75.0431 10.1172 73.9007 10.7681C72.7219 10.4293 71.4743 10.41 70.2856 10.7124C69.0969 11.0148 68.0101 11.6279 67.1365 12.4888C67.02 12.4808 66.9024 12.4758 66.7839 12.4758C66.3113 12.4758 65.8409 12.54 65.3856 12.6666C53.1971 16.0327 41.9809 22.1722 32.0364 30.9173C31.1532 31.6974 30.5579 32.7518 30.3462 33.911C30.1346 35.0702 30.3187 36.267 30.8692 37.3089H23.6499C21.8999 37.3194 20.2105 37.9517 18.8836 39.0929C18.0313 39.7393 17.316 40.5487 16.7794 41.4741C16.2427 42.3994 15.8954 43.4222 15.7576 44.483L2.43298 147.115C2.28596 148.254 2.38327 149.41 2.71839 150.508C3.05351 151.606 3.61873 152.62 4.37644 153.482C5.13416 154.344 6.06697 155.035 7.11266 155.509C8.15835 155.982 9.29295 156.227 10.4408 156.228H10.4499L30.7848 156.192H30.8411C31.0018 157.744 31.1424 159.242 31.27 160.676C29.9879 161.001 28.8399 161.72 27.9875 162.732C27.1351 163.743 26.6211 164.996 26.5177 166.315L26.3168 168.999C26.2672 169.641 26.1616 170.277 26.0014 170.901C24.6735 176.092 25.0371 178.341 25.4992 179.721C26.3349 182.198 28.356 184.772 29.1857 185.762C30.0842 186.836 31.2937 187.605 32.6476 187.963C34.0014 188.32 35.4328 188.249 36.7445 187.759C37.301 187.55 37.8293 187.329 38.3296 187.096C38.4421 188.436 38.9212 189.997 40.2773 191.495C42.2541 193.679 46.5895 196.465 51.4382 197.421C53.3468 197.796 54.8445 197.97 56.1674 197.97C58.6846 197.97 60.6575 197.315 62.1944 195.961C64.0959 194.294 64.9657 191.917 64.7789 188.893C64.7359 188.205 64.6008 187.527 64.3771 186.875C64.9884 187.064 65.6247 187.161 66.2646 187.16H98.3742C100.5 187.152 102.604 186.718 104.56 185.886L107.334 184.717C108.929 186.543 111.073 187.63 113.415 187.804L117.552 188.106C117.729 188.293 117.91 188.479 118.097 188.663C120.408 190.924 123.499 192.833 127.294 194.335C131.907 196.165 137.602 197.402 144.218 198.014C147.756 198.341 151.444 198.508 155.186 198.51C155.276 198.51 155.396 198.51 155.549 198.51C156.978 198.51 160.794 198.359 165.332 196.973C171.503 195.089 176.566 191.762 180.379 187.085C185.422 180.902 187.99 172.642 188.013 162.532C188.085 161.311 188.395 154.615 187.19 146.792C187.829 143.933 187.551 141.468 186.357 139.459C186.028 138.902 185.628 138.391 185.167 137.938C185.02 137.476 184.869 137.021 184.713 136.572L196.115 48.1906C196.287 46.8752 196.179 45.5381 195.795 44.2681C195.411 42.9981 194.762 41.8243 193.89 40.8246Z" fill="white"/>
<g id="Group 705">
<path id="Vector_3" d="M124.73 134.119L87.0116 134.356C86.7665 134.356 86.6861 134.583 86.6861 134.801V166.897C86.6861 169.969 65.2533 177.953 65.0443 177.544L65.0182 180.941C65.0182 181.573 65.5727 182.135 66.2809 182.135H98.3915C99.8514 182.123 101.295 181.822 102.638 181.25L120.027 173.927C123.158 172.609 125.133 169.777 125.133 166.69V134.568C125.128 134.346 124.974 134.119 124.73 134.119Z" fill="#1A3A68"/>
<path id="Vector_4" d="M82.8613 132.487V164.588C82.8613 167.753 80.8251 170.636 77.6248 172.002L65.8933 177.01C65.1269 177.337 65.3911 178.364 66.2379 178.364H98.4701C99.9091 178.366 101.334 178.081 102.662 177.526L115.66 172.054C118.883 170.696 120.941 167.801 120.941 164.62V132.487C120.936 132.42 120.906 132.357 120.856 132.313C120.806 132.268 120.74 132.245 120.673 132.249H83.1284C83.0615 132.245 82.9959 132.268 82.9458 132.313C82.8958 132.357 82.8654 132.42 82.8613 132.487Z" fill="white"/>
<path id="Vector_5" d="M98.4701 178.586H66.2379C65.6533 178.586 65.3128 178.202 65.2334 177.822C65.145 177.391 65.369 176.992 65.805 176.806L77.5355 171.799C80.6353 170.476 82.6373 167.646 82.6373 164.588V132.487C82.6412 132.361 82.6949 132.242 82.7866 132.155C82.8784 132.069 83.0006 132.023 83.1265 132.027H120.671C120.797 132.023 120.92 132.069 121.011 132.155C121.103 132.242 121.157 132.361 121.161 132.487V164.62C121.161 167.875 119.034 170.872 115.743 172.255L102.746 177.727C101.392 178.293 99.9382 178.585 98.4701 178.586ZM83.0833 132.488V164.588C83.0833 167.824 80.9738 170.816 77.7122 172.206L65.9807 177.214C65.6975 177.334 65.6352 177.561 65.6704 177.733C65.7116 177.934 65.9034 178.142 66.2379 178.142H98.4701C99.8794 178.142 101.275 177.864 102.575 177.321L115.574 171.849C118.7 170.533 120.719 167.695 120.719 164.616V132.483C120.713 132.477 120.705 132.473 120.698 132.47C120.69 132.467 120.682 132.466 120.673 132.467H83.1285C83.1198 132.466 83.1112 132.468 83.1034 132.472C83.0956 132.475 83.0887 132.481 83.0833 132.488Z" fill="#1A3A68"/>
<path id="Vector_6" d="M12.5889 150.238L167.705 150.574L170.398 150.58L175.405 150.591C176.829 150.591 177.998 149.486 178.179 148.086L191.148 47.5547C191.464 45.1088 189.666 42.7985 187.185 42.7985L26.475 42.9431L12.5889 150.238Z" fill="#1A3A68"/>
<path id="Vector_7" d="M181.156 42.3313C183.953 42.3313 186.228 45.1439 185.87 47.9303L172.811 148.51C172.724 149.193 172.392 149.821 171.875 150.276C171.359 150.731 170.694 150.983 170.006 150.983L168.781 151.031L10.4419 150.983C10.0394 150.983 9.6416 150.896 9.27507 150.73C8.90854 150.564 8.58168 150.321 8.31624 150.018C8.05079 149.716 7.85289 149.36 7.73566 148.975C7.61843 148.59 7.58454 148.184 7.63634 147.785L20.959 45.1579C21.1408 43.7436 22.2276 42.3313 23.651 42.3313H181.156Z" fill="white"/>
<path id="Vector_8" d="M175.809 46.9893C178.425 46.9893 180.553 49.5457 180.217 52.07L168.001 143.342C167.83 144.626 166.707 145.587 165.376 145.587L164.231 145.63L16.1352 145.587C14.5401 145.587 13.3076 144.223 13.5115 142.684L25.9753 49.5547C26.146 48.271 27.1626 46.9893 28.4935 46.9893H175.809Z" fill="white"/>
<path id="Vector_9" d="M164.237 145.851L16.1334 145.809C15.7211 145.81 15.3132 145.723 14.9372 145.554C14.5611 145.385 14.2255 145.138 13.9526 144.829C13.6939 144.534 13.5009 144.188 13.3866 143.813C13.2722 143.438 13.2392 143.043 13.2896 142.654L25.7534 49.5253C25.9332 48.1692 27.007 46.7679 28.4916 46.7679H175.809C177.09 46.7679 178.344 47.3606 179.25 48.3942C180.177 49.452 180.61 50.805 180.437 52.0988L168.22 143.372C168.036 144.761 166.814 145.809 165.376 145.809L164.237 145.851ZM28.4916 47.2099C27.2662 47.2099 26.3451 48.4414 26.1934 49.5825L13.7296 142.712C13.6852 143.038 13.712 143.37 13.8083 143.685C13.9045 144 14.0679 144.29 14.2871 144.535C14.5182 144.797 14.8026 145.006 15.1212 145.149C15.4398 145.292 15.7852 145.365 16.1344 145.364L164.229 145.406L165.366 145.364C166.59 145.364 167.623 144.482 167.777 143.312L179.994 52.0395C180.149 50.8703 179.755 49.6468 178.913 48.6855C178.091 47.7483 176.958 47.2099 175.805 47.2099H28.4916Z" fill="#1A3A68"/>
<path id="Vector_10" d="M176.243 122.965H176.214C176.155 122.958 176.102 122.927 176.066 122.881C176.03 122.834 176.014 122.775 176.022 122.717L185.653 47.9022C185.735 47.2788 185.683 46.645 185.5 46.0433C185.317 45.4416 185.009 44.8857 184.594 44.4129C184.179 43.9401 183.669 43.5612 183.096 43.3015C182.523 43.0418 181.902 42.9072 181.273 42.9069L162.327 42.8898C162.269 42.8898 162.212 42.8664 162.17 42.8248C162.129 42.7831 162.105 42.7267 162.105 42.6678C162.105 42.6089 162.129 42.5525 162.17 42.5108C162.212 42.4692 162.269 42.4458 162.327 42.4458L181.272 42.4629C181.964 42.4635 182.648 42.6116 183.278 42.8974C183.908 43.1831 184.47 43.5999 184.926 44.12C185.382 44.64 185.723 45.2514 185.924 45.9133C186.125 46.5752 186.183 47.2724 186.094 47.9585L176.466 122.771C176.459 122.825 176.433 122.875 176.391 122.911C176.35 122.947 176.297 122.966 176.243 122.965Z" fill="#1A3A68"/>
<path id="Vector_11" d="M67.1566 151.103C67.0977 151.103 67.0412 151.08 66.9996 151.038C66.958 150.996 66.9346 150.94 66.9346 150.881C66.9346 150.822 66.958 150.766 66.9996 150.724C67.0412 150.682 67.0977 150.659 67.1566 150.659L105.757 150.59C105.816 150.59 105.873 150.613 105.914 150.655C105.956 150.696 105.979 150.753 105.979 150.812C105.979 150.87 105.956 150.927 105.914 150.969C105.873 151.01 105.816 151.034 105.757 151.034L67.1566 151.103Z" fill="#1A3A68"/>
<path id="Vector_12" d="M10.439 151.205C10.0048 151.205 9.57564 151.112 9.18021 150.932C8.78478 150.753 8.43213 150.491 8.14575 150.165C7.85937 149.839 7.64585 149.455 7.51941 149.04C7.39296 148.624 7.35648 148.187 7.41244 147.756L20.7391 45.1298C20.8341 44.3939 21.1934 43.7177 21.75 43.227C22.3066 42.7364 23.0226 42.4648 23.7646 42.4629L122.169 42.0018C122.198 42.001 122.227 42.0061 122.255 42.0169C122.282 42.0277 122.307 42.0439 122.327 42.0646C122.348 42.0853 122.364 42.11 122.375 42.1372C122.386 42.1644 122.392 42.1935 122.391 42.2228C122.391 42.2519 122.386 42.2808 122.375 42.3077C122.364 42.3347 122.348 42.3593 122.327 42.38C122.307 42.4007 122.282 42.4172 122.256 42.4285C122.229 42.4398 122.2 42.4457 122.171 42.4458L23.7626 42.9068C23.1282 42.9078 22.5158 43.1396 22.0398 43.559C21.5639 43.9785 21.2568 44.5568 21.176 45.186L7.85744 147.813C7.80948 148.181 7.84049 148.555 7.94843 148.91C8.05636 149.265 8.23874 149.593 8.48339 149.872C8.72804 150.151 9.02937 150.375 9.36727 150.529C9.70518 150.682 10.0719 150.762 10.443 150.762L30.779 150.725C30.8379 150.725 30.8944 150.749 30.936 150.79C30.9776 150.832 31.001 150.888 31.001 150.947C31.001 151.006 30.9776 151.063 30.936 151.104C30.8944 151.146 30.8379 151.169 30.779 151.169L10.439 151.205Z" fill="#1A3A68"/>
<path id="Vector_13" d="M99.9938 50.9177L90.5816 62.389L104.224 87.6772L73.9442 111.634L90.1959 141.527C90.2233 141.567 90.264 141.595 90.3107 141.608C90.3574 141.62 90.4069 141.615 90.4502 141.593C90.4935 141.572 90.5276 141.536 90.5464 141.491C90.5652 141.447 90.5674 141.397 90.5525 141.351L77.9371 112.965L90.5816 101.653L96.9029 109.306L90.2482 123.613L98.5633 110.637L109.211 121.95L93.2395 100.987L108.545 88.6757L94.5705 63.055L100.371 51.1628C100.393 51.1133 100.397 51.0575 100.381 51.0056C100.366 50.9536 100.332 50.9089 100.287 50.8794C100.242 50.8499 100.187 50.8376 100.133 50.8446C100.08 50.8516 100.03 50.8775 99.9938 50.9177Z" fill="#1A3A68"/>
<path id="Vector_14" d="M98.1032 94.6896L116.867 94.997L126.227 101.332C126.371 101.43 126.534 101.497 126.704 101.531C126.875 101.564 127.051 101.563 127.221 101.527L150.032 96.7257C150.064 96.7194 150.097 96.7258 150.125 96.7435C150.153 96.7611 150.173 96.7888 150.181 96.8207C150.189 96.8527 150.184 96.8864 150.168 96.9151C150.152 96.9437 150.125 96.9651 150.094 96.9748L126.782 104.352C126.494 104.443 126.188 104.464 125.891 104.411C125.593 104.359 125.313 104.235 125.074 104.05L115.866 96.9909L98.5422 96.2405C97.9897 96.2807 97.5497 94.7619 98.1032 94.6896Z" fill="#1A3A68"/>
<path id="Vector_15" d="M91.8542 63.4468L81.3754 58.5047L88.0301 47.8571L84.7023 57.5062L94.8125 61.3765L91.8542 63.4468Z" fill="#1A3A68"/>
<path id="Vector_16" d="M170.591 71.3069L146.449 28.1528C144.246 24.2152 138.579 24.2152 136.375 28.1528L112.233 71.3069C110.081 75.1541 112.861 79.8963 117.27 79.8963H165.555C169.964 79.8963 172.744 75.1541 170.591 71.3069Z" fill="white"/>
<path id="Vector_17" d="M165.555 80.1174H117.27C116.225 80.1175 115.198 79.8443 114.291 79.3248C113.384 78.8054 112.628 78.0577 112.1 77.1562C111.571 76.2546 111.287 75.2305 111.277 74.1854C111.266 73.1403 111.529 72.1106 112.039 71.1985L136.181 28.0445C136.702 27.1145 137.461 26.3401 138.381 25.8011C139.3 25.2622 140.346 24.978 141.412 24.978C142.478 24.978 143.524 25.2622 144.444 25.8011C145.363 26.3401 146.122 27.1145 146.643 28.0445L170.786 71.1985C171.296 72.1106 171.559 73.1403 171.549 74.1854C171.538 75.2305 171.254 76.2546 170.726 77.1562C170.197 78.0577 169.442 78.8054 168.535 79.3248C167.628 79.8443 166.601 80.1175 165.556 80.1174H165.555ZM141.412 25.4217C140.424 25.4148 139.452 25.675 138.599 26.1749C137.747 26.6747 137.045 27.3957 136.569 28.2614L112.425 71.4155C111.953 72.2601 111.709 73.2136 111.719 74.1814C111.729 75.1491 111.992 76.0974 112.481 76.9322C112.971 77.767 113.67 78.4593 114.51 78.9403C115.35 79.4214 116.301 79.6744 117.269 79.6744H165.554C166.522 79.6746 167.473 79.4216 168.312 78.9405C169.152 78.4595 169.852 77.7672 170.341 76.9323C170.831 76.0974 171.093 75.149 171.103 74.1813C171.113 73.2135 170.869 72.26 170.396 71.4155L146.255 28.2614C145.779 27.3955 145.077 26.6745 144.225 26.1746C143.372 25.6747 142.4 25.4146 141.412 25.4217Z" fill="#1A3A68"/>
<path id="Vector_18" d="M124.156 62.0516C124.117 62.0516 124.079 62.0415 124.045 62.0223C124.012 62.003 123.984 61.9753 123.964 61.9419C123.944 61.9085 123.934 61.8706 123.933 61.8318C123.933 61.7931 123.943 61.7549 123.962 61.7211L139.598 33.7731C139.778 33.4504 140.042 33.1817 140.361 32.9946C140.68 32.8076 141.043 32.709 141.412 32.709C141.782 32.709 142.145 32.8076 142.464 32.9946C142.783 33.1817 143.046 33.4504 143.227 33.7731L144.9 36.7655C144.916 36.7909 144.927 36.8194 144.932 36.8491C144.936 36.8788 144.935 36.9092 144.928 36.9383C144.92 36.9675 144.907 36.9948 144.889 37.0187C144.87 37.0426 144.847 37.0625 144.821 37.0772C144.795 37.0919 144.766 37.1011 144.736 37.1043C144.706 37.1075 144.676 37.1046 144.647 37.0957C144.618 37.0869 144.592 37.0722 144.569 37.0528C144.546 37.0333 144.527 37.0094 144.514 36.9824L142.839 33.99C142.697 33.7364 142.49 33.5252 142.239 33.3782C141.989 33.2311 141.703 33.1536 141.412 33.1536C141.122 33.1536 140.836 33.2311 140.585 33.3782C140.335 33.5252 140.128 33.7364 139.985 33.99L124.35 61.9431C124.329 61.9765 124.301 62.0041 124.267 62.0231C124.233 62.0421 124.195 62.0519 124.156 62.0516Z" fill="#1A3A68"/>
<path id="Vector_19" d="M150.585 47.6018C150.545 47.6018 150.507 47.5913 150.472 47.5713C150.438 47.5514 150.41 47.5227 150.391 47.4882L147.123 41.6461C147.095 41.5948 147.088 41.5343 147.104 41.4778C147.12 41.4212 147.157 41.3734 147.209 41.3448C147.26 41.3161 147.321 41.309 147.377 41.325C147.434 41.3411 147.481 41.3789 147.51 41.4301L150.779 47.2773C150.797 47.3111 150.807 47.3491 150.806 47.3877C150.806 47.4263 150.795 47.4641 150.776 47.4974C150.756 47.5306 150.728 47.5582 150.695 47.5774C150.661 47.5966 150.623 47.6067 150.585 47.6068V47.6018Z" fill="#1A3A68"/>
<path id="Vector_20" d="M162.373 74.3324H151.763C151.707 74.3287 151.655 74.3037 151.616 74.2626C151.578 74.2214 151.556 74.1673 151.556 74.111C151.556 74.0547 151.578 74.0005 151.616 73.9594C151.655 73.9182 151.707 73.8933 151.763 73.8895H162.373C162.658 73.8892 162.938 73.8145 163.185 73.6727C163.433 73.5309 163.639 73.3269 163.783 73.0809C163.927 72.835 164.005 72.5557 164.008 72.2706C164.011 71.9855 163.939 71.7045 163.8 71.4556C163.784 71.4301 163.774 71.4017 163.769 71.3719C163.764 71.3422 163.766 71.3119 163.773 71.2827C163.781 71.2536 163.794 71.2262 163.812 71.2023C163.83 71.1785 163.853 71.1586 163.88 71.1439C163.906 71.1291 163.935 71.1199 163.965 71.1167C163.995 71.1135 164.025 71.1165 164.054 71.1253C164.082 71.1342 164.109 71.1488 164.132 71.1683C164.155 71.1877 164.174 71.2117 164.187 71.2386C164.364 71.555 164.456 71.9122 164.452 72.2747C164.448 72.6373 164.35 72.9926 164.167 73.3054C163.983 73.6182 163.721 73.8775 163.406 74.0577C163.092 74.2379 162.736 74.3326 162.373 74.3324Z" fill="#1A3A68"/>
<path id="Vector_21" d="M147.316 74.3325H120.452C120.089 74.333 119.733 74.2384 119.418 74.0583C119.103 73.8782 118.841 73.6189 118.658 73.306C118.474 72.9931 118.376 72.6376 118.372 72.2749C118.369 71.9123 118.46 71.555 118.638 71.2387L121.451 66.2162C121.479 66.1648 121.527 66.1269 121.584 66.1109C121.641 66.0949 121.701 66.1021 121.753 66.1308C121.804 66.1596 121.842 66.2076 121.858 66.2643C121.874 66.321 121.867 66.3818 121.838 66.4332L119.026 71.4557C118.886 71.7046 118.815 71.9856 118.817 72.2708C118.82 72.556 118.898 72.8355 119.042 73.0815C119.186 73.3275 119.393 73.5316 119.64 73.6733C119.888 73.8151 120.168 73.8896 120.453 73.8896H147.317C147.348 73.8875 147.378 73.8917 147.407 73.9019C147.435 73.9121 147.462 73.9281 147.484 73.9489C147.506 73.9696 147.524 73.9947 147.536 74.0226C147.548 74.0505 147.554 74.0806 147.554 74.111C147.554 74.1414 147.548 74.1715 147.536 74.1994C147.524 74.2273 147.506 74.2524 147.484 74.2732C147.462 74.294 147.435 74.3099 147.407 74.3202C147.378 74.3304 147.348 74.3346 147.317 74.3325H147.316Z" fill="#1A3A68"/>
<path id="Vector_22" d="M144.487 69.0314C144.788 67.3246 143.648 65.6972 141.941 65.3965C140.235 65.0959 138.607 66.2358 138.307 67.9426C138.006 69.6495 139.146 71.2768 140.853 71.5775C142.559 71.8781 144.187 70.7382 144.487 69.0314Z" fill="#1A3A68"/>
<path id="Vector_23" d="M141.95 41.5388H140.874C140.517 41.5387 140.162 41.6107 139.833 41.7505C139.503 41.8903 139.205 42.095 138.957 42.3524C138.708 42.6098 138.514 42.9147 138.385 43.2488C138.257 43.5829 138.197 43.9395 138.209 44.2972L138.748 59.7242C138.771 60.4153 139.062 61.0704 139.559 61.5511C140.056 62.0318 140.721 62.3005 141.412 62.3005C142.104 62.3005 142.768 62.0318 143.265 61.5511C143.763 61.0704 144.054 60.4153 144.077 59.7242L144.615 44.2972C144.628 43.9395 144.568 43.5829 144.439 43.2488C144.311 42.9147 144.117 42.6098 143.868 42.3524C143.619 42.095 143.321 41.8903 142.992 41.7505C142.662 41.6107 142.308 41.5387 141.95 41.5388Z" fill="#1A3A68"/>
<path id="Vector_24" d="M182.784 162.349C182.784 182.451 171.889 189.505 163.811 191.971H150.359V188.781C150.488 188.869 150.621 188.954 150.761 189.04C159.193 185.464 165.399 176.188 165.399 160.603C165.399 142.884 160.283 129.316 150.362 125.902V122.876H165.382C185.14 128.192 182.784 162.349 182.784 162.349Z" fill="#1A3A68"/>
<path id="Vector_25" d="M165.379 122.908C163.712 122.459 161.887 122.248 159.89 122.248H145.224C143.573 122.248 139.337 122.761 134.525 123.779C130.292 124.673 126.165 126.01 122.211 127.768L120.578 128.495C119.962 128.768 119.438 129.213 119.069 129.777C118.701 130.341 118.503 131 118.501 131.674L147.704 130.56V127.376C147.704 127.376 147.611 126.558 150.328 125.895L150.355 125.89C151.435 125.628 152.962 125.393 155.109 125.24C156.64 125.132 158.49 125.067 160.721 125.067C174.014 125.067 180.905 140.034 180.905 160.602C180.905 181.17 170.105 190.742 157.643 190.742C155.835 190.742 154.304 190.494 153.006 190.069C152.219 189.816 151.465 189.47 150.76 189.04C150.623 188.955 150.49 188.824 150.358 188.738C145.472 185.386 145.828 178.868 145.828 178.868H118.581C118.581 178.868 118.397 190.359 144.713 192.793C147.844 193.083 151.35 193.267 155.275 193.267C155.275 193.267 159.054 193.416 163.813 191.961C171.89 189.495 182.786 182.462 182.786 162.361C182.784 162.36 185.14 128.224 165.379 122.908Z" fill="white"/>
<path id="Vector_26" d="M155.56 193.49C155.375 193.49 155.272 193.49 155.266 193.49H155.26C151.656 193.49 148.098 193.33 144.692 193.014C131.031 191.752 124.608 188.001 121.624 185.079C118.349 181.873 118.357 178.989 118.359 178.867C118.36 178.809 118.384 178.754 118.426 178.713C118.467 178.672 118.523 178.649 118.581 178.649H145.829C145.859 178.649 145.889 178.655 145.916 178.667C145.944 178.679 145.969 178.697 145.99 178.718C146.011 178.74 146.027 178.766 146.037 178.794C146.048 178.823 146.052 178.853 146.05 178.883C146.05 178.947 145.762 185.318 150.485 188.558C150.546 188.601 150.608 188.652 150.672 188.703C150.735 188.758 150.803 188.81 150.872 188.857C151.563 189.277 152.302 189.614 153.071 189.861C154.412 190.301 155.948 190.523 157.639 190.523C168.267 190.523 180.68 182.688 180.68 160.605C180.68 150.206 178.923 141.433 175.599 135.232C172.113 128.729 166.967 125.292 160.718 125.292C158.626 125.292 156.743 125.35 155.121 125.464C153.188 125.602 151.605 125.818 150.399 126.108C150.387 126.112 150.374 126.114 150.361 126.116C147.979 126.698 147.918 127.364 147.918 127.37V130.563C147.918 130.62 147.896 130.675 147.856 130.717C147.817 130.758 147.763 130.783 147.705 130.785L118.502 131.899C118.472 131.9 118.442 131.895 118.414 131.884C118.386 131.874 118.361 131.858 118.339 131.837C118.318 131.816 118.3 131.791 118.289 131.764C118.277 131.736 118.271 131.707 118.271 131.677C118.274 130.96 118.484 130.259 118.876 129.659C119.268 129.059 119.825 128.585 120.481 128.295L122.116 127.569C126.081 125.801 130.223 124.459 134.471 123.565C139.238 122.56 143.484 122.029 145.219 122.029H159.885C161.948 122.029 163.762 122.247 165.432 122.697C169.994 123.923 173.757 126.783 176.617 131.197C178.895 134.713 180.607 139.218 181.704 144.586C183.57 153.709 183.01 162.293 183 162.378C183 171.369 180.811 178.62 176.493 183.916C173.321 187.807 169.074 190.587 163.872 192.175C159.892 193.389 156.547 193.49 155.56 193.49ZM118.816 179.087C118.885 179.807 119.313 182.208 121.969 184.792C124.909 187.65 131.245 191.321 144.733 192.569C148.126 192.883 151.673 193.042 155.275 193.042C155.322 193.042 159.084 193.172 163.747 191.748C172.33 189.126 182.562 181.904 182.562 162.36C182.569 162.26 183.128 153.728 181.273 144.663C179.565 136.335 175.417 125.838 165.321 123.122C163.69 122.683 161.914 122.47 159.89 122.47H145.224C143.559 122.47 139.259 123.004 134.572 123.996C130.354 124.89 126.242 126.222 122.302 127.97L120.667 128.697C120.127 128.937 119.662 129.32 119.321 129.803C118.98 130.287 118.776 130.853 118.731 131.443L147.482 130.349V127.387C147.469 127.186 147.588 126.338 150.275 125.679H150.299C151.519 125.378 153.132 125.163 155.089 125.024C156.722 124.909 158.615 124.85 160.715 124.85C167.138 124.85 172.419 128.366 175.983 135.024C179.341 141.289 181.116 150.136 181.116 160.607C181.116 170.257 178.692 178.186 174.104 183.532C169.992 188.328 164.142 190.965 157.631 190.965C155.894 190.965 154.31 190.735 152.925 190.281C152.122 190.022 151.353 189.669 150.632 189.229C150.544 189.173 150.46 189.11 150.38 189.042C150.327 188.997 150.275 188.955 150.224 188.919C145.819 185.898 145.589 180.299 145.593 179.088L118.816 179.087Z" fill="#1A3A68"/>
<path id="Vector_27" d="M180.681 141.198L176.549 145.129C176.228 145.443 175.799 145.623 175.351 145.632H165.248C164.872 145.627 164.507 145.501 164.206 145.274C163.906 145.047 163.686 144.729 163.579 144.368L162.64 141.246L161.823 144.383C161.556 145.405 161.522 146.474 161.723 147.511L163.178 154.972C163.37 155.953 163.897 156.837 164.668 157.471C165.44 158.106 166.409 158.452 167.408 158.451H172.942C173.875 158.452 174.784 158.15 175.53 157.59C176.277 157.03 176.821 156.242 177.081 155.346L178.811 149.378C178.811 149.378 178.811 149.345 181.849 146.532C183.313 141.738 180.681 141.198 180.681 141.198Z" fill="white"/>
<path id="Vector_28" d="M172.945 158.676H167.411C166.361 158.675 165.344 158.31 164.532 157.643C163.721 156.976 163.167 156.048 162.963 155.017L161.508 147.556C161.301 146.486 161.336 145.384 161.608 144.33L162.426 141.193C162.438 141.146 162.465 141.104 162.503 141.074C162.541 141.044 162.588 141.028 162.636 141.027C162.685 141.025 162.733 141.039 162.772 141.068C162.811 141.097 162.84 141.138 162.853 141.185L163.791 144.307C163.885 144.622 164.077 144.899 164.339 145.098C164.601 145.297 164.92 145.406 165.249 145.411H175.351C175.743 145.402 176.117 145.245 176.398 144.971L180.528 141.041C180.554 141.016 180.586 140.997 180.621 140.987C180.656 140.977 180.693 140.976 180.729 140.984C180.761 140.991 181.533 141.158 182.057 142.036C182.672 143.07 182.676 144.605 182.068 146.599C182.056 146.637 182.035 146.672 182.006 146.699C179.649 148.881 179.129 149.383 179.015 149.497L177.301 155.412C177.023 156.353 176.449 157.179 175.665 157.767C174.88 158.355 173.926 158.674 172.945 158.676ZM162.656 142.071L162.038 144.441C161.778 145.431 161.746 146.467 161.944 147.471L163.398 154.933C163.582 155.862 164.083 156.699 164.814 157.301C165.546 157.902 166.464 158.231 167.411 158.232H172.945C173.829 158.23 174.689 157.942 175.397 157.411C176.104 156.881 176.622 156.136 176.872 155.288L178.601 149.32C178.663 149.185 179.06 148.818 181.655 146.413C182.2 144.597 182.206 143.163 181.671 142.263C181.463 141.894 181.134 141.607 180.739 141.452L176.701 145.295C176.337 145.646 175.854 145.846 175.349 145.856H165.249C164.824 145.851 164.413 145.71 164.074 145.454C163.736 145.198 163.488 144.841 163.366 144.434L162.656 142.071Z" fill="#1A3A68"/>
<path id="Vector_29" d="M117.85 130.115L151.113 128.495C153.609 128.373 155.654 130.459 155.654 133.154V180.656C155.654 183.352 153.615 185.389 151.119 185.21L117.85 182.809C115.718 182.654 113.994 180.538 113.994 178.08V134.754C113.993 132.296 115.718 130.22 117.85 130.115Z" fill="white"/>
<path id="Vector_30" d="M151.427 185.443C151.32 185.443 151.213 185.439 151.104 185.431L117.833 183.03C115.594 182.868 113.771 180.647 113.771 178.08V134.754C113.771 132.183 115.597 130.003 117.84 129.894L151.103 128.273C151.701 128.243 152.298 128.336 152.858 128.546C153.418 128.756 153.929 129.079 154.359 129.494C155.324 130.413 155.877 131.747 155.877 133.154V180.656C155.877 182.062 155.324 183.387 154.36 184.284C153.566 185.03 152.516 185.445 151.427 185.443ZM117.861 130.337C115.852 130.437 114.214 132.416 114.214 134.757V178.083C114.214 180.423 115.853 182.445 117.865 182.59L151.137 184.991C151.668 185.032 152.203 184.961 152.706 184.784C153.209 184.607 153.669 184.327 154.058 183.962C154.932 183.149 155.433 181.945 155.433 180.659V133.157C155.433 131.871 154.931 130.654 154.054 129.819C153.667 129.444 153.208 129.153 152.704 128.963C152.2 128.773 151.663 128.688 151.125 128.714L117.861 130.337Z" fill="#1A3A68"/>
<path id="Vector_31" d="M150.669 180.416C150.669 183.084 148.734 185.103 146.29 184.926L113.804 182.574C111.712 182.422 110.076 180.326 110.076 177.891V134.94C110.076 132.504 111.734 130.448 113.827 130.346L146.291 128.763C148.735 128.645 150.669 130.71 150.669 133.377V180.416Z" fill="white"/>
<path id="Vector_32" d="M146.584 185.158C146.484 185.158 146.378 185.158 146.274 185.147L113.788 182.795C111.578 182.635 109.855 180.484 109.855 177.891V134.94C109.855 132.39 111.632 130.231 113.815 130.124L146.277 128.541C146.848 128.512 147.419 128.6 147.954 128.8C148.49 129 148.979 129.308 149.391 129.705C150.343 130.609 150.889 131.951 150.889 133.376V180.415C150.889 181.839 150.343 183.164 149.391 184.05C148.631 184.764 147.627 185.161 146.584 185.158ZM146.484 128.98C146.421 128.98 146.359 128.98 146.297 128.985L113.832 130.567C111.881 130.663 110.293 132.623 110.293 134.94V177.891C110.293 180.21 111.873 182.21 113.815 182.352L146.301 184.705C146.807 184.745 147.317 184.678 147.796 184.51C148.276 184.341 148.715 184.075 149.085 183.727C149.948 182.923 150.443 181.718 150.443 180.412V133.377C150.443 132.071 149.947 130.852 149.081 130.028C148.385 129.357 147.456 128.981 146.489 128.98H146.484Z" fill="#1A3A68"/>
<path id="Vector_33" d="M112.246 137.257C112.246 135.096 113.745 133.281 115.608 133.204L144.409 131.998C146.547 131.909 148.294 133.734 148.294 136.076V177.402C148.294 179.743 146.547 181.528 144.409 181.389L115.608 179.518C113.745 179.397 112.246 177.548 112.246 175.388V137.257Z" fill="#1A3A68"/>
<path id="Vector_34" d="M156.783 167.002C156.783 168.047 156.008 168.864 155.03 168.828L154.052 168.79C153.081 168.754 152.391 167.886 152.391 166.852V149.017C152.391 147.981 153.094 147.135 154.062 147.126L155.071 147.116C156.05 147.107 156.779 147.947 156.779 148.992L156.783 167.002Z" fill="white"/>
<path id="Vector_35" d="M155.092 169.051H155.022L154.042 169.013C152.974 168.973 152.169 168.045 152.169 166.853V149.017C152.169 147.841 153 146.913 154.06 146.907L155.065 146.897C155.308 146.895 155.549 146.941 155.775 147.033C156 147.125 156.205 147.261 156.378 147.433C156.783 147.851 157.007 148.413 157 148.996V167.005C157.003 167.289 156.949 167.57 156.841 167.833C156.733 168.095 156.574 168.333 156.373 168.533C156.029 168.866 155.57 169.052 155.092 169.051ZM155.086 147.338H155.073L154.068 147.348C153.241 147.355 152.617 148.072 152.617 149.017V166.852C152.617 167.801 153.239 168.538 154.063 168.568L155.043 168.606C155.232 168.613 155.421 168.582 155.598 168.514C155.776 168.446 155.937 168.343 156.073 168.211C156.231 168.053 156.356 167.864 156.441 167.657C156.525 167.45 156.567 167.229 156.564 167.005V148.993C156.572 148.528 156.395 148.08 156.073 147.745C155.944 147.615 155.79 147.511 155.621 147.442C155.451 147.372 155.269 147.337 155.086 147.338Z" fill="#1A3A68"/>
<path id="Vector_36" d="M153.281 167.039C153.222 167.039 153.166 167.016 153.124 166.974C153.082 166.933 153.059 166.876 153.059 166.817V156.016C153.059 155.957 153.082 155.901 153.124 155.859C153.166 155.817 153.222 155.794 153.281 155.794C153.34 155.794 153.396 155.817 153.438 155.859C153.479 155.901 153.503 155.957 153.503 156.016V166.817C153.503 166.876 153.479 166.933 153.438 166.974C153.396 167.016 153.34 167.039 153.281 167.039Z" fill="#1A3A68"/>
<path id="Vector_37" d="M153.281 153.389C153.222 153.389 153.166 153.366 153.124 153.324C153.082 153.283 153.059 153.226 153.059 153.167V149.25C153.059 149.191 153.082 149.134 153.124 149.093C153.166 149.051 153.222 149.028 153.281 149.028C153.34 149.028 153.396 149.051 153.438 149.093C153.479 149.134 153.503 149.191 153.503 149.25V153.167C153.503 153.226 153.479 153.283 153.438 153.324C153.396 153.366 153.34 153.389 153.281 153.389Z" fill="#1A3A68"/>
<path id="Vector_38" d="M116.7 177.323L124.391 171.852L134.595 163.126L123.207 169.633L117.144 160.464L130.75 143.456L122.747 151.717L116.995 157.653L114.186 160.02L121.137 170.077L116.7 177.323Z" fill="white"/>
<path id="Vector_39" d="M122.394 138.724V152.477L123.799 150.703L122.394 138.724Z" fill="white"/>
<path id="Vector_40" d="M143.395 148.411L134.817 154.622L143.247 151.665L138.514 164.679L144.726 151.96L144.578 138.649L143.395 148.411Z" fill="white"/>
<path id="Vector_41" d="M157.316 37.5018C157.274 37.502 157.233 37.4905 157.197 37.4684C157.162 37.4464 157.133 37.4148 157.115 37.3772C156.599 36.3245 156.512 35.4536 156.851 34.7906C157.093 34.3195 157.465 34.1357 157.792 33.974C158.069 33.8364 158.33 33.7078 158.543 33.4135C158.945 32.853 158.783 32.2382 158.593 31.526C158.406 30.8309 158.213 30.1117 158.569 29.3875C158.999 28.5125 159.89 28.3398 160.752 28.172C161.556 28.0153 162.315 27.8707 162.748 27.1947C163.241 26.4282 162.955 25.5202 162.648 24.5579C162.326 23.5373 161.994 22.4816 162.614 21.5444C163.133 20.7589 164.003 20.561 164.769 20.3862C165.492 20.2225 166.116 20.0848 166.404 19.5284C166.806 18.7579 166.395 17.5274 165.183 15.871C165.164 15.8477 165.15 15.8207 165.142 15.7917C165.133 15.7628 165.131 15.7325 165.135 15.7026C165.139 15.6727 165.149 15.644 165.164 15.618C165.179 15.5921 165.2 15.5695 165.224 15.5517C165.248 15.5339 165.276 15.5213 165.305 15.5145C165.334 15.5077 165.365 15.507 165.395 15.5123C165.424 15.5176 165.452 15.529 165.477 15.5455C165.503 15.5621 165.524 15.5837 165.541 15.6088C166.881 17.438 167.291 18.788 166.798 19.7343C166.415 20.4676 165.628 20.6464 164.868 20.8191C164.107 20.9919 163.405 21.1516 162.984 21.7885C162.482 22.5509 162.767 23.462 163.072 24.4263C163.392 25.4438 163.723 26.4955 163.117 27.4397C162.581 28.2725 161.652 28.4533 160.833 28.612C160.013 28.7707 159.297 28.9133 158.963 29.5884C158.681 30.1629 158.844 30.7716 159.017 31.4165C159.218 32.1689 159.427 32.9474 158.899 33.6787C158.622 34.0614 158.283 34.2291 157.984 34.3768C157.684 34.5244 157.416 34.657 157.242 34.9986C156.968 35.5299 157.058 36.2662 157.509 37.1874C157.522 37.2136 157.531 37.2424 157.533 37.2719C157.535 37.3015 157.532 37.3312 157.522 37.3593C157.513 37.3874 157.498 37.4134 157.478 37.4356C157.459 37.4578 157.435 37.4759 157.408 37.4887C157.379 37.4999 157.347 37.5044 157.316 37.5018Z" fill="#1A3A68"/>
<path id="Vector_42" d="M159.913 39.6695C159.868 39.6695 159.824 39.6558 159.787 39.6304C159.75 39.605 159.722 39.569 159.705 39.5271C159.689 39.4853 159.686 39.4395 159.697 39.3959C159.707 39.3523 159.731 39.3128 159.764 39.2827L170.934 29.2268C170.955 29.2051 170.981 29.1881 171.009 29.1766C171.037 29.1652 171.067 29.1597 171.097 29.1603C171.127 29.161 171.157 29.1679 171.185 29.1805C171.212 29.1931 171.237 29.2113 171.257 29.2338C171.278 29.2564 171.293 29.2828 171.303 29.3115C171.312 29.3403 171.316 29.3707 171.313 29.4009C171.311 29.4311 171.302 29.4605 171.288 29.4872C171.274 29.5139 171.254 29.5374 171.23 29.5562L160.06 39.6122C160.02 39.649 159.967 39.6694 159.913 39.6695Z" fill="#1A3A68"/>
<path id="Vector_43" d="M168.192 13.1839C167.887 13.1843 167.588 13.1055 167.323 12.9553C167.058 12.805 166.837 12.5885 166.681 12.327C166.525 12.0655 166.439 11.7679 166.433 11.4634C166.427 11.159 166.5 10.8581 166.645 10.5903C166.81 10.2846 167.062 10.0348 167.37 9.87235C167.677 9.70993 168.025 9.64224 168.371 9.67782C168.717 9.7134 169.044 9.85066 169.312 10.0723C169.58 10.2939 169.776 10.5898 169.875 10.9228C169.954 11.1852 169.97 11.4622 169.922 11.7318C169.874 12.0015 169.764 12.2562 169.601 12.4759C169.437 12.6955 169.225 12.8739 168.98 12.9968C168.736 13.1197 168.466 13.1838 168.192 13.1839ZM168.193 10.1112C168.065 10.1112 167.938 10.1298 167.815 10.1664C167.498 10.2616 167.228 10.4733 167.06 10.7591C166.893 11.0449 166.839 11.3836 166.911 11.7071C166.983 12.0306 167.174 12.315 167.447 12.5031C167.72 12.6912 168.054 12.7691 168.382 12.7211C168.71 12.6731 169.007 12.5029 169.215 12.2445C169.422 11.9862 169.524 11.6589 169.5 11.3284C169.476 10.9979 169.328 10.6886 169.086 10.4629C168.843 10.2371 168.524 10.1114 168.193 10.1112Z" fill="#1A3A68"/>
<path id="Vector_44" d="M48.7855 176.677C48.7855 176.677 50.4068 181.129 51.9225 182.453C53.4383 183.777 59.3719 186.281 59.5567 189.216C59.7666 192.625 57.8069 193.323 52.4569 192.271C48.5926 191.511 45.3491 189.274 44.1728 187.974C43.1342 186.826 43.6575 185.801 43.8544 184.408C44.0965 182.7 44.0945 180.963 44.0362 179.237L43.9358 176.415L48.7855 176.677Z" fill="white"/>
<path id="Vector_45" d="M56.1737 192.942C55.1843 192.942 53.9488 192.79 52.4139 192.488C48.4652 191.712 45.1624 189.398 44.0073 188.122C43.1032 187.118 43.2921 186.172 43.493 185.165C43.5432 184.913 43.5935 184.651 43.6336 184.377C43.8858 182.596 43.8657 180.784 43.8134 179.245L43.713 176.422C43.712 176.391 43.7173 176.361 43.7287 176.332C43.7401 176.304 43.7573 176.278 43.7793 176.256C43.8015 176.235 43.8278 176.218 43.8567 176.207C43.8855 176.197 43.9162 176.192 43.947 176.193L48.7947 176.455C48.8389 176.457 48.8816 176.471 48.9174 176.497C48.9532 176.523 48.9804 176.559 48.9956 176.601C49.0117 176.645 50.6159 181.015 52.0714 182.286C52.4732 182.639 53.2225 183.09 54.0894 183.613C56.4309 185.026 59.6382 186.961 59.7769 189.202C59.8653 190.631 59.585 191.578 58.8959 192.182C58.3123 192.691 57.4444 192.942 56.1737 192.942ZM44.17 176.649L44.2574 179.23C44.3097 180.788 44.3297 182.625 44.0736 184.439C44.0324 184.725 43.9791 184.993 43.9279 185.253C43.727 186.257 43.5814 186.99 44.3368 187.825C45.4528 189.059 48.6561 191.297 52.4993 192.053C55.8141 192.705 57.6965 192.642 58.6036 191.852C59.1812 191.35 59.4132 190.514 59.3339 189.233C59.2103 187.224 56.1195 185.359 53.8594 183.997C52.9754 183.464 52.212 183.003 51.7791 182.625C50.3728 181.395 48.9233 177.674 48.63 176.899L44.17 176.649Z" fill="#1A3A68"/>
<path id="Vector_46" d="M59.3929 190.858H59.3879L57.4964 190.785C52.6217 190.606 47.9794 188.657 44.438 185.302C43.9639 184.852 43.7027 184.57 43.6927 184.558C43.6527 184.514 43.6316 184.457 43.6338 184.398C43.6361 184.34 43.6616 184.284 43.7048 184.244C43.7479 184.204 43.8052 184.183 43.864 184.185C43.9227 184.188 43.9782 184.213 44.0182 184.256C44.0182 184.256 44.2813 184.541 44.7434 184.98C48.2069 188.26 52.7466 190.166 57.5135 190.342L59.405 190.414C59.4612 190.418 59.5135 190.444 59.5513 190.486C59.5891 190.528 59.6096 190.583 59.6086 190.639C59.6076 190.695 59.5851 190.749 59.5458 190.79C59.5065 190.83 59.4533 190.854 59.3969 190.857L59.3929 190.858Z" fill="#1A3A68"/>
<path id="Vector_47" d="M47.7579 184.005C47.7025 184.006 47.6489 183.986 47.6076 183.949C47.5663 183.912 47.5403 183.861 47.5348 183.805C47.5293 183.75 47.5446 183.695 47.5777 183.651C47.6108 183.606 47.6593 183.576 47.7137 183.565C47.7378 183.56 50.1657 183.057 51.0336 181.842C51.0685 181.796 51.1199 181.765 51.1768 181.757C51.2337 181.748 51.2917 181.762 51.3386 181.795C51.3855 181.829 51.4176 181.879 51.4282 181.936C51.4387 181.992 51.4269 182.051 51.3952 182.099C50.4248 183.458 47.9086 183.979 47.8021 184C47.7876 184.003 47.7728 184.005 47.7579 184.005Z" fill="#1A3A68"/>
<path id="Vector_48" d="M50.053 185.453C49.9991 185.452 49.9473 185.432 49.9072 185.396C49.867 185.36 49.8413 185.311 49.8348 185.258C49.8282 185.204 49.8414 185.15 49.8717 185.106C49.9021 185.061 49.9476 185.029 49.9998 185.016C50.0229 185.01 52.3101 184.433 52.9469 183.268C52.9599 183.241 52.9783 183.216 53.001 183.196C53.0237 183.176 53.0503 183.161 53.0791 183.152C53.1078 183.143 53.1382 183.139 53.1683 183.142C53.1984 183.145 53.2276 183.154 53.2541 183.169C53.2806 183.183 53.3039 183.203 53.3225 183.227C53.3411 183.251 53.3546 183.278 53.3623 183.307C53.3699 183.336 53.3715 183.367 53.3669 183.397C53.3623 183.427 53.3517 183.455 53.3357 183.481C52.6054 184.818 50.2077 185.422 50.1062 185.447C50.0888 185.451 50.0709 185.453 50.053 185.453Z" fill="#1A3A68"/>
<path id="Vector_49" d="M52.5159 186.811C52.4646 186.811 52.4149 186.793 52.3752 186.76C52.3355 186.728 52.3083 186.683 52.2983 186.632C52.2882 186.582 52.2959 186.53 52.32 186.484C52.3441 186.439 52.3832 186.404 52.4306 186.384C52.4497 186.376 54.306 185.6 54.8132 184.437C54.8383 184.386 54.8822 184.346 54.9359 184.326C54.9896 184.306 55.0488 184.308 55.1013 184.331C55.1538 184.354 55.1954 184.396 55.2176 184.448C55.2397 184.501 55.2405 184.561 55.22 184.614C54.6404 185.944 52.6827 186.76 52.5993 186.794C52.5729 186.805 52.5446 186.811 52.5159 186.811Z" fill="#1A3A68"/>
<path id="Vector_50" d="M37.0881 165.989C36.9093 165.995 34.3468 165.829 32.8692 165.73C32.5929 165.712 32.3206 165.804 32.1117 165.986C31.9028 166.168 31.7743 166.425 31.7542 166.701L31.5533 169.386C31.4818 170.335 31.3265 171.276 31.0892 172.198C30.6613 173.873 30.0436 176.754 30.4785 178.044C30.9446 179.423 32.3177 181.32 33.2178 182.396C33.4199 182.638 33.6921 182.811 33.997 182.892C34.3018 182.972 34.6242 182.956 34.9194 182.845C36.0042 182.443 37.732 181.674 38.7264 180.61C40.2522 178.977 38.4432 176.001 38.4432 176.001L37.0881 165.989Z" fill="white"/>
<path id="Vector_51" d="M34.3812 183.163C34.1258 183.162 33.8735 183.107 33.642 182.999C33.4106 182.891 33.2055 182.733 33.0413 182.538C32.0468 181.349 30.7229 179.478 30.2618 178.113C29.8289 176.829 30.3522 174.157 30.8645 172.143C31.0983 171.234 31.2515 170.306 31.3226 169.37L31.5235 166.685C31.5487 166.35 31.7048 166.039 31.9579 165.819C32.2111 165.599 32.5408 165.488 32.8755 165.51C35.3767 165.674 36.9568 165.774 37.0763 165.768C37.1312 165.766 37.1848 165.785 37.2267 165.82C37.2686 165.855 37.2959 165.905 37.3033 165.96L38.6494 175.926C38.8754 176.314 40.4203 179.111 38.8804 180.76C37.8859 181.824 36.2155 182.594 34.989 183.052C34.7947 183.125 34.5888 183.162 34.3812 183.163ZM32.7921 165.951C32.5834 165.951 32.3827 166.031 32.2299 166.173C32.0771 166.315 31.9834 166.51 31.9675 166.718L31.7666 169.403C31.694 170.365 31.5366 171.318 31.2964 172.253C30.8866 173.86 30.2619 176.728 30.6817 177.971C31.0936 179.195 32.3341 181.003 33.3808 182.252C33.554 182.458 33.7866 182.606 34.0468 182.674C34.307 182.743 34.582 182.73 34.8343 182.636C35.8016 182.275 37.5715 181.511 38.5559 180.457C39.9492 178.967 38.2626 176.144 38.2456 176.116C38.2296 176.09 38.2194 176.061 38.2154 176.031L36.8875 166.21C36.3913 166.187 35.0372 166.102 32.8444 165.958C32.8271 165.954 32.8097 165.952 32.7921 165.951Z" fill="#1A3A68"/>
<path id="Vector_52" d="M35.5907 182.683C35.5565 182.683 35.5227 182.676 35.492 182.66C35.4613 182.645 35.4346 182.623 35.4139 182.596C32.1393 178.306 32.3121 177.146 32.6908 174.609C32.7681 174.088 32.8555 173.497 32.9207 172.81C33.0945 170.978 33.63 165.939 33.635 165.888C33.6437 165.832 33.6738 165.781 33.7191 165.746C33.7643 165.711 33.8212 165.695 33.878 165.701C33.9347 165.707 33.9869 165.735 34.0238 165.779C34.0606 165.822 34.0793 165.878 34.0759 165.935C34.0709 165.986 33.5355 171.022 33.3628 172.852C33.2965 173.555 33.2071 174.148 33.1287 174.674C32.7701 177.085 32.6063 178.19 35.7665 182.327C35.7915 182.36 35.8069 182.399 35.8109 182.44C35.8149 182.481 35.8074 182.522 35.7891 182.559C35.7708 182.596 35.7426 182.628 35.7075 182.65C35.6725 182.671 35.632 182.683 35.5907 182.683Z" fill="#1A3A68"/>
<path id="Vector_53" d="M34.9062 175.031C34.8512 175.03 34.7985 175.009 34.7581 174.972C34.7178 174.935 34.6928 174.884 34.6879 174.829C34.683 174.774 34.6986 174.719 34.7317 174.675C34.7648 174.632 34.8131 174.601 34.8671 174.591L37.7308 174.07C37.7888 174.059 37.8486 174.072 37.897 174.106C37.9454 174.139 37.9785 174.191 37.989 174.249C37.9996 174.306 37.9866 174.366 37.9531 174.415C37.9195 174.463 37.8681 174.496 37.8102 174.507L34.9464 175.027C34.9332 175.03 34.9197 175.031 34.9062 175.031Z" fill="#1A3A68"/>
<path id="Vector_54" d="M35.2732 177.095C35.2182 177.095 35.1654 177.074 35.1251 177.036C35.0847 176.999 35.0597 176.948 35.0548 176.893C35.05 176.838 35.0656 176.784 35.0987 176.74C35.1318 176.696 35.18 176.666 35.234 176.655L38.0988 176.134C38.1568 176.123 38.2165 176.136 38.2649 176.17C38.3134 176.203 38.3464 176.255 38.357 176.313C38.3675 176.371 38.3546 176.43 38.3211 176.479C38.2875 176.527 38.2361 176.56 38.1782 176.571L35.3134 177.092L35.2732 177.095Z" fill="#1A3A68"/>
<path id="Vector_55" d="M38.4433 177.942C40.161 179.047 43.7671 180.413 49.6735 178.419L44.8791 117.967L34.1672 115.712C34.1672 115.712 32.6022 131.303 34.7116 146.397C36.6362 160.176 37.0963 171.959 37.1987 175.704C37.208 176.15 37.3262 176.588 37.5432 176.978C37.7601 177.368 38.0691 177.699 38.4433 177.942Z" fill="#1A3A68"/>
<path id="Vector_56" d="M34.0055 114.414L60.9721 115.016L61.0555 144.479C61.0655 147.919 60.117 151.293 58.3163 154.223C55.4283 158.922 50.7966 165.848 47.0418 168.622C41.1173 173 34.0055 114.414 34.0055 114.414Z" fill="#1A3A68"/>
<path id="Vector_57" d="M49.1904 167.53C49.1328 167.53 49.0775 167.508 49.0362 167.468C48.9949 167.428 48.9709 167.373 48.9693 167.315L47.9237 133.38C47.9228 133.351 47.9276 133.322 47.9379 133.294C47.9482 133.267 47.9638 133.242 47.9838 133.221C48.0038 133.2 48.0277 133.183 48.0543 133.171C48.0808 133.159 48.1095 133.152 48.1386 133.152C48.1972 133.151 48.2539 133.172 48.2965 133.213C48.3391 133.253 48.3643 133.308 48.3666 133.367L49.4123 167.302C49.4133 167.332 49.4085 167.361 49.3982 167.388C49.3879 167.415 49.3722 167.44 49.3523 167.461C49.3323 167.482 49.3083 167.499 49.2817 167.511C49.2551 167.523 49.2265 167.53 49.1974 167.53H49.1904Z" fill="white"/>
<path id="Vector_58" d="M62.9098 56.1169C63.0323 57.8878 63.0273 59.06 63.0273 59.06C63.0273 59.06 61.9927 56.6492 61.4402 55.3354C60.6487 53.4469 59.3971 52.9246 60.0339 55.3062C60.5361 57.1887 60.6587 57.7984 60.6587 57.7984C60.6587 57.7984 59.383 55.5885 59.0515 54.8854C58.4598 53.6287 57.373 53.5795 57.9003 55.2711C58.2915 56.5138 58.7499 57.7344 59.2735 58.9274C59.2735 58.9274 55.4976 54.7387 55.2254 56.2806C54.9843 57.6387 58.1153 60.391 58.5673 60.9133C59.0194 61.4357 56.8014 59.282 55.8652 60.0846C54.9893 60.835 61.6501 65.3351 62.5261 67.6987C63.5526 70.4691 66.5712 78.5643 65.64 77.7888C61.1308 74.026 59.0454 74.7753 59.0454 74.7753L55.8723 79.8139C55.8723 79.8139 65.1136 86.7178 72.0446 86.7941C77.6698 86.8554 69.7082 72.0542 66.532 66.5104C65.7446 65.1473 65.2352 63.6417 65.0333 62.0805C64.7219 59.5804 64.2407 55.9109 64.0288 55.259C63.4522 53.4911 62.8033 54.5097 62.9098 56.1169Z" fill="white"/>
<path id="Vector_59" d="M72.0748 87.0162H72.0377C65.1147 86.9398 56.1174 80.275 55.7377 79.9917C55.6916 79.9582 55.6601 79.9082 55.6498 79.8521C55.6395 79.796 55.6512 79.7381 55.6825 79.6904L58.8637 74.6549C58.8899 74.6131 58.9296 74.5815 58.9762 74.5655C59.0646 74.5333 61.17 73.8342 65.5868 77.4474C65.4421 76.478 64.3754 73.3058 62.4055 67.9931L62.3232 67.7701C61.9023 66.636 60.0309 64.9334 58.3785 63.4316C56.5785 61.7943 55.5609 60.8401 55.566 60.2514C55.5657 60.1867 55.5796 60.1227 55.6067 60.0639C55.6337 60.005 55.6733 59.9528 55.7226 59.9109C56.1335 59.5593 56.705 59.6507 57.2434 59.8808C55.9085 58.4986 54.8457 57.1596 55.0084 56.2364C55.0677 55.9009 55.2586 55.7784 55.4102 55.7342C56.1134 55.5333 57.593 56.8582 58.6025 57.8808C58.3354 57.2108 57.9998 56.3048 57.6925 55.3304C57.3248 54.1481 57.7266 53.8478 57.9165 53.7744C58.3394 53.6097 58.9029 54.0346 59.2564 54.7789C59.4031 55.0913 59.7426 55.7131 60.0721 56.3017C60.0018 56.0295 59.9194 55.7161 59.823 55.3565C59.5297 54.2666 59.5879 53.6489 59.9948 53.5052C60.5472 53.3164 61.2373 54.2727 61.6441 55.242C61.9585 55.9904 62.4326 57.1033 62.7812 57.917C62.7641 57.4378 62.736 56.8271 62.6868 56.1239C62.6225 55.1908 62.7872 54.2044 63.3146 54.1029C63.6712 54.0346 63.9816 54.3962 64.2347 55.1787C64.4457 55.8286 64.9017 59.269 65.2482 62.0414C65.4439 63.5738 65.9439 65.0515 66.7188 66.3879C70.1683 72.4148 75.6829 82.9781 73.8507 86.097C73.5002 86.7108 72.9015 87.0162 72.0748 87.0162ZM56.1737 79.7567C57.4464 80.6758 65.7726 86.5039 72.0447 86.5722C72.7267 86.5792 73.1968 86.3552 73.472 85.8851C74.7086 83.7757 72.0406 76.5775 66.3401 66.6209C65.5363 65.233 65.0176 63.6987 64.8143 62.1077C64.3292 58.2173 63.9756 55.8085 63.8199 55.3274C63.5858 54.6062 63.402 54.5509 63.4 54.5509C63.3056 54.5871 63.0685 55.1195 63.1368 56.1059C63.2583 57.8637 63.2553 59.0541 63.2553 59.0651C63.2553 59.1162 63.2376 59.1657 63.2053 59.2052C63.173 59.2447 63.128 59.2719 63.078 59.2822C63.028 59.2925 62.9759 59.2852 62.9307 59.2616C62.8854 59.2379 62.8496 59.1994 62.8294 59.1525C62.8194 59.1284 61.7878 56.7277 61.2423 55.4258C60.7883 54.344 60.27 53.9191 60.1434 53.9372C60.1434 53.9372 59.9616 54.1491 60.258 55.2531C60.7602 57.1214 60.8817 57.7352 60.8867 57.7643C60.897 57.816 60.8885 57.8697 60.8628 57.9157C60.837 57.9618 60.7957 57.9971 60.7463 58.0155C60.6969 58.0339 60.6425 58.034 60.593 58.016C60.5434 57.9979 60.5019 57.9628 60.4759 57.917C60.4237 57.8266 59.1931 55.688 58.8617 54.9838C58.5774 54.3812 58.2058 54.1531 58.0842 54.1983C58.0049 54.2305 57.9084 54.5178 58.1234 55.2089C58.5119 56.4431 58.9673 57.6553 59.4875 58.8401C59.5097 58.8884 59.5137 58.9431 59.4989 58.9942C59.4842 59.0453 59.4516 59.0894 59.4071 59.1185C59.3625 59.1476 59.3091 59.1597 59.2564 59.1527C59.2036 59.1456 59.1552 59.1199 59.1199 59.0802C57.7638 57.5734 56.0059 56.0356 55.5398 56.1671C55.5227 56.1671 55.4785 56.1852 55.4544 56.3188C55.2776 57.3233 57.376 59.3976 58.273 60.2846C58.4981 60.5076 58.6598 60.6683 58.7462 60.7677C58.8044 60.835 58.9411 60.9937 58.8014 61.1454C58.6618 61.2971 58.5171 61.1936 58.3192 61.045C57.1621 60.2012 56.3886 59.933 56.021 60.2484C55.9095 60.5819 57.579 62.0997 58.6839 63.1052C60.3725 64.6411 62.287 66.3818 62.7451 67.6174L62.8275 67.8404C66.1955 76.923 66.2307 77.7849 65.9123 78.0089C65.857 78.048 65.7114 78.1204 65.5105 77.9546C61.6241 74.7121 59.5839 74.8949 59.1982 74.9683L56.1737 79.7567Z" fill="#1A3A68"/>
<path id="Vector_60" d="M53.8273 54.7108C51.0036 53.1448 47.752 53.6912 45.6356 55.0935C42.9576 56.8684 42.3128 59.904 41.8587 62.0456C41.0551 65.8305 42.3278 66.6853 41.482 69.0097C39.9833 73.1282 35.2722 72.415 32.9197 75.8403C29.3306 81.0637 32.7539 93.6269 40.7849 96.1934C46.1408 97.901 51.4205 94.1512 52.8569 93.1307C57.2174 90.0318 61.8773 83.8592 60.8758 77.9066C60.0471 72.9845 55.6735 70.1046 56.9583 65.3243C57.2867 64.1068 57.7428 63.6558 57.8191 62.2435C57.9457 59.9422 56.9964 56.4626 53.8273 54.7108Z" fill="#1A3A68"/>
<path id="Vector_61" d="M47.6482 57.687C48.4518 56.4354 46.8929 54.0407 45.7236 52.8574C45.2857 52.4134 43.3259 50.4275 41.8061 51.0302C40.2481 51.65 39.6052 54.8202 40.8699 56.7478C42.453 59.1566 46.707 59.1536 47.6482 57.687Z" fill="#1A3A68"/>
<path id="Vector_62" d="M33.729 115.017C38.9976 116.034 51.4915 118.115 59.8679 116.831C60.7434 116.694 61.5383 116.241 62.1016 115.557C62.6649 114.873 62.9574 114.005 62.9237 113.12C62.4666 106.792 60.2668 100.298 61.5174 89.3748C61.6203 88.4703 62.0266 87.6273 62.6699 86.9832C63.3133 86.3392 64.1558 85.9319 65.0602 85.8279L64.7277 76.0241C64.7277 76.0241 57.6611 72.5676 50.3223 73.0719C46.6227 73.326 42.5465 75.1813 39.4134 76.9572C37.8548 77.8446 36.6081 79.1914 35.8435 80.8137C35.0789 82.4361 34.8337 84.2549 35.1414 86.0218L36.7566 95.3636C37.2393 98.1529 36.9127 101.022 35.8154 103.632L32.2183 112.19C32.0989 112.473 32.0442 112.779 32.0583 113.086C32.0724 113.393 32.1548 113.693 32.2996 113.963C32.4444 114.234 32.6479 114.469 32.8952 114.652C33.1425 114.834 33.4274 114.959 33.729 115.017Z" fill="white"/>
<path id="Vector_63" d="M53.7746 117.457C46.1857 117.457 37.6284 115.996 33.6848 115.235C33.351 115.17 33.0358 115.032 32.7621 114.83C32.4885 114.629 32.2633 114.368 32.1031 114.069C31.9428 113.769 31.8515 113.437 31.8358 113.097C31.8201 112.758 31.8804 112.419 32.0123 112.106L35.6093 103.548C36.6917 100.978 37.0135 98.1515 36.5365 95.4039L34.9203 86.0621C34.6078 84.2504 34.8608 82.3865 35.6447 80.7235C36.4286 79.0606 37.7055 77.6794 39.3019 76.7675C42.1928 75.1282 46.4479 73.1182 50.3051 72.85C57.6198 72.3477 64.7517 75.7901 64.8231 75.8253C64.8592 75.8429 64.8899 75.8701 64.9117 75.9039C64.9335 75.9378 64.9455 75.9769 64.9466 76.0171L65.2801 85.82C65.2819 85.8764 65.2621 85.9314 65.2248 85.9738C65.1875 86.0161 65.1354 86.0427 65.0792 86.048C64.2234 86.1439 63.4257 86.528 62.8173 87.1374C62.2088 87.7468 61.8258 88.5451 61.7312 89.401C60.8523 97.0804 61.682 102.536 62.4133 107.348C62.7146 109.346 63.0039 111.233 63.1395 113.104C63.1783 114.046 62.869 114.968 62.2708 115.696C61.6725 116.424 60.8272 116.906 59.896 117.051C58.0257 117.338 55.9383 117.457 53.7746 117.457ZM33.7731 114.799C38.8147 115.773 51.4523 117.899 59.8368 116.607C60.659 116.48 61.4057 116.054 61.9346 115.412C62.4635 114.77 62.7375 113.956 62.7046 113.124C62.571 111.277 62.2847 109.4 61.9824 107.411C61.2471 102.57 60.4133 97.0834 61.2983 89.3448C61.3997 88.4237 61.8005 87.5614 62.4392 86.89C63.0779 86.2187 63.9193 85.7754 64.8341 85.6282L64.5127 76.1598C63.5544 75.7168 57.0181 72.8279 50.3393 73.2859C46.5654 73.5451 42.3756 75.527 39.5249 77.1432C38.0078 78.0098 36.7945 79.3226 36.0497 80.9031C35.3049 82.4836 35.0649 84.255 35.3622 85.9767L36.9775 95.3185C37.4682 98.1498 37.1367 101.062 36.0222 103.711L32.4251 112.268C32.3188 112.521 32.2702 112.794 32.2828 113.068C32.2955 113.341 32.3691 113.609 32.4983 113.85C32.6274 114.092 32.8089 114.302 33.0295 114.464C33.25 114.627 33.5041 114.738 33.7731 114.79V114.799Z" fill="#1A3A68"/>
<path id="Vector_64" d="M49.0045 64.9697C48.9824 65.1083 48.1286 68.385 47.4024 71.6787C47.2015 72.6059 46.7866 73.4707 45.9308 73.8816L43.2186 75.1874C43.1389 75.2256 43.0718 75.2858 43.0253 75.361C42.9789 75.4363 42.955 75.5233 42.9566 75.6116C42.9582 75.7 42.9852 75.7861 43.0343 75.8596C43.0834 75.9331 43.1527 75.9909 43.2337 76.0262C44.9414 76.7655 48.873 78.3104 52.011 76.9704C57.7818 74.5054 55.5418 73.1061 53.8101 72.5104C53.4369 72.3814 53.1149 72.1362 52.8912 71.8108C52.6676 71.4854 52.5542 71.097 52.5675 70.7023C52.5996 69.72 52.6398 68.4794 52.6599 67.7622C53.0691 67.9089 53.4927 68.012 53.9236 68.0696C54.1802 68.1021 54.4397 68.0378 54.6515 67.8892C54.8632 67.7406 55.012 67.5184 55.0687 67.266C55.2394 66.4112 55.5468 65.3012 55.6211 64.817C55.6303 64.7581 55.655 64.7027 55.6928 64.6566C55.7306 64.6105 55.7801 64.5753 55.8361 64.5549C56.1053 64.4544 56.4137 64.4454 56.5945 64.135C56.6301 64.0724 56.6459 64.0004 56.6396 63.9286C56.6333 63.8568 56.6053 63.7886 56.5593 63.7332C55.7939 62.7447 55.9787 60.7739 55.7266 59.8388C54.8195 56.4777 49.9457 58.9237 49.0045 64.9697Z" fill="white"/>
<path id="Vector_65" d="M49.2296 77.7136C47.4748 77.7136 45.4407 77.2114 43.1464 76.224C43.0263 76.1718 42.9236 76.0862 42.8508 75.9774C42.7779 75.8685 42.7379 75.7411 42.7355 75.6101C42.733 75.4792 42.7683 75.3503 42.837 75.2388C42.9058 75.1274 43.0052 75.038 43.1233 74.9814L45.8354 73.6756C46.5114 73.3501 46.9534 72.6791 47.1855 71.6244C47.7178 69.2056 48.3216 66.7928 48.6119 65.6336C48.7043 65.2649 48.7766 64.9726 48.7856 64.9304C49.4335 60.7929 51.8815 58.2084 53.8744 58.0999C54.8789 58.0456 55.6383 58.6564 55.9416 59.7774C56.0319 60.1916 56.0873 60.6126 56.1074 61.036C56.1837 61.9511 56.2691 62.9898 56.7362 63.5935C56.8086 63.6833 56.8523 63.7929 56.8614 63.908C56.8706 64.0231 56.8447 64.1382 56.7874 64.2383C56.6036 64.5528 56.3193 64.6341 56.0903 64.6984C56.031 64.7155 55.9718 64.7316 55.9145 64.7537C55.8955 64.7604 55.8786 64.7722 55.8657 64.7878C55.8528 64.8033 55.8443 64.8221 55.8412 64.8421C55.801 65.1022 55.7016 65.5161 55.585 65.9962C55.4846 66.4161 55.3691 66.8932 55.2837 67.3021C55.2154 67.6097 55.0349 67.8809 54.7775 68.0627C54.5201 68.2445 54.2042 68.3239 53.8914 68.2855C53.5452 68.2399 53.2034 68.1649 52.8699 68.0615C52.8488 68.7927 52.8146 69.8474 52.7865 70.7053C52.7732 71.0529 52.8724 71.3956 53.0693 71.6824C53.2661 71.9692 53.5502 72.1849 53.8794 72.2974C55.2234 72.7595 55.9185 73.3531 55.9447 74.0613C55.9798 75.0326 54.7202 76.0502 52.0944 77.1752C51.1859 77.5471 50.2112 77.7303 49.2296 77.7136ZM49.2236 65.0008C49.2165 65.046 49.1744 65.2157 49.0418 65.7441C48.7525 66.9013 48.1498 69.31 47.6194 71.7228C47.3552 72.9202 46.8349 73.6906 46.0273 74.0784L43.3152 75.3842C43.2738 75.404 43.2389 75.4352 43.2147 75.4742C43.1905 75.5132 43.178 75.5583 43.1787 75.6041C43.1793 75.65 43.193 75.6947 43.2183 75.733C43.2435 75.7713 43.2792 75.8015 43.3211 75.8202C46.8861 77.3621 49.7801 77.6795 51.9236 76.7634C55.0747 75.4174 55.5197 74.5023 55.5047 74.0774C55.4866 73.5852 54.8588 73.102 53.7378 72.7173C53.3187 72.5742 52.9569 72.2998 52.7062 71.9348C52.4554 71.5698 52.3289 71.1337 52.3456 70.6912C52.3777 69.7088 52.4179 68.4683 52.438 67.7521C52.4394 67.7167 52.4493 67.6822 52.4668 67.6515C52.4842 67.6207 52.5088 67.5946 52.5384 67.5753C52.5673 67.5551 52.6007 67.5421 52.6357 67.5376C52.6706 67.533 52.7062 67.537 52.7393 67.5492C53.1339 67.6918 53.5422 67.7928 53.9577 67.8505C54.1599 67.8773 54.3647 67.8276 54.532 67.711C54.6993 67.5945 54.8169 67.4196 54.8618 67.2207C54.9442 66.8048 55.0627 66.3237 55.1631 65.8988C55.2716 65.4488 55.3751 65.0229 55.4123 64.7818C55.4272 64.6837 55.4681 64.5914 55.5309 64.5146C55.5936 64.4377 55.6758 64.3791 55.7689 64.3448C55.8372 64.3187 55.9075 64.2986 55.9788 64.2785C56.1968 64.2173 56.3244 64.1781 56.4138 64.0214C56.4252 63.9974 56.4294 63.9706 56.426 63.9442C56.4226 63.9179 56.4118 63.8931 56.3947 63.8727C55.8462 63.1645 55.7548 62.0566 55.6744 61.0792C55.6553 60.6827 55.6042 60.2883 55.5217 59.8999C55.2756 58.9869 54.7011 58.5067 53.9075 58.5499C52.1205 58.6423 49.8283 61.1395 49.2236 65.0038V65.0008Z" fill="#1A3A68"/>
<path id="Vector_66" d="M52.3566 67.8696C52.338 67.8697 52.3194 67.8674 52.3014 67.8626C51.3344 67.6113 50.486 67.0291 49.9037 66.2172C49.887 66.1927 49.8753 66.1652 49.8694 66.1362C49.8635 66.1071 49.8635 66.0772 49.8693 66.0482C49.8752 66.0191 49.8868 65.9916 49.9035 65.9671C49.9201 65.9426 49.9415 65.9217 49.9664 65.9056C49.9913 65.8895 50.0191 65.8786 50.0483 65.8734C50.0774 65.8682 50.1073 65.869 50.1362 65.8755C50.1651 65.8821 50.1924 65.8944 50.2165 65.9117C50.2405 65.9289 50.2609 65.9509 50.2763 65.9761C50.8015 66.6907 51.5549 67.2045 52.4119 67.4326C52.4642 67.4461 52.5098 67.4782 52.5401 67.5229C52.5705 67.5676 52.5835 67.6219 52.5767 67.6755C52.5699 67.729 52.5439 67.7783 52.5033 67.8141C52.4628 67.8498 52.4107 67.8695 52.3566 67.8696Z" fill="#1A3A68"/>
<path id="Vector_67" d="M51.6655 64.173C51.4063 65.9148 51.1019 66.2824 51.1019 66.2824C51.1019 66.2824 50.9121 63.7662 50.8177 62.3579C50.6349 59.6317 49.3742 59.4619 49.311 61.9058C49.2607 63.8335 49.2025 64.4462 49.2025 64.4462C49.2025 64.4462 48.6118 61.9952 48.4943 61.2318C48.2853 59.8758 46.9333 59.8014 47.1061 61.3554C47.3331 63.3945 47.7339 65.525 47.7339 65.525C47.7339 65.525 46.3617 63.2488 45.8133 62.3287C45.2327 61.3513 44.1056 61.5703 44.5998 62.837C45.1423 64.2172 46.0423 66.2231 46.3266 66.8419C46.6109 67.4607 45.1021 64.8138 43.9801 65.3271C42.9314 65.8063 44.6973 67.1352 45.6978 69.1352C47.1241 71.9819 48.0182 71.8805 48.1849 74.3656C48.3808 77.2786 48.5626 83.0213 48.648 84.2156C48.6902 84.7872 48.1306 84.2719 47.3913 83.3699C46.0443 81.7245 40.1449 85.5958 42.3086 88.0157C44.8088 90.8112 48.3235 94.0647 51.8593 95.1013C57.2092 96.6684 53.801 80.4357 52.3375 74.3083C51.9712 72.7953 51.9111 71.2243 52.1607 69.6876C52.5695 67.2236 52.9824 64.5065 53.0406 63.8304C53.1823 62.1841 51.9688 62.1369 51.6655 64.173Z" fill="white"/>
<path id="Vector_68" d="M52.5406 95.4309C52.2882 95.4276 52.0376 95.3887 51.7962 95.3153C48.1459 94.2456 44.5317 90.8363 42.143 88.1644C41.6167 87.5767 41.4801 86.8585 41.7473 86.082C42.2967 84.4869 44.369 83.0686 45.8848 82.8024C46.6421 82.6668 47.2218 82.8144 47.5623 83.2303C48.0254 83.7948 48.2835 84.0429 48.4211 84.1524C48.3859 83.614 48.3378 82.4377 48.2775 80.9682C48.1891 78.7975 48.0766 76.0964 47.963 74.3807C47.8626 72.897 47.498 72.3818 46.8943 71.5269C46.3663 70.8033 45.8996 70.0369 45.499 69.2357C45.1435 68.5265 44.6955 67.9087 44.2937 67.3643C43.7362 66.5989 43.3344 66.0454 43.4539 65.5863C43.4855 65.4817 43.5408 65.3857 43.6155 65.3059C43.6903 65.2261 43.7824 65.1646 43.8848 65.1263C44.4584 64.8641 45.0711 65.2368 45.5654 65.6989C45.1887 64.845 44.7206 63.7622 44.3891 62.9184C44.0878 62.159 44.3208 61.7231 44.6362 61.5684C45.0038 61.3886 45.6066 61.5543 46.0003 62.2163C46.3067 62.7306 46.8702 63.6678 47.3062 64.395C47.1726 63.5914 47.0048 62.4674 46.8802 61.3815C46.7748 60.4353 47.1816 60.0395 47.5683 59.9883C48.0223 59.928 48.5728 60.3328 48.7074 61.2007C48.7596 61.5352 48.9083 62.2153 49.054 62.8612C49.064 62.5839 49.0741 62.2645 49.0831 61.8968C49.1152 60.6915 49.4357 59.9712 49.9419 59.9612H49.953C50.5215 59.9612 50.9354 60.8652 51.0338 62.3408C51.0891 63.1565 51.1764 64.3578 51.2397 65.2157C51.306 64.9394 51.3753 64.5869 51.4406 64.1419C51.6305 62.8662 52.1699 62.3499 52.6169 62.4021C52.9654 62.4423 53.3421 62.8471 53.2547 63.8506C53.1985 64.4995 52.8027 67.1343 52.3728 69.7249C52.1252 71.2319 52.1843 72.7735 52.5466 74.2571C54.1337 80.9109 56.4069 92.4435 53.7851 94.9346C53.4522 95.258 53.0047 95.4365 52.5406 95.4309ZM46.3991 83.1971C46.2528 83.1981 46.107 83.2119 45.9631 83.2383C44.5709 83.4874 42.6483 84.8184 42.1661 86.2267C41.9522 86.8485 42.0556 87.4009 42.4735 87.869C44.824 90.4968 48.3709 93.8488 51.9208 94.8894C52.5757 95.0813 53.088 94.9899 53.4858 94.6122C55.2557 92.9297 54.7454 85.3588 52.1207 74.3596C51.7454 72.8182 51.6843 71.2171 51.9409 69.6515C52.3698 67.07 52.7636 64.4503 52.8188 63.8114C52.8741 63.1725 52.7033 62.8571 52.5707 62.8411C52.4059 62.825 52.0343 63.2017 51.8846 64.2062C51.6244 65.959 51.3071 66.3789 51.2719 66.4161C51.2434 66.4497 51.2056 66.474 51.1633 66.4861C51.1209 66.4981 51.0759 66.4973 51.0341 66.4838C50.9922 66.4702 50.9553 66.4445 50.928 66.4099C50.9008 66.3753 50.8845 66.3334 50.8811 66.2895C50.8811 66.2644 50.6903 63.7562 50.5969 62.3639C50.4964 60.8793 50.0886 60.3991 49.957 60.3991C49.8565 60.3991 49.5632 60.7608 49.5331 61.9059C49.4829 63.8144 49.4256 64.4372 49.4236 64.4623C49.4187 64.5147 49.3955 64.5637 49.3579 64.6005C49.3203 64.6373 49.2708 64.6595 49.2183 64.6633C49.1658 64.667 49.1138 64.652 49.0713 64.6209C49.0289 64.5898 48.9989 64.5446 48.9867 64.4935C48.9626 64.393 48.392 62.0254 48.2755 61.266C48.1891 60.7065 47.8737 60.3941 47.6326 60.4263C47.4317 60.4524 47.262 60.7427 47.3313 61.3303C47.5543 63.3393 47.952 65.4618 47.956 65.4829C47.9655 65.534 47.9567 65.5869 47.9312 65.6323C47.9057 65.6776 47.8651 65.7126 47.8164 65.731C47.768 65.7499 47.7145 65.751 47.6653 65.7341C47.6162 65.7172 47.5747 65.6833 47.5482 65.6386C47.5482 65.6386 46.175 63.3614 45.6276 62.4413C45.3825 62.0284 45.0249 61.8727 44.8401 61.9651C44.6553 62.0576 44.6553 62.3599 44.81 62.7547C45.3504 64.1288 46.2574 66.1489 46.5316 66.7485C46.5658 66.8219 46.6552 67.0177 46.4795 67.1242C46.3037 67.2307 46.1932 67.0931 46.0445 66.9012C45.7221 66.4864 44.7386 65.2237 44.0767 65.5281C43.917 65.6014 43.8979 65.6737 43.8909 65.6978C43.8246 65.952 44.2304 66.5105 44.6603 67.1041C45.047 67.6355 45.5292 68.2965 45.8999 69.0378C46.2914 69.8186 46.7466 70.5658 47.2609 71.2718C47.8887 72.1587 48.3026 72.7444 48.4101 74.3526C48.5266 76.0733 48.6371 78.7784 48.7255 80.9511C48.7868 82.4347 48.839 83.7155 48.8742 84.2016C48.8953 84.503 48.7737 84.6145 48.6662 84.6577C48.4251 84.7581 48.1117 84.5964 47.2238 83.5125C47.0219 83.2705 46.7085 83.1971 46.3991 83.1971Z" fill="#1A3A68"/>
<path id="Vector_69" d="M41.4254 90.3592C41.1 90.3601 40.7782 90.2913 40.4816 90.1576C40.185 90.0238 39.9204 89.8282 39.7057 89.5837L36.873 86.3513C36.8375 86.3066 36.8206 86.25 36.8257 86.1933C36.8309 86.1365 36.8576 86.0838 36.9005 86.0463C36.9434 86.0087 36.999 85.989 37.056 85.9914C37.113 85.9938 37.1669 86.0179 37.2065 86.059L40.0391 89.2914C40.3596 89.6541 40.8096 89.8766 41.2923 89.911C41.7751 89.9454 42.2521 89.7889 42.6207 89.4752C42.6424 89.4541 42.6683 89.4377 42.6966 89.4269C42.725 89.4161 42.7553 89.4113 42.7855 89.4127C42.8158 89.414 42.8455 89.4216 42.8728 89.4349C42.9001 89.4482 42.9243 89.467 42.944 89.49C42.9637 89.513 42.9785 89.5399 42.9875 89.5688C42.9964 89.5978 42.9994 89.6283 42.9961 89.6585C42.9928 89.6886 42.9834 89.7178 42.9684 89.7441C42.9534 89.7705 42.9332 89.7935 42.909 89.8117C42.4961 90.1663 41.9696 90.3606 41.4254 90.3592Z" fill="#1A3A68"/>
<path id="Vector_70" d="M45.7872 32.0854C45.7403 32.0853 45.6947 32.0703 45.6569 32.0427C45.619 32.015 45.5909 31.9761 45.5765 31.9315C45.5621 31.8869 45.5622 31.8389 45.5768 31.7944C45.5913 31.7499 45.6197 31.7111 45.6576 31.6836C51.3634 27.6098 57.6265 24.3796 64.2538 22.0927C64.3095 22.0735 64.3705 22.0772 64.4234 22.103C64.4764 22.1288 64.5169 22.1746 64.5361 22.2303C64.5552 22.286 64.5515 22.347 64.5257 22.3999C64.4999 22.4529 64.4541 22.4934 64.3984 22.5126C57.8115 24.7855 51.5866 27.996 45.9157 32.0452C45.8781 32.0716 45.8332 32.0856 45.7872 32.0854Z" fill="#1A3A68"/>
<path id="Vector_71" d="M35.503 35.0757C35.4715 35.0755 35.4403 35.0687 35.4116 35.0558C35.3829 35.0428 35.3572 35.0239 35.3362 35.0004C35.317 34.9785 35.3022 34.953 35.2928 34.9254C35.2833 34.8978 35.2795 34.8686 35.2813 34.8395C35.2832 34.8104 35.2908 34.782 35.3037 34.7558C35.3165 34.7296 35.3344 34.7062 35.3563 34.687C44.7232 26.4501 55.2785 20.6693 66.7287 17.5101C66.7854 17.4944 66.8461 17.5019 66.8973 17.5309C66.9485 17.5599 66.9862 17.6081 67.0019 17.6648C67.0176 17.7216 67.0101 17.7822 66.9811 17.8335C66.9521 17.8847 66.9039 17.9223 66.8472 17.938C55.4612 21.0831 44.9653 26.8308 35.6496 35.0245C35.6083 35.0584 35.5564 35.0765 35.503 35.0757Z" fill="#1A3A68"/>
<path id="Vector_72" d="M79.4918 16.2666C79.4511 16.2668 79.4112 16.2557 79.3763 16.2346C79.3415 16.2135 79.3132 16.1833 79.2945 16.1471C79.2758 16.1109 79.2674 16.0703 79.2703 16.0297C79.2733 15.9891 79.2873 15.9501 79.311 15.917L80.3045 14.5107C80.3204 14.4849 80.3415 14.4627 80.3664 14.4454C80.3912 14.4281 80.4194 14.4161 80.4491 14.4101C80.4788 14.404 80.5094 14.4042 80.5391 14.4104C80.5687 14.4167 80.5967 14.429 80.6215 14.4465C80.6462 14.464 80.6671 14.4864 80.6828 14.5123C80.6986 14.5382 80.7089 14.567 80.713 14.597C80.7172 14.627 80.7152 14.6576 80.7071 14.6868C80.6991 14.716 80.6851 14.7432 80.6661 14.7668L79.6737 16.1731C79.6531 16.2022 79.6259 16.2259 79.5942 16.2421C79.5626 16.2584 79.5274 16.2668 79.4918 16.2666Z" fill="#1A3A68"/>
<path id="Vector_73" d="M77.1795 19.5414C77.1389 19.5414 77.099 19.5303 77.0642 19.5092C77.0295 19.4881 77.0012 19.4579 76.9825 19.4218C76.9637 19.3858 76.9552 19.3453 76.9579 19.3047C76.9606 19.2641 76.9744 19.2251 76.9977 19.1918L77.9912 17.7855C78.0254 17.7381 78.0769 17.706 78.1346 17.6964C78.1923 17.6868 78.2515 17.7003 78.2993 17.734C78.3471 17.7678 78.3796 17.819 78.3898 17.8767C78.4 17.9343 78.3871 17.9936 78.3538 18.0417L77.3603 19.448C77.3398 19.4768 77.3126 19.5003 77.2812 19.5165C77.2498 19.5328 77.2149 19.5413 77.1795 19.5414Z" fill="#1A3A68"/>
<path id="Vector_74" d="M77.8978 16.5399C77.8522 16.54 77.8076 16.526 77.7703 16.4997L76.364 15.5063C76.3382 15.4903 76.316 15.4692 76.2987 15.4444C76.2814 15.4195 76.2693 15.3913 76.2633 15.3617C76.2573 15.332 76.2575 15.3013 76.2637 15.2717C76.27 15.242 76.2822 15.214 76.2998 15.1893C76.3173 15.1645 76.3396 15.1437 76.3655 15.1279C76.3914 15.1122 76.4203 15.1019 76.4503 15.0977C76.4803 15.0935 76.5108 15.0955 76.54 15.1036C76.5693 15.1117 76.5965 15.1257 76.6201 15.1447L78.0264 16.1371C78.0643 16.1645 78.0925 16.2032 78.1071 16.2477C78.1217 16.2921 78.1219 16.34 78.1077 16.3846C78.0934 16.4291 78.0654 16.468 78.0278 16.4957C77.9901 16.5235 77.9446 16.5386 77.8978 16.5389V16.5399Z" fill="#1A3A68"/>
<path id="Vector_75" d="M81.1723 18.8503C81.1263 18.8503 81.0815 18.8362 81.0437 18.8101L79.6374 17.8166C79.6133 17.8 79.5927 17.7786 79.5769 17.754C79.561 17.7293 79.5503 17.7017 79.5451 17.6728C79.54 17.6439 79.5407 17.6143 79.5471 17.5857C79.5535 17.5571 79.5655 17.53 79.5824 17.506C79.5993 17.4821 79.6208 17.4617 79.6457 17.4461C79.6705 17.4305 79.6982 17.42 79.7272 17.4151C79.7561 17.4103 79.7857 17.4113 79.8143 17.4179C79.8428 17.4246 79.8698 17.4369 79.8936 17.454L81.2999 18.4475C81.3377 18.4748 81.3659 18.5135 81.3805 18.5578C81.3951 18.6021 81.3954 18.65 81.3813 18.6945C81.3672 18.739 81.3393 18.7779 81.3018 18.8057C81.2643 18.8335 81.219 18.8487 81.1723 18.8493V18.8503Z" fill="#1A3A68"/>
<path id="Vector_76" d="M71.9952 19.2742C71.5269 19.2763 71.0746 19.1038 70.7265 18.7905C70.3785 18.4771 70.1596 18.0453 70.1127 17.5793C70.0658 17.1133 70.1943 16.6466 70.4729 16.2701C70.7516 15.8937 71.1605 15.6346 71.6199 15.5434C72.0792 15.4522 72.5561 15.5354 72.9574 15.7768C73.3588 16.0182 73.6558 16.4005 73.7905 16.849C73.9252 17.2976 73.888 17.7802 73.6861 18.2028C73.4842 18.6254 73.132 18.9576 72.6984 19.1345C72.4751 19.2258 72.2364 19.2732 71.9952 19.2742ZM71.9952 15.9593C71.6387 15.9585 71.2946 16.0902 71.0297 16.3288C70.7649 16.5675 70.5981 16.896 70.5619 17.2507C70.5257 17.6054 70.6226 17.9609 70.8337 18.2481C71.0449 18.5354 71.3553 18.7339 71.7046 18.8052C72.054 18.8764 72.4173 18.8153 72.7241 18.6337C73.0309 18.4521 73.2593 18.163 73.3648 17.8224C73.4704 17.4819 73.4457 17.1143 73.2954 16.791C73.1452 16.4676 72.8801 16.2117 72.5517 16.0728C72.3755 15.9991 72.1863 15.9616 71.9952 15.9623V15.9593Z" fill="#1A3A68"/>
<path id="Vector_77" d="M108.269 24.6553C108.449 24.0714 108.736 23.5262 109.116 23.0481C110.947 20.7378 114.504 20.3611 117.061 22.2053C119.334 23.8447 120.049 26.6894 118.892 28.9234L119.505 29.3644L121.101 28.8762L122.329 29.9912C122.402 29.8254 122.47 29.6587 122.53 29.4889C122.566 29.3956 122.628 29.3148 122.71 29.2565C122.791 29.1981 122.887 29.1647 122.987 29.1605L124.579 29.056C124.7 29.0525 124.815 29.0057 124.904 28.9241C124.993 28.8426 125.05 28.7318 125.064 28.612L125.193 27.3845C125.202 27.2613 125.169 27.1386 125.101 27.036C125.032 26.9333 124.931 26.8566 124.813 26.818L123.286 26.2675C123.188 26.2349 123.101 26.176 123.035 26.0973C122.968 26.0187 122.925 25.9233 122.909 25.8215C122.876 25.5537 122.83 25.2885 122.77 25.026C122.749 24.93 122.757 24.8299 122.795 24.739C122.832 24.6481 122.897 24.5708 122.979 24.5177L124.265 23.6679C124.365 23.6028 124.437 23.5034 124.469 23.3884C124.5 23.2735 124.488 23.151 124.436 23.0441L123.89 21.8879C123.835 21.7757 123.745 21.6839 123.635 21.6255C123.524 21.5671 123.397 21.545 123.274 21.5625L121.699 21.7905C121.596 21.8055 121.49 21.793 121.393 21.7542C121.296 21.7154 121.211 21.6517 121.146 21.5695C120.977 21.3485 120.796 21.1339 120.604 20.9256C120.533 20.8538 120.486 20.7626 120.468 20.6638C120.45 20.5649 120.462 20.463 120.503 20.3711L121.13 19.011C121.177 18.8993 121.184 18.7746 121.15 18.6583C121.115 18.5419 121.042 18.4411 120.941 18.3732L119.867 17.5987C119.767 17.5243 119.645 17.4842 119.52 17.4842C119.395 17.4842 119.273 17.5243 119.172 17.5987L117.967 18.544C117.885 18.6068 117.787 18.6459 117.684 18.6571C117.581 18.6682 117.477 18.651 117.383 18.6072C117.12 18.4874 116.854 18.3799 116.586 18.2848C116.488 18.2513 116.402 18.1918 116.336 18.1126C116.27 18.0334 116.227 17.9377 116.212 17.8358L116.011 16.3291C115.991 16.2053 115.931 16.0915 115.84 16.0048C115.75 15.9182 115.633 15.8634 115.509 15.8489L114.194 15.6631C114.074 15.6421 113.951 15.6631 113.844 15.7226C113.738 15.7821 113.656 15.8764 113.611 15.9895L113.109 17.4008C113.074 17.4946 113.012 17.576 112.931 17.6348C112.85 17.6935 112.754 17.7271 112.654 17.7313C112.372 17.7481 112.092 17.7779 111.813 17.8207C111.709 17.8347 111.604 17.8214 111.507 17.7821C111.41 17.7428 111.325 17.6789 111.26 17.5967L110.297 16.3391C110.219 16.2405 110.112 16.1688 109.992 16.134C109.871 16.0993 109.742 16.1032 109.623 16.1452L108.418 16.5983C108.305 16.6381 108.211 16.7176 108.153 16.8219C108.095 16.9262 108.077 17.0481 108.103 17.1648L108.428 18.6575C108.45 18.7534 108.442 18.8538 108.405 18.945C108.369 19.0363 108.305 19.1141 108.222 19.1677C107.995 19.3154 107.776 19.4751 107.563 19.6449C107.48 19.7071 107.382 19.7456 107.279 19.7564C107.176 19.7672 107.072 19.7499 106.979 19.7062L105.494 19.0512C105.382 18.9981 105.256 18.9834 105.135 19.0096C105.014 19.0358 104.905 19.1013 104.825 19.1959L104.055 20.1662C103.981 20.2616 103.945 20.3801 103.952 20.5001C103.959 20.6201 104.008 20.7336 104.092 20.8201L105.161 22.0004C105.232 22.0721 105.279 22.1631 105.296 22.2618C105.314 22.3604 105.302 22.4622 105.262 22.5539C105.234 22.6132 105.209 22.6734 105.183 22.7337L106.899 22.8L108.269 24.6553Z" fill="#1A3A68"/>
<path id="Vector_78" d="M122.727 33.084L121.635 31.9218C121.564 31.8511 121.516 31.7609 121.497 31.6626C121.478 31.5644 121.488 31.4626 121.527 31.3703C121.562 31.2919 121.592 31.2136 121.627 31.1352L120.378 30.0413L118.793 30.5577L118.172 30.1277C118.032 30.4144 117.863 30.6866 117.67 30.9404C115.888 33.2849 112.346 33.7258 109.752 31.9258C107.717 30.5115 106.877 28.1348 107.475 26.0435L106.069 24.2093L104.353 24.1731C104.277 24.3579 104.205 24.5438 104.142 24.7326C104.108 24.8266 104.048 24.9086 103.968 24.9684C103.888 25.0282 103.792 25.0632 103.692 25.0691L102.1 25.2057C101.98 25.2116 101.866 25.2605 101.779 25.3435C101.691 25.4264 101.637 25.538 101.625 25.6577L101.525 26.8893C101.518 27.0127 101.553 27.1346 101.624 27.2359C101.695 27.3372 101.797 27.4121 101.915 27.4487L103.452 27.9721C103.551 28.0033 103.639 28.0609 103.707 28.1386C103.775 28.2164 103.82 28.3113 103.838 28.4131C103.877 28.6809 103.929 28.9454 103.993 29.2066C104.016 29.3023 104.009 29.4028 103.973 29.4945C103.937 29.5861 103.874 29.6645 103.792 29.7189L102.526 30.5918C102.427 30.6588 102.356 30.7598 102.327 30.8755C102.298 30.9913 102.312 31.1137 102.367 31.2196L102.935 32.3668C102.993 32.4782 103.085 32.5685 103.198 32.6251C103.31 32.6816 103.437 32.7016 103.562 32.6822L105.129 32.426C105.232 32.4093 105.338 32.4201 105.436 32.4573C105.534 32.4945 105.62 32.5568 105.686 32.638C105.86 32.8559 106.045 33.0669 106.241 33.2728C106.312 33.3436 106.36 33.4341 106.379 33.5326C106.398 33.631 106.387 33.733 106.348 33.8253L105.745 35.1974C105.7 35.3103 105.695 35.4354 105.732 35.5513C105.769 35.6673 105.844 35.7669 105.946 35.8333L107.034 36.5886C107.136 36.6614 107.258 36.6995 107.383 36.6973C107.508 36.6951 107.629 36.6528 107.728 36.5766L108.91 35.6083C108.991 35.5443 109.088 35.5036 109.191 35.4907C109.293 35.4778 109.398 35.4931 109.492 35.5349C109.756 35.6504 110.025 35.7529 110.296 35.8443C110.394 35.8761 110.481 35.9341 110.548 36.012C110.616 36.0899 110.66 36.1848 110.677 36.2863L110.906 37.793C110.929 37.9158 110.99 38.0279 111.082 38.1128C111.173 38.1977 111.29 38.2508 111.414 38.2641L112.731 38.4269C112.851 38.4458 112.974 38.4225 113.079 38.361C113.184 38.2994 113.264 38.2035 113.306 38.0894L113.783 36.669C113.816 36.5742 113.877 36.4913 113.957 36.4307C114.037 36.3701 114.133 36.3346 114.233 36.3285C114.515 36.3054 114.794 36.2712 115.071 36.228C115.175 36.2117 115.281 36.2229 115.378 36.2607C115.476 36.2984 115.562 36.3613 115.628 36.443L116.623 37.6795C116.703 37.7769 116.811 37.8467 116.933 37.8793C117.055 37.9119 117.183 37.9057 117.301 37.8613L118.493 37.3862C118.605 37.3444 118.697 37.2631 118.753 37.1577C118.808 37.0524 118.823 36.9303 118.795 36.8147L118.443 35.324C118.419 35.2287 118.425 35.1282 118.46 35.0364C118.495 34.9445 118.558 34.8657 118.639 34.8107C118.862 34.659 119.078 34.4953 119.287 34.3215C119.368 34.2577 119.466 34.2174 119.568 34.2048C119.671 34.1923 119.775 34.208 119.87 34.2502L121.363 34.884C121.476 34.9354 121.602 34.948 121.723 34.9198C121.843 34.8916 121.951 34.8243 122.029 34.7283L122.778 33.7429C122.85 33.6456 122.885 33.5252 122.876 33.404C122.867 33.2828 122.814 33.1691 122.727 33.084Z" fill="#1A3A68"/>
</g>
</g>
</svg>
