<svg xmlns="http://www.w3.org/2000/svg" width="375" height="375" viewBox="0 0 375 375" fill="none">
  <path d="M279.83 133.961H275.964L289.36 147.355L275.964 160.747H279.83L293.222 147.355L279.83 133.961ZM294.638 139.242L299.919 133.962H296.053L294.636 135.38L293.219 133.962H289.36L294.641 139.243L294.638 139.242ZM293.221 133.944L281.246 121.967L269.268 133.944H273.133L281.246 125.832L289.36 133.944H293.221ZM286.524 133.944L281.244 128.663L275.962 133.944H279.828L281.246 132.527L282.663 133.944H286.524ZM254.458 142.071L246.347 133.958H242.483L254.46 145.936L266.438 133.958H262.572L254.458 142.071ZM227.673 142.071L219.561 133.958H215.697L227.675 145.939L239.657 133.961H235.782L227.673 142.071ZM214.282 128.663V132.529L215.7 133.946H219.565L214.282 128.663ZM254.46 135.372L253.042 133.955H249.178L254.458 139.236L259.739 133.955H255.875L254.46 135.372ZM241.067 112.44L249.18 120.552L241.067 128.663L235.782 133.944H239.657L241.074 132.527L253.051 120.55L241.067 108.574V112.44ZM246.349 107.159L241.069 101.88V105.746L242.487 107.163L255.877 120.554L242.483 133.944H246.349L259.741 120.552L246.349 107.159ZM200.889 132.529L202.307 133.946H206.172L200.891 128.665L195.609 133.944H199.474L200.889 132.529ZM212.867 133.961H209.001L195.609 147.355L209.001 160.747H212.867L199.474 147.355L212.867 133.961ZM188.914 133.944H192.778L200.889 125.832L209.001 133.944H212.867L200.889 121.967L188.914 133.944ZM227.677 135.377L226.259 133.959H222.394L227.675 139.241L232.955 133.959H229.09L227.677 135.377ZM241.069 159.331L242.487 160.749H246.352L241.067 155.47L241.069 159.331ZM281.247 162.166L279.83 160.749H275.964L281.246 166.03L286.527 160.749H282.661L281.247 162.166ZM202.307 160.749H206.172L192.778 147.355L206.17 133.961H202.305L188.914 147.355L202.307 160.749ZM92.3333 227.726L105.726 214.332H101.86L88.4686 227.726L101.861 241.118H105.727L92.3333 227.726ZM267.853 188.945L266.436 187.528L253.044 174.139L266.438 160.747H262.572L249.179 174.139L262.572 187.532L267.851 192.811L267.853 188.945ZM241.067 152.635L249.179 160.747H253.044L241.067 148.77V152.635ZM255.877 187.532L267.853 199.508V195.642L259.741 187.53L246.349 174.139L259.741 160.747H255.875L242.483 174.139L255.875 187.532H255.877ZM133.926 162.162V166.028L139.207 160.747H135.342L133.926 162.162ZM115.252 133.944H119.118L120.536 132.527L121.953 133.944H125.819L120.537 128.663L115.252 133.944ZM160.712 152.635L165.992 147.355L160.712 142.073L147.319 155.47L133.926 142.077L125.815 133.965H121.949L133.926 145.943L147.319 159.335L160.712 145.943L162.129 147.36L160.712 148.778L148.734 160.755H152.6L160.712 152.642V152.635ZM133.926 172.724L145.904 160.747H142.038L133.926 168.858V172.724ZM108.557 160.747L120.534 172.724L132.512 160.747H128.646L120.534 168.858L112.422 160.747H108.557ZM135.342 160.747H139.211L133.926 155.47L128.645 160.751H132.511L133.928 159.333L135.342 160.747ZM214.282 125.832L222.394 133.944H226.259L214.282 121.966V125.832ZM188.914 160.747H192.778L187.497 155.47L182.216 160.751H186.079L187.497 159.333L188.914 160.747ZM120.536 162.164L119.118 160.747H115.252L120.534 166.028L125.815 160.747H121.949L120.536 162.164ZM115.254 160.747H119.12L132.512 147.355L119.12 133.961H115.254L128.647 147.355L115.254 160.747ZM175.522 133.962L187.497 145.939L199.475 133.961H195.609L187.497 142.073L179.385 133.962H175.522ZM187.497 139.242L192.778 133.961H188.914L187.497 135.379L186.079 133.961H182.216L187.497 139.242ZM187.497 128.659L182.216 133.941H186.079L187.497 132.523L200.889 119.131L214.282 132.523V128.657L200.889 115.271L187.497 128.659ZM214.282 135.368L202.305 147.355L214.282 159.331L215.7 160.749H219.566L214.282 155.47L206.17 147.358L214.282 139.246L227.675 152.635L241.067 139.242V135.376L227.675 148.77L214.282 135.377V135.368ZM133.926 152.635L142.038 160.747H145.904L133.926 148.769L121.949 160.746H125.815L133.926 152.634V152.635ZM159.294 187.53L145.904 174.139L159.296 160.747H155.431L142.038 174.139L155.43 187.531L147.319 195.642L139.211 187.53L133.932 182.251V186.116L135.349 187.534L147.325 199.509L159.3 187.534L159.294 187.53ZM135.342 174.139L148.733 187.531L147.316 188.948L145.898 187.531L133.922 175.556V179.421L142.034 187.533L147.314 192.812L152.592 187.533L139.211 174.139L152.603 160.747H148.738L135.342 174.139ZM214.282 182.251L209.003 187.53L200.891 195.642L192.779 187.531L206.17 174.139L192.778 160.747H188.914L202.307 174.139L188.914 187.53L200.889 199.506L212.865 187.53L214.282 186.112L215.7 187.53L214.282 188.947L200.889 202.338L187.497 188.945L186.079 187.528L174.104 175.553L162.129 187.528L160.712 188.945L147.319 202.338L133.926 188.945V192.811L147.319 206.203L160.712 192.811L165.99 187.532L174.101 179.42L182.214 187.532L187.497 192.811L200.889 206.203L214.282 192.811L219.561 187.532L214.282 182.253V182.251ZM160.712 162.162L148.734 174.139L160.712 186.116L174.104 172.723L187.497 186.116L199.475 174.138L187.497 162.162L186.079 160.745H182.215L187.497 166.028L195.609 174.139L187.497 182.251L174.104 168.858L160.712 182.251L152.6 174.139L160.712 166.028L165.993 160.747H162.127L160.712 162.162ZM179.385 160.745L187.497 152.635L195.609 160.746H199.474L187.497 148.77L175.52 160.747L179.385 160.745ZM133.926 233.004V229.138L121.949 241.116H125.815L133.926 233.004ZM222.394 214.314H226.259L214.282 202.338L202.305 214.315H206.17L214.282 206.203L222.394 214.314ZM133.926 239.701V235.835L128.646 241.116H132.511L133.926 239.701ZM187.497 226.31L199.475 214.332H195.609L187.497 222.445L179.385 214.332H175.52L187.497 226.31ZM147.319 259.789L160.712 246.396L165.993 241.115H162.127L160.71 242.533L147.319 255.926L133.926 242.534L132.509 241.116H128.644L133.924 246.396L147.319 259.789ZM107.141 226.31L120.534 239.703L133.926 226.31V222.445L120.534 235.837L107.141 222.445L101.86 227.726L107.141 233.006L115.252 241.118H119.118L107.141 229.14L105.724 227.723L107.141 226.305V226.31ZM85.6367 227.728L99.03 214.334H95.1643L81.771 227.728L95.1634 241.12H99.0291L85.6367 227.728ZM93.7488 159.333L107.141 145.941L108.559 147.358L107.141 148.776V152.635L112.421 147.355L107.141 142.073L93.7488 155.47L80.3555 142.077L75.0752 147.358L80.3555 152.639L88.4676 160.751H92.3333L80.3555 148.774L78.9381 147.356L80.3555 145.939L93.7488 159.333ZM80.3555 226.312L92.3333 214.334H88.4686L80.3564 222.446L72.2452 214.334H68.3795L80.3564 226.312H80.3555ZM93.7488 242.535L92.3314 241.118H88.4686L93.7498 246.399L99.03 241.118H95.1643L93.7488 242.535ZM95.1662 160.749H99.0319L107.144 152.637V148.772L95.1662 160.749ZM286.525 214.332H282.659L281.242 215.75L279.824 214.332H275.964L281.246 219.614L286.525 214.332ZM255.875 241.118H259.741L246.349 227.726L259.741 214.332H255.875L242.483 227.726L255.875 241.118ZM259.741 214.315L254.46 209.034L249.18 214.315H253.044L254.462 212.898L255.879 214.315H259.741ZM269.269 214.332L281.246 226.31L293.222 214.332H289.36L281.248 222.445L273.136 214.332H269.269ZM254.46 192.811L267.853 206.203V202.338L254.46 188.945L241.067 202.338L239.65 200.92L241.067 199.503L253.042 187.527L241.067 175.555L229.092 187.53L215.697 200.92L229.09 214.313H232.956L219.563 200.92L232.953 187.529L241.064 179.418L249.176 187.528L241.064 195.639L235.782 200.92L241.064 206.2L254.46 192.811ZM214.282 226.31L226.259 214.332H222.394L214.282 222.445V226.31ZM214.282 215.748V219.614L219.563 214.332H215.697L214.282 215.748ZM267.853 239.703L269.27 241.12H273.135L267.855 235.839L259.743 227.728L267.855 219.615L281.247 233.008L294.64 219.615L302.752 227.728L294.64 235.839L289.36 241.118H293.225L294.643 239.701L306.62 227.724L294.643 215.746L281.246 229.14L267.853 215.748L255.875 227.726L267.853 239.703ZM266.436 241.12L253.044 227.726L266.438 214.332H262.572L249.179 227.726L262.572 241.118L266.436 241.12ZM241.067 148.77L229.09 160.747H232.956L241.067 152.635V148.77ZM241.067 159.331V155.47L235.782 160.747H239.657L241.067 159.331ZM294.638 159.331L296.055 160.749H299.921L294.638 155.47L289.36 160.747H293.225L294.638 159.331ZM254.46 155.47L241.067 142.073V145.939L254.46 159.331L267.852 145.939L269.27 147.356L267.852 148.774L255.875 160.747H259.741L267.852 152.635L273.133 147.355L267.853 142.073L254.46 155.47ZM72.2442 174.139L80.3555 166.028L85.6367 160.747H81.771L80.3536 162.164L68.3766 174.141L80.3536 186.119L81.771 187.536L80.3536 188.954L66.963 202.338L53.5706 188.945L52.1532 187.528L53.5706 186.111L54.988 187.528L66.963 199.504L78.939 187.528L65.5485 174.137L78.9419 160.745H75.0762L61.6828 174.137L75.0752 187.529L66.964 195.64L58.8527 187.528L53.5735 182.25L48.2942 187.528L53.5735 192.807L66.9659 206.2L80.3583 192.807L85.6376 187.528L80.3583 182.25L72.2442 174.139ZM253.044 160.747H249.18L241.067 168.858L227.675 182.251L214.282 168.859L206.17 160.748H202.305L214.282 172.724L227.675 186.117L241.067 172.724L253.044 160.747ZM214.282 162.164L212.865 160.747H209.001L214.282 166.028L227.675 179.42L241.067 166.028L246.349 160.747H242.483L241.065 162.164L227.675 175.555L214.282 162.162V162.164ZM227.675 162.164L226.258 160.747H222.394L227.675 166.028L232.956 160.747H229.09L227.675 162.164ZM215.697 160.747L227.675 172.724L239.657 160.747H235.782L227.675 168.859L219.563 160.747H215.697ZM241.067 142.073L227.675 155.47L214.282 142.073L209.001 147.355L214.282 152.635L222.394 160.747H226.259L214.282 148.769L212.864 147.352L214.282 145.934L227.675 159.331L241.067 145.939V142.073ZM279.83 147.355L267.853 135.377L254.46 148.77L241.067 135.377V139.242L254.46 152.635L267.852 139.242L275.964 147.354L267.852 155.47L262.572 160.751H266.438L267.855 159.333L279.83 147.355ZM107.141 115.271L101.86 120.552L107.141 125.832V121.967L105.724 120.55L107.141 119.133V115.271ZM85.6338 160.747L80.3526 155.466V159.331L81.77 160.749L85.6338 160.747ZM273.131 160.747H269.266L281.246 172.724L293.222 160.747H289.36L281.248 168.859L273.131 160.747ZM68.3757 147.355L80.3526 159.331V155.47L72.2414 147.358L80.3526 139.246L93.7488 152.635L107.141 139.242V135.376L93.7488 148.77L80.3555 135.377L68.3757 147.355ZM107.138 108.574L95.1605 120.552L107.138 132.529V128.663L99.0262 120.552L107.138 112.44V108.574ZM135.339 133.961L147.316 145.939L159.294 133.961H155.428L147.316 142.073L139.211 133.961H135.339ZM281.243 115.271L267.852 128.663L262.572 133.944H266.438L267.855 132.527L281.248 119.135L294.641 132.527L296.058 133.944H299.924L294.643 128.663L281.243 115.271ZM172.689 160.747H168.823L160.712 168.859L155.431 174.14L160.712 179.421L174.104 166.029L187.497 179.42L192.778 174.139L187.497 168.859L179.385 160.748H175.52L187.497 172.724L188.914 174.141L187.497 175.559L174.104 162.166L160.712 175.559L159.294 174.141L160.712 172.724L172.689 160.747ZM152.6 133.961H148.734L147.317 135.379L145.899 133.961H142.034L147.314 139.242L152.6 133.961ZM105.726 241.115H101.86L93.7488 249.226L85.6367 241.115H81.771L93.7488 253.092L105.726 241.115ZM160.712 121.961L148.734 133.944H152.6L160.712 125.832L168.823 133.944H172.689L160.712 121.966V121.961ZM168.823 133.956L182.216 147.348L168.823 160.74H172.689L186.079 147.355L172.687 133.962L168.823 133.956ZM259.741 53.5911H255.875L242.483 66.9835L255.875 80.3758H259.741L246.349 66.9835L259.741 53.5911ZM254.46 48.292L249.18 53.5732H253.044L254.462 52.1558L255.879 53.5732H259.745L254.46 48.292ZM107.146 132.529L120.538 119.136L133.931 132.529L145.909 120.552L133.931 108.574L132.513 107.157L133.931 105.739L135.348 107.157L148.739 120.547L135.342 133.944H139.211L152.603 120.552L139.211 107.159L133.932 101.88L128.652 107.159L133.931 112.437L142.043 120.549L133.931 128.66L120.538 115.268L107.146 128.66V132.529ZM187.497 121.967L175.52 133.944H179.385L187.497 125.832L200.889 112.44L214.282 125.833V121.967L200.889 108.574L187.497 121.967ZM40.1829 233.006L53.5753 219.614L61.6875 227.726L53.5753 235.837V239.703L65.5523 227.726L53.5753 215.748L40.1829 229.14L26.7905 215.748L25.3731 214.331H21.5074L26.7886 219.612L40.1829 233.006ZM61.6866 147.355L75.0799 160.747H78.9456L65.5523 147.355L78.9447 133.962H75.0799L61.6866 147.355ZM107.146 139.242L115.257 147.355L107.141 155.47V159.335L119.118 147.358L107.141 135.381L107.146 139.242ZM101.865 107.159L88.4686 120.552L101.861 133.944H105.727L92.3343 120.552L105.725 107.161L107.142 105.744V101.878L101.863 107.157L101.865 107.159ZM229.09 80.3758H232.956L241.067 72.2646L249.18 80.3758H253.045L241.067 68.399L229.09 80.3758ZM242.483 80.3758H246.349L241.067 75.0947L235.782 80.3758H239.657L241.074 78.9585L242.483 80.3758ZM253.042 107.159L241.067 95.1837V99.0493L249.179 107.161L262.57 120.552L249.18 133.944H253.044L266.438 120.552L253.044 107.159H253.042ZM302.745 133.962L294.634 142.073L286.525 133.961H282.66L294.638 145.939L306.615 133.962H302.745ZM266.438 80.3758H262.572L254.46 88.488L246.349 80.3758H242.483L254.46 92.3489L266.438 80.3758ZM209.003 107.161L214.282 112.44L227.675 125.833L241.067 112.44V108.574L227.675 121.967L214.282 108.574L212.865 107.157L214.282 105.739L215.7 107.157L227.675 119.136L239.65 107.161L226.259 93.7663L239.657 80.3758H235.782L222.394 93.7663L235.782 107.161L227.672 115.271L219.56 107.159L214.282 101.88L209.003 107.159V107.161ZM28.2003 214.332L40.1829 226.31L52.1598 214.332H48.2942L40.1829 222.445L32.0708 214.332H28.2003ZM241.067 88.488L235.782 93.7663L241.064 99.0475V95.1837L239.646 93.7663L241.064 92.3489L241.067 88.488ZM241.067 81.7913L229.09 93.7663L241.067 105.744V101.878L232.955 93.7663L241.067 85.6551V81.7913ZM254.46 85.657L259.741 80.3758H255.875L254.458 81.7932L253.04 80.3758H249.176L254.46 85.657ZM306.615 160.747L294.638 148.77L282.661 160.747H286.525L294.637 152.636L302.748 160.747H306.615ZM53.5706 233.006V229.14L41.5937 241.118H45.4594L53.5706 233.006ZM53.5706 226.31L54.988 227.728L53.5706 229.145V233.011L58.8518 227.73L53.5706 222.449L40.1829 235.837L26.7905 222.445L18.6783 214.332H14.8126L26.7905 226.31L40.1829 239.703L53.5706 226.31ZM26.7858 239.703L28.2032 241.12H32.0689L26.7886 235.839L21.5074 241.12H25.3731L26.7858 239.703ZM53.5706 239.703V235.837L48.2894 241.118H52.1551L53.5706 239.703ZM38.7627 241.12L26.7858 229.142L14.8079 241.12H18.6736L26.7858 233.008L34.897 241.12H38.7627ZM255.875 133.944H259.741L267.852 125.833L281.246 112.44L294.638 125.832L302.749 133.944H306.615L294.638 121.967L281.246 108.574L267.852 121.967L255.875 133.944ZM80.3555 233.006L88.4676 241.118H92.3333L80.3555 229.14L68.3785 241.118H72.2442L80.3555 233.006ZM78.9381 227.726L65.5447 214.332H61.68L75.0724 227.726L61.679 241.118H65.5447L78.9381 227.726ZM45.4566 214.332H41.5909L40.1735 215.75L38.7561 214.332H34.8904L40.1716 219.614L45.4566 214.332ZM58.849 214.332H54.9833L68.3757 227.726L54.9833 241.118H58.849L72.2414 227.726L58.849 214.332ZM65.5447 214.315L53.5706 202.338L41.5937 214.315H45.4584L53.5706 206.203L61.6819 214.315H65.5447ZM26.7829 212.898L38.7655 200.92L26.7886 188.942L25.3712 187.525L26.7886 186.108L28.206 187.525L41.5937 200.92L28.2003 214.313H32.066L45.4594 200.92L32.066 187.527L26.7877 182.249L21.5084 187.527L26.7877 192.806L34.8989 200.918L26.7877 209.03L13.3943 195.637L0.0018917 209.03V212.895L13.3943 199.503L26.7829 212.898ZM58.849 214.315L53.5678 209.034L48.2866 214.315H52.1523L53.5697 212.898L54.9871 214.315H58.849ZM13.3896 253.095L25.3674 241.118H21.5018L13.3896 249.229L5.27835 241.118H1.41266L13.3896 253.095ZM13.3896 206.203L21.5018 214.315H25.3674L13.3924 202.338L1.4155 214.315H5.28119L13.3896 206.203ZM18.6708 214.315L13.3896 209.034L8.10934 214.315H11.975L13.3924 212.898L14.8098 214.315H18.6708ZM11.975 214.332H8.10934L21.5018 227.726L8.10841 241.118H11.9741L25.3674 227.726L11.975 214.332ZM1.41266 241.118H5.27835L18.6708 227.726L5.27835 214.332H1.41266L14.8051 227.726L1.41266 241.118ZM13.3896 246.399L18.6708 241.118H14.8051L13.3877 242.535L11.9703 241.118H8.10557L13.3896 246.399ZM108.554 160.747H112.419L125.812 147.355L112.422 133.961H108.557L121.949 147.354L108.554 160.747ZM105.719 214.315L93.7488 202.338L81.771 214.315H85.6338L93.746 206.203L101.857 214.315H105.719ZM93.7422 212.898L95.1596 214.315H99.0243L93.7441 209.034L88.4629 214.315H92.3286L93.7422 212.898ZM80.3555 202.338L68.3785 214.315H72.2442L80.3555 206.203L93.7488 192.811L107.141 206.203L115.252 214.315H119.118L107.141 202.338L93.7488 188.944L80.3555 202.338ZM78.9381 214.332H75.0724L80.3526 219.614L85.6338 214.332H81.7681L80.3507 215.75L78.9381 214.332ZM174.101 195.642L160.709 209.034V212.9L174.101 199.508L187.497 212.9L188.914 214.317H192.778L187.497 209.034L174.101 195.642ZM273.13 187.53L267.851 182.251L259.739 174.139L267.851 166.028L281.244 179.42L294.636 166.028L299.917 160.747H296.052L294.634 162.164L281.246 175.555L267.853 162.162L255.875 174.139L267.853 186.116L269.27 187.534L282.661 200.92L269.268 214.315H273.133L286.525 200.92L273.13 187.53ZM132.512 214.332H128.646L120.534 222.445L112.422 214.332H108.557L120.534 226.31L132.512 214.332ZM120.534 215.75L119.116 214.332H115.251L120.532 219.614L125.813 214.332H121.947L120.534 215.75ZM135.342 214.332L147.319 226.31L159.296 214.332H155.431L147.319 222.445L139.211 214.332H135.342ZM135.342 214.315H139.211L133.93 209.034L125.815 200.92L133.926 192.808V188.942L121.949 200.92L133.926 212.897L135.342 214.315ZM108.557 214.315H112.422L107.141 209.034L93.7488 195.642L80.3555 209.034L75.0752 214.315H78.9409L80.3583 212.898L93.7517 199.506L107.144 212.898L108.557 214.315ZM115.252 200.92L128.646 214.313H132.511L119.118 200.92L132.509 187.529L133.926 186.111V182.246L128.648 187.524L115.252 200.92ZM165.995 133.959H162.13L175.523 147.352L162.129 160.744H165.995L179.388 147.352L165.995 133.959ZM108.56 133.941H112.424L120.536 125.829L128.649 133.941H132.513L120.536 121.965L108.56 133.941ZM160.719 128.66L155.438 133.941H159.304L160.721 132.524L162.139 133.941H166.003L160.723 128.66H160.719ZM132.518 133.958H128.653L133.934 139.24L147.319 152.635L160.712 139.242L168.823 147.354L160.712 155.47L155.431 160.751H159.296L160.714 159.333L172.691 147.356L160.714 135.379L147.319 148.77L133.926 135.377L132.518 133.958ZM95.1709 187.529L107.146 199.505L119.121 187.529L107.146 175.554L105.729 174.136L107.146 172.719L120.538 186.112L133.931 172.719V168.854L120.538 182.247L107.146 168.853L101.865 174.134L107.146 179.415L115.256 187.525L107.146 195.636L99.0338 187.524L85.6338 174.139L99.0272 160.747H95.1615L81.7681 174.139L95.1709 187.529ZM107.149 162.16L95.1719 174.136L107.149 186.114L108.566 187.532L107.149 188.949L105.731 187.532L92.3409 174.141L105.733 160.749H101.868L88.4686 174.139L101.861 187.532L107.14 192.811L112.42 187.532L107.14 182.253L99.0281 174.141L107.14 166.03L120.533 179.422L133.925 166.03V162.164L120.533 175.557L107.14 162.164L107.149 162.16ZM133.934 175.552L121.959 187.527L108.557 200.92L121.949 214.313H125.815L112.422 200.92L125.813 187.529L133.924 179.418L133.934 175.552ZM107.149 159.329V155.47L101.868 160.751H105.733L107.149 159.329ZM152.607 214.33H148.742L147.324 215.747L145.907 214.33H142.041L147.322 219.611L152.607 214.33ZM187.497 215.748L186.079 214.331H182.216L187.497 219.614L192.778 214.332H188.914L187.497 215.748ZM214.282 229.14V233.006L222.394 241.118H226.259L214.282 229.14ZM174.104 212.9L175.522 214.317H179.387L174.106 209.036L168.825 214.317H172.691L174.104 212.9ZM187.497 202.338L174.104 188.945L160.712 202.338L148.734 214.315H152.6L160.712 206.203L174.104 192.811L187.497 206.203L195.609 214.315H199.475L187.497 202.338ZM214.282 199.508L226.258 187.532L214.282 175.555L202.307 187.53L200.889 188.947L199.472 187.53L212.863 174.138L199.474 160.747H195.609L209.001 174.139L195.611 187.53L200.889 192.809L206.168 187.53L214.281 179.419L222.391 187.529L214.281 195.64L200.889 209.034L187.497 195.642L179.385 187.53L174.106 182.251L168.827 187.53L160.716 195.642L147.323 209.034L133.93 195.642L128.646 200.92L133.926 206.2L142.038 214.313H145.904L133.926 202.338L132.509 200.92L133.926 199.503L147.319 212.895L160.712 199.503L172.687 187.527L174.104 186.11L175.522 187.527L187.497 199.508L200.889 212.9L214.282 199.508ZM299.919 214.315L294.638 209.034L289.36 214.315H293.225L294.643 212.898L296.06 214.315H299.919ZM267.853 212.898L279.83 200.92L267.853 188.945V192.811L275.964 200.92L267.853 209.031V212.898ZM219.567 227.724L232.961 214.331H229.09L215.697 227.726L229.09 241.118H232.956L219.567 227.724ZM267.853 206.203L273.133 200.92L267.853 195.639V199.505L269.27 200.922L267.853 202.339V206.203ZM232.955 241.118H229.09L227.673 242.535L226.256 241.118H222.394L227.675 246.399L232.955 241.118ZM147.319 242.535L145.901 241.118H142.035L147.316 246.399L152.597 241.118H148.731L147.319 242.535ZM147.319 235.839L133.925 222.446V226.312L147.319 239.704L160.711 226.312L162.128 227.729L160.711 229.147L148.733 241.125H152.599L160.711 233.013L165.991 227.732L160.711 222.451L147.319 235.839ZM182.216 214.317H186.079L174.104 202.338L162.127 214.315H165.993L174.104 206.203L182.216 214.317ZM133.93 233.008L142.042 241.12H145.908L133.93 229.142V233.008ZM133.93 215.75V219.615L147.323 233.008L160.716 219.615L168.827 227.728L160.716 235.839L155.434 241.12H159.3L160.718 239.703L172.694 227.726L160.718 215.748L147.325 229.14L133.93 215.75ZM159.3 214.317L160.718 212.9V209.034L155.436 214.315L159.3 214.317ZM179.389 227.728L165.996 214.334H162.131L175.524 227.728L162.131 241.12H165.997L179.389 227.728ZM159.3 241.12H155.434L147.322 249.231L139.211 241.118H135.345L147.322 253.095L159.3 241.12ZM133.93 239.703L135.347 241.12H139.211L133.93 235.839V239.703ZM286.525 147.355L273.133 133.961H269.268L282.661 147.355L269.268 160.747H273.133L286.525 147.355ZM348.209 202.338L334.816 188.944L321.423 202.338L309.446 214.315H313.312L321.423 206.203L334.816 192.811L348.209 206.203L356.32 214.315H360.185L348.209 202.338ZM294.638 306.681L306.615 294.704H302.749L294.638 302.816L286.525 294.704H282.66L294.638 306.681ZM361.601 219.614L366.882 214.332H363.016L361.599 215.75L360.182 214.332H356.316L361.601 219.614ZM202.305 53.5732H206.17L214.282 45.462L222.394 53.5732H226.259L214.282 41.5963L202.305 53.5732ZM309.446 294.687H313.312L321.423 286.574L329.535 294.687H333.401L321.423 282.709L309.446 294.687ZM306.611 241.118H302.749L316.143 254.51L302.752 267.901L308.031 273.18L313.311 267.901L321.422 259.79L329.533 267.9L321.422 276.011L308.029 289.403L294.638 276.013L286.525 267.902L294.636 259.792L299.917 254.51L294.636 249.229L286.525 241.118H282.66L294.638 253.095L296.055 254.512L294.638 255.93L282.663 267.905L294.638 279.881L308.03 293.273L321.423 279.88L333.399 267.904L321.423 255.929L309.448 267.904L308.03 269.321L306.613 267.904L320.005 254.512L306.611 241.118ZM334.812 302.816L326.7 294.704H322.838L334.816 306.681L346.793 294.704H342.927L334.812 302.816ZM334.812 296.119L333.395 294.702H329.529L334.81 299.983L340.091 294.702H336.228L334.812 296.119ZM316.139 294.687H320.004L321.421 293.269L322.838 294.687H326.704L321.423 289.405L316.139 294.687ZM334.812 313.377L348.205 299.985L353.485 294.704H349.62L348.203 296.121L334.81 309.513L321.417 296.121L309.44 308.098L321.423 320.075L322.799 321.449L321.423 322.825L308.03 336.218L294.638 322.824L293.263 321.449L294.638 320.074L296.055 321.491H296.136L308.032 333.388L319.929 321.491H320.01L319.969 321.45L320.009 321.411H319.93L306.617 308.098L320.009 294.705H316.144L302.749 308.096L316.101 321.449L308.03 329.524L299.919 321.413H299.839L294.642 316.216L289.445 321.413H289.36L289.4 321.452L289.36 321.493H289.44L294.637 326.69L308.029 340.082L321.423 326.689L326.62 321.492H326.7L326.66 321.451L326.7 321.412H326.62L321.423 316.215L313.312 308.103L321.423 299.991L334.812 313.377ZM322.838 241.118H326.704L321.423 235.837L316.143 241.118H320.007L321.425 239.701L322.838 241.118ZM267.853 52.1577L279.83 40.1808L267.853 28.203V32.0687L275.964 40.1808L267.853 48.292V52.1577ZM267.853 45.462L273.133 40.1808L267.853 34.8978V38.7635L269.27 40.1808L267.853 41.5982V45.462ZM229.092 26.7885L215.697 40.1808L229.09 53.5732H232.956L219.563 40.1808L232.953 26.7904L241.064 18.6782L249.176 26.7894L241.067 34.8978L235.782 40.1808L241.064 45.462L254.46 32.0687L267.853 45.462V41.5963L254.46 28.203L241.067 41.5963L239.65 40.1789L241.067 38.7616L253.042 26.7904L241.067 14.8126L229.092 26.7885ZM348.209 41.5963L334.816 28.203L321.423 41.5963L309.446 53.5732H313.312L321.423 45.462L334.816 32.0687L348.209 45.462L356.32 53.5732H360.185L348.209 41.5963ZM321.423 172.724L333.401 160.747H329.535L321.423 168.858L316.143 174.138L321.423 179.42L329.534 187.53L321.423 195.641L308.03 209.033L294.638 195.641L286.525 187.531L294.635 179.42L302.746 187.532L308.025 192.811L313.304 187.532L299.913 174.141L313.306 160.749H309.44L296.048 174.141L309.439 187.533L308.022 188.95L306.604 187.533L294.629 175.558L282.654 187.533L294.629 199.509L308.022 212.901L321.414 199.509L333.39 187.533L321.414 175.558L319.997 174.14L321.414 172.723L321.423 172.724ZM374.993 142.073L369.713 147.355L374.993 152.635V148.77L373.576 147.353L374.993 145.935V142.073ZM361.601 58.8713L366.882 53.5911H363.016L361.599 55.0085L360.182 53.5911H356.316L361.601 58.8713ZM374.993 135.377L363.016 147.355L374.993 159.331V155.47L366.882 147.358L374.993 139.246V135.377ZM334.816 95.1837L321.423 81.7913L320.005 80.3739H316.14L321.421 85.6551L334.814 99.0475L348.207 85.6551L353.487 80.3739H349.622L348.205 81.7913L334.816 95.1837ZM320.008 214.332H316.143L321.423 219.614L326.704 214.332H322.838L321.421 215.75L320.008 214.332ZM209.001 321.492H209.082L214.279 326.689L227.675 340.082L241.067 326.689V322.824L227.675 336.217L214.282 322.824L212.865 321.407H212.785L199.474 308.096L212.867 294.704H209.001L195.609 308.096L209.001 321.492ZM241.067 302.818L235.782 308.096L241.064 313.377V309.511L239.646 308.094L241.064 306.677L241.067 302.818ZM202.305 294.692H206.17L200.889 289.411L195.609 294.692H199.474L200.891 293.275L202.305 294.692ZM212.867 294.692L200.889 282.709L188.914 294.687H192.778L200.889 286.574L209.001 294.687L212.867 294.692ZM241.067 320.075V316.209L232.955 308.097L241.067 299.986V296.12L229.09 308.096L241.067 320.075ZM241.067 286.575L246.349 281.294L241.067 276.014L232.957 267.903L241.067 259.789V255.923L229.092 267.901L241.067 279.877L242.485 281.294L241.067 282.712L227.675 269.316L214.282 282.709L200.889 269.316L187.497 282.709L175.52 294.687H179.385L187.497 286.574L200.889 273.182L214.282 286.574L227.675 273.182L241.067 286.575ZM145.904 321.41H145.826L133.928 309.512L122.031 321.41H121.951L121.991 321.449L121.951 321.49H122.031L133.928 333.387L135.345 334.804L133.928 336.221L120.534 322.824L107.141 336.217V340.082L120.534 326.689L133.926 340.081L139.207 334.8L133.926 329.524L125.855 321.452L133.926 313.381L142.038 321.493H142.119L155.431 334.805L142.038 348.197H145.903L159.296 334.805L145.904 321.41ZM147.321 353.493L152.603 348.212H148.737L147.319 349.63L145.902 348.212H142.036L147.321 353.493ZM279.75 321.492H279.83L293.222 308.099L279.83 294.704H275.964L289.36 308.096L276.045 321.409H275.964L267.852 329.524L259.783 321.449L267.855 313.377L273.136 308.096L267.856 302.816L254.46 316.208L241.067 302.816V306.681L254.46 320.075L267.852 306.681L269.27 308.099L267.852 309.516L255.956 321.409H255.875L255.915 321.449L255.875 321.489H255.956L267.852 333.386L279.75 321.492ZM182.3 321.409H182.219L174.104 329.524L166.033 321.452L179.385 308.1L165.992 294.704H162.127L175.52 308.096L162.207 321.409H162.127L162.167 321.449L162.126 321.489H162.208L174.104 333.386L186.001 321.492H186.079L187.497 320.075L188.872 321.449L187.497 322.824L174.104 336.217L160.712 322.824L159.338 321.449L160.714 320.074L172.691 308.096L160.714 296.119L147.319 309.511L133.926 296.119L132.509 294.702H128.644L133.924 299.983L147.317 313.375L160.71 299.983L168.821 308.094L160.71 316.206L155.513 321.403H155.433L155.472 321.443L155.433 321.483H155.513L160.71 326.681L174.102 340.074L187.497 326.689L192.694 321.492H192.774L192.733 321.451L192.774 321.412H192.694L187.497 316.215L182.3 321.409ZM229.094 294.687H232.96L227.679 289.405L222.398 294.687H226.263L227.681 293.269L229.094 294.687ZM232.88 321.409L219.563 308.096L232.956 294.704H229.09L215.697 308.096L229.05 321.449L227.675 322.824L226.258 321.407H226.177L214.281 309.509L212.863 308.092L214.281 306.675L226.259 294.704H222.394L214.282 302.816L209.001 308.096L214.282 313.377L222.394 321.492H222.474L227.671 326.689L232.868 321.492H232.948L232.908 321.451L232.949 321.412L232.88 321.409ZM249.183 348.212L254.464 353.492L259.745 348.212H255.875L254.458 349.629L253.04 348.212H249.183ZM253.048 321.409H252.969L241.067 309.511V313.377L249.179 321.492H249.259L262.572 334.804L249.18 348.194H253.044L266.438 334.801L253.048 321.409ZM214.282 296.119L202.305 308.096L214.282 320.075L215.7 321.492H215.78L227.678 333.389L239.572 321.492H239.657L239.617 321.451L239.657 321.412H239.576L226.259 308.096L239.657 294.704H235.782L222.394 308.096L235.746 321.449L227.675 329.524L219.563 321.413H219.482L214.285 316.216L206.173 308.103L214.284 299.992L219.566 294.711H215.697L214.28 296.128L214.282 296.119ZM187.497 306.681L199.475 294.704H195.609L187.497 302.816L179.385 294.704H175.52L187.497 306.681ZM187.497 299.985L192.778 294.704H188.914L187.497 296.121L186.079 294.704H182.216L187.497 299.985ZM239.657 294.687L227.675 282.709L215.697 294.687H219.563L227.675 286.574L235.782 294.687H239.657ZM187.497 293.271L200.889 279.879L214.282 293.271V289.405L200.889 276.013L187.497 289.405L182.216 294.687H186.079L187.497 293.271ZM93.7488 353.492L99.0291 348.212H95.1634L93.746 349.629L92.3286 348.212H88.4686L93.7488 353.492ZM241.067 340.082L246.349 334.801L241.067 329.524L227.675 342.912L214.282 329.524L206.17 321.413H206.09L192.778 308.096L206.17 294.704H202.305L188.914 308.096L202.305 321.492H202.385L214.282 333.389L227.675 346.778L241.067 333.386L242.485 334.803L241.067 336.22L229.09 348.194H232.956L241.067 340.082ZM214.282 336.217L200.889 322.824L187.497 336.217L175.52 348.194H179.385L187.497 340.082L200.889 326.689L214.282 340.081V336.217ZM239.657 348.212H235.782L227.671 356.323L219.559 348.212H215.697L227.675 360.188L239.657 348.212ZM215.703 348.194H219.567L214.287 342.912V346.778L215.703 348.194ZM227.68 353.492L232.96 348.212H229.095L227.678 349.629L226.26 348.212H222.394L227.68 353.492ZM214.282 340.082L222.394 348.194H226.259L214.282 336.217V340.082ZM212.865 348.194L200.889 336.217L188.914 348.194H192.778L200.889 340.082L209.001 348.194H212.865ZM186.079 348.212H182.216L187.497 353.492L192.778 348.211H188.914L187.497 349.628L186.079 348.212ZM214.281 342.913L200.889 329.524L187.497 342.912L182.216 348.193H186.079L187.497 346.775L200.889 333.383L214.282 346.778L214.281 342.913ZM202.303 348.194H206.168L200.887 342.913L195.607 348.194H199.472L200.889 346.776L202.303 348.194ZM187.497 360.188L199.475 348.212H195.609L187.497 356.323L179.385 348.212H175.52L187.497 360.188ZM373.579 0.00472489H369.713L361.601 8.11686L353.49 0.00472489H349.624L361.601 11.9825L373.579 0.00472489ZM342.927 26.7904L348.207 32.0696L353.486 26.7913L348.207 21.512L340.094 13.3999L348.207 5.28872L361.599 18.6811L374.992 5.28872V1.42022L361.601 14.8126L348.209 1.42022L336.228 13.3971L348.205 25.3749L349.622 26.7923L348.205 28.2096L346.787 26.7923L333.401 13.3971L346.793 0.00472489H342.927L329.535 13.3971L342.927 26.7904ZM374.993 342.912L361.601 329.524L348.209 342.916L340.096 334.805L348.209 326.693L353.406 321.496H353.486L353.445 321.455L353.486 321.415H353.406L348.209 316.218L343.011 321.415H342.931L329.539 334.808L342.931 348.2H346.797L333.404 334.808L346.717 321.492H346.797L348.214 320.075L349.589 321.449L348.214 322.825L336.228 334.801L348.206 346.778L361.598 333.386L374.991 346.778L374.993 342.912ZM366.882 0.000945843H363.016L361.599 1.41833L360.182 0.000945843H356.316L361.597 5.2821L366.882 0.000945843ZM336.228 26.7904L348.203 38.7653L360.184 26.7904L348.209 14.8126L346.791 13.3952L348.209 11.9778L361.601 25.3702L374.993 11.9778V8.11686L361.601 21.5092L348.209 8.11686L342.927 13.3971L348.209 18.6782L356.319 26.7894L348.209 34.8978L340.096 26.7866L326.704 13.3971L340.102 0.00472489H336.228L322.838 13.3971L336.228 26.7904ZM356.317 348.194H360.183L361.6 346.776L363.017 348.194H366.883L361.602 342.913L356.317 348.194ZM373.575 348.194L361.598 336.217L349.621 348.194H353.486L361.598 340.082L369.71 348.194H373.575ZM369.712 267.903L374.991 273.182V269.316L373.573 267.899L360.183 254.509L373.575 241.116H369.709L356.317 254.509L369.71 267.901L369.712 267.903ZM349.621 254.51L363.014 267.903L374.989 279.879V276.013L366.877 267.901L353.487 254.51L366.879 241.118H363.016L349.621 254.51ZM152.6 53.5911H148.734L147.317 55.0085L145.899 53.5911H142.034L147.315 58.8713L152.6 53.5911ZM53.5716 95.1837L41.6003 107.159L53.5753 119.134L66.9678 132.526L80.3602 119.134L92.3362 107.159L80.3555 95.1837L68.3804 107.159L66.963 108.576L65.5457 107.159L78.9409 93.7663L65.5475 80.3739H61.6819L75.0752 93.7663L61.6847 107.157L66.964 112.435L72.2433 107.157L80.3545 99.0446L88.4657 107.156L80.3545 115.266L66.9621 128.658L53.5697 115.266L45.4584 107.156L53.5697 99.0446L58.8509 93.7635L53.5697 88.4832L45.4575 80.3711H41.5918L53.5706 92.3489L54.988 93.7663L53.5706 95.1837H53.5716ZM53.5716 360.188L65.5485 348.212H61.6828L53.5716 356.323L45.4594 348.212H41.5937L53.5716 360.188ZM135.342 321.492H135.422L148.734 334.804L135.342 348.196H139.211L152.603 334.804L139.211 321.409H139.131L133.934 316.212L128.737 321.409H128.656L128.697 321.449L128.656 321.489H128.737L133.934 326.686L142.046 334.798L133.934 342.91L120.534 329.524L107.141 342.916V346.782L120.534 333.389L133.926 346.782L145.904 334.805L133.926 322.824L132.551 321.449L133.926 320.074L135.342 321.492ZM107.141 309.514L95.2437 321.409H95.1634L81.771 334.801L95.1643 348.194H99.0291L85.6338 334.801L98.9487 321.492H99.0291L107.141 313.38V309.514ZM133.926 58.8742L147.319 72.2675L160.712 58.8742L168.823 66.9863L160.712 75.0975L155.431 80.3787H159.296L160.714 78.9613L172.691 66.9844L160.712 55.0066L147.319 68.399L133.926 55.0066V58.8742ZM112.421 308.096L107.141 302.816L93.7488 316.208L80.3555 302.816L75.0752 308.096L80.3555 313.377L88.427 321.449L80.3555 329.52L66.963 342.912L53.5706 329.524L45.4991 321.452L53.5706 313.381L61.6819 321.493H61.7622L66.9593 326.69L72.1563 321.493H72.2367L72.196 321.452L72.2367 321.413H72.1563L58.8442 308.1L72.2367 294.707H68.371L54.9786 308.1L68.3417 321.449L66.9659 322.824L65.5485 321.407H65.4682L53.5716 309.509L41.674 321.407H41.5946L41.6343 321.447L41.5946 321.487H41.674L53.5716 333.384L66.964 346.776L80.3564 333.384L92.254 321.487H92.3343L92.2936 321.447L92.3343 321.407H92.254L80.3564 309.509L78.939 308.092L80.3564 306.675L93.7488 320.075L107.141 306.681L108.559 308.099L107.141 309.516V313.382L112.421 308.096ZM26.7858 41.5963L13.3924 28.203L0 41.5963V45.462L13.3924 32.0687L26.7858 45.462L32.066 40.1808L26.7858 34.8978L18.6745 26.7875L26.7858 18.6763L34.897 26.7885L48.2875 40.1789L34.8951 53.5713H38.7655L52.158 40.1789L38.7655 26.7885L26.7905 14.8126L14.8145 26.7885L26.7905 38.7635L28.2079 40.1808L26.7905 41.5982L26.7858 41.5963ZM174.104 34.8978L160.712 48.292V52.1577L174.104 38.7653L187.497 52.1577L188.914 53.5751H192.778L187.497 48.292L174.104 34.8978ZM135.342 53.5911L147.319 65.568L159.296 53.5911H155.431L147.319 61.7023L139.211 53.5911H135.342ZM14.8079 133.944H18.6736L26.7848 125.833L40.1829 112.44L53.5753 125.832L61.6866 133.944H65.5523L53.5753 121.967L40.1829 108.574L26.7896 121.967L14.8079 133.944ZM107.141 329.524L101.86 334.805L107.141 340.086V336.22L105.724 334.803L107.141 333.386V329.524ZM119.118 348.197L120.536 346.78L121.953 348.197H125.819L120.537 342.917L115.256 348.197H119.118ZM107.141 322.824L95.1634 334.801L107.141 346.778V342.912L99.0291 334.801L107.141 326.689V322.824ZM132.511 348.194L120.534 336.217L108.557 348.194H112.421L120.534 340.082L128.646 348.194H132.511ZM107.141 316.208L101.944 321.405H101.864L88.4686 334.801L101.861 348.194H105.727L92.3343 334.801L105.645 321.492H105.726L107.143 320.075L107.141 316.208ZM105.724 348.212H101.858L93.7469 356.323L85.6348 348.212H81.7691L93.7469 360.188L105.724 348.212ZM80.3536 346.778L81.771 348.195H85.6338L80.3526 342.914L75.0724 348.195H78.9371L80.3536 346.778ZM115.251 294.704L128.643 308.096L115.333 321.409H115.252L107.141 329.524V333.389L119.038 321.493H119.118L132.511 308.1L119.118 294.704H115.251ZM68.3766 348.194H72.2423L80.3536 340.082L88.4657 348.194H92.3314L80.3536 336.217L68.3766 348.194ZM93.7469 99.0493L107.139 85.657V81.7913L93.7488 95.1837L80.3555 81.7913L78.9381 80.3739H75.0724L80.3536 85.6551L93.7469 99.0493ZM293.221 80.3758H289.36L294.641 85.657L302.749 93.7663L294.638 101.878L289.36 107.159L294.639 112.437L308.031 125.83L321.424 112.437L326.703 107.159L321.424 101.88L316.145 107.159L308.033 115.271L299.923 107.161L313.312 93.7663L299.919 80.3758H296.053L309.446 93.7663L296.055 107.157L308.03 119.132L320.005 107.157L321.423 105.739L322.84 107.157L321.423 108.574L308.03 121.967L294.638 108.574L293.221 107.157L294.638 105.739L306.615 93.7663L294.638 81.7894L293.221 80.3758ZM334.816 152.635L348.209 139.242L353.489 133.96H349.624L348.207 135.378L334.816 148.77L321.423 135.377L309.446 147.355L321.423 159.331L322.84 160.749H326.706L321.423 155.47L313.312 147.358L321.423 139.246L334.816 152.635ZM326.702 267.9L321.423 262.624L316.144 267.902L308.032 276.014L299.922 267.903L313.313 254.511L299.921 241.119H296.055L309.448 254.511L296.057 267.902L308.032 279.878L320.007 267.902L321.425 266.484L322.842 267.902L321.425 269.319L308.032 282.712L294.64 269.319L293.222 267.902L294.64 266.484L306.617 254.507L294.64 242.53L293.222 241.112H289.36L294.641 246.394L302.752 254.505L294.638 262.624L289.36 267.901L294.639 273.18L308.031 286.572L321.424 273.18L326.703 267.901L326.702 267.9ZM313.312 174.138L321.423 166.027L326.704 160.746H322.838L321.421 162.163L309.444 174.14L321.421 186.118L322.838 187.535L321.421 188.953L308.03 202.338L294.638 188.945L293.221 187.528L294.638 186.111L296.055 187.528L308.03 199.504L320.006 187.528L306.616 174.137L320.009 160.745H316.143L302.749 174.139L316.142 187.531L308.03 195.642L299.919 187.53L294.64 182.251L289.36 187.53L294.639 192.809L308.031 206.201L321.424 192.809L326.703 187.53L321.424 182.251L313.312 174.138ZM267.853 172.721L281.246 186.114L294.638 172.721L306.616 160.744H302.75L294.638 168.855L281.246 182.251L267.853 168.858L262.572 174.139L267.853 179.42L275.964 187.532L289.36 200.92L275.964 214.315H279.83L293.222 200.92L279.83 187.53L267.853 175.555L266.436 174.137L267.853 172.72V172.721ZM282.661 241.115H286.525L294.636 233.003L299.917 227.723L294.636 222.442L281.246 235.837L267.853 222.445L262.572 227.726L267.853 233.006L275.964 241.118H279.83L267.853 229.14L266.436 227.723L267.853 226.305L281.246 239.698L294.638 226.305L296.055 227.723L294.638 229.14L282.661 241.115ZM249.18 241.115H253.045L241.067 229.14L239.65 227.723L241.067 226.305L253.044 214.328H249.18L241.067 222.44L235.782 227.726L241.064 233.006L249.18 241.115ZM253.044 267.898L241.067 255.926V259.789L249.179 267.9L262.57 281.29L249.18 294.687H253.044L266.438 281.293L253.044 267.898ZM214.282 222.445L209.001 227.726L214.282 233.006V229.14L212.865 227.723L214.282 226.305V222.445ZM249.18 294.704L254.46 299.985L259.741 294.704H255.875L254.458 296.121L253.04 294.704H249.18ZM254.46 199.508L267.853 212.9V209.034L254.46 195.642L241.067 209.034L232.956 200.92L241.067 192.808L246.347 187.529L241.067 182.25L235.788 187.529L222.394 200.92L235.782 214.315H239.657L226.259 200.92L239.65 187.529L241.067 186.111L242.485 187.529L241.067 188.946L229.09 200.92L241.067 212.897L254.46 199.508ZM306.615 80.3758H302.749L316.143 93.7663L302.752 107.157L308.031 112.435L313.311 107.157L321.422 99.0446L329.533 107.156L321.422 115.266L308.029 128.658L294.637 115.266L286.525 107.161L294.636 99.0493L299.917 93.7682L294.636 88.488L286.525 80.3758H282.66L294.638 92.3489L296.055 93.7663L294.638 95.1837L282.663 107.159L294.638 119.134L308.03 132.526L321.423 119.134L333.399 107.159L321.423 95.1837L309.448 107.159L308.03 108.576L306.613 107.159L320.008 93.7663L306.615 80.3758ZM361.601 121.967L349.624 133.944H353.489L361.601 125.832L369.713 133.944H373.578L361.601 121.967ZM296.053 80.3758H299.919L313.312 66.9835L299.919 53.5911H296.053L309.446 66.9835L296.053 80.3758ZM336.234 107.159L322.838 120.552L336.228 133.944H340.093L326.7 120.552L340.091 107.161L348.203 99.0493L356.313 107.16L348.203 115.271L342.922 120.552L348.203 125.832L361.595 112.439L374.988 125.831V121.966L361.595 108.573L348.203 121.966L346.786 120.549L348.203 119.132L360.178 107.157L348.209 95.1837L336.234 107.159ZM294.638 48.2901L289.36 53.5732H293.225L294.643 52.1558L296.06 53.5732H299.926L294.638 48.2901ZM373.578 160.745L360.185 147.353L373.578 133.96H369.712L356.32 147.354L369.713 160.746L373.578 160.745ZM353.49 147.353L366.882 133.959H363.016L349.624 147.353L363.016 160.745H366.882L353.49 147.353ZM366.882 133.942L361.601 128.661L356.32 133.942H360.185L361.603 132.525L363.02 133.942H366.882ZM361.601 162.161L360.184 160.743H356.318L361.599 166.024L366.88 160.743H363.016L361.601 162.161ZM279.828 267.897L293.221 254.505L279.83 241.118H275.964L289.36 254.51L275.966 267.901L267.854 276.013L259.744 267.902L267.852 259.789L273.133 254.508L267.853 249.226L254.46 262.624L241.067 249.229V253.095L254.46 266.487L267.852 253.095L269.27 254.512L267.852 255.93L255.877 267.901L267.852 279.877L279.828 267.897ZM99.0291 133.961H95.1634L93.746 135.379L92.3286 133.961H88.4686L93.7498 139.242L99.0291 133.961ZM75.0752 133.944H78.94L80.3574 132.527L81.7747 133.944H85.6338L80.3526 128.663L75.0752 133.944ZM81.771 133.961L93.7488 145.939L105.726 133.961H101.86L93.7488 142.073L85.6367 133.961H81.771ZM41.6003 187.532L53.5753 199.508L66.9678 212.9L80.3602 199.508L92.3362 187.532L80.3602 175.557L78.9428 174.139L80.3602 172.722L92.3381 160.745H88.4686L80.3564 168.856L75.0762 174.136L80.3564 179.418L88.4676 187.528L80.3564 195.639L66.964 209.031L53.5716 195.639L45.4613 187.528L53.5716 179.418L61.6828 187.529L66.9612 192.808L72.2404 187.529L58.8499 174.138L72.2423 160.746H68.3766L54.9842 174.138L68.3757 187.53L66.9583 188.947L65.5409 187.53L53.5659 175.555L41.6003 187.53V187.532ZM26.7858 202.338L13.3924 188.944L0 202.338V206.203L13.3924 192.811L26.7858 206.203L32.066 200.923L26.7858 195.642L18.6745 187.531L26.7858 179.42L34.897 187.532L48.2894 200.92L34.897 214.313H38.7655L52.1551 200.92L38.7655 187.53L26.7905 175.555L14.8145 187.53L26.7905 199.506L28.2079 200.923L26.7905 202.34L26.7858 202.338ZM107.141 125.831L120.534 112.439L133.926 125.832L139.207 120.552L133.926 115.271L125.816 107.16L133.926 99.0493L142.038 107.161L155.429 120.552L142.038 133.944H145.903L159.296 120.552L145.904 107.159L133.926 95.1837L121.951 107.159L133.926 119.134L135.343 120.551L133.926 121.968L120.534 108.575L107.141 121.968V125.831ZM215.697 80.3758H219.563L214.282 75.0947L206.17 66.9835L214.282 58.8713L227.675 72.2646L241.067 58.8713L246.349 53.5911H242.483L241.065 55.0085L227.675 68.399L214.282 55.0066L202.305 66.9835L214.282 78.9604L215.697 80.3758ZM202.307 107.161L214.282 119.136L227.675 132.529L241.067 119.136L242.485 120.554L241.067 121.971L229.09 133.944H232.956L241.067 125.832L246.349 120.552L241.067 115.271L227.675 128.663L214.282 115.271L206.171 107.161L214.282 99.0493L222.394 107.161L227.673 112.44L232.951 107.161L219.563 93.7663L232.956 80.3758H229.09L215.697 93.7663L229.089 107.159L227.672 108.576L226.255 107.159L214.282 95.1837L202.307 107.159V107.161ZM132.511 93.7663L119.118 80.3758H115.252L128.645 93.7663L115.254 107.157L107.143 115.269V119.135L119.118 107.16L132.511 93.7663ZM160.712 293.269L162.129 294.687H165.994L160.714 289.405L155.433 294.687H159.298L160.712 293.269ZM199.475 241.116L187.497 229.14L175.52 241.118H179.385L187.497 233.006L195.609 241.118L199.475 241.116ZM139.211 294.704H135.345L147.322 306.681L159.3 294.704H155.434L147.322 302.816L139.211 294.704ZM187.497 235.835L182.216 241.116H186.079L187.497 239.699L188.914 241.116H192.778L187.497 235.835ZM179.385 254.509L187.497 246.399L192.778 241.118H188.914L187.497 242.535L175.52 254.512L187.497 266.488L188.914 267.906L187.497 269.323L174.104 282.715L160.712 269.323L159.294 267.906L160.712 266.488L162.129 267.906L174.104 279.882L186.079 267.903L172.689 254.512L186.079 241.118H182.216L168.823 254.51L182.215 267.902L174.104 276.013L165.992 267.901L160.712 262.624L155.433 267.902L160.712 273.181L174.104 286.573L187.497 273.182L192.776 267.903L187.497 262.624L179.385 254.509ZM81.7747 241.116H85.6338L80.3526 235.835L75.0724 241.116H78.9371L80.3545 239.699L81.7747 241.116ZM85.6385 267.899L80.3592 262.621L75.0809 267.899L66.9687 276.011L58.8584 267.9L72.2499 254.509L58.8575 241.116H54.9918L68.3842 254.509L54.9937 267.899L66.9687 279.875L78.9437 267.899L80.3611 266.482L81.7785 267.899L80.3611 269.316L66.9687 282.709L53.5763 269.316L52.1589 267.899L53.5763 266.482L65.5532 254.504L53.5763 242.527L52.1589 241.11H48.2932L53.5744 246.391L61.6856 254.502L53.5744 262.614L48.2951 267.892L53.5744 273.172L66.9668 286.564L80.3592 273.172L85.6385 267.892V267.899ZM145.908 267.899L133.933 255.924L121.958 267.899L133.933 279.875L135.35 281.292L133.933 282.71L120.54 269.317L107.148 282.71V286.575L120.54 273.183L133.933 286.575L139.214 281.294L133.933 276.014L125.822 267.903L133.933 259.793L142.045 267.904L155.435 281.294L142.043 294.687H145.908L159.301 281.294L145.908 267.899ZM147.325 296.117L145.908 294.7H142.042L147.322 299.981L152.603 294.7H148.738L147.325 296.117ZM214.289 215.746L202.305 227.726L214.282 239.703V235.837L206.17 227.726L214.282 219.614L214.289 215.746ZM85.6338 53.5911H81.7681L80.3507 55.0085L78.9333 53.5911H75.0677L80.3479 58.8713L85.6338 53.5911ZM40.1829 293.271L41.6003 294.688H45.4651L40.1848 289.407L34.9036 294.688H38.7655L40.1829 293.271ZM40.1829 119.136L53.5753 132.529L54.9927 133.946H58.8584L53.5772 128.665L40.1829 115.271L26.7896 128.663L21.5093 133.944H25.375L26.7924 132.527L40.1829 119.136ZM53.5753 282.709L40.1829 269.316L26.7896 282.709L14.8126 294.687H18.6783L26.7896 286.574L40.1829 273.182L53.5753 286.574L61.6866 294.687H65.5523L53.5753 282.709ZM40.1829 286.574L48.2942 294.687H52.1598L40.1829 282.709L28.2051 294.687H32.0708L40.1829 286.574ZM53.5753 296.118L52.158 294.701H48.2923L53.5735 299.982L58.8546 294.701H54.9889L53.5753 296.118ZM68.3833 133.943H72.2489L80.3602 125.831L88.4724 133.943H92.3381L80.3602 121.966L68.3833 133.943ZM95.17 107.158L81.7776 120.551L95.1709 133.943H99.0357L85.6338 120.552L99.0243 107.161L107.137 99.0493V95.1837L95.17 107.158ZM80.3602 65.5671L92.3381 53.5902H88.4686L80.3564 61.7014L72.2452 53.5902H68.3795L80.3564 65.5671H80.3602ZM112.421 93.7663L107.141 88.4861L93.7488 101.879L80.3555 88.487L72.2442 80.3749H68.3785L80.3555 92.3489L93.7488 105.741L107.141 92.3489L108.559 93.7663L107.141 95.1837V99.0493L112.421 93.7663ZM132.511 294.685L120.534 282.707L108.557 294.685H112.421L120.534 286.572L128.646 294.685H132.511ZM93.7488 34.8978L80.3555 48.2901L75.0752 53.5713H78.9409L80.3583 52.1539L93.7517 38.7616L107.144 52.1539L108.561 53.5713H112.427L107.146 48.2901L93.7488 34.8978ZM107.141 269.314L95.1634 281.291L107.141 293.269V289.403L99.0291 281.291L107.141 273.18V269.314ZM107.141 276.011L101.86 281.291L107.141 286.572V282.707L105.724 281.289L107.141 279.872V276.011ZM125.815 294.685L120.534 289.403L115.252 294.685H119.118L120.536 293.267L121.953 294.685H125.815ZM81.771 294.685H85.6338L80.3526 289.403L75.0724 294.685H78.9371L80.3545 293.267L81.771 294.685ZM254.46 95.1837L241.067 81.7913V85.657L254.46 99.0493L267.852 85.657L275.964 93.7663L267.852 101.878L262.574 107.157L267.852 112.435L273.131 107.157L286.525 93.7663L273.133 80.3758H269.268L282.661 93.7663L269.27 107.159L267.852 108.576L266.435 107.159L267.852 105.741L279.83 93.7663L267.853 81.7913L254.46 95.1837ZM78.8606 321.409L65.5475 308.096L78.94 294.704H75.0752L61.6819 308.096L75.0346 321.449L66.963 329.52L58.8518 321.409H58.7715L53.5744 316.212L48.3773 321.409H48.297L48.3376 321.449L48.297 321.489H48.3773L53.5744 326.686L66.9668 340.079L80.3555 326.689L85.5526 321.492H85.6329L85.5932 321.451L85.6329 321.412H85.5526L80.3555 316.215V320.075L81.7313 321.449L80.3555 322.825L66.963 336.218L53.5706 322.825L52.1958 321.449L53.5706 320.075L54.988 321.492H55.0683L66.9649 333.389L78.8615 321.492H78.9428L78.9022 321.451L78.9419 321.412L78.8606 321.409ZM40.1829 276.013L26.7896 289.405L21.5093 294.687H25.375L26.7924 293.269L40.1829 279.879L53.5753 293.271L54.9927 294.688H58.8584L53.5772 289.407L40.1829 276.013ZM107.141 262.624L101.862 267.903L88.4686 281.293L101.861 294.687H105.727L92.3343 281.293L105.725 267.903L107.142 266.485L107.141 262.624ZM53.5706 306.683L65.5475 294.705H61.6819L53.5706 302.818L45.4584 294.705H41.5928L53.5706 306.683ZM187.497 58.8713L192.778 53.5911H188.914L187.497 55.0085L186.079 53.5911H182.216L187.497 58.8713ZM162.127 53.5732H165.993L174.104 45.462L182.216 53.5732H186.079L174.104 41.5963L162.127 53.5732ZM133.926 78.9604V75.0947L128.646 80.3758H132.511L133.926 78.9604ZM187.497 75.0947L182.216 80.3758H186.079L187.497 78.9585L188.914 80.3758L200.889 92.3489L212.867 80.3758H209.001L200.889 88.488L192.778 80.3758L187.497 75.0947ZM226.259 80.3758L214.282 68.399L212.865 66.9816L214.282 65.5642L227.675 78.9604L241.067 65.568L253.044 53.5911H249.18L241.067 61.7023L227.675 75.0947L214.282 61.7023L209.001 66.9835L214.282 72.2646L222.394 80.3758H226.259ZM232.956 53.5911H229.09L227.673 55.0085L226.256 53.5911H222.394L227.675 58.8713L232.956 53.5911ZM241.067 21.5092L235.788 26.7885L222.394 40.1808L235.782 53.5732H239.657L226.259 40.1808L239.65 26.7904L241.067 25.373L242.485 26.7904L241.067 28.2078L229.09 40.1808L241.067 52.1577L254.46 38.7653L267.853 52.1577V48.292L254.46 34.8978L241.067 48.292L232.956 40.1808L241.067 32.0687L246.347 26.7904L241.067 21.5111V21.5092ZM133.926 68.399L121.949 80.3758H125.815L133.926 72.2646V68.399ZM215.697 53.5911L227.675 65.568L239.657 53.5911H235.782L227.675 61.7023L219.563 53.5911H215.697ZM209.001 53.5732H212.867L214.284 52.1558L215.702 53.5732H219.567L214.286 48.292L209.001 53.5732ZM101.86 53.5732H105.726L93.7488 41.5963L81.771 53.5732H85.6338L93.746 45.462L101.86 53.5732ZM125.815 308.096L112.422 294.704H108.557L121.949 308.096L108.636 321.409H108.557L107.139 322.826V326.689L112.336 321.492H112.416L125.815 308.096ZM75.0724 80.3758H78.9371L80.3545 78.9585L81.7719 80.3758H85.6338L80.3526 75.0947L75.0724 80.3758ZM72.2376 80.3758L80.3488 72.2646L88.461 80.3758H92.3267L80.3488 68.399L68.3719 80.3758H72.2376ZM93.7422 52.1577L95.1596 53.5751H99.0243L93.7441 48.2939L88.4686 53.5732H92.3343L93.7422 52.1577ZM105.719 53.5911H101.853L88.4686 66.9835L101.861 80.3758H105.727L92.3333 66.9835L105.719 53.5911ZM81.7644 80.3758L93.7488 92.3489L105.726 80.3721H101.86L93.7488 88.4842L85.6338 80.3758H81.7644ZM88.461 80.3758L93.7422 85.657L99.0224 80.3758H95.1568L93.7394 81.7932L92.322 80.3758H88.461ZM95.1568 80.3758H99.0224L85.6338 66.9835L99.0272 53.5911H95.1615L81.7681 66.9835L95.1568 80.3758ZM125.808 0.00472489H121.943L120.525 1.4221L119.108 0.00472489H115.242L120.523 5.28588L125.808 0.00472489ZM262.572 26.7904L267.851 32.0687V28.203L266.434 26.7856L253.044 13.398L266.438 0.00472489H262.572L249.179 13.398L262.572 26.7904ZM267.853 25.373L269.27 26.7904L282.661 40.1808L269.268 53.5732H273.133L286.525 40.1808L273.133 26.7885L267.853 21.5092L259.741 13.398L267.853 5.28588L281.246 18.6782L294.638 5.28588L299.919 0.00472489H296.053L294.636 1.4221L281.246 14.8126L267.853 1.42022L255.875 13.398L267.853 25.373ZM187.497 5.28588L195.609 13.3971L187.497 21.5092L182.218 26.7885L187.497 32.0687L200.889 45.462L214.282 32.0687L219.561 26.7904L214.282 21.5111L209.003 26.7885L200.889 34.8978L192.779 26.7894L206.17 13.3971L192.778 0.00472489H188.914L202.305 13.3971L188.914 26.7885L200.889 38.7653L212.865 26.7904L214.282 25.373L215.7 26.7904L214.282 28.2078L200.889 41.5963L187.497 28.204L186.079 26.7866L187.497 25.3692L199.475 13.3971L187.497 1.42022L186.079 0.00283609H182.216L187.497 5.28588ZM293.222 0.00472489H289.36L281.248 8.11686L273.136 0.00472489H269.271L281.246 11.9825L293.222 0.00472489ZM255.875 26.7904L267.853 38.7653V34.8978L259.741 26.7866L246.349 13.398L259.741 0.00472489H255.875L242.483 13.398L255.875 26.7904ZM294.638 8.11686L281.246 21.5092L267.853 8.11686L262.572 13.398L267.853 18.6782L275.964 26.7904L289.36 40.1808L275.964 53.5732H279.83L293.222 40.1808L279.83 26.7885L267.853 14.8126L266.436 13.3952L267.853 11.9778L281.246 25.3749L294.638 11.9825L306.616 0.00472489H302.75L294.638 8.11686ZM214.282 5.2821L227.675 18.6782L241.067 5.28588L246.349 0.00472489H242.483L241.065 1.4221L227.675 14.8126L214.282 1.42022L212.865 0.00283609H209.001L214.282 5.28399V5.2821ZM232.956 0.000945843H229.09L227.673 1.41833L226.256 0.000945843H222.394L227.675 5.2821L232.956 0.000945843ZM214.282 11.9825L227.675 25.3749L241.067 11.9825L253.044 0.00472489H249.18L241.067 8.11686L227.675 21.5092L214.282 8.11686L206.17 0.00472489H202.305L214.282 11.9825ZM239.657 0.00472489H235.782L227.675 8.11686L219.563 0.00472489H215.697L227.675 11.9825L239.657 0.00472489ZM286.531 0.00472489H282.666L281.248 1.4221L279.831 0.00472489H275.964L281.246 5.28588L286.531 0.00472489ZM374.998 61.7023L361.601 75.0947L348.209 61.7023L342.927 66.9835L348.209 72.2646L356.32 80.3758H360.185L348.209 68.399L346.791 66.9816L348.209 65.5642L361.601 78.9566L374.993 65.5642L374.998 61.7023ZM374.998 68.399L363.016 80.3758H366.882L374.993 72.2646L374.998 68.399ZM374.998 75.0947L369.718 80.3758H373.583L375 78.9585L374.998 75.0947ZM26.7933 5.28588L40.1829 18.6782L53.5753 5.28588L58.8565 0.00472489H54.9908L53.5735 1.4221L40.1829 14.8126L26.7905 1.42022L25.3731 0.00283609H21.5074L26.7886 5.28399L26.7933 5.28588ZM374.998 55.0066L361.601 68.399L348.209 55.0057L336.228 66.9835L348.205 78.9604L349.622 80.3777H353.488L348.207 75.0966L340.094 66.9854L348.207 58.8732L361.599 72.2665L374.992 58.8732L374.998 55.0066ZM361.606 61.7023L353.494 53.5911H349.629L361.606 65.568L373.584 53.5911H369.718L361.606 61.7023ZM374.998 162.162L361.606 175.555L348.213 162.162L336.228 174.139L348.205 186.117L349.622 187.535L348.205 188.952L346.787 187.535L333.397 174.144L346.789 160.752H342.927L329.535 174.144L342.927 187.536L348.207 192.816L353.486 187.536L348.207 182.258L340.094 174.146L348.207 166.035L361.599 179.427L374.992 166.035L374.998 162.162ZM374.998 14.8126L363.018 26.7885L349.624 40.1808L363.016 53.5732H366.882L353.49 40.1808L366.88 26.7904L374.992 18.6782L374.998 14.8126ZM373.581 26.7904L374.998 25.373V21.5092L369.72 26.7885L356.32 40.1808L369.713 53.5732H373.578L360.185 40.1808L373.581 26.7904ZM316.146 26.7904L308.03 34.8978L299.919 26.7866L294.64 21.5073L289.36 26.7885L294.639 32.0668L308.03 45.462L321.423 32.0687L326.702 26.7904L321.423 21.5111L313.312 13.399L321.423 5.28777L326.704 0.00661513H322.838L321.421 1.424L309.446 13.3971L321.423 25.3749L322.84 26.7923L321.423 28.2096L308.03 41.5963L294.638 28.203L293.221 26.7856L294.638 25.3683L296.055 26.7856L308.03 38.7606L320.006 26.7904L306.615 13.3971L320.008 0.00472489H316.143L302.749 13.3971L316.146 26.7904ZM132.512 0.00472489H128.646L120.534 8.11686L112.422 0.00472489H108.557L120.534 11.9825L132.512 0.00472489ZM101.86 26.7904L107.139 32.0696L112.419 26.7913L107.139 21.512L99.0272 13.3999L107.139 5.28872L120.532 18.6811L133.924 5.28872V1.42022L120.534 14.8126L107.141 1.42022L95.1643 13.3971L107.141 25.3749L108.559 26.7923L107.141 28.2096L105.724 26.7923L92.3333 13.3971L105.726 0.00472489H101.86L88.4686 13.3971L101.86 26.7904ZM133.926 52.1577L135.343 53.5751H139.211L133.93 48.2939L125.819 40.1827L133.93 32.0706V28.2059L121.949 40.1808L133.926 52.1577ZM187.497 11.9825L188.914 13.3999L187.497 14.8173L175.522 26.7885L187.497 38.7653L200.889 52.1577L214.282 38.7653L226.258 26.7904L214.282 14.8126L202.307 26.7885L200.889 28.2059L199.472 26.7885L212.867 13.3971L199.474 0.00472489H195.609L209.001 13.3971L195.611 26.7885L200.889 32.0668L206.168 26.7904L214.281 18.6782L222.391 26.7894L214.282 34.8978L200.889 48.292L187.497 34.8978L179.386 26.7875L187.497 18.6782L192.778 13.3971L187.497 8.11686L179.385 0.00472489H175.52L187.497 11.9825ZM13.3924 360.186L25.3703 348.209H21.5046L13.3924 356.32L5.28119 348.209H1.4155L13.3924 360.186ZM52.1551 0.00472489H48.2894L40.1829 8.11686L32.0708 0.00472489H28.2051L40.1829 11.9825L52.1551 0.00472489ZM107.141 239.703L108.559 241.12H112.424L107.143 235.839L99.031 227.728L107.143 219.615L120.536 233.008L133.928 219.615V215.75L120.536 229.142L107.143 215.75L95.1662 227.728L107.143 239.704L107.141 239.703ZM75.0743 26.7894L66.963 34.8978L58.8518 26.7866L53.5725 21.5073L48.2932 26.7866L53.5725 32.0649L66.9649 45.4582L80.3574 32.0649L85.6338 26.7904L80.3545 21.5111L72.2433 13.399L80.3545 5.28777L85.6357 0.00661513H81.77L80.3526 1.424L68.3757 13.4009L80.3526 25.3787L81.77 26.796L80.3526 28.2134L66.9602 41.6058L53.5678 28.2125L52.1504 26.7951L53.5678 25.3777L54.9852 26.7951L66.9602 38.7701L78.9362 26.7951L65.5457 13.4037L78.939 0.01134H75.0733L61.68 13.4037L75.0743 26.7894ZM68.3776 26.7894L66.9602 28.2068L65.5428 26.7894L53.5678 14.8135L41.6003 26.7885L53.5753 38.7635L66.9678 52.1558L80.3602 38.7635L92.3362 26.7885L80.3602 14.8126L78.9428 13.3952L80.3602 11.9778L92.3381 0H88.4686L80.3564 8.11214L75.0762 13.3924L80.3564 18.6735L88.4676 26.7847L80.3555 34.8978L66.963 48.2901L53.5706 34.8978L45.4603 26.7875L53.5706 18.6763L61.6819 26.7885L66.9602 32.0668L72.2395 26.7885L58.849 13.3971L72.2414 0.00472489H68.3757L54.9833 13.3971L68.3776 26.7894ZM133.926 34.8978L128.646 40.1789L133.926 45.4601V41.5963L132.509 40.1789L133.926 38.7616V34.8978ZM152.6 0.00283609H148.734L147.317 1.42022L145.899 0.00283609H142.034L147.315 5.28399L152.6 0.00283609ZM162.129 26.7866L160.712 28.204L148.734 40.1808L160.712 52.1577V48.292L152.6 40.1808L160.712 32.0687L165.99 26.7894L179.385 13.3971L165.992 0.00472489H162.127L175.52 13.3971L162.129 26.7866ZM168.825 26.7866L160.712 34.8978L155.431 40.1789L160.712 45.4601L174.104 32.0668L187.497 45.462L195.609 53.5732H199.475L187.497 41.5963L174.104 28.203L160.712 41.5963L159.294 40.1789L160.712 38.7616L172.687 26.7904L186.079 13.3971L172.689 0.00472489H168.823L182.216 13.3971L168.825 26.7866ZM159.296 0.00472489H155.431L147.319 8.11686L139.211 0.00472489H135.345L147.323 11.9825L159.296 0.00472489ZM145.904 26.7904L133.926 14.8126V18.6782L142.037 26.7894L133.926 34.8978V38.7635L145.902 26.7904H145.904ZM160.712 5.28588L168.823 13.3971L160.712 21.5092L155.433 26.7885L142.038 40.1808L155.431 53.5732H159.296L145.904 40.1808L159.294 26.7904L160.712 25.373L172.689 13.3952L160.712 1.42022L147.319 14.8126L133.926 1.42022V5.28588L147.319 18.6782L160.712 5.28588ZM145.904 53.5713L133.926 41.5963V45.462L142.038 53.5732L145.904 53.5713ZM139.211 26.7904L133.932 21.5111V25.3768L135.349 26.7941L133.932 28.2115V32.0772L139.211 26.7989V26.7904ZM160.716 11.9825L162.133 13.3999L160.716 14.8173L148.737 26.7885L135.342 40.1808L148.735 53.5732H152.6L139.211 40.1808L152.598 26.7904L160.71 18.6782L165.99 13.3971L160.71 8.11686L147.319 21.5092L133.926 8.11686V11.9825L147.319 25.3749L160.716 11.9825ZM309.447 26.7894L308.029 28.2068L306.612 26.7894L294.638 14.8126L282.663 26.7885L294.638 38.7635L308.03 52.1558L321.423 38.7635L333.399 26.7904L321.423 14.8126L320.005 13.3952L321.423 11.9778L333.401 0H329.535L321.423 8.11214L316.143 13.3924L321.423 18.6735L329.534 26.7847L321.423 34.8978L308.03 48.292L294.638 34.8978L286.525 26.7894L294.635 18.6782L302.746 26.7904L308.025 32.0687L313.304 26.7904L299.919 13.3971L313.312 0.00472489H309.446L296.053 13.3971L309.447 26.7894ZM267.852 346.778L281.246 333.386L294.638 346.778L296.055 348.195H299.921L294.64 342.915L281.246 329.524L267.852 342.913L262.572 348.194H266.438L267.852 346.778ZM242.563 321.492L255.875 334.804L242.483 348.194H246.349L259.741 334.801L246.349 321.409H246.271L241.074 316.212V320.075L242.491 321.492H242.563ZM254.46 360.191L266.438 348.214H262.572L254.46 356.326L246.349 348.214H242.483L254.46 360.191ZM294.638 336.22L281.246 322.824L267.852 336.217L255.875 348.194H259.741L267.852 340.082L281.246 326.689L294.638 340.081L302.749 348.193H306.615L294.638 336.22ZM172.689 348.194L160.712 336.217L148.734 348.194H152.6L160.712 340.082L168.823 348.194H172.689ZM187.497 333.386L199.394 321.492H199.474L199.434 321.451L199.474 321.412H199.394L187.497 309.511L175.6 321.409H175.52L174.102 322.826L172.727 321.45L186.079 308.096L172.689 294.704H168.823L182.216 308.096L168.903 321.409H168.823L168.864 321.449L168.823 321.489H168.903L174.101 326.686L179.298 321.489H179.378L187.497 313.377L195.568 321.449L187.497 329.524L174.104 342.916L160.712 329.524L152.64 321.452L160.712 313.381L165.992 308.1L160.712 302.819L147.319 316.208L133.926 302.816L125.815 294.704H121.949L133.926 306.681L147.319 320.075L160.712 306.682L162.129 308.1L160.712 309.517L148.814 321.415H148.734L148.775 321.454L148.734 321.495H148.814L160.712 333.391L174.104 346.784L187.497 333.386ZM294.638 349.627L293.221 348.21H289.36L294.641 353.491L299.922 348.211H296.056L294.638 349.627ZM294.638 360.188L306.615 348.212H302.749L294.638 356.323L286.525 348.212H282.66L294.638 360.188ZM281.246 346.778L282.663 348.195H286.525L281.245 342.915L275.963 348.195H279.829L281.246 346.778ZM281.246 340.082L289.357 348.194H293.222L281.246 336.217L269.268 348.194H273.133L281.246 340.082ZM241.067 293.271L253.044 281.293L241.067 269.316L239.65 267.899L241.067 266.482V262.624L235.788 267.902L241.067 273.181L249.18 281.292L241.067 289.404L227.675 276.013L214.282 289.405V293.271L227.675 279.879L241.067 293.271ZM40.1829 346.778L41.6003 348.195H45.4651L40.1829 342.913L34.9017 348.194H38.7655L40.1829 346.778ZM40.1829 340.082L48.2942 348.194H52.1598L40.1829 336.217L28.2051 348.194H32.0708L40.1829 340.082ZM53.5753 349.626L52.158 348.209H48.2923L53.5735 353.49L58.8546 348.21H54.9889L53.5753 349.626ZM26.7896 346.777L40.1829 333.386L53.5753 346.778L54.9927 348.195H58.8584L53.5772 342.915L40.1829 329.524L26.7896 342.917L21.5093 348.197H25.375L26.7896 346.777ZM159.301 348.211H155.435L147.323 356.322L139.211 348.212H135.345L147.322 360.188L159.301 348.211ZM162.136 348.193H166.001L160.72 342.911L155.439 348.193H159.305L160.722 346.775L162.136 348.193ZM107.15 296.118V299.984L115.261 308.095L107.15 316.207V320.075L119.127 308.097L107.15 296.118ZM53.5791 336.216L40.1829 322.824L26.7896 336.217L14.8126 348.194H18.6783L26.7896 340.082L40.1829 326.689L53.5753 340.081L61.6866 348.193H65.5523L53.5791 336.216ZM93.7573 309.51L80.364 296.118L68.387 308.095L80.3555 320.075V316.209L72.2442 308.097L80.3555 299.986L93.7488 313.378L107.141 299.986V296.12L93.7573 309.51ZM321.431 340.081L329.543 348.193H333.409L321.431 336.216L309.454 348.193H313.32L321.431 340.081ZM348.217 249.228L334.816 262.624L321.423 249.231L313.312 241.12H309.446L321.423 253.097L334.816 266.489L348.209 253.097L360.185 241.12H356.32L348.217 249.228ZM348.217 242.533L334.825 255.925L321.431 242.533L320.014 241.115H316.148L321.429 246.396L334.816 259.789L348.209 246.396L353.489 241.116H349.624L348.217 242.533ZM346.8 214.331H342.927L329.535 227.725L342.927 241.117H346.793L333.401 227.725L346.8 214.331ZM375 282.708L361.608 269.315L348.215 282.708L346.798 281.29L348.215 279.873L360.19 267.897L348.215 255.922L336.24 267.897L322.838 281.293L336.228 294.687H340.093L326.7 281.293L340.091 267.903L348.203 259.792L356.313 267.902L348.203 276.013L342.922 281.293L348.203 286.574L361.595 273.182L374.988 286.574L375 282.708ZM373.583 214.331H369.717L361.605 222.444L353.494 214.331H349.628L361.605 226.309L373.583 214.331ZM373.583 187.531L375 186.113V182.248L369.722 187.526L356.32 200.92L369.713 214.313H373.578L360.185 200.92L373.583 187.531ZM321.423 333.386L333.32 321.492H333.401L333.36 321.451L333.401 321.412H333.32L321.423 309.514L320.005 308.097L321.423 306.679L334.816 320.075L348.209 306.681L360.185 294.704H356.32L348.209 302.816L334.816 316.208L321.423 302.816L316.143 308.096L321.423 313.377L329.494 321.449L321.423 329.524L308.03 342.916L294.638 329.524L286.566 321.452L294.638 313.381L302.749 321.492H302.829L308.027 326.689L313.224 321.492H313.304L313.263 321.451L313.304 321.412H313.224L299.912 308.099L313.304 294.706H309.438L296.046 308.099L309.399 321.451L308.023 322.827L306.605 321.41H306.525L294.629 309.512L282.745 321.409H282.666L282.705 321.449L282.666 321.489H282.745L294.643 333.386L308.035 346.778L321.423 333.386ZM348.209 212.9L349.626 214.317H353.492L348.21 209.036L334.818 195.644L321.425 209.036L316.144 214.317H320.01L321.428 212.9L334.821 199.508L348.213 212.9H348.209ZM374.993 289.405L361.601 276.013L348.209 289.405L340.096 281.293L348.209 273.182L353.487 267.903L348.209 262.624L342.929 267.903L329.537 281.295L342.929 294.688H346.795L333.403 281.295L346.793 267.905L348.21 266.487L349.628 267.905L348.21 269.322L336.228 281.293L348.206 293.271L361.598 279.879L374.991 293.271L374.993 289.405ZM374.993 175.555L363.018 187.53L349.624 200.92L363.016 214.313H366.882L353.49 200.92L366.88 187.529L374.992 179.418L374.993 175.555ZM374.993 168.859L361.601 182.251L348.209 168.858L342.927 174.138L348.209 179.42L356.319 187.53L348.209 195.641L340.096 187.529L326.706 174.138L340.102 160.747H336.228L322.838 174.139L336.228 187.532L348.203 199.508L360.178 187.532L348.203 175.557L346.786 174.139L348.203 172.722L361.595 186.115L374.988 172.722L374.993 168.859ZM321.423 346.778L322.84 348.195H326.706L321.425 342.914L316.144 348.195H320.009L321.423 346.778ZM334.816 353.492L340.096 348.212H336.228L334.81 349.629L333.393 348.212H329.527L334.816 353.492ZM363.016 294.687H366.882L361.601 289.405L356.32 294.687H360.185L361.603 293.269L363.016 294.687ZM374.993 329.524L366.882 321.413H366.802L353.49 308.1L366.882 294.707H363.016L349.624 308.1L363.016 321.492H363.097L374.993 333.389V329.524ZM374.993 322.828L373.576 321.411H373.497L360.184 308.098L373.576 294.705H369.71L356.318 308.098L369.713 321.492H369.793L374.99 326.689L374.993 322.828ZM361.601 282.712L349.624 294.69H353.489L361.601 286.578L369.713 294.69H373.578L361.601 282.712ZM346.793 348.215H342.927L334.816 356.326L326.704 348.215H322.838L334.816 360.192L346.793 348.215ZM374.993 336.22L361.601 322.824L348.209 336.217L346.791 334.799L348.209 333.382L360.105 321.485H360.185L360.146 321.445L360.185 321.405H360.105L348.209 309.508L336.311 321.405H336.228L322.838 334.801L336.228 348.194H340.093L326.7 334.801L340.016 321.492H340.096L348.209 313.38L356.28 321.451L348.209 329.524L342.927 334.805L348.209 340.086L361.601 326.689L374.993 340.081V336.22ZM95.1634 26.7904L107.138 38.7653L119.116 26.7904L107.141 14.8126L105.724 13.3952L107.141 11.9778L120.534 25.3702L133.926 11.9778V8.11686L120.534 21.5092L107.141 8.11686L101.86 13.3971L107.141 18.6782L115.252 26.7894L107.141 34.8978L99.0291 26.7866L85.6338 13.3971L99.0272 0.00472489H95.1615L81.7681 13.3971L95.1634 26.7904ZM279.83 361.604L267.853 349.627L254.46 363.019L241.067 349.627V353.493L254.46 366.885L267.852 353.492L275.964 361.603L267.852 369.715L262.572 374.996H266.438L267.855 373.579L279.83 361.604ZM273.133 348.212H269.268L282.661 361.604L269.268 374.996H273.133L286.525 361.604L273.133 348.212ZM279.83 348.212H275.964L289.36 361.604L275.964 374.996H279.83L293.222 361.604L279.83 348.212ZM267.852 366.885L273.133 361.604L267.853 356.323L254.46 369.715L241.067 356.323V360.188L254.46 373.581L267.852 360.188L269.27 361.606L267.852 363.023L255.875 374.996H259.741L267.852 366.885ZM321.423 369.72L313.312 361.609L321.423 353.496L334.816 366.889L348.209 353.496L353.489 348.215H349.624L348.207 349.633L334.814 363.025L321.421 349.633L309.446 361.604L321.423 373.581L322.84 374.998H326.706L321.425 369.718L321.423 369.72ZM241.067 366.885L249.179 374.996H253.044L241.067 363.019V366.885ZM294.638 369.72L289.36 374.996H293.225L294.643 373.579L296.06 374.996H299.926L294.645 369.715L294.638 369.72ZM320.007 348.215H316.143L302.749 361.604L316.143 374.996H320.008L306.615 361.604L320.007 348.215ZM313.312 348.215H309.446L296.053 361.604L309.446 374.996H313.312L299.919 361.604L313.312 348.215ZM294.638 363.023L282.661 375H286.525L294.637 366.889L302.748 375H306.614L294.637 363.023H294.638ZM241.067 373.581L242.485 374.998H246.35L241.069 369.718L241.067 373.581ZM241.067 322.824V326.689L249.18 334.8L241.067 342.912L235.782 348.194H239.657L241.074 346.776L253.051 334.799L241.067 322.824ZM187.497 363.019L175.52 374.996H179.385L187.497 366.885L195.609 374.996H199.474L187.497 363.019ZM212.867 348.212H209.001L195.609 361.604L209.001 374.996H212.867L199.474 361.604L212.867 348.212ZM187.497 369.715L182.216 374.996H186.079L187.497 373.579L188.914 374.996H192.778L187.497 369.716V369.715ZM206.17 348.212H202.305L188.914 361.604L202.307 374.996H206.172L192.778 361.604L206.17 348.212ZM239.657 374.996L241.074 373.579V369.714L235.782 374.996H239.657ZM214.282 356.323L209.001 361.604L214.282 366.885L222.394 374.996H226.259L214.282 363.019L212.864 361.602L214.282 360.185L227.675 373.581L241.067 360.188V356.323L227.675 369.715L214.282 356.323ZM214.282 349.627L202.305 361.604L214.282 373.581L215.7 374.998H219.566L214.284 369.717L206.173 361.606L214.285 353.495L227.675 366.885L241.067 353.493V349.627L227.675 363.019L214.282 349.627ZM232.956 374.996L241.067 366.885V363.019L229.09 374.996H232.956ZM374.993 373.579V369.713L366.882 361.602L374.993 353.49V349.625L363.016 361.604L374.993 373.579ZM366.882 241.116L374.993 233.004V229.138L363.016 241.118L366.882 241.116ZM374.993 266.485V262.624L366.882 254.511L374.993 246.4V242.535L363.016 254.51L374.993 266.485ZM373.576 241.116L374.993 239.699V235.833L369.713 241.114L373.576 241.116ZM348.207 215.746L336.228 227.726L348.205 239.703L349.622 241.12H353.488L348.207 235.839L340.094 227.728L348.207 219.615L361.599 233.008L374.992 219.615V215.75L361.599 229.142L348.207 215.746ZM348.207 222.443L342.925 227.724L348.207 233.004L356.318 241.116H360.184L348.207 229.138L346.789 227.721L348.207 226.304L361.599 239.696L374.992 226.304V222.438L361.599 235.83L348.207 222.443ZM363.016 40.1808L374.993 52.1577V48.292L366.882 40.1808L374.993 32.0687V28.204L363.016 40.1808ZM374.993 206.203V202.338L373.576 200.92L374.993 199.503V195.637L369.713 200.92L374.993 206.203ZM374.993 45.462V41.5963L373.576 40.1789L374.993 38.7616V34.8978L369.713 40.1789L374.993 45.462ZM374.993 212.902V209.036L366.882 200.92L374.993 192.808V188.942L363.016 200.92L374.993 212.902ZM374.993 302.818L369.713 308.098L374.993 313.379V309.513L373.576 308.096L374.993 306.678V302.818ZM374.993 249.231L369.713 254.512L374.993 259.793V255.928L373.576 254.51L374.993 253.093V249.231ZM366.882 348.213H363.016L349.624 361.604L363.016 374.996H366.882L353.49 361.604L366.882 348.213ZM348.209 369.717L342.927 374.998H346.793L348.21 373.581L349.628 374.998H353.494L348.212 369.717H348.209ZM373.578 348.213H369.712L356.32 361.604L369.713 374.996H373.578L360.185 361.604L373.578 348.213ZM348.209 363.021L336.228 374.996H340.094L348.206 366.885L356.317 374.996H360.183L348.206 363.019L348.209 363.021ZM374.993 366.887V363.021L373.576 361.604L374.993 360.186V356.321L369.713 361.602L374.993 366.887ZM374.993 320.076V316.21L366.882 308.098L374.993 299.987V296.121L363.016 308.096L374.993 320.076ZM334.816 373.583L348.209 360.19L360.185 348.213H356.32L348.209 356.325L334.816 369.717L321.423 356.325L316.143 361.606L321.423 366.887L329.535 374.998H333.401L321.423 363.021L320.005 361.604L321.423 360.186L334.816 373.583ZM172.689 348.212H168.823L182.216 361.604L168.823 374.996H172.689L186.079 361.604L172.689 348.212ZM112.422 348.212H108.557L121.949 361.604L108.557 374.996H112.421L125.815 361.604L112.422 348.212ZM0 108.574V112.44L8.11218 120.552L0 128.663V132.529L11.9769 120.552L0 108.574ZM0 286.574L5.28119 281.293L0 276.013V279.879L1.41739 281.296L0 282.713V286.574ZM0 269.316V273.182L8.11218 281.293L0 289.405V293.271L11.9769 281.293L0 269.316ZM1.41739 107.161L14.8079 120.552L1.4155 133.944H5.28119L18.6736 120.552L5.28119 107.159L0.0018917 101.88V105.746L1.41928 107.163L1.41739 107.161ZM0 115.271V119.136L1.41739 120.554L0 121.971V125.836L5.28119 120.556L0 115.271ZM0 373.581L1.41739 374.998H5.28308L0.0018917 369.718L0 373.581ZM0 340.082L5.28119 334.801L0 329.52V333.386L1.41739 334.803L0 336.22V340.082ZM0 366.885L8.11123 374.996H11.9769L0 363.019V366.885ZM0 322.824V326.689L8.11218 334.8L0 342.912V346.777L11.9769 334.8L0 322.824ZM8.11312 107.161L21.5046 120.552L8.11218 133.944H11.9769L25.3703 120.552L11.9769 107.159L0 95.1837V99.0493L8.11123 107.161H8.11312ZM8.11312 13.398L0.000945848 21.5092V25.3749L11.9779 13.398L0.000945848 1.42022V5.28588L8.11312 13.398ZM1.41833 26.7885L0.000945848 28.2059V32.0715L5.28024 26.7932L18.6727 13.4009L5.28024 0.00755953H1.41455L14.807 13.4009L1.41833 26.7885ZM8.11502 26.7885L0 34.8978V38.7635L11.975 26.7885L25.3684 13.3961L11.976 0.00283609H8.11029L21.5027 13.3961L8.11502 26.7885ZM0.000945848 18.6782L5.28213 13.398L0.000945848 8.11686V11.9825L1.41833 13.3999L0.000945848 14.8173V18.6782ZM26.7848 92.3489L28.2022 93.7663L26.7848 95.1837L14.8098 107.159L26.7848 119.134L38.7655 107.161L52.1551 93.7663L38.7655 80.3758H34.8998L48.2894 93.7663L34.8989 107.157L26.7867 115.269L18.6764 107.159L26.7867 99.0475L32.0679 93.7663L26.7867 88.4861L13.3943 101.879L0.0018917 88.487V92.3527L13.3943 105.745L26.7848 92.3489ZM26.7848 366.881L32.066 361.6L26.7848 356.319L13.3924 369.711L0 356.319V360.185L13.3924 373.577L26.7848 360.185L28.2022 361.602L26.7848 363.019L14.8079 374.996H18.6736L26.7848 366.885V366.881ZM26.7848 85.6532L34.897 93.7644L26.7848 101.877L21.5065 107.155L26.7848 112.433L32.0641 107.155L45.4584 93.7663L32.066 80.3758H28.2003L41.5937 93.7663L28.2022 107.157L26.7848 108.574L25.3674 107.157L26.7848 105.739L38.7655 93.7663L26.7877 81.7894L13.3924 95.1837L0 81.7913V85.657L13.3924 99.0493L26.7848 85.6532ZM0 72.2609L5.28119 66.9797L0 61.6986V65.5642L1.41739 66.9816L0 68.399V72.2609ZM8.11218 66.9797L0 75.0909V78.9566L11.9769 66.9797L0 55.0057V58.8713L8.11218 66.9797ZM78.94 348.208H75.0752L61.6819 361.6L75.0752 374.992H78.9409L65.5475 361.6L78.94 348.208ZM107.141 349.625V353.49L115.252 361.602L107.141 369.713V373.579L119.118 361.602L107.141 349.625ZM26.7858 11.9825L40.1829 25.3749L53.5753 11.9825L65.5523 0.00472489H61.6875L53.5753 8.11686L40.1829 21.5092L26.7905 8.11686L18.6783 0.00472489H14.8126L26.7905 11.9825H26.7858ZM119.118 348.212H115.252L128.645 361.604L115.252 374.996H119.118L132.511 361.604L119.118 348.212ZM112.421 361.604L107.141 356.323L93.7488 369.715L80.3555 356.323L75.0752 361.604L80.3555 366.885L88.4676 374.996H92.3333L80.3555 363.019L78.9381 361.602L80.3555 360.185L93.7488 373.577L107.141 360.185L108.559 361.602L107.141 363.019V366.885L112.421 361.604ZM93.7488 363.021L80.3555 349.629L68.3785 361.606L80.3555 373.583V369.717L72.2442 361.606L80.3555 353.494L93.7488 366.886L107.141 353.493V349.628L93.7488 363.021ZM160.712 366.887L165.992 361.606L160.712 356.325L147.319 369.715L133.926 356.323L125.815 348.212H121.949L133.926 360.188L147.319 373.581L160.712 360.188L162.129 361.606L160.712 363.023L148.734 375H152.6L160.712 366.889V366.887ZM160.712 349.629L147.319 363.019L133.926 349.627L132.509 348.21H128.644L133.924 353.49L147.317 366.883L160.71 353.491L168.821 361.603L160.71 369.714L155.429 374.994H159.294L160.712 373.577L172.689 361.6L160.712 349.629ZM133.926 363.021L121.949 374.998H125.815L133.926 366.887L142.038 374.998H145.904L133.926 363.021ZM133.926 369.717L128.645 374.998H132.511L133.928 373.581L135.345 374.998H139.211L133.93 369.717H133.926ZM105.726 374.998L107.143 373.581V369.715L101.862 374.996L105.726 374.998ZM53.5706 369.718L48.2894 374.998H52.1551L53.5725 373.581L54.9899 374.998H58.8556L53.5744 369.717L53.5706 369.718ZM38.7655 348.212H34.8998L48.2923 361.604L34.8998 374.996H38.7655L52.158 361.604L38.7655 348.212ZM53.5735 363.019L41.5965 374.996H45.4613L53.5735 366.885L61.6847 374.996H65.5504L53.5735 363.019ZM32.0689 348.212H28.2032L41.5965 361.604L28.2032 374.996H32.0689L45.4613 361.604L32.0689 348.212ZM38.7655 361.604L26.7877 349.627L13.3953 363.019L0.00283754 349.627V353.493L13.3953 366.885L26.7877 353.492L34.8998 361.603L26.7877 369.714L21.5074 374.995H25.3731L26.7905 373.578L38.7655 361.604ZM80.3583 373.581L81.7757 374.998H85.6338L80.3526 369.718L80.3583 373.581ZM95.1662 374.998H99.0319L107.144 366.887V363.021L95.1662 374.998ZM72.2471 348.213H68.3814L54.9889 361.606L68.3814 374.998H72.2471L58.8546 361.606L72.2471 348.213ZM165.995 348.213H162.13L175.523 361.606L162.129 374.998H165.995L179.385 361.604L165.995 348.213ZM45.4622 0.0103942H41.5965L40.1791 1.42777L38.7618 0.0103942H34.8961L40.1773 5.29155L45.4622 0.0103942ZM0.00283754 179.426L5.28402 174.145L0.00283754 168.864V172.729L1.42022 174.147L0.00283754 175.564V179.426ZM0.00283754 233.012L5.28402 227.731L0.00283754 222.45V226.316L1.42022 227.733L0.00283754 229.151V233.012ZM8.11502 160.753L21.5074 174.145L8.11691 187.535L0.00472924 195.648V199.513L11.9798 187.537L25.3731 174.145L11.9807 160.753H8.11502ZM1.41833 160.753L14.8108 174.145L1.42022 187.535L0.00283754 188.953V192.818L5.28213 187.539L18.6745 174.147L5.28213 160.755L1.41833 160.753ZM0.000945848 166.034L8.11312 174.145L0.000945848 182.257V186.122L11.9779 174.145L0.000945848 162.168V166.034ZM38.7655 133.944L40.1829 132.527L41.6003 133.944H45.4651L40.1848 128.663L34.9036 133.944H38.7655ZM0.00283754 246.399L13.3924 259.789L26.7848 246.396L34.897 254.508L26.7848 262.62L21.5065 267.899L26.7848 273.178L32.0641 267.899L45.4566 254.507L32.0641 241.114H28.1985L41.5918 254.507L28.2003 267.897L26.7829 269.314L25.3656 267.897L26.7829 266.48L38.7655 254.51L26.7877 242.534L13.3953 255.926L0.00283754 242.534V246.399ZM13.3953 299.985L18.6764 294.704H14.8108L13.3934 296.121L11.976 294.704H8.11123L13.3953 299.985ZM0 259.789L8.11123 267.9L21.5027 281.29L8.11029 294.684H11.975L25.3684 281.29L11.975 267.898L0 255.923V259.789ZM0 253.092L13.3924 266.484L26.7848 253.092L28.2022 254.509L26.7848 255.927L14.8098 267.902L26.7848 279.878L38.7655 267.903L52.158 254.51L38.7655 241.118H34.8998L48.2923 254.51L34.9017 267.901L26.7896 276.013L18.6793 267.902L26.7896 259.792L32.0708 254.51L26.7896 249.229L13.3924 262.624L0 249.231V253.092ZM28.2003 160.744L40.1829 172.724L52.1598 160.747H48.2942L40.1829 168.859L32.0708 160.747L28.2003 160.744ZM40.1782 166.025L45.4594 160.744H41.5937L40.1763 162.161L38.7589 160.744H34.8932L40.1782 166.025ZM14.8079 160.744L26.7858 172.721L40.1829 186.117L53.5753 172.724L65.5523 160.747H61.6875L53.5753 168.858L40.1829 182.251L26.7905 168.858L18.6783 160.747L14.8079 160.744ZM53.5706 159.327L54.988 160.744H58.8537L53.5725 155.463L48.2913 160.744H52.157L53.5744 159.327H53.5706ZM34.897 160.744H38.7655L52.158 147.352L38.7655 133.961H34.8998L48.2923 147.355L34.897 160.744ZM80.3555 279.875L92.3314 267.899L80.3555 255.924L68.3804 267.899L66.963 269.316L65.5457 267.899L78.9381 254.508L65.5447 241.115H61.679L75.0724 254.508L61.6819 267.898L66.9612 273.177L72.2404 267.898L80.3517 259.787L88.4629 267.897L80.3517 276.008L66.9593 289.401L53.5668 276.008L45.4556 267.897L53.5668 259.787L58.848 254.506L53.5668 249.225L45.4547 241.113H41.589L53.5668 253.09L54.9842 254.508L53.5668 255.925L41.6003 267.901L53.5753 279.877L66.9678 293.269L80.3555 279.875ZM241.067 299.985L254.46 313.377L267.852 299.985L275.964 308.096L267.852 316.208L262.655 321.405H262.575L262.614 321.445L262.575 321.485H262.654L267.851 326.682L273.048 321.485H273.129L286.525 308.096L273.133 294.704H269.268L282.661 308.096L269.348 321.409H269.268L267.85 322.826L266.475 321.45L267.852 320.075L279.83 308.097L267.853 296.119L254.46 309.511L241.067 296.119V299.985ZM65.5475 160.747L53.5706 148.77L41.5937 160.747H45.4584L53.5706 152.636L61.6819 160.748L65.5475 160.747ZM28.2003 160.747H32.066L45.4584 147.355L32.066 133.961H28.2003L41.5937 147.355L28.2003 160.747ZM53.5706 142.073L45.4584 133.961H41.5928L53.5706 145.939L65.5475 133.962H61.6819L53.5706 142.073ZM0 219.614L8.11218 227.726L0 235.837V239.703L11.9769 227.726L0 215.748V219.614ZM241.067 239.703L242.485 241.12H246.35L241.069 235.839L232.958 227.728L241.069 219.615L246.35 214.334H242.483L241.065 215.752L229.09 227.726L241.067 239.703ZM254.46 306.681L266.438 294.704H262.572L254.46 302.816L246.349 294.704H242.483L254.46 306.681ZM242.485 267.903L255.875 281.293L242.483 294.687H246.349L259.741 281.293L246.349 267.901L241.067 262.624V266.488L242.485 267.906V267.903ZM241.067 242.534L227.675 255.926L214.282 242.534L202.305 254.51L214.282 266.488L215.7 267.906L214.282 269.323L212.865 267.906L199.474 254.51L212.867 241.118H209.001L195.609 254.51L209.001 267.903L214.281 273.182L219.559 267.903L214.282 262.624L206.17 254.511L214.282 246.4L227.675 259.789L241.067 246.399V242.534ZM293.227 294.687L281.246 282.709L269.268 294.687H273.133L281.246 286.574L289.357 294.687H293.227ZM275.969 294.687H279.835L281.252 293.269L282.67 294.687H286.525L281.245 289.405L275.969 294.687ZM281.25 276.013L267.852 289.405L262.572 294.687H266.438L267.855 293.269L281.248 279.877L294.641 293.269L296.058 294.687H299.924L294.643 289.405L281.25 276.013ZM294.643 299.985L299.924 294.704H296.058L294.641 296.121L293.223 294.704H289.36L294.641 299.985H294.643ZM241.067 249.229L227.675 262.624L214.282 249.229L209.001 254.51L214.282 259.789L222.393 267.899L214.282 276.01L206.17 267.898L192.778 254.51L206.17 241.118H202.305L188.914 254.51L202.307 267.903L214.282 279.879L226.258 267.903L214.282 255.926L212.864 254.509L214.282 253.091L227.675 266.487L241.067 253.095V249.229ZM107.141 242.534V246.399L115.252 254.51L107.141 262.624V266.488L119.118 254.511L107.141 242.534ZM105.724 294.704H101.858L93.7469 302.816L85.6338 294.704H81.7681L93.746 306.681L105.724 294.704ZM107.141 255.926L95.1662 267.901L81.7738 281.293L95.1672 294.687H99.0319L85.6338 281.293L99.0243 267.903L107.137 259.792L107.141 255.926ZM112.421 254.509L107.141 249.227L93.7488 262.624L80.3555 249.231L72.2442 241.12H68.3785L80.3555 253.097L93.7488 266.489L107.141 253.097L108.559 254.514L107.141 255.932V259.789L112.421 254.509ZM187.497 279.879L199.472 267.903L187.497 255.926L186.079 254.509L187.497 253.091L199.475 241.114H195.609L187.497 249.229L182.216 254.51L187.497 259.789L195.608 267.899L187.497 276.013L174.104 289.405L160.712 276.013L152.601 267.902L160.712 259.792L168.823 267.903L174.102 273.182L179.382 267.903L165.991 254.512L179.385 241.12H175.519L162.125 254.512L175.518 267.904L174.101 269.321L172.683 267.904L160.708 255.929L148.736 267.901L160.712 279.877L174.104 293.27L187.497 279.879ZM93.7488 299.985L99.0291 294.704H95.1634L93.746 296.121L92.3286 294.704H88.4686L93.7488 299.985ZM93.7488 255.926L80.3555 242.534L78.9381 241.116H75.0724L80.3536 246.397L93.7488 259.789L107.141 246.396V242.531L93.7488 255.926ZM160.712 282.709L148.734 294.687H152.6L160.712 286.574L168.823 294.687H172.689L160.712 282.709ZM133.926 293.271L145.904 281.293L133.926 269.316L132.509 267.899L133.926 266.482L135.343 267.899L148.734 281.289L135.342 294.683H139.211L152.603 281.289L139.211 267.901L133.926 262.624L128.647 267.902L133.925 273.181L142.037 281.292L133.925 289.404L120.534 276.013L107.141 289.405V293.271L120.534 279.879L133.926 293.271ZM80.3555 286.574L88.4676 294.687H92.3333L80.3555 282.709L68.3785 294.687H72.2442L80.3555 286.574ZM25.3703 160.747H21.5046L26.7858 166.028L40.1829 179.42L53.5753 166.028L58.8565 160.747H54.9908L53.5735 162.164L40.1829 175.555L26.7905 162.162L25.3703 160.747ZM242.483 241.118L254.46 253.095L266.438 241.118H262.572L254.46 249.229L246.349 241.118H242.483ZM299.919 214.332H296.053L309.446 227.726L296.053 241.118H299.919L313.312 227.726L299.919 214.332ZM241.067 246.399L254.46 259.789L267.852 246.399L275.964 254.51L267.852 262.624L262.574 267.903L267.852 273.182L273.131 267.903L286.525 254.51L273.133 241.118H269.268L282.661 254.51L269.27 267.901L267.852 269.318L266.435 267.901L267.852 266.484L279.83 254.506L267.853 242.534L254.46 255.926L241.067 242.534V246.399ZM259.741 241.118H255.875L254.458 242.535L253.04 241.118H249.176L254.456 246.399L259.741 241.118ZM346.793 133.964H342.927L334.816 142.076L326.704 133.964H322.838L334.816 145.942L346.793 133.964ZM309.446 133.947H313.312L321.423 125.835L329.535 133.947H333.401L321.423 121.97L309.446 133.947ZM226.259 227.726L239.657 214.332H235.782L222.394 227.726L235.782 241.118H239.657L226.259 227.726ZM316.143 133.944H320.007L321.425 132.527L322.842 133.944H326.708L321.427 128.663L316.143 133.944ZM313.308 160.747L299.915 147.355L313.308 133.962H309.442L296.05 147.355L309.442 160.747H313.308ZM294.638 202.338L282.661 214.315H286.525L294.637 206.203L302.748 214.315H306.614L294.638 202.338ZM254.46 206.203L262.572 214.315H266.438L254.46 202.338L242.483 214.315H246.349L254.46 206.203ZM239.657 241.118H235.782L227.671 249.229L219.559 241.118H215.697L227.675 253.095L239.657 241.118ZM160.717 253.095L172.694 241.118H168.828L160.717 249.229L147.319 262.624L133.926 249.231L125.815 241.12H121.949L133.926 253.097L147.319 266.489L160.712 253.097L160.717 253.095ZM108.563 267.901L107.146 269.318V273.184L112.424 267.905L125.818 254.512L112.422 241.118H108.557L121.949 254.51L108.563 267.901ZM186.079 227.726L172.687 214.332H168.821L182.214 227.726L168.821 241.118H172.687L186.079 227.726ZM107.139 279.879L119.114 267.903L132.507 254.51L119.114 241.118H115.249L128.641 254.51L115.251 267.901L107.139 276.013V279.879ZM219.564 214.315L214.282 209.034L209.001 214.315H212.867L214.284 212.898L215.702 214.315H219.564ZM219.564 241.118L214.282 235.837V239.703L215.7 241.12L219.564 241.118ZM206.17 241.118L192.778 227.726L206.17 214.332H202.305L188.914 227.726L202.307 241.118H206.17ZM212.867 241.118L199.475 227.726L212.867 214.332H209.001L195.609 227.726L209.001 241.118H212.867ZM172.689 53.5911H168.823L182.216 66.9835L168.823 80.3758H172.689L186.079 66.9835L172.689 53.5911ZM175.524 66.9835L162.127 80.3758H165.993L179.385 66.9835L165.992 53.5911H162.127L175.524 66.9835ZM160.716 88.488L147.319 101.88L133.926 88.487L125.815 80.3749H121.949L133.926 92.3489L147.319 105.742L160.712 92.3499L172.689 80.373H168.823L160.712 88.4851L160.716 88.488ZM133.926 61.7023L120.534 75.0947L107.141 61.7023L101.86 66.9835L107.141 72.2646L115.252 80.3758H119.118L107.141 68.399L105.724 66.9816L107.141 65.5642L120.534 78.9566L133.926 65.5642V61.7023ZM179.385 53.576L174.104 48.2949L168.823 53.576H172.689L174.106 52.1586L175.524 53.576H179.385ZM108.557 80.3758L121.949 93.7663L108.559 107.157L107.141 108.574V112.44L112.42 107.161L125.815 93.7663L112.422 80.3758H108.557ZM28.2003 133.944H32.066L40.1782 125.832L48.2894 133.944H52.1551L40.1829 121.967L28.2003 133.944ZM53.5706 139.242L58.8518 133.962H54.9861L53.5687 135.38L52.1513 133.962H48.2857L53.5706 139.242ZM54.988 147.355L68.3804 160.747H72.2461L58.8537 147.355L72.2461 133.962H68.3804L54.988 147.355ZM107.143 85.657L115.254 93.7682L107.143 101.88V105.746L119.118 93.7663L107.141 81.7894L107.143 85.657ZM266.438 53.5911H262.572L249.179 66.9835L262.572 80.3758H266.438L253.044 66.9835L266.438 53.5911ZM162.126 93.7663L175.519 107.159L174.101 108.576L172.684 107.159L160.712 95.1837L148.736 107.159L160.712 119.134L174.104 132.526L187.497 119.136L199.472 107.161L187.497 95.1837L186.079 93.7663L187.497 92.3489L200.889 105.742L214.282 92.3499L226.259 80.3758H222.394L214.282 88.488L200.889 101.88L187.497 88.487L182.216 93.7663L187.497 99.0493L195.608 107.16L187.497 115.271L174.104 128.663L160.712 115.271L152.601 107.161L160.712 99.0493L168.823 107.161L174.102 112.44L179.382 107.161L165.992 93.7663L179.385 80.3758H175.52L162.126 93.7663ZM294.638 72.2646L299.919 66.9835L294.638 61.7023L281.246 75.0947L267.853 61.7023L262.572 66.9835L267.853 72.2646L275.964 80.3758H279.83L267.853 68.399L266.436 66.9816L267.853 65.5642L281.246 78.9604L294.638 65.568L296.055 66.9854L294.638 68.4028L282.661 80.3758H286.525L294.636 72.2646H294.638ZM275.966 107.159L267.854 115.271L259.744 107.161L267.854 99.0493L273.133 93.7663L267.853 88.4861L254.46 101.88L241.067 88.488V92.3536L254.46 105.746L267.852 92.3489L269.27 93.7663L267.852 95.1837L255.877 107.159L267.852 119.134L279.828 107.159L293.222 93.7663L279.83 80.3758H275.964L289.36 93.7663L275.966 107.159ZM320.008 160.747L306.615 147.355L320.007 133.962H316.143L302.749 147.355L316.143 160.747H320.008ZM374.993 128.663L361.601 115.271L348.209 128.663L340.096 120.552L348.209 112.44L353.487 107.161L348.208 101.883L342.928 107.161L329.536 120.555L342.927 133.944H346.793L333.401 120.552L346.791 107.161L348.209 105.744L349.626 107.161L348.209 108.579L336.228 120.552L348.206 132.529L361.598 119.136L374.991 132.529L374.993 128.663ZM209.001 80.3777H212.867L199.475 66.9835L212.867 53.5911H209.001L195.609 66.9835L209.001 80.3777ZM168.823 93.7663L182.215 107.161L174.104 115.271L165.992 107.159L160.714 101.88L155.434 107.159L160.714 112.437L174.106 125.83L187.497 112.44L192.776 107.161L187.497 101.88L179.385 93.7663L187.497 85.657L200.889 99.0493L214.282 85.657L219.563 80.3758H215.697L214.28 81.7932L200.889 95.1837L187.497 81.7913L175.52 93.7663L187.497 105.746L188.914 107.163L187.497 108.581L174.104 121.974L160.712 108.581L159.294 107.163L160.712 105.746L162.129 107.163L174.104 119.138L186.079 107.161L172.689 93.7663L186.079 80.3758H182.216L168.823 93.7663ZM334.816 135.375L333.399 133.958H329.533L334.814 139.239L340.094 133.958H336.228L334.816 135.375ZM254.46 41.5963L242.483 53.5732H246.349L254.46 45.462L262.572 53.5732H266.438L254.46 41.5963ZM320.008 53.5911H316.143L321.423 58.8713L326.704 53.5911H322.838L321.421 55.0085L320.008 53.5911ZM53.5706 78.9604V75.0947L48.2894 80.3758H52.1551L53.5706 78.9604ZM53.5706 52.1577L54.988 53.5751H58.8537L53.5725 48.2939L48.2913 53.5751H52.157L53.5706 52.1577ZM41.5937 80.3758H45.4594L53.5706 72.2646V68.399L41.5937 80.3758ZM40.1763 72.2646L53.5687 58.8713L61.6809 66.9835L53.5687 75.0947V78.9604L65.5457 66.9835L53.5706 55.0057L40.1829 68.399L26.7858 55.0057L25.3684 53.5883H21.5027L26.7839 58.8685L40.1763 72.2646ZM45.4575 53.5911H41.5918L40.1744 55.0085L38.757 53.5911H34.8913L40.1725 58.8713L45.4575 53.5911ZM28.1985 53.5911L40.1829 65.568L52.1598 53.5911H48.2942L40.1829 61.7023L32.0708 53.5911H28.1985ZM26.7811 52.1577L38.7655 40.1808L26.7886 28.203L25.3712 26.7856L26.7886 25.3683L28.206 26.7856L41.5965 40.1761L28.2032 53.5685H32.0689L45.4622 40.1761L32.066 26.7885L26.7877 21.5092L21.5084 26.7885L26.7877 32.0668L34.8989 40.1789L26.7877 48.2901L13.3924 34.8978L0 48.2901V52.1558L13.3924 38.7635L26.7811 52.1577ZM58.8471 53.5911H54.9814L68.3738 66.9835L54.9814 80.3758H58.8471L72.2395 66.9835L58.8471 53.5911ZM13.3877 45.4648L21.4999 53.576H25.3656L13.3877 41.5992L1.41078 53.576H5.27646L13.3877 45.4648ZM53.5659 41.5992L41.589 53.576H45.4537L53.5659 45.4648L61.6771 53.576H65.5428L53.5659 41.5992ZM132.509 26.7904L133.926 25.373V21.5092L128.648 26.7885L115.252 40.1808L128.646 53.5732H132.511L119.118 40.1808L132.509 26.7904ZM125.815 53.5911H121.949L120.532 55.0085L119.114 53.5911H115.249L120.53 58.8713L125.815 53.5911ZM75.0771 107.159L66.9649 115.271L58.8546 107.161L72.2442 93.7663L58.8518 80.3739H54.9861L68.3785 93.7663L54.988 107.157L66.963 119.132L78.9381 107.157L80.3555 105.739L81.7729 107.157L80.3555 108.574L66.963 121.967L53.5706 108.574L52.1532 107.157L53.5706 105.739L65.5475 93.7663L53.5706 81.7894L52.1532 80.3721H48.2875L53.5687 85.6532L61.68 93.7644L53.5687 101.877L48.2894 107.155L53.5687 112.433L66.9612 125.826L80.3536 112.433L85.6329 107.155L80.3536 101.877L75.0771 107.159ZM107.141 55.0057L95.1643 66.9835L107.141 78.9604L108.559 80.3777H112.424L107.143 75.0966L99.031 66.9854L107.143 58.8732L120.536 72.2665L133.928 58.8732V55.0085L120.534 68.399L107.141 55.0057ZM132.511 80.3758H128.646L133.926 85.657L147.319 99.0493L160.712 85.657L165.993 80.3758H162.127L160.71 81.7932L147.319 95.1837L133.926 81.7913L132.511 80.3758ZM120.534 61.7023L112.422 53.5911H108.557L120.534 65.568L132.512 53.5911H128.646L120.534 61.7023ZM133.926 78.9604L135.343 80.3777H139.211L133.93 75.0966L133.926 78.9604ZM107.141 41.5963L93.7488 28.203L80.3555 41.5963L68.3785 53.5732H72.2442L80.3555 45.462L93.7488 32.0687L107.141 45.462L115.252 53.5732H119.118L107.141 41.5963ZM133.926 14.8126L121.951 26.7885L108.557 40.1808L121.949 53.5732H125.815L112.422 40.1808L125.813 26.7904L133.924 18.6782L133.926 14.8126ZM11.9779 53.5911H8.11218L21.5046 66.9835L8.11123 80.3758H11.9769L25.3703 66.9835L11.9779 53.5911ZM61.6809 53.5911L75.0733 66.9835L61.68 80.3758H65.5457L78.939 66.9835L65.5457 53.5911H61.6809ZM13.3953 306.681L25.3731 294.704H21.5074L13.3953 302.816L5.28402 294.704H1.41833L13.3953 306.681ZM0.00283754 266.487L1.42022 267.905L14.8108 281.295L1.41833 294.688H5.28402L18.6764 281.295L5.28402 267.903L0.00472924 262.624L0.00283754 266.487ZM0.00283754 159.333L1.42022 160.751H5.2859L0.00472924 155.47L0.00283754 159.333ZM0.00283754 152.637L8.11407 160.749H11.9798L0.00283754 148.772V152.637ZM0.00283754 306.683L13.3924 320.075L26.7848 306.681L28.2022 308.099L26.7848 309.516L14.8882 321.414H14.8079L14.8476 321.453L14.8079 321.494H14.8882L26.7848 333.39L38.6824 321.494H38.7627L52.1551 308.101L38.7655 294.704H34.8998L48.2923 308.096L34.9802 321.409H34.8998L26.7877 329.52L18.7161 321.449L26.7877 313.377L32.0689 308.096L26.7877 302.816L13.3953 316.208L0.00283754 302.816V306.683ZM0.00283754 299.987L13.3953 313.379L26.7877 299.987L34.8998 308.098L26.7877 316.21L21.5906 321.407H21.5103L21.55 321.447L21.5103 321.487H21.5896L26.7867 326.684L31.9838 321.487H32.0641L45.4566 308.094L32.066 294.704H28.2003L41.5937 308.096L28.2769 321.409H28.1966L26.7792 322.826L25.4043 321.45L26.7792 320.076L38.7655 308.096L26.7877 296.119L13.3953 309.511L0.00283754 296.119V299.987ZM0.00283754 313.379L8.11407 321.491H8.19439L21.5074 334.803L8.11502 348.195H11.9798L25.3731 334.803L11.9798 321.411H11.9004L0.00283754 309.513V313.379ZM8.11502 348.213L13.3953 353.494L18.6764 348.213H14.8108L13.3934 349.631L11.976 348.213H8.11502ZM0.00283754 145.941L13.3953 159.333L26.7877 145.941L28.2051 147.358L26.7877 148.776L14.8108 160.754H18.6764L26.7877 152.641L32.0689 147.361L26.7877 142.08L13.3924 155.47L0 142.077L0.00283754 145.941ZM13.3953 92.3546L25.3731 80.3777H21.5074L13.3953 88.4899L5.28402 80.3777H1.41833L13.3953 92.3546ZM26.7886 78.9622L28.206 80.3796H32.0717L26.7915 75.0985L21.5103 80.3796H25.376L26.7886 78.9622ZM1.41833 80.3796H5.28402L18.6764 66.9873L5.28402 53.5949H1.41833L14.8108 66.9873L1.41833 80.3796ZM294.638 282.709L281.246 269.316L267.852 282.709L255.875 294.687H259.741L267.852 286.574L281.246 273.182L294.638 286.574L302.749 294.687H306.615L294.638 282.709ZM18.6736 53.5732L13.3924 48.292L8.11218 53.5732H11.9779L13.3953 52.1558L14.8126 53.5732H18.6736ZM38.7655 80.3758L26.7886 68.399L14.8108 80.3758H18.6764L26.7886 72.2646L34.8998 80.3758H38.7655ZM1.41833 133.961L13.3953 145.939L25.3731 133.961H21.5074L13.3953 142.073L5.28402 133.961H1.41833ZM11.9798 133.961H8.11502L13.3953 139.242L18.6764 133.961H14.8108L13.3934 135.379L11.9798 133.961ZM0.00283754 139.242L13.3924 152.635L26.7848 139.242L34.897 147.354L26.7848 155.465L21.5046 160.746H25.3703L26.7877 159.329L38.7655 147.355L26.7877 135.377L13.3953 148.77L0.00283754 135.377V139.242ZM53.5735 65.568L54.9908 66.9854L53.5735 68.4028V72.2684L58.8546 66.9873L53.5735 61.7061L40.1829 75.0947L26.7905 61.7023L18.6783 53.5911H14.8126L26.7905 65.568L40.1829 78.9604L53.5735 65.568ZM13.3953 85.657L18.6764 80.3758H14.8108L13.3934 81.7932L11.976 80.3758H8.11123L13.3953 85.657ZM373.582 160.747H369.716L361.604 168.858L353.493 160.747H349.627L361.604 172.724L373.582 160.747ZM374.999 88.488L369.713 93.7663L374.993 99.0475V95.1837L373.576 93.7663L374.993 92.3489L374.999 88.488ZM348.209 152.635L356.32 160.747H360.185L348.209 148.77L336.228 160.747H340.094L348.209 152.635ZM374.993 81.7913L363.016 93.7663L374.993 105.744V101.878L366.882 93.7663L374.993 85.6551V81.7913ZM322.838 80.3739H326.704L321.423 75.0928L316.143 80.3739H320.007L321.425 78.9566L322.838 80.3739ZM348.209 88.4861L334.816 101.879L321.423 88.487L313.312 80.3749H309.446L321.423 92.3489L334.816 105.741L348.209 92.3489L360.185 80.3721H356.32L348.209 88.4861ZM0 320.075L1.41739 321.492H1.4977L14.8098 334.804L1.41739 348.196H5.28308L18.6755 334.804L5.28308 321.412H5.20276L0.00567509 316.215L0 320.075ZM356.32 93.7663L369.713 107.16L374.992 112.438V108.572L373.574 107.155L360.185 93.7663L373.578 80.3739H369.712L356.32 93.7663ZM349.624 93.7663L363.016 107.16L374.992 119.135V115.269L366.88 107.157L353.49 93.7663L366.882 80.3739H363.016L349.624 93.7663ZM348.207 159.33L349.624 160.747H353.49L348.209 155.47L342.927 160.751H346.793L348.207 159.33ZM334.816 246.399L340.096 241.118H336.228L334.81 242.535L333.393 241.118H329.527L334.816 246.399ZM321.423 233.006L329.535 241.118H333.401L321.423 229.14L309.446 241.118H313.312L321.423 233.006ZM133.926 72.2646L142.038 80.3758H145.904L133.926 68.399V72.2646ZM346.793 241.122H342.927L334.816 249.233L326.704 241.122H322.838L334.816 253.099L346.793 241.122ZM346.793 214.319L334.816 202.338L322.838 214.315H326.704L334.816 206.203L342.927 214.315L346.793 214.319ZM340.097 214.336H336.228L322.838 227.726L336.228 241.118H340.094L326.701 227.726L340.097 214.336ZM309.446 214.336L321.423 226.314L333.401 214.336H329.535L321.423 222.448L313.312 214.336H309.446ZM334.816 159.335L348.209 145.943L360.185 133.965H356.32L348.209 142.077L334.816 155.47L321.423 142.077L316.143 147.358L321.423 152.639L329.535 160.751H333.401L321.423 148.77L320.005 147.353L321.423 145.935L334.816 159.335ZM334.816 209.038L329.535 214.319H333.401L334.818 212.902L336.235 214.319H340.1L334.816 209.038ZM306.615 214.336H302.75L316.143 227.729L302.749 241.118H306.615L320.008 227.726L306.615 214.336ZM255.872 66.9873L267.853 78.9604L269.27 80.3777H273.135L267.853 75.0947L259.741 66.9835L267.853 58.8713L281.246 72.2646L294.638 58.8713L302.75 66.9835L294.638 75.0947L289.36 80.3758H293.225L294.643 78.9585L306.62 66.9816L294.638 55.0057L281.246 68.399L267.853 55.0057L255.872 66.9873ZM294.635 41.6001L282.661 53.5732H286.525L294.637 45.462L302.748 53.5732H306.614L294.638 41.5963L294.635 41.6001ZM188.914 66.9835L202.305 80.3758L200.887 81.7932L199.47 80.3758L187.497 68.399L175.52 80.3758H179.385L187.497 72.2646L195.609 80.3758L200.889 85.657L206.17 80.3758L192.778 66.9835L206.17 53.5911H202.305L188.914 66.9835ZM279.83 53.5911H275.964L281.246 58.8713L286.525 53.5911H282.659L281.242 55.0085L279.83 53.5911ZM269.269 53.5911L281.246 65.568L293.222 53.5911H289.36L281.248 61.7023L273.136 53.5911H269.269ZM187.497 61.7023L179.385 53.5911H175.52L187.497 65.568L199.475 53.5911H195.609L187.497 61.7023ZM133.926 65.568L147.319 78.9604L160.712 65.568L162.129 66.9854L160.712 68.4028L148.734 80.3758H152.6L160.712 72.2646L165.992 66.9835L160.712 61.7023L147.319 75.0947L133.926 61.7023V65.568ZM152.6 80.3758H148.734L147.317 81.7932L145.899 80.3758H142.034L147.314 85.657L152.6 80.3758ZM346.793 80.3758H342.927L334.816 88.488L326.704 80.3758H322.838L334.816 92.3489L346.793 80.3758ZM135.342 80.3758L147.319 92.3489L159.296 80.3721H155.431L147.319 88.4842L139.211 80.3758H135.342ZM340.102 53.5911H336.228L322.838 66.9835L336.228 80.3758H340.094L326.704 66.9835L340.102 53.5911ZM334.821 48.292L329.54 53.5732H333.405L334.823 52.1558L336.24 53.5732H340.105L334.821 48.292ZM346.798 53.5732L334.816 41.5963L322.838 53.5732H326.704L334.816 45.462L342.927 53.5732H346.798ZM340.101 80.3758H336.228L334.81 81.7932L333.393 80.3758H329.527L334.809 85.657L340.101 80.3758ZM348.213 52.1577L349.631 53.5751H353.496L348.215 48.2939L334.816 34.8978L321.423 48.292L316.143 53.5732H320.008L321.426 52.1558L334.819 38.7635L348.211 52.1558L348.213 52.1577ZM302.755 53.5911L316.147 66.9835L302.749 80.3758H306.615L320.008 66.9835L306.615 53.5911H302.755ZM346.798 53.5911H342.927L329.535 66.9835L342.927 80.3758H346.793L333.401 66.9835L346.798 53.5911ZM309.451 53.5911L321.428 65.568L333.405 53.5911H329.54L321.428 61.7023L313.316 53.5911H309.451ZM313.316 80.3758L321.428 72.2646L329.54 80.3758H333.405L321.423 68.399L309.446 80.3758H313.316Z" fill="url(#paint0_linear_14_242)"/>
  <defs>
    <linearGradient id="paint0_linear_14_242" x1="278" y1="-205.5" x2="278" y2="187" gradientUnits="userSpaceOnUse">
      <stop stop-color="#0C5AAA"/>
      <stop offset="1" stop-color="#0C5AAA" stop-opacity="0"/>
    </linearGradient>
  </defs>
</svg>