<svg xmlns="http://www.w3.org/2000/svg" width="381.698" height="244.875" viewBox="0 0 381.698 244.875">
  <g id="Group_32" data-name="Group 32" transform="translate(-1229.384 -1487)">
    <g id="Group_31" data-name="Group 31">
      <g id="Group_30" data-name="Group 30">
        <g id="Group_27" data-name="Group 27" transform="translate(490.564 -5)">
          <g id="Group_29" data-name="Group 29">
            <g id="Group_28" data-name="Group 28">
              <g id="Group_26" data-name="Group 26" transform="translate(738.819 1540)">
                <path id="Path_181" data-name="Path 181" d="M183.183,1635.247v0a62.254,62.254,0,0,1,2.81-7.187,21.162,21.162,0,0,1,3.054-4.665h0l14.784-3.237,347.257-83.324h5.292l5.132,1.937,3.369,3.9v191.035h-381.7Z" transform="translate(-183.183 -1536.834)" fill="#fff"/>
              </g>
              <g id="Ellipse_11" data-name="Ellipse 11" transform="translate(1081.337 1562)" fill="#404040" stroke="#707070" stroke-width="1">
                <circle cx="12" cy="12" r="12" stroke="none"/>
                <circle cx="12" cy="12" r="11.5" fill="none"/>
              </g>
            </g>
          </g>
        </g>
        <g id="journey_sucess" transform="translate(1299.005 1487)">
          <path id="Path_339" data-name="Path 339" d="M236.886,221.5l-6.5-79.773a10.228,10.228,0,0,0-10.135-9.349h-.519c.027-.49.051-1,.068-1.54a17.962,17.962,0,0,0,5.206-5.2,19.529,19.529,0,0,0,2.752-13.1c-.057-.5-.128-.98-.208-1.435.052-.1.1-.208.148-.315a6.379,6.379,0,0,0-.141-5.417,24.716,24.716,0,0,0-4.212-6.056l1.616-10.2a11.428,11.428,0,0,0,1.39-4.158,11.216,11.216,0,0,0-.123-3.667,16.176,16.176,0,0,0,4.116-1.443,10.073,10.073,0,0,0,5.061-6,20.291,20.291,0,0,0,.839-4.785c.051-.569.106-1.216.174-1.526,1.315-5.97-.552-12.839-5-18.37-.034-.043-.07-.085-.106-.122l2.707-17.116A13.32,13.32,0,0,0,231,21.171a13.012,13.012,0,0,0-9.9-4.586h-2.377a12.974,12.974,0,0,0-1.835-.132h-32.8a7.484,7.484,0,0,0-4.49-1.5H167.091a16.1,16.1,0,0,0-3.838-9.446,15.706,15.706,0,0,0-27.5,8l-.223,1.445H120.276a7.478,7.478,0,0,0-4.5,1.5H102.247a10.47,10.47,0,0,0-6.487-3.473,8.7,8.7,0,0,0-5.9,1.481,8.988,8.988,0,0,0-3.7.98,8.1,8.1,0,0,0-1.469,1.013H84.03A13.075,13.075,0,0,0,71.11,27.583l-.551,3.468A9.89,9.89,0,0,0,67.147,27.6a10.521,10.521,0,0,0-5.472-1.515q-.467,0-.935.04L60.7,26.1a7.9,7.9,0,0,0-3.631-.857,10.373,10.373,0,0,0-5.115,1.479A19.225,19.225,0,0,0,49.7,28.25a15.292,15.292,0,0,0-2.2,2.082,8.772,8.772,0,0,0-1.441.331,9.806,9.806,0,0,0-6.415,7.675A10.737,10.737,0,0,0,41.224,46a20.021,20.021,0,0,0,2.389,3.084l-.19.3a47.446,47.446,0,0,0-11.417,4.949c-.689.44-12.379,8.128-12.092,22.725.16,8.095,4.4,16.544,6.433,20.606.048.1.1.2.156.31-.158,1.974-.313,3.326-.432,4.372a15.523,15.523,0,0,0,.215,6.553c-1.562,7.361-4.136,13.3-7.08,20.085a159.519,159.519,0,0,0-9.091,25.209c-3.06,11.88-4.75,25.38-5.166,41.283a8.021,8.021,0,0,0,.49,2.98c-2.421,3.7-3.838,8.563-4.914,12.951a10.209,10.209,0,0,0,1.584,8.069A8.393,8.393,0,0,0,8.154,223.1a52.825,52.825,0,0,0,5.494.3,37.133,37.133,0,0,0,5.132-.32,8.547,8.547,0,0,0,7.269-9.392l-1.231-13.449q-.029-.315-.088-.62.184-.331.335-.681L38.78,166.671c-1.461,12.309-3.044,23.9-3.731,28.211A8.555,8.555,0,0,0,35.417,199l-.373,1.79a6.384,6.384,0,0,0-1.218,2.149,36.292,36.292,0,0,0-1.591,12.246,8.154,8.154,0,0,0,3.039,5.755,9.586,9.586,0,0,0,4.612,2.082,85.7,85.7,0,0,0,10.483.446c1.37.007,2.92.018,3.463.055.163.011,1.012.063,2.2.063A30.36,30.36,0,0,0,60,223.352h40.7a15.423,15.423,0,0,0,15.213,13.008h107.28a13.745,13.745,0,0,0,13.69-14.865Z" fill="#1f2f5c"/>
          <path id="Path_340" data-name="Path 340" d="M228.517,216.364,222.3,139.692a9.806,9.806,0,0,0-9.7-8.987h-.5c.026-.47.047-.961.064-1.48a17.209,17.209,0,0,0,4.981-5,18.846,18.846,0,0,0,2.634-12.594c-.056-.48-.123-.942-.2-1.38.051-.1.1-.2.142-.3a6.153,6.153,0,0,0-.135-5.206,23.762,23.762,0,0,0-4.03-5.821l1.547-9.8a11.024,11.024,0,0,0,1.328-4,10.823,10.823,0,0,0-.117-3.524,15.458,15.458,0,0,0,3.938-1.387,9.666,9.666,0,0,0,4.842-5.768,19.582,19.582,0,0,0,.8-4.6c.048-.547.1-1.169.167-1.467,1.259-5.738-.528-12.34-4.781-17.656-.033-.041-.066-.081-.1-.118l2.591-16.451a12.846,12.846,0,0,0-2.889-10.335,12.426,12.426,0,0,0-9.475-4.408h-2.275a12.344,12.344,0,0,0-1.756-.127H178a7.14,7.14,0,0,0-4.3-1.437H161.738a15.516,15.516,0,0,0-3.672-9.079,15.007,15.007,0,0,0-26.312,7.687l-.213,1.389h-14.6a7.133,7.133,0,0,0-4.306,1.437H99.694a10,10,0,0,0-6.207-3.338,8.3,8.3,0,0,0-5.647,1.423,8.572,8.572,0,0,0-3.538.942,7.747,7.747,0,0,0-1.405.973h-.634A12.528,12.528,0,0,0,69.9,29.988l-.527,3.333A9.485,9.485,0,0,0,66.109,30a10.032,10.032,0,0,0-5.236-1.456q-.447,0-.895.039l-.035-.019a7.537,7.537,0,0,0-3.474-.824,9.892,9.892,0,0,0-4.894,1.422,18.387,18.387,0,0,0-2.158,1.467,14.646,14.646,0,0,0-2.108,2,8.357,8.357,0,0,0-1.378.318,9.415,9.415,0,0,0-6.138,7.377,10.359,10.359,0,0,0,1.513,7.368,19.218,19.218,0,0,0,2.286,2.964l-.181.285A45.292,45.292,0,0,0,32.487,55.7c-.659.423-11.844,7.812-11.57,21.841.153,7.78,4.206,15.9,6.155,19.805.046.092.1.193.149.3-.151,1.9-.3,3.2-.413,4.2a14.984,14.984,0,0,0,.206,6.3c-1.494,7.075-3.957,12.781-6.775,19.3a153.85,153.85,0,0,0-8.7,24.23C8.613,163.094,7,176.07,6.6,191.356a7.74,7.74,0,0,0,.468,2.863c-2.316,3.558-3.672,8.23-4.7,12.448a9.851,9.851,0,0,0,1.515,7.756A8.025,8.025,0,0,0,9.664,217.9a49.818,49.818,0,0,0,5.257.285,35.347,35.347,0,0,0,4.91-.308,8.207,8.207,0,0,0,6.955-9.027l-1.178-12.926c-.019-.2-.047-.4-.084-.6.117-.213.224-.43.321-.655L38.968,163.67c-1.4,11.83-2.912,22.974-3.569,27.115a8.255,8.255,0,0,0,.351,3.961l-.357,1.721a6.138,6.138,0,0,0-1.165,2.065A35.031,35.031,0,0,0,32.7,210.3a7.852,7.852,0,0,0,2.908,5.532,9.159,9.159,0,0,0,4.413,2,81.817,81.817,0,0,0,10.03.429c1.31.007,2.794.017,3.313.051.156.011.968.062,2.1.062a29.13,29.13,0,0,0,3.807-.228H98.215a14.778,14.778,0,0,0,14.556,12.5H215.418a13.115,13.115,0,0,0,9.665-4.259,13.248,13.248,0,0,0,3.433-10.029Z" transform="translate(0.59 0.46)" fill="#fff"/>
          <path id="Path_341" data-name="Path 341" d="M13.409,38.249a7.744,7.744,0,0,0,3.186,5.279,10.359,10.359,0,0,0,6.539,1.956,10.119,10.119,0,0,0,6.316-2.436,7.506,7.506,0,0,0,2.64-5.5,9.4,9.4,0,0,0,2.89-1.289,7.93,7.93,0,0,0,2.249-2.255,6.759,6.759,0,0,0,1.051-2.829c.537-4.1-2.914-7.861-7.693-8.386a10.58,10.58,0,0,0-1.129-.062,9.805,9.805,0,0,0-5.441,1.616A7.493,7.493,0,0,0,20.96,28.32a7.268,7.268,0,0,0-1.112.589,7.838,7.838,0,0,0-3.936.507,6.558,6.558,0,0,0-2.938,2.305,5.22,5.22,0,0,0-.942,3.32,5.386,5.386,0,0,0,1.374,3.207Z" transform="translate(3.744 3.007)" fill="#fff"/>
          <path id="Path_342" data-name="Path 342" d="M99.353,21.627H91.23s-2.849,17.62-10.588,25.036c-7.33,7.025-21.055,5.1-21.055,5.1a.087.087,0,0,1-.012.036,37.054,37.054,0,0,0-15.489-.034,47.622,47.622,0,0,0-11.145,4.019S22.957,61.2,23.194,71.541c.184,8.024,7.2,17.577,7.141,18.26-.617,7.658-1.306,7.4-.375,10.125,2.259,6.619,34.251,3.892,34.82.856.516-2.754-.971-7.36-.223-13.552,1.176-9.761,3.514-13.238,6.174-19.26,14.691-1.024,24.183-8.152,27.138-19.6C100.916,36.564,99.353,21.627,99.353,21.627Z" transform="translate(7.302 2.861)" fill="#fff"/>
          <path id="Path_343" data-name="Path 343" d="M45.71,104.292c-7.649,0-14.883-1.105-15.96-4.263-.613-1.8-.536-2.377-.247-4.535.165-1.234.392-2.935.611-5.677a15.739,15.739,0,0,0-.967-1.767c-1.96-3.351-6.033-10.321-6.174-16.471-.238-10.362,9.781-15.921,9.883-15.976a48.422,48.422,0,0,1,11.225-4.049,37.241,37.241,0,0,1,15.49,0,.37.37,0,0,1,.131-.008c.131.02,13.654,1.823,20.793-5.018C88.086,39.255,90.984,21.8,91.011,21.623a.243.243,0,0,1,.1-.153.321.321,0,0,1,.19-.061h8.125a.317.317,0,0,1,.195.064.238.238,0,0,1,.094.16c.016.149,1.531,15.107-1.492,26.82C95.2,60.148,85.54,67.168,71,68.233c-.443,1-.877,1.926-1.3,2.825a45.586,45.586,0,0,0-4.8,16.226,38.96,38.96,0,0,0,.112,8.916,17.806,17.806,0,0,1,.11,4.65c-.349,1.863-9.027,3-14.774,3.311C48.827,104.247,47.259,104.292,45.71,104.292Zm6.232-53.043a36.429,36.429,0,0,0-7.708.785,47.666,47.666,0,0,0-11.063,3.988c-.1.054-9.844,5.469-9.613,15.544C23.7,77.6,27.731,84.505,29.67,87.824c.8,1.361,1.045,1.8,1.028,2.019-.222,2.753-.449,4.456-.615,5.7-.283,2.132-.351,2.638.229,4.34,1.2,3.521,11.534,4.235,20.018,3.777,8.276-.449,14.043-1.856,14.24-2.891a17.945,17.945,0,0,0-.114-4.529,39.529,39.529,0,0,1-.112-9.01,45.959,45.959,0,0,1,4.834-16.36c.44-.941.894-1.914,1.357-2.963a.257.257,0,0,1,.1-.111.32.32,0,0,1,.151-.049c14.361-1,23.907-7.893,26.878-19.409,2.8-10.849,1.679-24.519,1.5-26.441H91.557C91.2,23.938,88.179,39.907,80.935,46.85,74,53.5,61.3,52.227,59.771,52.047a.332.332,0,0,1-.193.012A34.6,34.6,0,0,0,51.942,51.249Z" transform="translate(7.231 2.832)" fill="#1a3a68"/>
          <path id="Path_344" data-name="Path 344" d="M200.089,210.4H52.244c-4.591,0-8.09-3.669-7.355-7.713l31.8-175.028a7.256,7.256,0,0,1,7.355-5.589H231.88c4.591,0,8.088,3.668,7.354,7.711L207.443,204.81A7.26,7.26,0,0,1,200.089,210.4Z" transform="translate(-19.932 2.919)" fill="#fff"/>
          <path id="Path_345" data-name="Path 345" d="M200.152,210.673H52.326a8.634,8.634,0,0,1-3.22-.624,7.67,7.67,0,0,1-2.624-1.745,6.753,6.753,0,0,1-1.615-2.651,6.134,6.134,0,0,1-.194-3l31.792-175c.612-3.365,3.83-5.806,7.652-5.806H231.939a8.63,8.63,0,0,1,3.219.624,7.653,7.653,0,0,1,2.622,1.745,6.738,6.738,0,0,1,1.616,2.65,6.132,6.132,0,0,1,.2,3l-31.793,175C207.189,208.231,203.965,210.673,200.152,210.673ZM84.123,22.376a6.933,6.933,0,0,0-7.054,5.361l-31.8,175a5.672,5.672,0,0,0,.179,2.771,6.247,6.247,0,0,0,1.493,2.452,7.07,7.07,0,0,0,2.417,1.607,7.939,7.939,0,0,0,2.966.576H200.152a6.933,6.933,0,0,0,7.054-5.36l31.788-175a5.664,5.664,0,0,0-.18-2.771,6.241,6.241,0,0,0-1.494-2.45,7.06,7.06,0,0,0-2.416-1.607,7.954,7.954,0,0,0-2.965-.575Z" transform="translate(-20.002 2.89)" fill="#1a3a68"/>
          <path id="Path_346" data-name="Path 346" d="M196.667,209.978H48.825c-4.59,0-8.089-3.662-7.355-7.7l31.8-174.743c.584-3.211,3.7-5.575,7.355-5.575H228.462c4.59,0,8.09,3.663,7.356,7.7L204.021,204.4C203.437,207.617,200.322,209.978,196.667,209.978Z" transform="translate(-21.021 2.905)" fill="#fff"/>
          <path id="Path_347" data-name="Path 347" d="M196.73,210.258H48.906a8.621,8.621,0,0,1-3.222-.624,7.681,7.681,0,0,1-2.626-1.745,6.743,6.743,0,0,1-1.611-2.645,6.125,6.125,0,0,1-.193-2.991L73.045,27.538c.611-3.359,3.831-5.8,7.654-5.8H228.521a8.64,8.64,0,0,1,3.223.624,7.676,7.676,0,0,1,2.625,1.746,6.756,6.756,0,0,1,1.611,2.644,6.117,6.117,0,0,1,.194,2.99L204.383,204.46C203.771,207.819,200.553,210.258,196.73,210.258ZM80.7,22.27a6.929,6.929,0,0,0-7.056,5.351L41.853,202.338a5.66,5.66,0,0,0,.178,2.765,6.225,6.225,0,0,0,1.489,2.443,7.062,7.062,0,0,0,2.419,1.609,7.949,7.949,0,0,0,2.969.575H196.73a6.928,6.928,0,0,0,7.055-5.35L235.576,29.665A5.649,5.649,0,0,0,235.4,26.9a6.224,6.224,0,0,0-1.489-2.443,7.057,7.057,0,0,0-2.419-1.61,7.945,7.945,0,0,0-2.969-.576Z" transform="translate(-21.091 2.876)" fill="#1a3a68"/>
          <path id="Path_348" data-name="Path 348" d="M149.255,37.431H108.148c-6.569,0-11.562-5.169-10.466-10.838l.96-4.968a1,1,0,0,1,.4-.622,1.323,1.323,0,0,1,.774-.252h63.315a1.379,1.379,0,0,1,.506.1,1.209,1.209,0,0,1,.41.276.994.994,0,0,1,.237.4.9.9,0,0,1,.022.447l-.972,5.035C162.189,33.026,156.229,37.431,149.255,37.431Z" transform="translate(13.859 2.745)" fill="#fff"/>
          <path id="Path_349" data-name="Path 349" d="M149.326,37.71H108.218a12.321,12.321,0,0,1-4.552-.87,10.79,10.79,0,0,1-3.7-2.435,9.266,9.266,0,0,1-2.256-3.675,8.316,8.316,0,0,1-.244-4.149l.959-4.969a1.248,1.248,0,0,1,.5-.773,1.643,1.643,0,0,1,.966-.309h63.315a1.672,1.672,0,0,1,.621.117,1.467,1.467,0,0,1,.506.331,1.257,1.257,0,0,1,.307.5,1.133,1.133,0,0,1,.033.563l-.972,5.035C162.52,33.239,156.465,37.71,149.326,37.71ZM99.894,21.03a1.006,1.006,0,0,0-.59.191A.764.764,0,0,0,99,21.7l-.96,4.969a7.891,7.891,0,0,0,.231,3.934,8.792,8.792,0,0,0,2.138,3.485,10.2,10.2,0,0,0,3.5,2.3,11.663,11.663,0,0,0,4.308.823h41.106c6.856,0,12.663-4.3,13.806-10.209l.973-5.034a.7.7,0,0,0-.021-.349.792.792,0,0,0-.19-.309.9.9,0,0,0-.307-.2,1.02,1.02,0,0,0-.377-.073Z" transform="translate(13.776 2.716)" fill="#1a3a68"/>
          <path id="Path_350" data-name="Path 350" d="M116.1,33.228h17.553a1.46,1.46,0,0,0,.879-.261,1.108,1.108,0,0,0,.46-.695l2.406-13.43c.964-5.346-3.738-10.189-9.9-10.189-4.929,0-9.124,3.135-9.9,7.4l-2.844,15.831a.99.99,0,0,0,.029.5,1.111,1.111,0,0,0,.274.441,1.334,1.334,0,0,0,.467.3A1.522,1.522,0,0,0,116.1,33.228Zm7.185-16.3.018-.1a3.45,3.45,0,0,1,1.378-2.138,4.537,4.537,0,0,1,2.661-.863c2.533,0,4.458,2,4.039,4.194l-.018.1a3.45,3.45,0,0,1-1.378,2.138,4.536,4.536,0,0,1-2.661.863c-2.537,0-4.463-2-4.041-4.194Z" transform="translate(20.006 1.145)" fill="#fff"/>
          <path id="Path_351" data-name="Path 351" d="M133.725,33.506H116.171a1.883,1.883,0,0,1-.695-.127,1.659,1.659,0,0,1-.57-.366,1.358,1.358,0,0,1-.326-.531,1.2,1.2,0,0,1-.036-.6l2.843-15.83c.8-4.416,5.082-7.621,10.19-7.621a11.637,11.637,0,0,1,4.271.814,10.187,10.187,0,0,1,3.481,2.274,8.853,8.853,0,0,1,2.161,3.465,7.92,7.92,0,0,1,.272,3.924l-2.412,13.43a1.343,1.343,0,0,1-.556.847A1.777,1.777,0,0,1,133.725,33.506ZM127.572,8.937c-4.814,0-8.856,3.029-9.611,7.2l-2.843,15.831a.739.739,0,0,0,.02.386.842.842,0,0,0,.21.342,1.069,1.069,0,0,0,.37.237,1.228,1.228,0,0,0,.452.082h17.553a1.153,1.153,0,0,0,.691-.2.866.866,0,0,0,.363-.543l2.4-13.429a7.487,7.487,0,0,0-.257-3.711,8.371,8.371,0,0,0-2.041-3.278A9.626,9.626,0,0,0,131.6,9.7a10.971,10.971,0,0,0-4.028-.77Zm-.182,12.469a4.95,4.95,0,0,1-1.826-.349,4.326,4.326,0,0,1-1.486-.977,3.752,3.752,0,0,1-.912-1.483,3.359,3.359,0,0,1-.1-1.674l.02-.1a3.67,3.67,0,0,1,1.471-2.29,4.841,4.841,0,0,1,2.852-.92,4.944,4.944,0,0,1,1.826.349,4.325,4.325,0,0,1,1.486.977,3.749,3.749,0,0,1,.912,1.483,3.374,3.374,0,0,1,.1,1.674l-.018.1a3.675,3.675,0,0,1-1.474,2.288,4.845,4.845,0,0,1-2.851.919ZM123.639,17a2.938,2.938,0,0,0,.087,1.461,3.281,3.281,0,0,0,.794,1.294,3.766,3.766,0,0,0,1.29.847,4.293,4.293,0,0,0,1.585.3,4.207,4.207,0,0,0,2.476-.8,3.187,3.187,0,0,0,1.276-1.99l.02-.1a2.923,2.923,0,0,0-.088-1.461,3.265,3.265,0,0,0-.794-1.294,3.758,3.758,0,0,0-1.29-.847,4.286,4.286,0,0,0-1.585-.3,4.2,4.2,0,0,0-2.475.8A3.181,3.181,0,0,0,123.66,16.9Z" transform="translate(19.928 1.116)" fill="#1a3a68"/>
          <path id="Path_352" data-name="Path 352" d="M128,131.528h-5.945a2.954,2.954,0,0,1-1.089-.206,2.614,2.614,0,0,1-.887-.579,2.242,2.242,0,0,1-.543-.874,2.014,2.014,0,0,1-.066-.988l12.29-66.834a2.184,2.184,0,0,1,.877-1.374,2.886,2.886,0,0,1,1.709-.55H140.3a2.958,2.958,0,0,1,1.088.206,2.6,2.6,0,0,1,.889.579,2.234,2.234,0,0,1,.542.874,2,2,0,0,1,.067.988L130.588,129.6a2.186,2.186,0,0,1-.877,1.375A2.887,2.887,0,0,1,128,131.528Zm4.333-69.4-12.29,66.832a1.562,1.562,0,0,0,.053.774,1.737,1.737,0,0,0,.425.684,2.007,2.007,0,0,0,.69.451,2.269,2.269,0,0,0,.845.161H128a2.253,2.253,0,0,0,1.33-.43,1.7,1.7,0,0,0,.682-1.072l12.293-66.833a1.576,1.576,0,0,0-.053-.774,1.735,1.735,0,0,0-.425-.684,2.015,2.015,0,0,0-.69-.45,2.306,2.306,0,0,0-.845-.161h-5.948a2.25,2.25,0,0,0-1.333.432,1.7,1.7,0,0,0-.679,1.075Z" transform="translate(20.778 12.651)" fill="#1a3a68"/>
          <path id="Path_353" data-name="Path 353" d="M114.871,129.524h-5.949a2.959,2.959,0,0,1-1.086-.207,2.583,2.583,0,0,1-.886-.579,2.225,2.225,0,0,1-.545-.871,2.005,2.005,0,0,1-.07-.986L115.256,77.2a2.175,2.175,0,0,1,.872-1.382,2.879,2.879,0,0,1,1.714-.552h5.952a2.959,2.959,0,0,1,1.086.207,2.58,2.58,0,0,1,.886.578,2.212,2.212,0,0,1,.545.871,2.006,2.006,0,0,1,.07.986L117.459,127.6a2.174,2.174,0,0,1-.875,1.379A2.875,2.875,0,0,1,114.871,129.524Zm2.971-53.752a2.244,2.244,0,0,0-1.333.433,1.7,1.7,0,0,0-.679,1.076l-8.92,49.679a1.562,1.562,0,0,0,.054.774,1.747,1.747,0,0,0,.426.684,2.039,2.039,0,0,0,.688.448,2.29,2.29,0,0,0,.844.161h5.949a2.244,2.244,0,0,0,1.333-.433,1.7,1.7,0,0,0,.679-1.077l8.922-49.678a1.562,1.562,0,0,0-.053-.774,1.736,1.736,0,0,0-.427-.684,2.009,2.009,0,0,0-.688-.449,2.308,2.308,0,0,0-.844-.161Z" transform="translate(18.699 15.25)" fill="#1a3a68"/>
          <path id="Path_354" data-name="Path 354" d="M101.744,128.02H95.8a2.967,2.967,0,0,1-1.087-.207,2.6,2.6,0,0,1-.887-.577,2.228,2.228,0,0,1-.543-.873,1.993,1.993,0,0,1-.068-.986l6.656-36.812a2.184,2.184,0,0,1,.875-1.378,2.885,2.885,0,0,1,1.711-.552h5.95a2.968,2.968,0,0,1,1.088.207,2.611,2.611,0,0,1,.887.578,2.228,2.228,0,0,1,.542.872,1.993,1.993,0,0,1,.069.987l-6.662,36.812a2.18,2.18,0,0,1-.872,1.378A2.873,2.873,0,0,1,101.744,128.02Zm-1.306-39.378-6.663,36.812a1.563,1.563,0,0,0,.054.774,1.749,1.749,0,0,0,.426.684,2.009,2.009,0,0,0,.689.448,2.288,2.288,0,0,0,.844.161h5.948a2.251,2.251,0,0,0,1.333-.431,1.7,1.7,0,0,0,.679-1.075L110.409,89.2a1.561,1.561,0,0,0-.053-.774,1.749,1.749,0,0,0-.426-.684,2.033,2.033,0,0,0-.688-.45,2.3,2.3,0,0,0-.845-.161h-5.95a2.243,2.243,0,0,0-1.329.434,1.7,1.7,0,0,0-.676,1.075Z" transform="translate(16.507 17.127)" fill="#1a3a68"/>
          <path id="Path_355" data-name="Path 355" d="M88.618,126.517H82.673a2.969,2.969,0,0,1-1.088-.206,2.587,2.587,0,0,1-.887-.58,2.221,2.221,0,0,1-.543-.873,1.989,1.989,0,0,1-.067-.987l4.39-23.946a2.186,2.186,0,0,1,.876-1.375A2.888,2.888,0,0,1,87.062,98H93.01a2.96,2.96,0,0,1,1.089.206,2.6,2.6,0,0,1,.888.579,2.219,2.219,0,0,1,.543.873,1.988,1.988,0,0,1,.066.988L91.2,124.6a2.188,2.188,0,0,1-.876,1.372A2.888,2.888,0,0,1,88.618,126.517ZM87.062,98.5a2.249,2.249,0,0,0-1.331.431A1.7,1.7,0,0,0,85.05,100l-4.389,23.946a1.563,1.563,0,0,0,.053.774,1.747,1.747,0,0,0,.426.684,2.006,2.006,0,0,0,.688.451,2.294,2.294,0,0,0,.845.161h5.946a2.247,2.247,0,0,0,1.331-.43,1.7,1.7,0,0,0,.681-1.073l4.392-23.945a1.565,1.565,0,0,0-.052-.775,1.745,1.745,0,0,0-.425-.684,2.017,2.017,0,0,0-.689-.451,2.3,2.3,0,0,0-.846-.161Z" transform="translate(14.278 18.956)" fill="#1a3a68"/>
          <path id="Path_356" data-name="Path 356" d="M75.469,125.281H69.511a2.961,2.961,0,0,1-1.077-.2,2.6,2.6,0,0,1-.882-.57,2.237,2.237,0,0,1-.547-.861,2,2,0,0,1-.082-.978l2.208-13.363A2.2,2.2,0,0,1,70,107.912a2.9,2.9,0,0,1,1.719-.567h5.96a2.963,2.963,0,0,1,1.077.2,2.6,2.6,0,0,1,.882.57,2.235,2.235,0,0,1,.547.861,2,2,0,0,1,.081.979l-2.209,13.366a2.2,2.2,0,0,1-.873,1.392A2.907,2.907,0,0,1,75.469,125.281ZM69.7,109.371l-2.207,13.368a1.565,1.565,0,0,0,.064.767,1.749,1.749,0,0,0,.429.675,2.014,2.014,0,0,0,.686.443,2.283,2.283,0,0,0,.838.159h5.957a2.265,2.265,0,0,0,1.339-.444,1.711,1.711,0,0,0,.677-1.086l2.209-13.368a1.566,1.566,0,0,0-.063-.768,1.755,1.755,0,0,0-.429-.675,2.015,2.015,0,0,0-.686-.443,2.282,2.282,0,0,0-.838-.159h-5.96a2.261,2.261,0,0,0-1.34.446,1.71,1.71,0,0,0-.676,1.088Z" transform="translate(12.005 20.429)" fill="#1a3a68"/>
          <path id="Path_357" data-name="Path 357" d="M67.89,139.681a3.487,3.487,0,1,1,3.954-3.456A3.735,3.735,0,0,1,67.89,139.681Zm0-6.413a2.983,2.983,0,1,0,3.374,2.958A3.189,3.189,0,0,0,67.89,133.267Z" transform="translate(11.661 24.88)" fill="#1a3a68"/>
          <path id="Path_358" data-name="Path 358" d="M65.516,151.35a3.487,3.487,0,1,1,3.955-3.455A3.735,3.735,0,0,1,65.516,151.35Zm0-6.412a2.983,2.983,0,1,0,3.374,2.958,3.191,3.191,0,0,0-3.374-2.958Z" transform="translate(11.226 27.067)" fill="#1a3a68"/>
          <path id="Path_359" data-name="Path 359" d="M63.42,163.592a3.487,3.487,0,1,1,3.954-3.457A3.734,3.734,0,0,1,63.42,163.592Zm0-6.413a2.983,2.983,0,1,0,3.374,2.956A3.189,3.189,0,0,0,63.42,157.178Z" transform="translate(10.843 29.361)" fill="#1a3a68"/>
          <path id="Path_360" data-name="Path 360" d="M114.333,136.1H75.1a.312.312,0,0,1-.205-.074.232.232,0,0,1-.085-.176.236.236,0,0,1,.085-.177.317.317,0,0,1,.205-.072h39.232a.315.315,0,0,1,.2.072.233.233,0,0,1,.086.177.229.229,0,0,1-.086.176A.31.31,0,0,1,114.333,136.1Z" transform="translate(12.21 25.198)" fill="#1a3a68"/>
          <path id="Path_361" data-name="Path 361" d="M103.98,147.675H99.9a.318.318,0,0,1-.205-.074.225.225,0,0,1,0-.352.317.317,0,0,1,.205-.072h4.082a.316.316,0,0,1,.206.072.226.226,0,0,1,0,.352A.317.317,0,0,1,103.98,147.675Z" transform="translate(18.364 27.349)" fill="#fff"/>
          <path id="Path_362" data-name="Path 362" d="M100.93,147.675H73.244a.318.318,0,0,1-.205-.074.225.225,0,0,1,0-.352.317.317,0,0,1,.205-.072H100.93a.317.317,0,0,1,.205.072.225.225,0,0,1,0,.352A.318.318,0,0,1,100.93,147.675Z" transform="translate(12.459 27.349)" fill="#1a3a68"/>
          <path id="Path_363" data-name="Path 363" d="M110.049,159.63H70.823a.312.312,0,0,1-.205-.074.225.225,0,0,1,0-.352.317.317,0,0,1,.205-.072h39.225a.315.315,0,0,1,.2.072.224.224,0,0,1,0,.352A.31.31,0,0,1,110.049,159.63Z" transform="translate(11.509 29.57)" fill="#1a3a68"/>
          <path id="Path_364" data-name="Path 364" d="M68.982,82.553s5.866-.075,8.931-1.217,3.018.839,2.15,1.536A21.316,21.316,0,0,1,71.327,85.7Z" transform="translate(12.449 15.132)" fill="#fff"/>
          <path id="Path_365" data-name="Path 365" d="M71.4,85.98a.329.329,0,0,1-.139-.03.279.279,0,0,1-.106-.083L68.8,82.719a.224.224,0,0,1-.046-.125.22.22,0,0,1,.034-.128.27.27,0,0,1,.105-.095.326.326,0,0,1,.147-.036c.057,0,5.842-.087,8.82-1.2,1.884-.7,2.6-.238,2.861.1a1.42,1.42,0,0,1-.392,1.846,21.548,21.548,0,0,1-8.914,2.9ZM69.57,82.818l1.974,2.651a21.35,21.35,0,0,0,8.387-2.751.972.972,0,0,0,.31-1.207c-.272-.356-1.054-.325-2.146.082-2.576.963-7.005,1.178-8.519,1.225Z" transform="translate(12.387 15.102)" fill="#1a3a68"/>
          <path id="Path_366" data-name="Path 366" d="M62.492,81.281,65.4,76.344l2.7,1.346a1.056,1.056,0,0,1,.37.3l.17.224a1.043,1.043,0,0,0,.42.327,1.237,1.237,0,0,0,.555.1,1.221,1.221,0,0,1,.606.123l20.069,10a2.159,2.159,0,0,1,.452.3l4.146,3.579-5.531-.827a3.975,3.975,0,0,1-.874-.236l-21-8.323a1.063,1.063,0,0,1-.444-.323l-.027-.035a1.06,1.06,0,0,0-.414-.31,1.245,1.245,0,0,0-.538-.1l-.188.009a1.234,1.234,0,0,1-.507-.084Z" transform="translate(10.502 14.495)" fill="#fff"/>
          <path id="Path_367" data-name="Path 367" d="M94.958,92.925a.38.38,0,0,1-.051,0l-5.53-.828a4.235,4.235,0,0,1-.946-.254l-21-8.323a1.353,1.353,0,0,1-.562-.408l-.029-.036a.774.774,0,0,0-.3-.227.909.909,0,0,0-.393-.071l-.188.009a1.568,1.568,0,0,1-.644-.112l-2.874-1.141a.291.291,0,0,1-.093-.058.242.242,0,0,1-.059-.085.218.218,0,0,1-.016-.1.224.224,0,0,1,.03-.1l2.909-4.936a.263.263,0,0,1,.073-.078.312.312,0,0,1,.1-.047.332.332,0,0,1,.117-.009.32.32,0,0,1,.111.032l2.7,1.346a1.341,1.341,0,0,1,.466.382l.17.224a.767.767,0,0,0,.307.239.908.908,0,0,0,.406.074,1.545,1.545,0,0,1,.769.157l20.069,10a2.473,2.473,0,0,1,.513.337L95.164,92.5a.24.24,0,0,1,.079.127.217.217,0,0,1-.016.144.261.261,0,0,1-.107.112.324.324,0,0,1-.161.042ZM66.189,82.275a1.571,1.571,0,0,1,.641.138,1.341,1.341,0,0,1,.494.378l.027.036a.787.787,0,0,0,.327.237l21,8.325a3.665,3.665,0,0,0,.8.215l4.631.692-3.5-3.022a1.922,1.922,0,0,0-.392-.26l-20.069-10a.89.89,0,0,0-.442-.091A1.563,1.563,0,0,1,69,78.8a1.32,1.32,0,0,1-.533-.414l-.17-.224a.745.745,0,0,0-.272-.224L65.592,76.72l-2.634,4.468,2.6,1.032a.9.9,0,0,0,.37.062l.189-.009Z" transform="translate(10.442 14.463)" fill="#1a3a68"/>
          <path id="Path_368" data-name="Path 368" d="M83.212,89.235a.347.347,0,0,1-.116-.02A.3.3,0,0,1,83,89.159a.247.247,0,0,1-.061-.082.216.216,0,0,1-.02-.1.219.219,0,0,1,.025-.1l.766-1.492a.249.249,0,0,1,.063-.083.3.3,0,0,1,.1-.055.334.334,0,0,1,.227,0,.3.3,0,0,1,.094.057.248.248,0,0,1,.061.085.218.218,0,0,1,.017.1.222.222,0,0,1-.029.1l-.764,1.492a.263.263,0,0,1-.108.108A.326.326,0,0,1,83.212,89.235Z" transform="translate(15.419 16.242)" fill="#1a3a68"/>
          <path id="Path_369" data-name="Path 369" d="M62.117,74.442l4.37,2.019a.421.421,0,0,1,.223.235.35.35,0,0,1-.033.3l-2.563,4.223a.415.415,0,0,1-.114.122.489.489,0,0,1-.16.075.535.535,0,0,1-.182.016.522.522,0,0,1-.175-.046l-4.36-2.019a1.639,1.639,0,0,1-.879-.9,1.355,1.355,0,0,1,.108-1.171l1.369-2.255a1.578,1.578,0,0,1,.44-.457,1.86,1.86,0,0,1,.611-.275,2.021,2.021,0,0,1,.687-.05A1.956,1.956,0,0,1,62.117,74.442Z" transform="translate(10.583 13.919)" fill="#1a3a68"/>
          <path id="Path_370" data-name="Path 370" d="M63.77,81.718a.838.838,0,0,1-.357-.079L59.054,79.62a1.9,1.9,0,0,1-1.016-1.047,1.576,1.576,0,0,1,.126-1.358l1.369-2.255a1.779,1.779,0,0,1,.495-.528,2.1,2.1,0,0,1,.7-.321,2.389,2.389,0,0,1,.817-.069,2.315,2.315,0,0,1,.784.209l4.369,2.019a.683.683,0,0,1,.363.381.568.568,0,0,1-.052.49L64.44,81.364a.669.669,0,0,1-.186.2.792.792,0,0,1-.262.121A.881.881,0,0,1,63.77,81.718Zm-2.443-7.187a1.725,1.725,0,0,0-.434.056,1.5,1.5,0,0,0-.494.228,1.268,1.268,0,0,0-.352.375l-1.369,2.255a1.139,1.139,0,0,0-.086.983,1.378,1.378,0,0,0,.739.754l4.36,2.019a.191.191,0,0,0,.064.017.2.2,0,0,0,.067-.006.181.181,0,0,0,.06-.028.153.153,0,0,0,.043-.046l2.563-4.223A.132.132,0,0,0,66.5,76.8a.159.159,0,0,0-.084-.088l-4.369-2.019A1.712,1.712,0,0,0,61.327,74.531Z" transform="translate(10.525 13.887)" fill="#1a3a68"/>
          <path id="Path_371" data-name="Path 371" d="M66.067,81.681a.32.32,0,0,1-.131-.03.284.284,0,0,1-.088-.061A.24.24,0,0,1,65.8,81.5a.213.213,0,0,1-.011-.1.223.223,0,0,1,.033-.093l1.446-2.322a.285.285,0,0,1,.172-.121.333.333,0,0,1,.221.019.262.262,0,0,1,.141.148.218.218,0,0,1-.022.19L66.33,81.549a.273.273,0,0,1-.11.1A.332.332,0,0,1,66.067,81.681Z" transform="translate(12.2 14.698)" fill="#1a3a68"/>
          <path id="Path_372" data-name="Path 372" d="M74.657,83.313a.335.335,0,0,1-.143-.031L68.528,80.4a.284.284,0,0,1-.086-.063.237.237,0,0,1-.051-.087.214.214,0,0,1-.009-.1.224.224,0,0,1,.035-.092.266.266,0,0,1,.074-.074.311.311,0,0,1,.1-.044.338.338,0,0,1,.113-.007.325.325,0,0,1,.108.03L74.8,82.846a.267.267,0,0,1,.126.12.216.216,0,0,1,.014.161.251.251,0,0,1-.1.134.321.321,0,0,1-.178.052Z" transform="translate(12.524 14.908)" fill="#1a3a68"/>
          <path id="Path_373" data-name="Path 373" d="M82.758,88.348a.325.325,0,0,1-.141-.031L80.28,87.2a.261.261,0,0,1-.138-.15.219.219,0,0,1,.025-.19.287.287,0,0,1,.174-.119.333.333,0,0,1,.221.022L82.9,87.885a.267.267,0,0,1,.126.12.216.216,0,0,1,.014.161.25.25,0,0,1-.1.134.322.322,0,0,1-.178.052Z" transform="translate(14.835 16.14)" fill="#1a3a68"/>
          <path id="Path_374" data-name="Path 374" d="M62.91,79.508a.324.324,0,0,1-.14-.031l-3.338-1.571a.286.286,0,0,1-.087-.063.24.24,0,0,1-.052-.086.215.215,0,0,1-.01-.1.223.223,0,0,1,.034-.093.261.261,0,0,1,.073-.075.31.31,0,0,1,.1-.045.335.335,0,0,1,.113-.008.324.324,0,0,1,.108.029l3.338,1.571a.268.268,0,0,1,.127.119.217.217,0,0,1,.015.161.249.249,0,0,1-.1.135.322.322,0,0,1-.179.052Z" transform="translate(10.932 14.419)" fill="#fff"/>
          <path id="Path_375" data-name="Path 375" d="M60.975,84.358s5.19.633,8.691-1.69c2.977-1.976,9.008,3.679,9.526,4.4.733,1.016-.882,2.613-2.743,1.709,0,0-.494,2.52-4.52,2.943s-5.748-1.842-6.825-2.181a22.977,22.977,0,0,0-4.18-.357Z" transform="translate(10.755 15.468)" fill="#fff"/>
          <path id="Path_376" data-name="Path 376" d="M71,92.048a8.29,8.29,0,0,1-5.013-1.711,4.429,4.429,0,0,0-.925-.537,22.779,22.779,0,0,0-4.077-.337.318.318,0,0,1-.2-.075.234.234,0,0,1-.084-.177l.05-4.824a.223.223,0,0,1,.027-.1.261.261,0,0,1,.073-.084.31.31,0,0,1,.108-.05.341.341,0,0,1,.122-.008c.051.006,5.113.589,8.473-1.64a3.209,3.209,0,0,1,2.344-.414c3.216.5,7.194,4.307,7.607,4.877a1.316,1.316,0,0,1-.325,1.787,2.354,2.354,0,0,1-1.167.536,2.559,2.559,0,0,1-1.315-.13c-.294.726-1.342,2.487-4.669,2.836A9.63,9.63,0,0,1,71,92.048Zm-9.72-3.084a20.132,20.132,0,0,1,3.981.368,4.559,4.559,0,0,1,1.084.614A7.7,7.7,0,0,0,71.955,91.5c3.748-.394,4.25-2.642,4.269-2.737a.235.235,0,0,1,.055-.108.288.288,0,0,1,.107-.074.334.334,0,0,1,.134-.024.327.327,0,0,1,.132.031,1.866,1.866,0,0,0,2.107-.181.887.887,0,0,0,.251-1.179c-.346-.479-4.207-4.181-7.218-4.649a2.568,2.568,0,0,0-1.884.317c-3.087,2.049-7.364,1.871-8.582,1.771Z" transform="translate(10.696 15.437)" fill="#1a3a68"/>
          <path id="Path_377" data-name="Path 377" d="M37.077,52.457s-7.109,2.569-10.863,13.026c-2.072,5.771-1.7,14,8.524,24.941,2.043,2.189,4.913,4.365,8.155,4.679l31.052.259-.138-8.536s-24.081-2.693-27.7-3.856c-3.206-1.035-7.849-14.515-8.332-21.129Z" transform="translate(7.945 10.399)" fill="#fff"/>
          <path id="Path_378" data-name="Path 378" d="M72.475,93.96,41.423,93.7h-.03c-3.538-.343-6.493-2.785-8.348-4.771-1.1-1.178-2.163-2.373-3.156-3.55a.223.223,0,0,1-.051-.185.247.247,0,0,1,.117-.162.328.328,0,0,1,.216-.044.3.3,0,0,1,.189.1c.988,1.169,2.043,2.356,3.135,3.529,1.784,1.907,4.612,4.257,7.946,4.586l30.741.256-.131-8.065c-2.707-.3-24.064-2.726-27.517-3.841-2.883-.931-6.292-10.287-7.688-16.316a.221.221,0,0,1,.043-.187.3.3,0,0,1,.185-.106.33.33,0,0,1,.218.037.251.251,0,0,1,.124.159c1.608,6.943,5.01,15.2,7.324,15.947,3.547,1.145,27.4,3.814,27.636,3.841a.31.31,0,0,1,.179.082.233.233,0,0,1,.074.163l.137,8.536a.219.219,0,0,1-.021.1.25.25,0,0,1-.063.082.3.3,0,0,1-.095.055.328.328,0,0,1-.112.019Z" transform="translate(6.933 12.571)" fill="#1a3a68"/>
          <path id="Path_379" data-name="Path 379" d="M85.04,22.936c.361.809,1.069,2.984-.1,4.443a3.152,3.152,0,0,1-4.474.186,7.571,7.571,0,0,1-1.454-3.043,4.446,4.446,0,0,0-.989-1.612,1.339,1.339,0,0,0-.474-.33,1.547,1.547,0,0,0-.594-.119l-3.693-.016a2.058,2.058,0,0,1,1.1-1.73c.94-.434,3.374-.076,3.565-.322C80.058,17.645,83.586,19.681,85.04,22.936Z" transform="translate(13.195 2.528)" fill="#fff"/>
          <path id="Path_380" data-name="Path 380" d="M82.722,28.683a3.692,3.692,0,0,1-1.314-.242,3.26,3.26,0,0,1-1.087-.68,7.114,7.114,0,0,1-1.437-2.887l-.086-.254a4.233,4.233,0,0,0-.939-1.529,1.048,1.048,0,0,0-.373-.26,1.213,1.213,0,0,0-.468-.093l-3.693-.016a.333.333,0,0,1-.112-.02.3.3,0,0,1-.094-.055.249.249,0,0,1-.062-.082.218.218,0,0,1-.02-.1,2.281,2.281,0,0,1,1.257-1.945,6.918,6.918,0,0,1,2.523-.258,7.4,7.4,0,0,0,.971-.025A3.238,3.238,0,0,1,80.73,18.9c1.792.171,3.658,1.767,4.643,3.973.217.484,1.225,2.982-.131,4.674a2.91,2.91,0,0,1-1,.793,3.407,3.407,0,0,1-1.307.335C82.87,28.681,82.8,28.683,82.722,28.683Zm-9.066-6.457,3.371.015a1.866,1.866,0,0,1,.721.144,1.616,1.616,0,0,1,.574.4,4.679,4.679,0,0,1,1.039,1.694l.088.255a6.732,6.732,0,0,0,1.306,2.693,2.69,2.69,0,0,0,.974.589,3.047,3.047,0,0,0,1.176.164,2.76,2.76,0,0,0,1.058-.271,2.358,2.358,0,0,0,.813-.641c1.189-1.487.261-3.771.065-4.214-.895-2-2.613-3.507-4.165-3.655a2.651,2.651,0,0,0-2.43,1.162c-.162.21-.532.214-1.428.2a6.75,6.75,0,0,0-2.242.2,1.708,1.708,0,0,0-.918,1.261Z" transform="translate(13.131 2.499)" fill="#1a3a68"/>
          <path id="Path_381" data-name="Path 381" d="M36.9,162.05l-2.263,9.33,5.924,1.441,3.277-9.084Z" transform="translate(6.271 32.085)" fill="#fff"/>
          <path id="Path_382" data-name="Path 382" d="M40.632,173.1a.375.375,0,0,1-.08-.009l-5.924-1.441a.286.286,0,0,1-.17-.11.219.219,0,0,1-.035-.18l2.263-9.331a.227.227,0,0,1,.047-.093.26.26,0,0,1,.086-.069.314.314,0,0,1,.112-.034.318.318,0,0,1,.118.008l6.938,1.683a.318.318,0,0,1,.1.044.27.27,0,0,1,.074.076.221.221,0,0,1,.034.1.211.211,0,0,1-.012.1l-3.277,9.088a.253.253,0,0,1-.1.127A.333.333,0,0,1,40.632,173.1Zm-5.586-1.866,5.392,1.31,3.105-8.607-6.353-1.55Z" transform="translate(6.221 32.056)" fill="#1a3a68"/>
          <path id="Path_383" data-name="Path 383" d="M33.161,178.513c.067.9,1.346,1.618,2.379,1.753,3.593.467,12.04.269,14.334.4,2.977.178,8.569-.012,8.786-1.644.261-1.991-2.233-4.893-8.207-6.482-3.091-.819-6.357-4.9-7.8-4.97s-4.006,3.141-4.006,3.141l-4.118-1.2A23.725,23.725,0,0,0,33.161,178.513Z" transform="translate(5.686 32.816)" fill="#fff"/>
          <path id="Path_384" data-name="Path 384" d="M51.819,180.993c-1.091,0-1.87-.044-1.894-.045-.784-.046-2.325-.053-4.109-.062-3.51-.016-7.876-.037-10.25-.345-1.207-.157-2.55-.991-2.625-1.983a24.125,24.125,0,0,1,1.38-9.088.235.235,0,0,1,.056-.085.273.273,0,0,1,.09-.061.33.33,0,0,1,.11-.025.318.318,0,0,1,.113.014l3.91,1.141c.583-.707,2.713-3.168,4.136-3.1.752.037,1.758.865,3.031,1.912,1.424,1.171,3.2,2.629,4.841,3.067,6.175,1.643,8.688,4.65,8.409,6.748C58.8,180.745,54.419,180.993,51.819,180.993ZM34.786,169.864a23.509,23.509,0,0,0-1.265,8.662c.055.741,1.168,1.4,2.132,1.522,2.331.3,6.674.323,10.165.336,1.794.009,3.344.016,4.145.063,3.317.2,8.3-.12,8.477-1.424.261-1.961-2.405-4.725-8-6.215-1.777-.473-3.6-1.976-5.071-3.184-1.093-.9-2.126-1.748-2.664-1.775-.937-.046-2.794,1.838-3.749,3.038a.292.292,0,0,1-.148.1.333.333,0,0,1-.185,0Z" transform="translate(5.636 32.787)" fill="#1a3a68"/>
          <path id="Path_385" data-name="Path 385" d="M52.666,177.382c-.784,0-1.65-.038-2.563-.08-1.356-.06-2.757-.123-4.136-.069a73.057,73.057,0,0,1-7.5-.094c-3.142-.2-3.266-.375-3.313-.439a.227.227,0,0,1-.044-.126.229.229,0,0,1,.035-.128.287.287,0,0,1,.172-.12.341.341,0,0,1,.22.019,60.848,60.848,0,0,0,10.4.388c1.407-.055,2.823.009,4.192.069a15.982,15.982,0,0,0,5.165-.233.34.34,0,0,1,.222,0,.274.274,0,0,1,.159.134.216.216,0,0,1,0,.19.275.275,0,0,1-.156.137A8.667,8.667,0,0,1,52.666,177.382Z" transform="translate(6.134 33.972)" fill="#1a3a68"/>
          <path id="Path_386" data-name="Path 386" d="M42.677,174.712a.324.324,0,0,1-.11-.018.3.3,0,0,1-.093-.053.257.257,0,0,1-.063-.082.216.216,0,0,1-.022-.1.22.22,0,0,1,.022-.1.241.241,0,0,1,.063-.08l2.169-1.908a.28.28,0,0,1,.093-.054.307.307,0,0,1,.111-.02.336.336,0,0,1,.111.018.269.269,0,0,1,.095.053.243.243,0,0,1,.064.08.216.216,0,0,1,0,.19.239.239,0,0,1-.062.082l-2.169,1.908a.322.322,0,0,1-.1.057A.331.331,0,0,1,42.677,174.712Z" transform="translate(7.828 33.442)" fill="#1a3a68"/>
          <path id="Path_387" data-name="Path 387" d="M12.051,161.658l-.3,6.507,5.29,1.1.942-7.558Z" transform="translate(3.658 32.033)" fill="#fff"/>
          <path id="Path_388" data-name="Path 388" d="M17.109,169.542a.339.339,0,0,1-.068-.007l-5.29-1.1a.3.3,0,0,1-.163-.092.226.226,0,0,1-.058-.161l.3-6.506a.237.237,0,0,1,.089-.171.32.32,0,0,1,.2-.069l5.93.046a.341.341,0,0,1,.117.021.3.3,0,0,1,.1.061.263.263,0,0,1,.059.091.223.223,0,0,1,.013.1L17.4,169.32a.241.241,0,0,1-.094.16.316.316,0,0,1-.194.065ZM12.12,168l4.736.983.874-7-5.329-.042Z" transform="translate(3.588 32.004)" fill="#1a3a68"/>
          <path id="Path_389" data-name="Path 389" d="M19.27,180.551a48.976,48.976,0,0,1-9.676,0c-1.837-.164-2.553-2.356-2.23-3.487.9-3.142,2.46-8.215,5.117-10.979l.976,1.683.921-1.646a.748.748,0,0,1,.253-.238.9.9,0,0,1,.351-.114l1.988.017a.915.915,0,0,1,.57.123.692.692,0,0,1,.321.423l.317,1.3,1.7-1.683,1.318,12.407a1.754,1.754,0,0,1-.437,1.437A2.365,2.365,0,0,1,19.27,180.551Z" transform="translate(2.237 32.577)" fill="#fff"/>
          <path id="Path_390" data-name="Path 390" d="M14.815,181.065q-2.6,0-5.184-.241a2.564,2.564,0,0,1-1.791-.966,3.372,3.372,0,0,1-.691-2.828c1.078-3.773,2.64-8.441,5.176-11.079a.3.3,0,0,1,.116-.072.351.351,0,0,1,.141-.016.318.318,0,0,1,.134.043.273.273,0,0,1,.093.094l.712,1.234.664-1.187a1.021,1.021,0,0,1,.345-.331,1.219,1.219,0,0,1,.483-.161h.04l1.969.017a1.242,1.242,0,0,1,.761.177.948.948,0,0,1,.429.567l.2.811,1.306-1.3a.309.309,0,0,1,.141-.077.334.334,0,0,1,.167,0,.291.291,0,0,1,.138.082.227.227,0,0,1,.062.132l1.323,12.4a1.981,1.981,0,0,1-.5,1.614,2.667,2.667,0,0,1-1.674.848A38.515,38.515,0,0,1,14.815,181.065Zm-2.323-14.492c-2.6,2.962-4.119,8.265-4.779,10.575a2.938,2.938,0,0,0,.6,2.425,1.973,1.973,0,0,0,1.377.755,48.889,48.889,0,0,0,9.6,0,2.068,2.068,0,0,0,1.294-.658,1.535,1.535,0,0,0,.386-1.249L19.714,166.59l-1.249,1.234a.306.306,0,0,1-.133.076.345.345,0,0,1-.159,0,.308.308,0,0,1-.137-.07.239.239,0,0,1-.073-.121l-.317-1.3a.449.449,0,0,0-.207-.269.586.586,0,0,0-.364-.082.247.247,0,0,1-.041,0l-1.96-.016a.562.562,0,0,0-.215.077.476.476,0,0,0-.155.148L13.79,167.9a.26.26,0,0,1-.107.1.327.327,0,0,1-.154.038.361.361,0,0,1-.151-.04.3.3,0,0,1-.11-.1Z" transform="translate(2.166 32.549)" fill="#1a3a68"/>
          <path id="Path_391" data-name="Path 391" d="M12.995,177.593a22.338,22.338,0,0,1-4.286-.391.3.3,0,0,1-.1-.04.28.28,0,0,1-.078-.07.232.232,0,0,1-.04-.092.216.216,0,0,1,0-.1.238.238,0,0,1,.047-.088.265.265,0,0,1,.082-.067.309.309,0,0,1,.106-.034.345.345,0,0,1,.113,0,27.275,27.275,0,0,0,10.254-.292.315.315,0,0,1,.113-.008.318.318,0,0,1,.108.029.293.293,0,0,1,.086.062.244.244,0,0,1,.052.087.215.215,0,0,1,.009.1.224.224,0,0,1-.035.093.27.27,0,0,1-.073.075.31.31,0,0,1-.1.044A28.671,28.671,0,0,1,12.995,177.593Z" transform="translate(2.617 33.986)" fill="#1a3a68"/>
          <path id="Path_392" data-name="Path 392" d="M11.05,173.275a.305.305,0,0,1-.2-.076.225.225,0,0,1-.006-.342.311.311,0,0,1,.192-.08l4.768-.136a.327.327,0,0,1,.206.068.242.242,0,0,1,.093.173.217.217,0,0,1-.018.1.246.246,0,0,1-.06.083.3.3,0,0,1-.092.057.332.332,0,0,1-.111.023l-4.767.135Z" transform="translate(3.347 33.486)" fill="#1a3a68"/>
          <path id="Path_393" data-name="Path 393" d="M68.191,93.09c2.007,10.085,5.654,34.868-2.221,53.407-6.778,15.955-11.615,23.9-13.474,26.786a2.428,2.428,0,0,1-1.081.9,2.926,2.926,0,0,1-1.481.217l-4.834-.534a2.826,2.826,0,0,1-.964-.283,2.46,2.46,0,0,1-.759-.583,2.079,2.079,0,0,1-.435-.79,1.9,1.9,0,0,1-.042-.874c1.762-9.492,8.763-55.7,6.9-59.968l-30,60.564a1.832,1.832,0,0,1-.754.768,2.269,2.269,0,0,1-1.123.281l-5.068-.049a2.307,2.307,0,0,1-.782-.145,2.082,2.082,0,0,1-.656-.393,1.746,1.746,0,0,1-.428-.58,1.526,1.526,0,0,1-.134-.677c1.5-49.022,18.209-56.909,23.105-80.347.012-.055,1.6,1.592,1.663,1.622,4.9,2.439,7.356,2.244,14.877,2.6,8.136.383,15.694-2.254,17.475-2.183C68.112,92.838,68.17,92.973,68.191,93.09Z" transform="translate(3.372 19.713)" fill="#1a3a68"/>
          <path id="Path_394" data-name="Path 394" d="M50.2,53.607,51.591,47.5a.95.95,0,0,1,.345-.52,1.225,1.225,0,0,1,.634-.248l2.788-.273a1.437,1.437,0,0,0,.771-.311,1.1,1.1,0,0,0,.395-.648l.631-3.4a.016.016,0,0,1,0-.008l.007-.006,1.325-.616a.5.5,0,0,0,.265-.277.415.415,0,0,0-.036-.357l-1.4-2.345c-.272-.457-.644-3.029-1.24-3.008,0,0-10.033-3-12.984.577a2.975,2.975,0,0,0-.34,3.267l.675,1.364a5.677,5.677,0,0,1,.323,4.488,6.239,6.239,0,0,1-.8,1.506l-3.77,5.048A23.087,23.087,0,0,0,48,53.582Z" transform="translate(6.874 6.541)" fill="#fff"/>
          <path id="Path_395" data-name="Path 395" d="M50.274,53.884l-2.208-.028a23.509,23.509,0,0,1-8.941-1.88.288.288,0,0,1-.094-.065.238.238,0,0,1-.056-.092.215.215,0,0,1-.007-.1.229.229,0,0,1,.042-.1l3.77-5.048a5.97,5.97,0,0,0,.771-1.446,5.43,5.43,0,0,0-.312-4.31l-.675-1.364a3.209,3.209,0,0,1,.37-3.509c2.973-3.6,12.454-.921,13.273-.68.551.038.809.869,1.16,2.208a5.941,5.941,0,0,0,.286.934l1.4,2.345a.636.636,0,0,1,.053.544.765.765,0,0,1-.4.423l-1.207.561-.61,3.293a1.348,1.348,0,0,1-.481.788,1.753,1.753,0,0,1-.938.38l-2.788.273a.908.908,0,0,0-.471.184.7.7,0,0,0-.256.387l-1.386,6.1a.247.247,0,0,1-.1.145A.321.321,0,0,1,50.274,53.884Zm-10.6-2.232a22.916,22.916,0,0,0,8.4,1.705l1.96.025,1.339-5.9a1.188,1.188,0,0,1,.432-.655,1.533,1.533,0,0,1,.8-.312l2.789-.274a1.126,1.126,0,0,0,.6-.243.864.864,0,0,0,.31-.508l.631-3.4a.263.263,0,0,1,.055-.112.317.317,0,0,1,.1-.081l1.325-.616a.236.236,0,0,0,.125-.131.2.2,0,0,0-.018-.169l-1.4-2.346a5.21,5.21,0,0,1-.336-1.051,5.772,5.772,0,0,0-.669-1.822.307.307,0,0,1-.072-.012c-.1-.03-9.861-2.9-12.652.485a2.773,2.773,0,0,0-.308,3.029l.675,1.364a5.879,5.879,0,0,1,.332,4.655,6.452,6.452,0,0,1-.833,1.563Z" transform="translate(6.823 6.503)" fill="#1a3a68"/>
          <path id="Path_396" data-name="Path 396" d="M48.377,40c-.515-1.1-1.321-1.512-1.176-2.132a1.38,1.38,0,0,1,.687-.748c1.073-.673,2.482-.26,5.318.2,3.52.57,3.919.66,4.586.434a4.346,4.346,0,0,0,2.721-3.825,3.927,3.927,0,0,0-2.1-3.725,5.865,5.865,0,0,0-5.334.15,2.138,2.138,0,0,0-1.124-1.316c-1.59-.7-3.961.867-4.791,1.415a9.22,9.22,0,0,0-3.114,3.422,4.123,4.123,0,0,0-2.768-.322,3.657,3.657,0,0,0-2.413,2.71c-.477,2.208,1.637,4.135,3.232,5.59a9.468,9.468,0,0,0,1.859,1.4,1.1,1.1,0,0,0,.5.141,1.116,1.116,0,0,0,.516-.1L45,43.279a.822.822,0,0,0,.259-.189.686.686,0,0,0,.151-.262.624.624,0,0,0,.018-.291.664.664,0,0,0-.118-.274l-.081-.112a3.068,3.068,0,0,1-.576-1.389,1.049,1.049,0,0,1,.281-1.02,1.876,1.876,0,0,1,1.4-.084,2.06,2.06,0,0,1,1.194.9C47.782,40.941,48.605,40.483,48.377,40Z" transform="translate(6.76 3.818)" fill="#1a3a68"/>
          <path id="Path_397" data-name="Path 397" d="M25.873,31.612a2.681,2.681,0,0,1-.948-.175,2.373,2.373,0,0,1-.785-.489,1.979,1.979,0,0,1-.489-.719,1.753,1.753,0,0,1-.109-.828,1.724,1.724,0,0,1,.268-.723,2.02,2.02,0,0,1,.575-.576,2.442,2.442,0,0,1,.807-.349,2.64,2.64,0,0,1,.9-.052,2.45,2.45,0,0,1,1.536.742,1.814,1.814,0,0,1,.5,1.453,1.723,1.723,0,0,1-.268.723,2.025,2.025,0,0,1-.576.576A2.512,2.512,0,0,1,25.873,31.612Zm-1.753-2.156a1.361,1.361,0,0,0,.373,1.09,1.839,1.839,0,0,0,1.154.555,1.972,1.972,0,0,0,.673-.038,1.82,1.82,0,0,0,.6-.26,1.5,1.5,0,0,0,.426-.427,1.282,1.282,0,0,0,.2-.536,1.361,1.361,0,0,0-.374-1.089,1.84,1.84,0,0,0-1.153-.555,1.969,1.969,0,0,0-.673.038,1.816,1.816,0,0,0-.6.26,1.494,1.494,0,0,0-.426.426A1.274,1.274,0,0,0,24.119,29.456Z" transform="translate(7.41 3.663)" fill="#1a3a68"/>
          <path id="Path_398" data-name="Path 398" d="M19.2,34.566a.329.329,0,0,1-.148-.035l-1.935-.984a.278.278,0,0,1-.085-.065.236.236,0,0,1-.049-.088.215.215,0,0,1-.006-.1.226.226,0,0,1,.037-.092.268.268,0,0,1,.076-.073.312.312,0,0,1,.1-.042.337.337,0,0,1,.113-.006.325.325,0,0,1,.107.032l1.936.984a.266.266,0,0,1,.12.121.218.218,0,0,1,.01.159.252.252,0,0,1-.1.132A.323.323,0,0,1,19.2,34.566Z" transform="translate(5.322 4.377)" fill="#1a3a68"/>
          <path id="Path_399" data-name="Path 399" d="M22.619,36.591a.331.331,0,0,1-.148-.035l-1.936-.984a.282.282,0,0,1-.084-.065.236.236,0,0,1-.049-.088.214.214,0,0,1-.006-.1.226.226,0,0,1,.038-.092.264.264,0,0,1,.076-.072.312.312,0,0,1,.1-.042.336.336,0,0,1,.113-.005.322.322,0,0,1,.107.032l1.936.984a.264.264,0,0,1,.121.121.216.216,0,0,1,.011.159.251.251,0,0,1-.1.132A.324.324,0,0,1,22.619,36.591Z" transform="translate(6.411 4.645)" fill="#1a3a68"/>
          <path id="Path_400" data-name="Path 400" d="M18.261,37.668a.321.321,0,0,1-.148-.035.256.256,0,0,1-.131-.15.218.218,0,0,1,.029-.186l1.146-1.664a.292.292,0,0,1,.177-.11.332.332,0,0,1,.216.028.257.257,0,0,1,.132.149.218.218,0,0,1-.027.186L18.511,37.55a.276.276,0,0,1-.107.087A.327.327,0,0,1,18.261,37.668Z" transform="translate(5.64 4.699)" fill="#1a3a68"/>
          <path id="Path_401" data-name="Path 401" d="M20.285,34.248a.328.328,0,0,1-.146-.034.273.273,0,0,1-.107-.092.219.219,0,0,1,0-.251l1.146-1.663a.29.29,0,0,1,.178-.115.332.332,0,0,1,.22.027.258.258,0,0,1,.134.153.219.219,0,0,1-.031.189l-1.146,1.663a.275.275,0,0,1-.106.09A.329.329,0,0,1,20.285,34.248Z" transform="translate(6.284 4.245)" fill="#1a3a68"/>
          <path id="Path_402" data-name="Path 402" d="M199.572,199.293H98.065a10.959,10.959,0,0,1-4.129-.8,9.554,9.554,0,0,1-3.33-2.244,7.869,7.869,0,0,1-1.887-3.254,7.129,7.129,0,0,1-.079-3.635l15.4-64.32a11.49,11.49,0,0,1,4.706-6.674,14.978,14.978,0,0,1,8.559-2.618h87.074Z" transform="translate(1.913 25.96)" fill="#fff"/>
          <path id="Path_403" data-name="Path 403" d="M199.642,199.572H98.135a11.288,11.288,0,0,1-4.254-.824,9.846,9.846,0,0,1-3.431-2.312,8.111,8.111,0,0,1-1.944-3.353,7.343,7.343,0,0,1-.081-3.743l15.4-64.321a11.789,11.789,0,0,1,4.818-6.806,15.357,15.357,0,0,1,8.733-2.684h87.072a.324.324,0,0,1,.115.02.291.291,0,0,1,.1.057.274.274,0,0,1,.062.085.216.216,0,0,1,.017.1l-4.8,83.545a.237.237,0,0,1-.092.17A.323.323,0,0,1,199.642,199.572Zm-82.272-83.544a14.7,14.7,0,0,0-8.365,2.569,11.294,11.294,0,0,0-4.616,6.519L88.99,189.44a6.916,6.916,0,0,0,.077,3.526,7.644,7.644,0,0,0,1.831,3.156,9.251,9.251,0,0,0,3.231,2.176,10.632,10.632,0,0,0,4.006.776H199.371l4.773-83.046Z" transform="translate(1.843 25.931)" fill="#1a3a68"/>
          <path id="Path_404" data-name="Path 404" d="M189.67,199.293h-19.7a10.952,10.952,0,0,1-4.128-.8,9.557,9.557,0,0,1-3.331-2.244,7.891,7.891,0,0,1-1.887-3.254,7.122,7.122,0,0,1-.078-3.635l16.961-70.846a3.425,3.425,0,0,1,1.4-1.986,4.448,4.448,0,0,1,2.547-.78h5.067a4.42,4.42,0,0,1,2.733.918,3.3,3.3,0,0,1,1.286,2.266l6.939,73.08a5.858,5.858,0,0,1-.4,2.74,6.637,6.637,0,0,1-1.648,2.372,7.939,7.939,0,0,1-2.619,1.6A8.951,8.951,0,0,1,189.67,199.293Z" transform="translate(24.817 25.96)" fill="#fff"/>
          <path id="Path_405" data-name="Path 405" d="M189.74,199.572h-19.7a11.287,11.287,0,0,1-4.254-.824,9.848,9.848,0,0,1-3.431-2.312,8.116,8.116,0,0,1-1.944-3.353,7.354,7.354,0,0,1-.08-3.743l16.961-70.844a3.69,3.69,0,0,1,1.507-2.128,4.791,4.791,0,0,1,2.729-.839H186.6a4.76,4.76,0,0,1,2.926.988,3.567,3.567,0,0,1,1.386,2.424l6.938,73.08a6.08,6.08,0,0,1-.415,2.841,6.86,6.86,0,0,1-1.708,2.458,8.234,8.234,0,0,1-2.714,1.664,9.289,9.289,0,0,1-3.263.588Zm-8.21-83.544a4.149,4.149,0,0,0-2.363.726,3.187,3.187,0,0,0-1.3,1.841L160.9,189.44a6.92,6.92,0,0,0,.076,3.526,7.662,7.662,0,0,0,1.831,3.156,9.267,9.267,0,0,0,3.23,2.176,10.634,10.634,0,0,0,4.006.776h19.7a8.522,8.522,0,0,0,3.033-.54,7.529,7.529,0,0,0,2.517-1.549,6.4,6.4,0,0,0,1.585-2.285,5.656,5.656,0,0,0,.389-2.639l-6.942-73.078a3.091,3.091,0,0,0-1.2-2.1,4.12,4.12,0,0,0-2.532-.856Z" transform="translate(24.747 25.931)" fill="#1a3a68"/>
          <path id="Path_406" data-name="Path 406" d="M182.756,191.115H169.334a7.965,7.965,0,0,1-3-.582,6.921,6.921,0,0,1-2.418-1.629,5.709,5.709,0,0,1-1.37-2.362,5.188,5.188,0,0,1-.058-2.638l5.572-23.256a.241.241,0,0,1,.043-.089.272.272,0,0,1,.08-.068.326.326,0,0,1,.105-.037.347.347,0,0,1,.113,0,.305.305,0,0,1,.1.037.27.27,0,0,1,.079.069.241.241,0,0,1,.044.089.221.221,0,0,1,0,.1L163.06,184a4.75,4.75,0,0,0,.05,2.42,5.242,5.242,0,0,0,1.255,2.167,6.349,6.349,0,0,0,2.216,1.493,7.289,7.289,0,0,0,2.749.532h13.423a.3.3,0,0,1,.193.078.224.224,0,0,1,0,.342.311.311,0,0,1-.193.079Z" transform="translate(25.454 31.873)" fill="#1a3a68"/>
          <path id="Path_407" data-name="Path 407" d="M182.653,190.069a.311.311,0,0,1-.193-.079.224.224,0,0,1,0-.342.3.3,0,0,1,.193-.078,5.3,5.3,0,0,0,1.856-.334,4.7,4.7,0,0,0,1.544-.945,3.922,3.922,0,0,0,.972-1.4,3.47,3.47,0,0,0,.236-1.616l-1.582-16.655a.224.224,0,0,1,.069-.181.3.3,0,0,1,.2-.087.327.327,0,0,1,.212.058.244.244,0,0,1,.1.17l1.581,16.655a3.88,3.88,0,0,1-.266,1.818,4.372,4.372,0,0,1-1.093,1.574,5.238,5.238,0,0,1-1.738,1.065A5.934,5.934,0,0,1,182.653,190.069Z" transform="translate(31.835 32.919)" fill="#1a3a68"/>
          <path id="Path_408" data-name="Path 408" d="M181.913,128.324a.32.32,0,0,1-.2-.065.239.239,0,0,1-.094-.16l-.33-3.472a.223.223,0,0,1,.067-.181.3.3,0,0,1,.2-.087.33.33,0,0,1,.212.058.238.238,0,0,1,.1.17l.331,3.472a.228.228,0,0,1-.067.18.311.311,0,0,1-.194.088Z" transform="translate(31.488 23.213)" fill="#1a3a68"/>
          <path id="Path_409" data-name="Path 409" d="M172.08,138.435a.35.35,0,0,1-.059-.006.33.33,0,0,1-.1-.037.27.27,0,0,1-.079-.069.237.237,0,0,1-.044-.091.216.216,0,0,1,0-.1l4.652-19.429a1.19,1.19,0,0,1,.487-.687,1.544,1.544,0,0,1,.881-.271h5.067a1.535,1.535,0,0,1,.944.319,1.154,1.154,0,0,1,.447.782l.215,2.274a.216.216,0,0,1-.012.1.254.254,0,0,1-.055.085.305.305,0,0,1-.2.087.32.32,0,0,1-.113-.011.333.333,0,0,1-.1-.046.258.258,0,0,1-.07-.077.245.245,0,0,1-.032-.093l-.215-2.274a.675.675,0,0,0-.261-.457.9.9,0,0,0-.551-.187h-5.067a.916.916,0,0,0-.516.16.7.7,0,0,0-.283.4l-4.652,19.428a.255.255,0,0,1-.1.143A.317.317,0,0,1,172.08,138.435Z" transform="translate(28.461 22.501)" fill="#1a3a68"/>
          <path id="Path_410" data-name="Path 410" d="M181.506,149.211H102.025a.311.311,0,0,1-.193-.079.224.224,0,0,1,0-.342.3.3,0,0,1,.193-.078h79.482a5.289,5.289,0,0,0,2.976-.885,4.081,4.081,0,0,0,1.688-2.283l7.005-25.411a.227.227,0,0,1,.042-.1.263.263,0,0,1,.082-.074.319.319,0,0,1,.111-.04.329.329,0,0,1,.12,0,.314.314,0,0,1,.108.043.25.25,0,0,1,.079.077.229.229,0,0,1,.037.1.211.211,0,0,1-.013.1l-7.005,25.411a4.582,4.582,0,0,1-1.892,2.561A5.94,5.94,0,0,1,181.506,149.211Z" transform="translate(4.003 23.224)" fill="#1a3a68"/>
          <path id="Path_411" data-name="Path 411" d="M144.732,145.568l-2.22,7.714a2.89,2.89,0,0,1-1.189,1.6,3.733,3.733,0,0,1-2.09.624H123.486a2.935,2.935,0,0,1-1.151-.232,2.532,2.532,0,0,1-.912-.648,2.086,2.086,0,0,1-.481-.927,1.927,1.927,0,0,1,.049-1.016l2.306-7.12Z" transform="translate(21.005 27.391)" fill="#fff"/>
          <path id="Path_412" data-name="Path 412" d="M139.3,155.789H123.556a3.277,3.277,0,0,1-1.282-.258,2.839,2.839,0,0,1-1.014-.72,2.322,2.322,0,0,1-.535-1.033,2.138,2.138,0,0,1,.055-1.13l2.306-7.121a.252.252,0,0,1,.1-.131.33.33,0,0,1,.177-.051H144.8a.322.322,0,0,1,.127.025.289.289,0,0,1,.1.07.234.234,0,0,1,.055.1.215.215,0,0,1,0,.112l-2.227,7.717a3.119,3.119,0,0,1-1.288,1.743A4.035,4.035,0,0,1,139.3,155.789Zm-15.706-9.943-2.247,6.938a1.72,1.72,0,0,0-.044.9,1.869,1.869,0,0,0,.43.824,2.25,2.25,0,0,0,.811.574,2.59,2.59,0,0,0,1.023.2H139.31a3.386,3.386,0,0,0,1.911-.568,2.625,2.625,0,0,0,1.085-1.466l2.137-7.4Z" transform="translate(20.924 27.368)" fill="#1a3a68"/>
          <path id="Path_413" data-name="Path 413" d="M177.207,184.1H92.769a.317.317,0,0,1-.205-.072.236.236,0,0,1-.085-.177.231.231,0,0,1,.085-.176.312.312,0,0,1,.205-.074h84.438a.311.311,0,0,1,.206.074.232.232,0,0,1,.084.176.236.236,0,0,1-.084.177A.316.316,0,0,1,177.207,184.1Z" transform="translate(11.476 34.937)" fill="#1a3a68"/>
          <path id="Path_414" data-name="Path 414" d="M127.916,113.17h-6.591a3.507,3.507,0,0,0-2.28.812,2.584,2.584,0,0,0-.944,1.958H131.14a2.589,2.589,0,0,0-.944-1.958A3.512,3.512,0,0,0,127.916,113.17Z" transform="translate(21.254 21.091)" fill="#fff"/>
          <path id="Path_415" data-name="Path 415" d="M131.21,116.219H118.17a.322.322,0,0,1-.206-.072.237.237,0,0,1-.084-.178,2.818,2.818,0,0,1,1.03-2.133,3.835,3.835,0,0,1,2.485-.885h6.59a3.829,3.829,0,0,1,2.484.885,2.826,2.826,0,0,1,1.031,2.133.23.23,0,0,1-.086.177A.31.31,0,0,1,131.21,116.219Zm-12.736-.5h12.431a2.42,2.42,0,0,0-.951-1.618,3.234,3.234,0,0,0-1.97-.653H121.4a3.219,3.219,0,0,0-1.97.653,2.414,2.414,0,0,0-.952,1.618Z" transform="translate(21.176 21.064)" fill="#1a3a68"/>
          <path id="Path_416" data-name="Path 416" d="M167.978,113.17h-6.591a3.512,3.512,0,0,0-2.28.812,2.589,2.589,0,0,0-.944,1.958H171.2a2.584,2.584,0,0,0-.944-1.958A3.507,3.507,0,0,0,167.978,113.17Z" transform="translate(28.48 21.091)" fill="#1a3a68"/>
          <path id="Path_417" data-name="Path 417" d="M171.273,116.219H158.231a.3.3,0,0,1-.111-.019.293.293,0,0,1-.095-.054.244.244,0,0,1-.062-.08.225.225,0,0,1-.022-.1,2.826,2.826,0,0,1,1.031-2.133,3.828,3.828,0,0,1,2.483-.885h6.591a3.832,3.832,0,0,1,2.484.885,2.82,2.82,0,0,1,1.03,2.133.23.23,0,0,1-.083.177A.314.314,0,0,1,171.273,116.219Zm-12.734-.5h12.431a2.417,2.417,0,0,0-.952-1.618,3.223,3.223,0,0,0-1.969-.653h-6.591a3.23,3.23,0,0,0-1.969.653A2.42,2.42,0,0,0,158.538,115.72Z" transform="translate(28.39 21.064)" fill="#1a3a68"/>
          <path id="Path_418" data-name="Path 418" d="M177.766,114.484l1.063-5.42c.753-3.843-2.263-6.956-6.738-6.956H132.565c-4.474,0-8.713,3.117-9.464,6.956l-1.063,5.42h3.025l.827-4.218c.585-2.993,3.884-5.417,7.365-5.417h37.066c3.481,0,5.829,2.424,5.244,5.417l-.827,4.218Z" transform="translate(18.381 19.278)" fill="#fff"/>
          <path id="Path_419" data-name="Path 419" d="M177.836,114.763h-3.023a.321.321,0,0,1-.123-.023.3.3,0,0,1-.1-.065.231.231,0,0,1-.058-.1.213.213,0,0,1-.005-.108l.825-4.219a3.968,3.968,0,0,0-1.059-3.655,5.382,5.382,0,0,0-3.9-1.471h-37.07c-3.34,0-6.516,2.337-7.079,5.209l-.827,4.219a.242.242,0,0,1-.1.148.317.317,0,0,1-.187.059h-3.025a.321.321,0,0,1-.123-.023.278.278,0,0,1-.1-.065.231.231,0,0,1-.058-.1.214.214,0,0,1-.007-.108l1.063-5.42c.773-3.953,5.147-7.167,9.75-7.167h39.523a7.618,7.618,0,0,1,5.515,2.09,5.609,5.609,0,0,1,1.508,5.161l-1.063,5.42a.238.238,0,0,1-.1.147A.31.31,0,0,1,177.836,114.763Zm-2.681-.5h2.435l1.022-5.212a5.154,5.154,0,0,0-1.378-4.755,7.015,7.015,0,0,0-5.074-1.916H132.635c-4.331,0-8.449,3.03-9.178,6.753l-1.006,5.129h2.437l.783-4.011c.608-3.1,4.041-5.625,7.651-5.625h37.069a6,6,0,0,1,4.342,1.649,4.412,4.412,0,0,1,1.188,4.059Z" transform="translate(18.291 19.25)" fill="#1a3a68"/>
          <path id="Path_420" data-name="Path 420" d="M167.743,100.123H133.025a3.018,3.018,0,0,0-2.959,2.176l-.512,2.605c-.235,1.2.708,2.176,2.107,2.176H166.38a3.019,3.019,0,0,0,2.96-2.176l.51-2.605C170.085,101.1,169.142,100.123,167.743,100.123Z" transform="translate(21.12 18.763)" fill="#fff"/>
          <path id="Path_421" data-name="Path 421" d="M166.452,107.359H131.734a2.765,2.765,0,0,1-1.032-.177,2.41,2.41,0,0,1-.845-.538,2.038,2.038,0,0,1-.487-.827,1.824,1.824,0,0,1-.029-.926l.51-2.605A3.319,3.319,0,0,1,133.1,99.9h34.718a2.754,2.754,0,0,1,1.032.177,2.41,2.41,0,0,1,.845.538,2.035,2.035,0,0,1,.487.828,1.824,1.824,0,0,1,.029.926l-.51,2.6A3.3,3.3,0,0,1,166.452,107.359ZM133.1,100.4a2.732,2.732,0,0,0-2.673,1.969l-.51,2.6a1.4,1.4,0,0,0,.02.711,1.546,1.546,0,0,0,.372.635,1.827,1.827,0,0,0,.647.409,2.114,2.114,0,0,0,.79.13H166.46a2.733,2.733,0,0,0,2.673-1.969l.51-2.605a1.409,1.409,0,0,0-.02-.71,1.565,1.565,0,0,0-.372-.636,1.84,1.84,0,0,0-.647-.408,2.091,2.091,0,0,0-.79-.13Z" transform="translate(21.03 18.735)" fill="#1a3a68"/>
          <path id="Path_422" data-name="Path 422" d="M146.546,107.359H131.734a2.765,2.765,0,0,1-1.032-.177,2.41,2.41,0,0,1-.845-.538,2.038,2.038,0,0,1-.487-.827,1.824,1.824,0,0,1-.029-.926l.51-2.605A3.319,3.319,0,0,1,133.1,99.9h11.581a.309.309,0,0,1,.192.079.224.224,0,0,1,0,.341.311.311,0,0,1-.192.079H133.1a2.732,2.732,0,0,0-2.673,1.969l-.51,2.6a1.4,1.4,0,0,0,.02.711,1.546,1.546,0,0,0,.372.635,1.827,1.827,0,0,0,.647.409,2.114,2.114,0,0,0,.79.13h14.812a.315.315,0,0,1,.2.072.225.225,0,0,1,0,.353.315.315,0,0,1-.2.072Z" transform="translate(22.945 18.735)" fill="#1a3a68"/>
          <path id="Path_423" data-name="Path 423" d="M167.576,192.526a.322.322,0,0,1-.178-.052.247.247,0,0,1-.1-.134.217.217,0,0,1,.012-.16.264.264,0,0,1,.125-.12l13.455-6.59V120.186a.232.232,0,0,1,.084-.176.316.316,0,0,1,.206-.074.31.31,0,0,1,.2.074.229.229,0,0,1,.086.176v65.431a.23.23,0,0,1-.04.125.289.289,0,0,1-.107.092l-13.6,6.666A.33.33,0,0,1,167.576,192.526Z" transform="translate(27.027 26.514)" fill="#1a3a68"/>
          <path id="Path_424" data-name="Path 424" d="M167.1,114.76s6.057,1.938,8.433.307-3.683-4.388-5.107-4.184S167.1,114.76,167.1,114.76Z" transform="translate(26.968 20.72)" fill="#1a3a68"/>
          <path id="Path_425" data-name="Path 425" d="M144.017,151.452l5.7,8.571,3.088-3.673-4.988-8.368Z" transform="translate(26.261 27.927)" fill="#fff"/>
          <path id="Path_426" data-name="Path 426" d="M149.788,160.3h-.016a.329.329,0,0,1-.136-.037.26.26,0,0,1-.1-.088l-5.7-8.571a.219.219,0,0,1-.036-.153.233.233,0,0,1,.076-.142l3.8-3.468a.3.3,0,0,1,.116-.066.349.349,0,0,1,.137-.011.313.313,0,0,1,.128.044.271.271,0,0,1,.09.089l4.988,8.367a.224.224,0,0,1,.032.132.227.227,0,0,1-.054.127l-3.088,3.673a.273.273,0,0,1-.1.076A.326.326,0,0,1,149.788,160.3Zm-5.341-8.784,5.37,8.078,2.72-3.235-4.72-7.916Z" transform="translate(26.176 27.905)" fill="#1a3a68"/>
          <path id="Path_427" data-name="Path 427" d="M146.89,158.176c1.5,2.662,5.308,9.121,8.975,12.215a1.705,1.705,0,0,0,.733.359,1.9,1.9,0,0,0,.844,0,1.707,1.707,0,0,0,.728-.365,1.373,1.373,0,0,0,.421-.628c1.147-3.728,1.912-11.494-2.363-17.613a25.1,25.1,0,0,0-5.833.407l.845,3.062-.467-.285a2.093,2.093,0,0,0-1.173-.3,2.061,2.061,0,0,0-1.139.386l-1.094.806a1.609,1.609,0,0,0-.626.91A1.434,1.434,0,0,0,146.89,158.176Z" transform="translate(26.433 28.981)" fill="#1a3a68"/>
          <path id="Path_428" data-name="Path 428" d="M154.462,169.453a.286.286,0,0,1-.1-.016.275.275,0,0,1-.161-.13.213.213,0,0,1-.008-.191c3.246-7.37-1.137-16.05-1.176-16.136a.215.215,0,0,1-.005-.19.267.267,0,0,1,.153-.138.331.331,0,0,1,.222,0,.272.272,0,0,1,.161.131c.046.088,4.523,8.955,1.195,16.516a.263.263,0,0,1-.109.118A.325.325,0,0,1,154.462,169.453Z" transform="translate(28.364 29.001)" fill="#fff"/>
          <path id="Path_429" data-name="Path 429" d="M148.593,161.2a.33.33,0,0,1-.175-.049.262.262,0,0,1-.105-.13.224.224,0,0,1,.007-.157.259.259,0,0,1,.116-.122l2.851-1.589a.3.3,0,0,1,.1-.036.346.346,0,0,1,.113,0,.321.321,0,0,1,.1.039.291.291,0,0,1,.079.07.215.215,0,0,1,.041.091.2.2,0,0,1,0,.1.214.214,0,0,1-.045.088.247.247,0,0,1-.082.068l-2.848,1.589A.333.333,0,0,1,148.593,161.2Z" transform="translate(27.459 29.628)" fill="#fff"/>
          <path id="Path_430" data-name="Path 430" d="M149.674,163.142a.317.317,0,0,1-.171-.045.259.259,0,0,1-.108-.123.221.221,0,0,1,0-.154.251.251,0,0,1,.1-.126l2.613-1.723a.311.311,0,0,1,.1-.051.339.339,0,0,1,.117-.01.328.328,0,0,1,.113.031.285.285,0,0,1,.09.066.262.262,0,0,1,.051.092.222.222,0,0,1,0,.1.242.242,0,0,1-.042.1.28.28,0,0,1-.083.072l-2.613,1.722A.315.315,0,0,1,149.674,163.142Z" transform="translate(27.676 31.934)" fill="#fff"/>
          <path id="Path_431" data-name="Path 431" d="M131.588,151.225c0,.2-5.225,10-5.225,10l5.939.409,4.039-8.368Z" transform="translate(22.955 28.474)" fill="#fff"/>
          <path id="Path_432" data-name="Path 432" d="M132.373,161.912h-.024l-5.937-.408a.323.323,0,0,1-.132-.037.27.27,0,0,1-.1-.085.221.221,0,0,1-.015-.23c2.019-3.782,5.055-9.524,5.206-9.939a.231.231,0,0,1,.044-.1.252.252,0,0,1,.087-.072.325.325,0,0,1,.138-.037.342.342,0,0,1,.144.026l4.749,2.04a.266.266,0,0,1,.142.136.218.218,0,0,1,0,.183l-4.037,8.367a.264.264,0,0,1-.107.111A.314.314,0,0,1,132.373,161.912Zm-5.5-.878,5.314.365,3.854-7.985-4.226-1.815c-.32.682-1.39,2.774-4.942,9.437Z" transform="translate(22.876 28.452)" fill="#1a3a68"/>
          <path id="Path_433" data-name="Path 433" d="M133.444,158.443s-1.188-2.449-4.276-1.224c0,0-5.667,7.034-7.775,12.842-.595,1.642,1.369,3.122,3.193,2.414,4.271-1.657,10.966-5.135,14.8-11.583a10.311,10.311,0,0,0-3.088-3.877Z" transform="translate(21.483 31.401)" fill="#1a3a68"/>
          <path id="Path_434" data-name="Path 434" d="M122.852,170.487a3.778,3.778,0,0,1-.423-.02.31.31,0,0,1-.191-.1.226.226,0,0,1-.054-.186.243.243,0,0,1,.113-.164.325.325,0,0,1,.216-.046c.066.008,6.375.634,14.926-9.491a.3.3,0,0,1,.189-.1.324.324,0,0,1,.216.045.246.246,0,0,1,.117.162.221.221,0,0,1-.053.186C130.283,169.8,124.442,170.487,122.852,170.487Z" transform="translate(21.803 31.864)" fill="#fff"/>
          <path id="Path_435" data-name="Path 435" d="M127.124,164.65a.339.339,0,0,1-.146-.034l-2.849-1.429a.3.3,0,0,1-.09-.063.25.25,0,0,1-.053-.088.214.214,0,0,1-.008-.1.227.227,0,0,1,.037-.094.266.266,0,0,1,.078-.075.315.315,0,0,1,.1-.042.334.334,0,0,1,.116,0,.322.322,0,0,1,.108.035l2.849,1.429a.264.264,0,0,1,.123.12.224.224,0,0,1,.012.16.26.26,0,0,1-.1.134A.327.327,0,0,1,127.124,164.65Z" transform="translate(22.946 32.174)" fill="#fff"/>
          <path id="Path_436" data-name="Path 436" d="M128.261,163.027a.316.316,0,0,1-.131-.031l-3.089-1.428a.265.265,0,0,1-.14-.148.218.218,0,0,1,.022-.189.287.287,0,0,1,.173-.121.346.346,0,0,1,.221.019l3.088,1.429a.272.272,0,0,1,.129.119.216.216,0,0,1,.016.162.248.248,0,0,1-.1.136.327.327,0,0,1-.179.052Z" transform="translate(23.101 31.96)" fill="#fff"/>
          <path id="Path_437" data-name="Path 437" d="M160.571,107.612s-15.482,2.376-26.637,12.427a9.353,9.353,0,0,0-2.811,4.464,8.37,8.37,0,0,0,.207,5.073c2.483,6.868,7.874,19.415,16.889,28.85l6.889-5.1s-1.663-11.836-6.176-19.185,21.856-23.262,21.856-23.262Z" transform="translate(21.371 21.654)" fill="#fff"/>
          <path id="Path_438" data-name="Path 438" d="M148.289,158.706h-.024a.328.328,0,0,1-.111-.027.276.276,0,0,1-.088-.063c-9.091-9.515-14.518-22.213-16.943-28.935a8.589,8.589,0,0,1-.212-5.2,9.605,9.605,0,0,1,2.882-4.58c11.094-9.994,26.641-12.476,26.8-12.5a.344.344,0,0,1,.152.012l10.213,3.266a.275.275,0,0,1,.127.078.229.229,0,0,1,.061.123.213.213,0,0,1-.022.132.263.263,0,0,1-.1.1c-.261.159-26.105,15.874-21.762,22.944,4.486,7.3,6.19,19.149,6.208,19.268a.221.221,0,0,1-.018.12.259.259,0,0,1-.08.1l-6.888,5.1A.319.319,0,0,1,148.289,158.706ZM160.616,107.9c-1.192.2-15.843,2.827-26.4,12.341a9.116,9.116,0,0,0-2.736,4.35,8.153,8.153,0,0,0,.2,4.94c2.4,6.642,7.734,19.141,16.649,28.569l6.545-4.846c-.2-1.316-1.942-12.156-6.126-18.966-4.3-7.007,17.909-21.1,21.5-23.311Z" transform="translate(21.282 21.631)" fill="#1a3a68"/>
          <path id="Path_439" data-name="Path 439" d="M128.885,159l8.077,2.04s14.725-26.732,19-30.609,12.589-10.2,21.377-12.453,8.788-7.959,8.788-7.959l-14.964-3.673s-20.9,7.755-27.789,16.529S128.885,159,128.885,159Z" transform="translate(13.128 21.566)" fill="#fff"/>
          <path id="Path_440" data-name="Path 440" d="M137.032,161.319a.329.329,0,0,1-.082-.01l-8.077-2.04a.293.293,0,0,1-.169-.113.22.22,0,0,1-.03-.182c.075-.275,7.692-27.486,14.53-36.2,6.856-8.735,27.706-16.542,27.916-16.619a.328.328,0,0,1,.2-.011l14.964,3.673a.3.3,0,0,1,.153.089.226.226,0,0,1,.058.151c0,.059-.1,5.926-8.995,8.2-9.814,2.506-18.747,10.109-21.251,12.381-4.194,3.8-18.8,30.279-18.951,30.545a.253.253,0,0,1-.105.1A.3.3,0,0,1,137.032,161.319Zm-7.729-2.462,7.578,1.908c1.437-2.609,14.833-26.751,18.943-30.483,2.528-2.293,11.553-9.973,21.505-12.515,7.6-1.941,8.469-6.554,8.569-7.534l-14.642-3.591c-1.535.581-21.044,8.091-27.565,16.406C137.239,131.261,130.062,156.19,129.3,158.858Z" transform="translate(13.066 21.543)" fill="#1a3a68"/>
          <path id="Path_441" data-name="Path 441" d="M191.472,92.058A16.363,16.363,0,0,0,180.783,84.1l-11.4-.816c-3.565-.208-7.355,1.683-8.763,4.507l-10.476,21s2.137,4.9,11.639,5.714,16.033.307,19.12,3.571c2.036,2.154,1.971-12.2.8-23.56Z" transform="translate(21.566 16.28)" fill="#fff"/>
          <path id="Path_442" data-name="Path 442" d="M181.357,118.573a.838.838,0,0,1-.609-.309c-2.315-2.447-6.782-2.71-12.968-3.072-1.789-.105-3.818-.224-5.957-.409-9.571-.822-11.791-5.667-11.881-5.874a.209.209,0,0,1,0-.186l10.476-21c1.437-2.871,5.322-4.872,9.049-4.657l11.406.817a16.777,16.777,0,0,1,10.924,8.1.2.2,0,0,1,.03.1.214.214,0,0,1-.024.106.259.259,0,0,1-.074.088.3.3,0,0,1-.109.053l-9.539,2.4c.817,8.077,1.494,23.111-.516,23.808A.649.649,0,0,1,181.357,118.573Zm-30.831-9.751c.347.652,2.859,4.736,11.351,5.466,2.129.183,4.153.3,5.939.407,6.332.371,10.9.641,13.379,3.253.105.113.164.125.164.125.025-.01.9-.393.937-7.951a154.775,154.775,0,0,0-.816-15.552.225.225,0,0,1,.05-.162.289.289,0,0,1,.158-.1l9.433-2.375a16.173,16.173,0,0,0-10.32-7.559l-11.374-.813c-3.489-.2-7.133,1.67-8.473,4.356Z" transform="translate(21.496 16.251)" fill="#1a3a68"/>
          <path id="Path_443" data-name="Path 443" d="M158.359,109.069l5.227-2.04,4.037,1.428s21.885-1.884,12.2-15.2c-.041-.057,7.388-1.86,7.388-1.86s8.829,18.081-19.112,18.488a5.345,5.345,0,0,1-3.325-.408C162.872,108.66,159.551,110.294,158.359,109.069Z" transform="translate(24.183 17.411)" fill="#fff"/>
          <path id="Path_444" data-name="Path 444" d="M167.22,110.266a6.318,6.318,0,0,1-2.5-.537,6.392,6.392,0,0,0-3.062-.059c-1.394.179-2.708.348-3.445-.413a.237.237,0,0,1-.059-.1.207.207,0,0,1,0-.113.221.221,0,0,1,.058-.1.283.283,0,0,1,.1-.069l5.225-2.04a.324.324,0,0,1,.232,0l3.969,1.4c.939-.094,10.85-1.2,13.616-6.042,1.366-2.388.791-5.338-1.706-8.77a.228.228,0,0,1-.042-.11.2.2,0,0,1,.018-.115c.07-.155.086-.191,7.578-2.009a.332.332,0,0,1,.206.015.273.273,0,0,1,.141.129c.034.071,3.41,7.142-.717,12.571-3.052,4.014-9.317,6.12-18.617,6.262A4.309,4.309,0,0,1,167.22,110.266Zm-3.783-1.246a3.878,3.878,0,0,1,1.537.266,5.106,5.106,0,0,0,3.105.4.33.33,0,0,1,.087-.012c9.12-.134,15.237-2.165,18.181-6.037,3.574-4.7,1.268-10.72.761-11.9-2.417.588-5.758,1.41-6.78,1.688,2.45,3.478,2.971,6.507,1.547,8.995-3.034,5.309-13.7,6.282-14.15,6.325a.341.341,0,0,1-.14-.018l-3.92-1.388-4.686,1.831a5.511,5.511,0,0,0,2.592.019A14.9,14.9,0,0,1,163.437,109.021Z" transform="translate(24.114 17.382)" fill="#1a3a68"/>
          <path id="Path_445" data-name="Path 445" d="M146.865,110.911h20.6L152.195,90.729a2.515,2.515,0,0,0-.952-.744,2.971,2.971,0,0,0-1.25-.266H133.271c-1.063,0-1.708.977-1.141,1.727Z" transform="translate(21.946 17.158)" fill="#1a3a68"/>
          <path id="Path_446" data-name="Path 446" d="M144.424,97.372c.426-.564-.218-1.573-1.439-2.255s-2.558-.778-2.984-.215.216,1.573,1.439,2.255S144,97.935,144.424,97.372Z" transform="translate(25.805 17.628)" fill="#fff"/>
          <path id="Path_447" data-name="Path 447" d="M143.508,98.034a4.813,4.813,0,0,1-3.458-1.715,1.268,1.268,0,0,1-.251-1.445,1.446,1.446,0,0,1,1.286-.542,4.817,4.817,0,0,1,3.457,1.715,1.266,1.266,0,0,1,.251,1.445A1.444,1.444,0,0,1,143.508,98.034Zm-2.423-3.2a.9.9,0,0,0-.775.28c-.14.224-.057.561.227.936a4.276,4.276,0,0,0,2.972,1.489.885.885,0,0,0,.774-.282c.14-.224.057-.561-.225-.936A4.282,4.282,0,0,0,141.085,94.831Z" transform="translate(25.725 17.602)" fill="#1a3a68"/>
          <path id="Path_448" data-name="Path 448" d="M176.416,109.964H144.723a1.654,1.654,0,0,1-1.076-.384,1.218,1.218,0,0,1-.446-.924v-.336h34.74v.336a1.149,1.149,0,0,1-.116.5,1.326,1.326,0,0,1-.331.425,1.578,1.578,0,0,1-.494.283A1.755,1.755,0,0,1,176.416,109.964Z" transform="translate(20.081 20.158)" fill="#1a3a68"/>
          <path id="Path_449" data-name="Path 449" d="M181.9,41.868c8.722-2.366,20,8.385,17.729,17.228-.626,2.44.067,6.128-3.044,7.475-5.519,2.39-8.992-.5-10.41,1.418-1.228,1.666,3.135,4.067,2.613,7.55-.785,5.176-11.6,7.676-12.827,7.959-.915.212-13.826,3.045-19.952-2.856-1.474-1.421-3.411-4.171-2.375-5.918.986-1.666,4.015-1.308,4.749-3.062.637-1.518-1.392-2.368-1.187-4.081.392-3.3,8.338-3.478,9.264-6.938.737-2.77-3.876-4.4-3.089-7.142.637-2.214,3.958-2.272,9.264-5.1C178.991,45.01,178.6,42.764,181.9,41.868Z" transform="translate(22.587 8.233)" fill="#1a3a68"/>
          <path id="Path_450" data-name="Path 450" d="M170.758,83.713c-.212-.091-3.07-2.988-4.741-4.694a3.2,3.2,0,0,0,.061-1.346,1.682,1.682,0,0,0,.523-1.713c-.4-1.122-1.648-.224-1.648-.224s-.576-.865-2.743.627-4.455-.323-4.455-.323a4.236,4.236,0,0,0,1.146,2.475,4.208,4.208,0,0,1,.767,2.665l1.213-.15a4.845,4.845,0,0,0,2.083,1.34,3.83,3.83,0,0,0,1.478-.65l1.33,2.6-1.357.611s-.307,1.634,3.257,2.041a9.269,9.269,0,0,0,6.413-2.041S172.184,84.325,170.758,83.713Z" transform="translate(26.185 14.22)" fill="#fff"/>
          <path id="Path_451" data-name="Path 451" d="M168.56,87.3a7.712,7.712,0,0,1-.857-.048,4.793,4.793,0,0,1-3.118-1.224,1.408,1.408,0,0,1-.386-1.1.239.239,0,0,1,.051-.106.281.281,0,0,1,.1-.075l1.115-.5-1.072-2.1a4.068,4.068,0,0,1-1.307.5.333.333,0,0,1-.163-.015,5.011,5.011,0,0,1-2.09-1.3l-1.056.131a.342.342,0,0,1-.12-.008.321.321,0,0,1-.108-.048.249.249,0,0,1-.074-.083.216.216,0,0,1-.029-.1,3.988,3.988,0,0,0-.712-2.525,4.451,4.451,0,0,1-1.2-2.621.223.223,0,0,1,.049-.134.277.277,0,0,1,.125-.09.336.336,0,0,1,.165-.018.316.316,0,0,1,.149.062c.086.068,2.135,1.649,4.076.312a3.783,3.783,0,0,1,2.524-.91,1.157,1.157,0,0,1,.427.153,1.691,1.691,0,0,1,1.176-.233,1.025,1.025,0,0,1,.723.708,1.834,1.834,0,0,1-.5,1.877v.01a3.339,3.339,0,0,1-.046,1.176c3.811,3.887,4.464,4.465,4.573,4.547,1.394.6,3.266,1.2,3.279,1.2a.3.3,0,0,1,.117.071.229.229,0,0,1,.063.11.208.208,0,0,1-.005.123.24.24,0,0,1-.073.106A9.728,9.728,0,0,1,168.56,87.3Zm-3.789-2.183a1.084,1.084,0,0,0,.293.627,4.337,4.337,0,0,0,2.717,1.01,8.8,8.8,0,0,0,5.827-1.707c-.653-.224-1.9-.656-2.906-1.087-.1-.041-.3-.129-4.834-4.757a.225.225,0,0,1-.061-.1.211.211,0,0,1,0-.115,2.794,2.794,0,0,0,.063-1.159l-.008-.112a.212.212,0,0,1,.018-.1.266.266,0,0,1,.066-.087,1.426,1.426,0,0,0,.447-1.459.537.537,0,0,0-.331-.377,1.314,1.314,0,0,0-.852.272.3.3,0,0,1-.112.05.334.334,0,0,1-.125,0,.327.327,0,0,1-.117-.041.275.275,0,0,1-.086-.08.456.456,0,0,0-.282-.112,3.215,3.215,0,0,0-2.025.813,3.99,3.99,0,0,1-4.244.037,4.885,4.885,0,0,0,.988,1.775,4.108,4.108,0,0,1,.811,2.523l.894-.112a.331.331,0,0,1,.144.014.3.3,0,0,1,.119.072,4.428,4.428,0,0,0,1.885,1.234,3.691,3.691,0,0,0,1.267-.58.321.321,0,0,1,.12-.051.336.336,0,0,1,.133,0,.309.309,0,0,1,.119.051.248.248,0,0,1,.079.091l1.332,2.6a.222.222,0,0,1,.008.183.271.271,0,0,1-.138.139Z" transform="translate(26.104 14.189)" fill="#1a3a68"/>
          <path id="Path_452" data-name="Path 452" d="M162.9,81.3a.329.329,0,0,1-.165-.044.265.265,0,0,1-.107-.116.211.211,0,0,1-.011-.147.241.241,0,0,1,.087-.127l.393-.3a.289.289,0,0,1,.1-.05.332.332,0,0,1,.112-.014.326.326,0,0,1,.109.024.293.293,0,0,1,.092.058.257.257,0,0,1,.058.084.222.222,0,0,1,.017.1.2.2,0,0,1-.028.095.257.257,0,0,1-.067.079l-.392.3A.324.324,0,0,1,162.9,81.3Z" transform="translate(23.868 14.963)" fill="#1a3a68"/>
          <path id="Path_453" data-name="Path 453" d="M78.955,51.5,66.206,76.855l11.272-3.2,6.22,8.7,7.649-27.08Z" transform="translate(11.43 10)" fill="#fff"/>
          <path id="Path_454" data-name="Path 454" d="M83.767,82.641a.329.329,0,0,1-.141-.032.278.278,0,0,1-.106-.087l-6.1-8.534L66.367,77.121a.336.336,0,0,1-.165.005.3.3,0,0,1-.142-.073.237.237,0,0,1-.072-.128.216.216,0,0,1,.021-.141L78.759,51.43a.273.273,0,0,1,.15-.129.334.334,0,0,1,.213-.006L91.513,55.07a.282.282,0,0,1,.159.116.218.218,0,0,1,.027.178L84.054,82.45a.245.245,0,0,1-.085.124.313.313,0,0,1-.151.063A.306.306,0,0,1,83.767,82.641Zm-6.22-9.2a.331.331,0,0,1,.142.032.279.279,0,0,1,.106.087l5.854,8.19,7.423-26.28L79.185,51.846,66.8,76.474l10.658-3.021a.36.36,0,0,1,.09-.012Z" transform="translate(11.368 9.965)" fill="#1a3a68"/>
          <path id="Path_455" data-name="Path 455" d="M84.39,56.112l8.723,26.58,6.4-8.588,11.216,3.38L96.779,52.327Z" transform="translate(14.52 10.152)" fill="#fff"/>
          <path id="Path_456" data-name="Path 456" d="M93.183,82.97h-.042a.312.312,0,0,1-.149-.06.247.247,0,0,1-.087-.12l-8.723-26.58a.217.217,0,0,1,.021-.182.28.28,0,0,1,.16-.12l12.387-3.786a.337.337,0,0,1,.209,0,.279.279,0,0,1,.152.123l13.95,25.158a.218.218,0,0,1,.025.143.244.244,0,0,1-.073.131.291.291,0,0,1-.142.075.332.332,0,0,1-.167-.007l-11-3.315-6.271,8.422a.285.285,0,0,1-.109.084A.335.335,0,0,1,93.183,82.97ZM84.814,56.3l8.471,25.819L99.336,74a.289.289,0,0,1,.15-.1.337.337,0,0,1,.191,0l10.557,3.183L96.7,52.666Z" transform="translate(14.452 10.118)" fill="#1a3a68"/>
          <path id="Path_457" data-name="Path 457" d="M115.548,48.258l-3.482,3.627,1.607,4.494-4.836,2.2-.523,4.681-5.448.45L100.3,67.865l-5.232-1.38L90.85,69.476l-4.222-2.991L81.4,67.865,78.834,63.71l-5.446-.449-.523-4.681-4.836-2.2,1.606-4.494-3.48-3.627,3.48-3.628-1.606-4.494,4.836-2.2.523-4.681,5.448-.449L81.4,28.649l5.232,1.38,4.222-2.99,4.222,2.99,5.232-1.38,2.562,4.155,5.448.449.523,4.681,4.836,2.2-1.607,4.494Z" transform="translate(10.334 3.577)" fill="#1a3a68"/>
          <path id="Path_458" data-name="Path 458" d="M89,62.672c9.658,0,17.488-6.727,17.488-15.024S98.653,32.623,89,32.623,71.507,39.349,71.507,47.647,79.337,62.672,89,62.672Z" transform="translate(11.903 6.326)" fill="#fff"/>
          <path id="Path_459" data-name="Path 459" d="M89.066,62.951c-9.8,0-17.778-6.853-17.778-15.273S79.257,32.4,89.066,32.4s17.778,6.853,17.778,15.275S98.868,62.951,89.066,62.951Zm0-30.049c-9.483,0-17.2,6.628-17.2,14.775s7.714,14.774,17.2,14.774,17.2-6.628,17.2-14.774S98.548,32.9,89.066,32.9Z" transform="translate(11.838 6.288)" fill="#1a3a68"/>
          <path id="Path_460" data-name="Path 460" d="M85.958,54.121a1,1,0,0,1-.34-.058.89.89,0,0,1-.287-.167L78.614,47.9a.754.754,0,0,1-.2-.246.652.652,0,0,1,0-.585.757.757,0,0,1,.2-.246.9.9,0,0,1,.294-.16,1,1,0,0,1,.343-.049.989.989,0,0,1,.338.07.874.874,0,0,1,.279.178L85.845,52.2l8.592-10.732a.824.824,0,0,1,.243-.2A.958.958,0,0,1,95,41.154a1.011,1.011,0,0,1,.34,0,.949.949,0,0,1,.312.115.815.815,0,0,1,.237.209.692.692,0,0,1,.126.271.646.646,0,0,1,0,.292.7.7,0,0,1-.134.268L86.678,53.8a.831.831,0,0,1-.28.224.974.974,0,0,1-.365.1C86.007,54.124,85.983,54.123,85.958,54.121Z" transform="translate(13.88 7.774)" fill="#1a3a68"/>
          <path id="Path_461" data-name="Path 461" d="M139.858,44.395l-3.191.423L134.6,42.893a.919.919,0,0,0-1.446.371l-.691,2.63-2.969,1.154c-.638.248-.7.979-.108,1.234l2.765,1.2.231,2.638c.05.568.865.8,1.38.395l2.4-1.887,3.113.476c.668.1,1.237-.485.961-.994l-1.283-2.368,1.7-2.344a.581.581,0,0,0-.007-.729.753.753,0,0,0-.344-.24A.883.883,0,0,0,139.858,44.395Z" transform="translate(23.303 8.032)" fill="#1a3a68"/>
          <path id="Path_462" data-name="Path 462" d="M149.292,39.192l-3.135.534-2.112-1.878a.9.9,0,0,0-1.416.423l-.585,2.681-2.886,1.265a.661.661,0,0,0-.062,1.255l2.775,1.122.324,2.66a.827.827,0,0,0,1.379.354l2.3-1.988,3.093.379c.665.081,1.2-.532.914-1.038l-1.354-2.356,1.587-2.425a.588.588,0,0,0,.113-.368.6.6,0,0,0-.142-.36.76.76,0,0,0-.351-.233A.885.885,0,0,0,149.292,39.192Z" transform="translate(25.077 7.087)" fill="#1a3a68"/>
          <path id="Path_463" data-name="Path 463" d="M159.6,34.9l-3.105.412-1.975-2a.874.874,0,0,0-1.411.371l-.712,2.7-2.9,1.166a.683.683,0,0,0-.131,1.275l2.665,1.259.182,2.718a.8.8,0,0,0,1.333.417l2.36-1.925,3.013.515c.654.112,1.21-.489.951-1.016l-1.208-2.449,1.681-2.4C160.714,35.426,160.271,34.808,159.6,34.9Z" transform="translate(26.951 6.229)" fill="#1a3a68"/>
          <path id="Path_464" data-name="Path 464" d="M169.51,30.65l-3.081.524-2.07-1.926a.87.87,0,0,0-1.394.422l-.579,2.726-2.843,1.264a.679.679,0,0,0-.061,1.278l2.724,1.162.312,2.709a.807.807,0,0,0,1.355.369l2.263-2.009,3.037.406c.653.088,1.183-.533.9-1.05l-1.325-2.4,1.568-2.459C170.644,31.139,170.173,30.537,169.51,30.65Z" transform="translate(28.789 3.842)" fill="#1a3a68"/>
        </g>
      </g>
    </g>
  </g>
</svg>
