<svg xmlns="http://www.w3.org/2000/svg" width="391.361" height="248.384" viewBox="0 0 391.361 248.384">
  <g id="Group_31" data-name="Group 31" transform="translate(-738.819 -1488.491)">
    <path id="Path_181" data-name="Path 181" d="M183.183,1609.6l2.3-2.677,2.96-2.434,4.933-1.7,367.025-65.95h5.426l5.262,1.937,3.454,3.9v191.035H183.183Z" transform="translate(555.636 3.166)" fill="#fff"/>
    <circle id="Ellipse_11" data-name="Ellipse 11" cx="12" cy="12" r="12" transform="translate(1091 1562)" fill="#404040"/>
    <g id="Group_30" data-name="Group 30" transform="translate(811.665 1488.491)">
      <path id="Path_260" data-name="Path 260" d="M242.793,46.033a11.307,11.307,0,0,0-8.5-3.879h-3.965a11.684,11.684,0,0,0-3.671-.6H212.673l5.663-5.112a6.663,6.663,0,0,0-7.372-10.95,8.269,8.269,0,0,0,3.146-3.341,8.988,8.988,0,0,0,.726-6.244,8.614,8.614,0,1,0-13.144-6.244,6.708,6.708,0,0,0-1.528,5.922,8.9,8.9,0,0,0-2.314,2.392,9.193,9.193,0,0,0-1.373,6.619,8.489,8.489,0,0,0-4.158,4.063,8.8,8.8,0,0,0-.89,3.311l-2.964-5.319a13.94,13.94,0,0,0-24.37,0l-2.13,3.819.092-.869a7.048,7.048,0,0,0-1.019-4.454,7.068,7.068,0,0,0-.518-4.465l-.691-1.47a7.125,7.125,0,0,0-3.155-3.279,7.1,7.1,0,0,0-2.615-3.65L152.7,11.3a7.073,7.073,0,0,0-4.173-1.353h-.142a7.12,7.12,0,0,0-4.031-2.018l-1.667-.236a7.235,7.235,0,0,0-1-.07,7.021,7.021,0,0,1-5.449.58,7.016,7.016,0,0,0-2.5.456l-1.528.576a7,7,0,0,0-3.485,2.844,6.982,6.982,0,0,0-3.81,2.463l-.977,1.236a7,7,0,0,0-1.456,5.248,7,7,0,0,0-2.985,5.172l-.127,1.571a7.049,7.049,0,0,0,1.105,4.427,7.066,7.066,0,0,0,.6,4.454l.721,1.46a7.119,7.119,0,0,0,3.11,3.159l-62.21.293H56.872c1.1-.822,2.065-1.494,2.065-1.494a85.466,85.466,0,0,1,21.8-11.29,6.65,6.65,0,0,0,4.214-4.442,8.665,8.665,0,0,0,6.514.07,6.614,6.614,0,0,0,6.967-.1,6.656,6.656,0,0,0,8.141-6.34,6.69,6.69,0,0,0-1.039-3.745,6.655,6.655,0,0,0-6.316-8.178,6.621,6.621,0,0,0-3.732,1.051,6.609,6.609,0,0,0-4.777.7,8.741,8.741,0,0,0-8.573,2.189c-.148-.01-.3-.017-.447-.017a6.6,6.6,0,0,0-1.772.243A106.592,106.592,0,0,0,37.65,33.428,6.7,6.7,0,0,0,36.17,41.56H27.02a9.331,9.331,0,0,0-6.041,2.27,10.276,10.276,0,0,0-3.962,6.858L.129,181.267a10.254,10.254,0,0,0,10.15,11.594h.011l25.774-.046h.071c.2,1.974.382,3.882.544,5.705a8.042,8.042,0,0,0-6.023,7.174L30.4,209.11a14.145,14.145,0,0,1-.4,2.419c-1.683,6.6-1.222,9.467-.637,11.222a27.318,27.318,0,0,0,4.673,7.687,8.554,8.554,0,0,0,9.581,2.54q1.058-.4,2.009-.843a9.329,9.329,0,0,0,2.469,5.6,27.934,27.934,0,0,0,14.146,7.541,31.131,31.131,0,0,0,5.994.7,11.011,11.011,0,0,0,7.639-2.556c2.41-2.12,3.513-5.146,3.276-8.992a9.822,9.822,0,0,0-.509-2.568,8.033,8.033,0,0,0,2.392.363h40.7a20.146,20.146,0,0,0,7.84-1.622l3.517-1.486a11.263,11.263,0,0,0,7.706,3.928l5.244.384q.336.357.691.709a34.831,34.831,0,0,0,11.656,7.217,78.168,78.168,0,0,0,21.451,4.68c4.484.416,9.158.628,13.9.631h.459a43.889,43.889,0,0,0,12.4-1.956,38.579,38.579,0,0,0,19.072-12.581c6.391-7.866,9.647-18.375,9.676-31.239a102.5,102.5,0,0,0-1.044-20.026c.811-3.638.458-6.774-1.056-9.329a9.5,9.5,0,0,0-1.508-1.935q-.279-.881-.577-1.739L245.614,55.4a11.924,11.924,0,0,0-2.82-9.372Z" transform="translate(-0.044 0)" fill="#1f2f5c"/>
      <path id="Path_261" data-name="Path 261" d="M237.048,48.943a10.954,10.954,0,0,0-8.217-3.733H225a11.346,11.346,0,0,0-3.549-.576H207.928l5.475-4.92a6.423,6.423,0,0,0-7.127-10.538,7.956,7.956,0,0,0,3.041-3.215,8.606,8.606,0,0,0,.7-6.009,8.306,8.306,0,1,0-12.707-6.009,6.437,6.437,0,0,0-1.478,5.7,8.6,8.6,0,0,0-2.238,2.3,8.812,8.812,0,0,0-1.327,6.37,8.191,8.191,0,0,0-4.02,3.91,8.45,8.45,0,0,0-.861,3.187l-2.865-5.119a13.5,13.5,0,0,0-23.56,0l-2.059,3.675.089-.836a6.767,6.767,0,0,0-.985-4.286,6.78,6.78,0,0,0-.5-4.3l-.668-1.414a6.872,6.872,0,0,0-3.05-3.156,6.831,6.831,0,0,0-2.529-3.513l-1.312-.946a6.859,6.859,0,0,0-4.034-1.3h-.138a6.89,6.89,0,0,0-3.9-1.942l-1.613-.227a7,7,0,0,0-.963-.068,6.819,6.819,0,0,1-5.269.558,6.806,6.806,0,0,0-2.413.439l-1.478.555a6.767,6.767,0,0,0-3.368,2.737,6.763,6.763,0,0,0-3.685,2.37l-.944,1.189a6.716,6.716,0,0,0-1.407,5.05,6.726,6.726,0,0,0-2.886,4.977l-.123,1.512a6.76,6.76,0,0,0,1.068,4.26,6.771,6.771,0,0,0,.583,4.286l.7,1.4a6.87,6.87,0,0,0,3.006,3.04l-60.142.282H57.306c1.061-.791,2-1.438,2-1.438A82.768,82.768,0,0,1,80.38,32.337a6.413,6.413,0,0,0,4.074-4.275,8.413,8.413,0,0,0,6.3.068,6.42,6.42,0,0,0,6.735-.1,6.42,6.42,0,0,0,6.866-9.705,6.419,6.419,0,0,0-9.714-6.858,6.414,6.414,0,0,0-4.618.675,8.478,8.478,0,0,0-8.288,2.107c-.143-.01-.287-.016-.432-.016a6.4,6.4,0,0,0-1.713.234A103.191,103.191,0,0,0,38.722,36.813a6.429,6.429,0,0,0-1.43,7.826H28.446a9.044,9.044,0,0,0-5.84,2.184,9.879,9.879,0,0,0-3.83,6.6L2.448,179.085a9.9,9.9,0,0,0,9.812,11.158h.011l24.917-.044h.069c.2,1.9.369,3.734.526,5.49a7.751,7.751,0,0,0-5.823,6.9l-.246,3.286a13.555,13.555,0,0,1-.386,2.329c-1.627,6.356-1.182,9.109-.615,10.8a26.262,26.262,0,0,0,4.517,7.4,8.294,8.294,0,0,0,9.262,2.445q1.023-.384,1.942-.812a8.96,8.96,0,0,0,2.387,5.386A27.041,27.041,0,0,0,62.5,240.679a30.158,30.158,0,0,0,5.795.672,10.677,10.677,0,0,0,7.385-2.46c2.33-2.041,3.4-4.951,3.167-8.654a9.414,9.414,0,0,0-.492-2.471,7.8,7.8,0,0,0,2.313.349h39.345a19.571,19.571,0,0,0,7.58-1.56l3.4-1.431a10.906,10.906,0,0,0,7.451,3.78l5.069.37c.217.229.439.457.668.682a33.679,33.679,0,0,0,11.269,6.945,75.845,75.845,0,0,0,20.738,4.5c4.335.4,8.854.6,13.44.607h.445a42.639,42.639,0,0,0,11.988-1.882,37.311,37.311,0,0,0,18.438-12.107c6.179-7.57,9.326-17.684,9.354-30.063a98.2,98.2,0,0,0-1.008-19.272c.783-3.5.442-6.519-1.021-8.979a9.1,9.1,0,0,0-1.458-1.862q-.27-.849-.556-1.673L239.775,57.962a11.447,11.447,0,0,0-2.726-9.019Z" transform="translate(-0.044 0)" fill="#fff"/>
      <path id="Path_262" data-name="Path 262" d="M124.73,134.119l-37.718.237c-.245,0-.326.227-.326.445v32.1c0,3.072-21.433,11.056-21.642,10.647l-.026,3.4a1.241,1.241,0,0,0,1.263,1.194H98.392a11.071,11.071,0,0,0,4.246-.885l17.389-7.323a7.973,7.973,0,0,0,5.106-7.237V134.568A.433.433,0,0,0,124.73,134.119Z" transform="translate(19.958 43.503)" fill="#1a3a68"/>
      <path id="Path_263" data-name="Path 263" d="M82.861,132.487v32.1A8.2,8.2,0,0,1,77.625,172L65.893,177.01a.7.7,0,0,0,.345,1.354H98.47a10.832,10.832,0,0,0,4.192-.838l13-5.472a8.21,8.21,0,0,0,5.281-7.434V132.487a.257.257,0,0,0-.085-.174.251.251,0,0,0-.183-.064H83.128a.254.254,0,0,0-.267.238Z" transform="translate(19.454 43.503)" fill="#fff"/>
      <path id="Path_264" data-name="Path 264" d="M98.47,178.586H66.238a.98.98,0,0,1-1-.764.893.893,0,0,1,.572-1.016l11.73-5.007a8.019,8.019,0,0,0,5.1-7.211v-32.1a.474.474,0,0,1,.489-.46h37.544a.475.475,0,0,1,.49.46V164.62a8.456,8.456,0,0,1-5.418,7.635l-13,5.472A11.108,11.108,0,0,1,98.47,178.586Zm-15.387-46.1v32.1a8.459,8.459,0,0,1-5.371,7.618l-11.731,5.008a.456.456,0,0,0-.31.519.544.544,0,0,0,.567.409H98.47a10.65,10.65,0,0,0,4.1-.821l13-5.472a8.021,8.021,0,0,0,5.145-7.233V132.483a.067.067,0,0,0-.021-.013.052.052,0,0,0-.025,0H83.129a.044.044,0,0,0-.025.005A.048.048,0,0,0,83.083,132.488Z" transform="translate(19.446 43.503)" fill="#1a3a68"/>
      <path id="Path_265" data-name="Path 265" d="M12.589,150.238l193.052.336,3.352.006,6.232.011a3.34,3.34,0,0,0,3.452-2.505L234.817,47.555c.393-2.446-1.844-4.756-4.932-4.756l-200.013.145Z" transform="translate(-0.044 19.524)" fill="#1a3a68"/>
      <path id="Path_266" data-name="Path 266" d="M223.67,42.331c3.482,0,6.314,2.813,5.869,5.6L213.28,148.51a2.711,2.711,0,0,1-1.165,1.766,4.053,4.053,0,0,1-2.327.707l-1.525.048-197.128-.048a4.265,4.265,0,0,1-1.453-.253,3.569,3.569,0,0,1-1.194-.712,2.734,2.734,0,0,1-.723-1.043,2.3,2.3,0,0,1-.124-1.19L24.228,45.158a3.468,3.468,0,0,1,3.351-2.827Z" transform="translate(-0.044 19.496)" fill="#fff"/>
      <path id="Path_267" data-name="Path 267" d="M218.323,46.989c3.3,0,5.987,2.556,5.563,5.081L208.47,143.342a3.168,3.168,0,0,1-3.312,2.245l-1.445.043-186.884-.043c-2.013,0-3.568-1.364-3.311-2.9L29.246,49.555a3.249,3.249,0,0,1,3.178-2.565Z" transform="translate(-0.044 19.559)" fill="#fff"/>
      <path id="Path_268" data-name="Path 268" d="M203.673,145.851l-186.791-.042a4.485,4.485,0,0,1-1.509-.255,3.728,3.728,0,0,1-1.242-.725,2.671,2.671,0,0,1-.714-1.016,2.214,2.214,0,0,1-.122-1.159l15.72-93.129a3.5,3.5,0,0,1,3.453-2.757h185.8a6.526,6.526,0,0,1,4.34,1.626,4.118,4.118,0,0,1,1.5,3.7L208.7,143.372c-.232,1.389-1.773,2.437-3.587,2.437ZM32.469,47.21a3,3,0,0,0-2.9,2.373l-15.72,93.13a1.828,1.828,0,0,0,.1.973,2.2,2.2,0,0,0,.6.85,3.151,3.151,0,0,0,1.052.614,3.8,3.8,0,0,0,1.278.215l186.779.042,1.434-.042a2.906,2.906,0,0,0,3.041-2.052L223.546,52.04a3.737,3.737,0,0,0-1.363-3.354,5.9,5.9,0,0,0-3.92-1.476Z" transform="translate(-0.044 19.549)" fill="#1a3a68"/>
      <path id="Path_269" data-name="Path 269" d="M176.243,122.965h-.029a.22.22,0,0,1-.192-.248L185.653,47.9a4.42,4.42,0,0,0-4.38-5l-18.946-.017a.222.222,0,1,1,0-.444l18.945.017a4.867,4.867,0,0,1,4.822,5.5l-9.628,74.813a.221.221,0,0,1-.075.14A.218.218,0,0,1,176.243,122.965Z" transform="translate(43.633 15.057)" fill="#1a3a68"/>
      <path id="Path_270" data-name="Path 270" d="M67.157,151.1a.222.222,0,0,1-.222-.222.222.222,0,0,1,.222-.222l38.6-.069a.222.222,0,0,1,.222.222.222.222,0,0,1-.222.222Z" transform="translate(17.885 32.328)" fill="#1a3a68"/>
      <path id="Path_271" data-name="Path 271" d="M10.439,151.205a3.055,3.055,0,0,1-3.027-3.449L20.739,45.13a3.058,3.058,0,0,1,3.026-2.667l98.4-.461a.221.221,0,0,1,.086.015.207.207,0,0,1,.072.048.214.214,0,0,1,.048.073.21.21,0,0,1,.016.086.224.224,0,0,1-.016.085.215.215,0,0,1-.048.072.218.218,0,0,1-.156.066l-98.408.461a2.612,2.612,0,0,0-2.587,2.279L7.857,147.813a2.61,2.61,0,0,0,2.586,2.949l20.336-.037a.222.222,0,0,1,.222.222.222.222,0,0,1-.222.222Z" transform="translate(-0.044 19.448)" fill="#1a3a68"/>
      <path id="Path_272" data-name="Path 272" d="M99.994,50.918,90.582,62.389l13.642,25.288-30.28,23.957L90.2,141.527a.2.2,0,0,0,.115.081.2.2,0,0,0,.242-.257L77.937,112.965l12.644-11.312,6.321,7.653-6.655,14.307,8.315-12.976,10.648,11.313L93.24,100.987l15.305-12.311L94.571,63.055l5.8-11.892a.224.224,0,0,0,.01-.157.228.228,0,0,0-.387-.088Z" transform="translate(19.316 19.681)" fill="#1a3a68"/>
      <path id="Path_273" data-name="Path 273" d="M98.1,94.69,116.867,95l9.36,6.335a1.292,1.292,0,0,0,.994.195l22.811-4.8a.129.129,0,0,1,.149.1.129.129,0,0,1-.087.154l-23.312,7.377a1.87,1.87,0,0,1-1.708-.3l-9.208-7.059-17.324-.75C97.99,96.281,97.55,94.762,98.1,94.69Z" transform="translate(28.5 21.299)" fill="#1a3a68"/>
      <path id="Path_274" data-name="Path 274" d="M91.854,63.447,81.375,58.5,88.03,47.857,84.7,57.506l10.11,3.87Z" transform="translate(18.796 11.1)" fill="#1a3a68"/>
      <path id="Path_275" data-name="Path 275" d="M170.591,71.307,146.449,28.153a5.772,5.772,0,0,0-10.074,0L112.233,71.307A5.771,5.771,0,0,0,117.27,79.9h48.285A5.771,5.771,0,0,0,170.591,71.307Z" transform="translate(34.199 0)" fill="#fff"/>
      <path id="Path_276" data-name="Path 276" d="M165.555,80.117H117.27a5.994,5.994,0,0,1-5.231-8.919l24.142-43.154a5.995,5.995,0,0,1,10.462,0L170.786,71.2a5.993,5.993,0,0,1-5.23,8.919Zm-24.143-54.7a5.483,5.483,0,0,0-4.843,2.84L112.425,71.415a5.55,5.55,0,0,0,4.844,8.259h48.285a5.548,5.548,0,0,0,4.842-8.259L146.255,28.261a5.481,5.481,0,0,0-4.843-2.84Z" transform="translate(34.237 0)" fill="#1a3a68"/>
      <path id="Path_277" data-name="Path 277" d="M124.156,62.052a.225.225,0,0,1-.111-.029.23.23,0,0,1-.081-.08.218.218,0,0,1,0-.221L139.6,33.773a2.079,2.079,0,0,1,3.629,0l1.673,2.992a.228.228,0,0,1,.032.084.243.243,0,0,1,0,.089.238.238,0,0,1-.039.08.235.235,0,0,1-.068.059.221.221,0,0,1-.252-.024.215.215,0,0,1-.055-.07l-1.675-2.992a1.636,1.636,0,0,0-2.854,0L124.35,61.943a.232.232,0,0,1-.083.08A.223.223,0,0,1,124.156,62.052Z" transform="translate(29.853 8.187)" fill="#1a3a68"/>
      <path id="Path_278" data-name="Path 278" d="M150.585,47.6a.225.225,0,0,1-.113-.03.218.218,0,0,1-.081-.083l-3.268-5.842a.224.224,0,0,1-.019-.168.221.221,0,0,1,.273-.153.222.222,0,0,1,.133.105l3.269,5.847a.227.227,0,0,1,0,.22.23.23,0,0,1-.081.08.225.225,0,0,1-.11.029Z" transform="translate(32.348 9.13)" fill="#1a3a68"/>
      <path id="Path_279" data-name="Path 279" d="M162.373,74.332h-10.61a.222.222,0,0,1,0-.443h10.61a1.636,1.636,0,0,0,1.427-2.434.227.227,0,0,1-.031-.084.224.224,0,0,1,0-.089.239.239,0,0,1,.039-.08.212.212,0,0,1,.068-.058.219.219,0,0,1,.085-.027.224.224,0,0,1,.089.009.229.229,0,0,1,.078.043.215.215,0,0,1,.055.07,2.079,2.079,0,0,1-1.814,3.094Z" transform="translate(34.952 15.473)" fill="#1a3a68"/>
      <path id="Path_280" data-name="Path 280" d="M147.316,74.332H120.452a2.077,2.077,0,0,1-1.814-3.094l2.813-5.022a.218.218,0,0,1,.133-.105.222.222,0,0,1,.254.322l-2.812,5.023a1.635,1.635,0,0,0,1.427,2.434h26.864a.222.222,0,0,1,.167.384.227.227,0,0,1-.077.047.223.223,0,0,1-.09.012Z" transform="translate(29.863 14.753)" fill="#1a3a68"/>
      <path id="Path_281" data-name="Path 281" d="M144.487,69.031a3.138,3.138,0,1,0-3.634,2.546A3.138,3.138,0,0,0,144.487,69.031Z" transform="translate(30.801 14.44)" fill="#1a3a68"/>
      <path id="Path_282" data-name="Path 282" d="M141.95,41.539h-1.076a2.667,2.667,0,0,0-2.665,2.758l.539,15.427a2.666,2.666,0,0,0,5.329,0l.538-15.427a2.67,2.67,0,0,0-.747-1.945,2.665,2.665,0,0,0-1.918-.814Z" transform="translate(30.81 9.907)" fill="#1a3a68"/>
      <path id="Path_283" data-name="Path 283" d="M182.784,162.349c0,20.1-10.895,27.156-18.973,29.622H150.359v-3.19c.129.088.262.173.4.259,8.432-3.576,14.638-12.852,14.638-28.437,0-17.719-5.116-31.287-15.037-34.7v-3.026h15.02C185.14,128.192,182.784,162.349,182.784,162.349Z" transform="translate(43.633 43.503)" fill="#1a3a68"/>
      <path id="Path_284" data-name="Path 284" d="M165.379,122.908a21.061,21.061,0,0,0-5.489-.66H145.224a66.065,66.065,0,0,0-10.7,1.531,61.683,61.683,0,0,0-12.314,3.989l-1.633.727a3.488,3.488,0,0,0-2.077,3.179l29.2-1.114v-3.184s-.093-.818,2.624-1.481l.027,0a29.632,29.632,0,0,1,4.754-.65c1.531-.108,3.381-.173,5.612-.173,13.293,0,20.184,14.967,20.184,35.535s-10.8,30.14-23.262,30.14a14.838,14.838,0,0,1-4.637-.673,10.466,10.466,0,0,1-2.246-1.029c-.137-.085-.27-.216-.4-.3-4.886-3.352-4.53-9.87-4.53-9.87H118.581s-.184,11.491,26.132,13.925c3.131.29,6.637.474,10.562.474a28.47,28.47,0,0,0,8.538-1.306c8.077-2.466,18.973-9.5,18.973-29.6C182.784,162.36,185.14,128.224,165.379,122.908Z" transform="translate(43.633 43.503)" fill="#fff"/>
      <path id="Path_285" data-name="Path 285" d="M155.56,193.49h-.3c-3.6,0-7.162-.16-10.568-.476-13.661-1.262-20.084-5.013-23.068-7.935-3.275-3.206-3.267-6.09-3.265-6.212a.224.224,0,0,1,.222-.218h27.248a.215.215,0,0,1,.087.018.239.239,0,0,1,.074.051.215.215,0,0,1,.047.076.21.21,0,0,1,.013.089c0,.064-.288,6.435,4.435,9.675.061.043.123.094.187.145a2.127,2.127,0,0,0,.2.154,10.3,10.3,0,0,0,2.2,1,14.683,14.683,0,0,0,4.568.662c10.628,0,23.041-7.835,23.041-29.918,0-10.4-1.757-19.172-5.081-25.373-3.486-6.5-8.632-9.94-14.881-9.94-2.092,0-3.975.058-5.6.172a30.1,30.1,0,0,0-4.722.644.233.233,0,0,1-.038.008c-2.382.582-2.443,1.248-2.443,1.254v3.193a.223.223,0,0,1-.062.154.219.219,0,0,1-.151.068L118.5,131.9a.221.221,0,0,1-.088-.015.211.211,0,0,1-.075-.047.227.227,0,0,1-.05-.073.219.219,0,0,1-.018-.087,3.714,3.714,0,0,1,2.21-3.382l1.635-.726a61.376,61.376,0,0,1,12.355-4,66.271,66.271,0,0,1,10.748-1.536h14.666a21.124,21.124,0,0,1,5.547.668,19.09,19.09,0,0,1,11.185,8.5,38.964,38.964,0,0,1,5.087,13.389,74.727,74.727,0,0,1,1.3,17.792c0,8.991-2.189,16.242-6.507,21.538a25.515,25.515,0,0,1-12.621,8.259A29.9,29.9,0,0,1,155.56,193.49Zm-36.744-14.4a9.567,9.567,0,0,0,3.153,5.705c2.94,2.858,9.276,6.529,22.764,7.777,3.393.314,6.94.473,10.542.473a28.615,28.615,0,0,0,8.472-1.294c8.583-2.622,18.815-9.844,18.815-29.388a74.528,74.528,0,0,0-1.289-17.7c-1.708-8.328-5.856-18.825-15.952-21.541a20.708,20.708,0,0,0-5.431-.652H145.224A66.534,66.534,0,0,0,134.572,124a61.907,61.907,0,0,0-12.27,3.974l-1.635.727a3.28,3.28,0,0,0-1.936,2.746l28.751-1.094v-2.962c-.013-.2.106-1.049,2.793-1.708h.024a29.613,29.613,0,0,1,4.79-.655c1.633-.115,3.526-.174,5.626-.174,6.423,0,11.7,3.516,15.268,10.174,3.358,6.265,5.133,15.112,5.133,25.583,0,9.65-2.424,17.579-7.012,22.925a21.321,21.321,0,0,1-16.473,7.433,15.143,15.143,0,0,1-4.706-.684,10.714,10.714,0,0,1-2.293-1.052,2.283,2.283,0,0,1-.252-.187c-.053-.045-.105-.087-.156-.123-4.4-3.021-4.635-8.62-4.631-9.831Z" transform="translate(43.633 43.503)" fill="#1a3a68"/>
      <path id="Path_286" data-name="Path 286" d="M180.681,141.2l-4.132,3.931a1.765,1.765,0,0,1-1.2.5h-10.1a1.766,1.766,0,0,1-1.669-1.264l-.939-3.122-.817,3.137a7.06,7.06,0,0,0-.1,3.128l1.455,7.461a4.3,4.3,0,0,0,4.23,3.479h5.534a4.3,4.3,0,0,0,4.139-3.105l1.73-5.968s0-.033,3.038-2.846C183.313,141.738,180.681,141.2,180.681,141.2Z" transform="translate(43.633 33.042)" fill="#fff"/>
      <path id="Path_287" data-name="Path 287" d="M172.945,158.676h-5.534a4.537,4.537,0,0,1-4.448-3.659l-1.455-7.461a7.335,7.335,0,0,1,.1-3.226l.818-3.137a.219.219,0,0,1,.21-.166.213.213,0,0,1,.136.041.219.219,0,0,1,.081.117l.938,3.122a1.544,1.544,0,0,0,1.458,1.1h10.1a1.55,1.55,0,0,0,1.047-.44l4.13-3.93a.224.224,0,0,1,.093-.054.219.219,0,0,1,.108,0,2.208,2.208,0,0,1,1.328,1.052c.615,1.034.619,2.569.011,4.563a.232.232,0,0,1-.062.1c-2.357,2.182-2.877,2.684-2.991,2.8l-1.714,5.915a4.55,4.55,0,0,1-4.356,3.264Zm-10.289-16.6-.618,2.37a6.771,6.771,0,0,0-.094,3.03l1.454,7.462a4.092,4.092,0,0,0,4.013,3.3h5.534a4.106,4.106,0,0,0,3.927-2.944l1.729-5.968a36.817,36.817,0,0,1,3.054-2.907c.545-1.816.551-3.25.016-4.15a1.844,1.844,0,0,0-.932-.811l-4.038,3.843a2,2,0,0,1-1.352.561h-10.1a1.991,1.991,0,0,1-1.883-1.422Z" transform="translate(43.633 33.069)" fill="#1a3a68"/>
      <path id="Path_288" data-name="Path 288" d="M117.85,130.115l33.263-1.62a4.46,4.46,0,0,1,4.541,4.659v47.5a4.335,4.335,0,0,1-4.535,4.554l-33.269-2.4c-2.132-.155-3.856-2.271-3.856-4.729V134.754C113.993,132.3,115.718,130.22,117.85,130.115Z" transform="translate(30.998 43.503)" fill="#fff"/>
      <path id="Path_289" data-name="Path 289" d="M151.427,185.443c-.107,0-.214,0-.323-.012l-33.271-2.4c-2.239-.162-4.062-2.383-4.062-4.95V134.754c0-2.571,1.826-4.751,4.069-4.86l33.263-1.621a4.372,4.372,0,0,1,3.256,1.221,5.054,5.054,0,0,1,1.518,3.66v47.5a4.95,4.95,0,0,1-1.517,3.628A4.274,4.274,0,0,1,151.427,185.443Zm-33.566-55.106c-2.009.1-3.647,2.079-3.647,4.42v43.326c0,2.34,1.639,4.362,3.651,4.507l33.272,2.4a3.84,3.84,0,0,0,2.921-1.029,4.5,4.5,0,0,0,1.375-3.3v-47.5a4.607,4.607,0,0,0-1.379-3.338,3.939,3.939,0,0,0-2.929-1.1Z" transform="translate(31.023 43.503)" fill="#1a3a68"/>
      <path id="Path_290" data-name="Path 290" d="M150.669,180.416a4.223,4.223,0,0,1-4.379,4.51L113.8,182.574c-2.092-.152-3.728-2.248-3.728-4.683V134.94c0-2.436,1.658-4.492,3.751-4.594l32.464-1.583a4.343,4.343,0,0,1,4.378,4.614Z" transform="translate(29.732 43.503)" fill="#fff"/>
      <path id="Path_291" data-name="Path 291" d="M146.584,185.158a2.957,2.957,0,0,1-.31-.011l-32.486-2.352c-2.21-.16-3.933-2.311-3.933-4.9V134.94c0-2.55,1.777-4.709,3.96-4.816l32.462-1.583a4.182,4.182,0,0,1,3.114,1.164,5.059,5.059,0,0,1,1.5,3.671v47.039a4.949,4.949,0,0,1-1.5,3.635A4.083,4.083,0,0,1,146.584,185.158Zm-.1-56.178c-.063,0-.125,0-.187.005l-32.465,1.582c-1.951.1-3.539,2.056-3.539,4.373v42.951c0,2.319,1.58,4.319,3.522,4.461l32.486,2.353a3.65,3.65,0,0,0,2.784-.978,4.508,4.508,0,0,0,1.358-3.315V133.377a4.611,4.611,0,0,0-1.362-3.349,3.741,3.741,0,0,0-2.592-1.048Z" transform="translate(29.754 43.503)" fill="#1a3a68"/>
      <path id="Path_292" data-name="Path 292" d="M112.246,137.257a3.853,3.853,0,0,1,3.362-4.053l28.8-1.206a3.88,3.88,0,0,1,3.885,4.078V177.4a3.775,3.775,0,0,1-3.885,3.987l-28.8-1.871a3.964,3.964,0,0,1-3.362-4.13Z" transform="translate(29.488 43.503)" fill="#1a3a68"/>
      <path id="Path_293" data-name="Path 293" d="M156.783,167a1.74,1.74,0,0,1-1.753,1.826l-.978-.038a1.824,1.824,0,0,1-1.661-1.938V149.017a1.772,1.772,0,0,1,1.671-1.891l1.009-.01a1.764,1.764,0,0,1,1.708,1.876Z" transform="translate(33.63 35.273)" fill="#fff"/>
      <path id="Path_294" data-name="Path 294" d="M155.092,169.051h-.07l-.98-.038a2.035,2.035,0,0,1-1.873-2.16V149.017a2,2,0,0,1,1.891-2.11l1.005-.01a1.836,1.836,0,0,1,1.313.536A2.209,2.209,0,0,1,157,149v18.009a2.123,2.123,0,0,1-.627,1.528A1.836,1.836,0,0,1,155.092,169.051Zm-.006-21.713h-.013l-1.005.01a1.545,1.545,0,0,0-1.451,1.669v17.835a1.6,1.6,0,0,0,1.446,1.716l.98.038a1.4,1.4,0,0,0,1.03-.4,1.693,1.693,0,0,0,.368-.554,1.672,1.672,0,0,0,.123-.652V148.993a1.757,1.757,0,0,0-.491-1.248,1.367,1.367,0,0,0-.452-.3A1.385,1.385,0,0,0,155.086,147.338Z" transform="translate(33.656 35.306)" fill="#1a3a68"/>
      <path id="Path_295" data-name="Path 295" d="M153.281,167.039a.222.222,0,0,1-.222-.222v-10.8a.222.222,0,0,1,.379-.157.225.225,0,0,1,.065.157v10.8a.223.223,0,0,1-.065.157A.221.221,0,0,1,153.281,167.039Z" transform="translate(33.116 35.316)" fill="#1a3a68"/>
      <path id="Path_296" data-name="Path 296" d="M153.281,153.389a.222.222,0,0,1-.222-.222V149.25a.222.222,0,0,1,.379-.157.223.223,0,0,1,.065.157v3.917a.223.223,0,0,1-.065.157A.221.221,0,0,1,153.281,153.389Z" transform="translate(33.116 32.612)" fill="#1a3a68"/>
      <path id="Path_297" data-name="Path 297" d="M116.7,177.323l7.691-5.471,10.2-8.726-11.388,6.507-6.063-9.169,13.606-17.008-8,8.261L117,157.653l-2.809,2.367,6.951,10.057Z" transform="translate(27.411 43.503)" fill="#fff"/>
      <path id="Path_298" data-name="Path 298" d="M122.394,138.724v13.753L123.8,150.7Z" transform="translate(26.597 31.863)" fill="#fff"/>
      <path id="Path_299" data-name="Path 299" d="M143.4,148.411l-8.578,6.211,8.43-2.957-4.733,13.014,6.212-12.719-.148-13.311Z" transform="translate(30.601 34.053)" fill="#fff"/>
      <path id="Path_300" data-name="Path 300" d="M157.316,37.5a.225.225,0,0,1-.119-.033.222.222,0,0,1-.082-.091,2.884,2.884,0,0,1-.264-2.587,1.831,1.831,0,0,1,.941-.817,1.815,1.815,0,0,0,.751-.56,2.1,2.1,0,0,0,.05-1.888,2.908,2.908,0,0,1-.024-2.138c.43-.875,1.321-1.048,2.183-1.215a2.73,2.73,0,0,0,2-.977c.493-.767.207-1.674-.1-2.637-.322-1.021-.654-2.076-.034-3.014a3.168,3.168,0,0,1,2.155-1.158c.723-.164,1.347-.3,1.635-.858.4-.771-.009-2-1.221-3.657a.217.217,0,0,1-.041-.079.207.207,0,0,1-.007-.089.231.231,0,0,1,.029-.085.222.222,0,0,1,.141-.1.225.225,0,0,1,.09,0,.227.227,0,0,1,.146.1c1.34,1.829,1.75,3.179,1.257,4.126a2.552,2.552,0,0,1-1.93,1.085,2.738,2.738,0,0,0-1.884.969c-.5.762-.217,1.674.088,2.638.32,1.017.651,2.069.045,3.013a3.15,3.15,0,0,1-2.284,1.172c-.82.159-1.536.3-1.87.976a2.545,2.545,0,0,0,.054,1.828,2.483,2.483,0,0,1-.118,2.262,2.229,2.229,0,0,1-.915.7,1.4,1.4,0,0,0-.742.622,2.48,2.48,0,0,0,.267,2.189.226.226,0,0,1,.024.084.216.216,0,0,1-.011.087.193.193,0,0,1-.206.143Z" transform="translate(35.648 0)" fill="#1a3a68"/>
      <path id="Path_301" data-name="Path 301" d="M159.913,39.669a.223.223,0,0,1-.126-.039.229.229,0,0,1-.082-.1.218.218,0,0,1-.008-.131.221.221,0,0,1,.067-.113l11.17-10.056a.222.222,0,0,1,.163-.067.228.228,0,0,1,.088.02.223.223,0,0,1,.072.053.218.218,0,0,1,.046.078.226.226,0,0,1,.01.089.217.217,0,0,1-.025.086.215.215,0,0,1-.058.069L160.06,39.612A.219.219,0,0,1,159.913,39.669Z" transform="translate(36.584 0)" fill="#1a3a68"/>
      <path id="Path_302" data-name="Path 302" d="M168.192,13.184A1.759,1.759,0,1,1,168.98,13,1.756,1.756,0,0,1,168.192,13.184Zm0-3.073a1.311,1.311,0,1,0,.893.352A1.324,1.324,0,0,0,168.193,10.111Z" transform="translate(43.633 0)" fill="#1a3a68"/>
      <path id="Path_303" data-name="Path 303" d="M48.785,176.677s1.621,4.452,3.137,5.776,7.449,3.828,7.634,6.763c.21,3.409-1.75,4.107-7.1,3.055a16.749,16.749,0,0,1-8.284-4.3c-1.039-1.148-.515-2.173-.318-3.566a29.72,29.72,0,0,0,.182-5.171l-.1-2.822Z" transform="translate(10.173 43.503)" fill="#fff"/>
      <path id="Path_304" data-name="Path 304" d="M56.174,192.942a20.172,20.172,0,0,1-3.76-.454,17.074,17.074,0,0,1-8.407-4.366,2.956,2.956,0,0,1-.514-2.957c.05-.252.1-.514.141-.788a29.727,29.727,0,0,0,.18-5.132l-.1-2.823a.224.224,0,0,1,.016-.09.231.231,0,0,1,.051-.076.235.235,0,0,1,.077-.049.251.251,0,0,1,.09-.014l4.848.262a.225.225,0,0,1,.123.042.221.221,0,0,1,.078.1c.016.044,1.62,4.414,3.076,5.685a16.769,16.769,0,0,0,2.018,1.327c2.341,1.413,5.549,3.348,5.688,5.589a3.414,3.414,0,0,1-.881,2.98A4,4,0,0,1,56.174,192.942Zm-12-16.293.087,2.581a30.28,30.28,0,0,1-.184,5.209c-.041.286-.095.554-.146.814-.2,1-.346,1.737.409,2.572a16.572,16.572,0,0,0,8.162,4.228c3.315.652,5.2.589,6.1-.2a3.019,3.019,0,0,0,.73-2.619c-.124-2.009-3.214-3.874-5.474-5.236a17.085,17.085,0,0,1-2.08-1.372c-1.406-1.23-2.856-4.951-3.149-5.726Z" transform="translate(10.145 43.503)" fill="#1a3a68"/>
      <path id="Path_305" data-name="Path 305" d="M59.393,190.858h0l-1.892-.073A20.057,20.057,0,0,1,44.438,185.3c-.474-.45-.735-.732-.745-.744a.222.222,0,1,1,.326-.3s.263.285.725.724a19.625,19.625,0,0,0,12.77,5.362l1.891.072a.218.218,0,0,1,.146.072.222.222,0,0,1-.154.371Z" transform="translate(10.191 43.503)" fill="#1a3a68"/>
      <path id="Path_306" data-name="Path 306" d="M47.758,184.005a.219.219,0,0,1-.15-.056.223.223,0,0,1,.106-.384c.024-.005,2.452-.508,3.32-1.723a.219.219,0,0,1,.143-.085.221.221,0,0,1,.162.038.223.223,0,0,1,.057.3c-.97,1.359-3.487,1.88-3.593,1.9A.218.218,0,0,1,47.758,184.005Z" transform="translate(10.427 43.503)" fill="#1a3a68"/>
      <path id="Path_307" data-name="Path 307" d="M50.053,185.453a.224.224,0,0,1-.146-.057.221.221,0,0,1-.035-.29.218.218,0,0,1,.128-.09c.023-.006,2.31-.583,2.947-1.748A.228.228,0,0,1,53,183.2a.215.215,0,0,1,.078-.044.225.225,0,0,1,.089-.01.218.218,0,0,1,.086.027.213.213,0,0,1,.068.058.222.222,0,0,1,.013.254c-.73,1.337-3.128,1.941-3.229,1.966A.238.238,0,0,1,50.053,185.453Z" transform="translate(10.914 43.503)" fill="#1a3a68"/>
      <path id="Path_308" data-name="Path 308" d="M52.516,186.811a.22.22,0,0,1-.141-.051.217.217,0,0,1-.077-.128.221.221,0,0,1,.132-.248,5.123,5.123,0,0,0,2.383-1.947.224.224,0,0,1,.123-.111.22.22,0,0,1,.165,0,.221.221,0,0,1,.119.283,5.446,5.446,0,0,1-2.621,2.18A.217.217,0,0,1,52.516,186.811Z" transform="translate(11.421 43.503)" fill="#1a3a68"/>
      <path id="Path_309" data-name="Path 309" d="M37.088,165.989c-.179.006-2.741-.16-4.219-.259a1.05,1.05,0,0,0-1.115.971l-.2,2.685a16.149,16.149,0,0,1-.464,2.812c-.428,1.675-1.046,4.556-.611,5.846a16.771,16.771,0,0,0,2.739,4.352,1.519,1.519,0,0,0,1.7.449,10.631,10.631,0,0,0,3.807-2.235c1.526-1.633-.283-4.609-.283-4.609Z" transform="translate(-0.044 43.503)" fill="#fff"/>
      <path id="Path_310" data-name="Path 310" d="M34.381,183.163a1.75,1.75,0,0,1-1.34-.625,16.788,16.788,0,0,1-2.78-4.425c-.433-1.284.09-3.956.6-5.97a16,16,0,0,0,.458-2.773l.2-2.685a1.272,1.272,0,0,1,1.352-1.175c2.5.164,4.081.264,4.2.258a.223.223,0,0,1,.15.052.22.22,0,0,1,.077.14l1.346,9.966c.226.388,1.771,3.185.231,4.834a10.741,10.741,0,0,1-3.891,2.292A1.751,1.751,0,0,1,34.381,183.163Zm-1.589-17.212a.83.83,0,0,0-.825.767l-.2,2.685a16.415,16.415,0,0,1-.47,2.85c-.41,1.607-1.035,4.475-.615,5.718a16.356,16.356,0,0,0,2.7,4.281,1.307,1.307,0,0,0,1.454.384,10.588,10.588,0,0,0,3.722-2.179c1.393-1.49-.293-4.313-.31-4.341a.217.217,0,0,1-.03-.085l-1.328-9.821c-.5-.023-1.85-.108-4.043-.252A.308.308,0,0,0,32.792,165.951Z" transform="translate(-0.044 43.503)" fill="#1a3a68"/>
      <path id="Path_311" data-name="Path 311" d="M35.591,182.683a.212.212,0,0,1-.1-.023.22.22,0,0,1-.078-.064c-3.275-4.29-3.1-5.45-2.723-7.987.077-.521.165-1.112.23-1.8.174-1.832.709-6.871.714-6.922a.223.223,0,0,1,.243-.187.223.223,0,0,1,.2.234c-.005.051-.54,5.087-.713,6.917-.066.7-.156,1.3-.234,1.822-.359,2.411-.522,3.516,2.638,7.653a.223.223,0,0,1,.044.113.22.22,0,0,1-.022.119.225.225,0,0,1-.082.091A.228.228,0,0,1,35.591,182.683Z" transform="translate(-0.044 43.503)" fill="#1a3a68"/>
      <path id="Path_312" data-name="Path 312" d="M34.906,175.031a.225.225,0,0,1-.148-.059.22.22,0,0,1-.07-.143.221.221,0,0,1,.179-.238l2.864-.521a.218.218,0,0,1,.166.036.221.221,0,0,1,.092.143.223.223,0,0,1-.036.166.226.226,0,0,1-.143.092l-2.864.52A.181.181,0,0,1,34.906,175.031Z" transform="translate(-0.044 43.503)" fill="#1a3a68"/>
      <path id="Path_313" data-name="Path 313" d="M35.273,177.1a.216.216,0,0,1-.148-.059.221.221,0,0,1-.026-.3.225.225,0,0,1,.135-.085l2.865-.521a.218.218,0,0,1,.166.036.222.222,0,0,1,.056.309.226.226,0,0,1-.143.092l-2.865.521Z" transform="translate(-0.044 43.503)" fill="#1a3a68"/>
      <path id="Path_314" data-name="Path 314" d="M38.443,177.942c1.718,1.1,5.324,2.471,11.23.477l-4.794-60.452-10.712-2.255a147.652,147.652,0,0,0,.544,30.685A278.368,278.368,0,0,1,37.2,175.7a2.736,2.736,0,0,0,1.245,2.238Z" transform="translate(7.841 43.503)" fill="#1a3a68"/>
      <path id="Path_315" data-name="Path 315" d="M34.006,114.414l26.967.6.083,29.463a18.506,18.506,0,0,1-2.739,9.744c-2.888,4.7-7.52,11.625-11.274,14.4C41.117,173,34.006,114.414,34.006,114.414Z" transform="translate(8.435 33.469)" fill="#1a3a68"/>
      <path id="Path_316" data-name="Path 316" d="M49.19,167.53a.22.22,0,0,1-.221-.215L47.924,133.38a.228.228,0,0,1,.014-.086.22.22,0,0,1,.046-.073.225.225,0,0,1,.07-.05.2.2,0,0,1,.084-.019.224.224,0,0,1,.228.215L49.412,167.3a.219.219,0,0,1-.06.159.226.226,0,0,1-.071.05.205.205,0,0,1-.084.019Z" transform="translate(10.386 34.32)" fill="#fff"/>
      <path id="Path_317" data-name="Path 317" d="M62.91,56.117c.122,1.771.118,2.943.118,2.943s-1.035-2.411-1.587-3.725c-.792-1.889-2.043-2.411-1.406-.029.5,1.883.625,2.492.625,2.492s-1.276-2.21-1.607-2.913c-.592-1.257-1.678-1.306-1.151.386a35.981,35.981,0,0,0,1.373,3.656s-3.776-4.189-4.048-2.647c-.241,1.358,2.89,4.11,3.342,4.633s-1.766-1.631-2.7-.829c-.876.75,5.785,5.25,6.661,7.614,1.027,2.77,4.045,10.866,3.114,10.09-4.509-3.763-6.595-3.014-6.595-3.014l-3.173,5.039s9.241,6.9,16.172,6.98c5.625.061-2.336-14.74-5.513-20.284a11.91,11.91,0,0,1-1.5-4.43c-.311-2.5-.793-6.17-1-6.822C63.452,53.491,62.8,54.51,62.91,56.117Z" transform="translate(13.109 13.739)" fill="#fff"/>
      <path id="Path_318" data-name="Path 318" d="M72.075,87.016h-.037c-6.923-.076-15.92-6.741-16.3-7.024a.222.222,0,0,1-.055-.3l3.181-5.035a.215.215,0,0,1,.112-.089c.088-.032,2.194-.731,6.611,2.882a84.292,84.292,0,0,0-3.181-9.454l-.082-.223c-.421-1.134-2.292-2.837-3.945-4.339-1.8-1.637-2.818-2.591-2.812-3.18a.445.445,0,0,1,.157-.34,1.426,1.426,0,0,1,1.521-.03c-1.335-1.382-2.4-2.721-2.235-3.644a.573.573,0,0,1,.4-.5c.7-.2,2.183,1.124,3.192,2.147-.267-.67-.6-1.576-.91-2.55-.368-1.182.034-1.483.224-1.556.423-.165.986.26,1.34,1,.147.312.486.934.816,1.523-.07-.272-.153-.586-.249-.945q-.44-1.635.172-1.851c.552-.189,1.243.768,1.649,1.737.314.748.788,1.861,1.137,2.675-.017-.479-.045-1.09-.094-1.793-.064-.933.1-1.92.628-2.021.357-.068.667.293.92,1.076.211.65.667,4.09,1.013,6.863a11.592,11.592,0,0,0,1.471,4.347c3.449,6.027,8.964,16.59,7.132,19.709A1.884,1.884,0,0,1,72.075,87.016Zm-15.9-7.259c1.273.919,9.6,6.747,15.871,6.815a1.486,1.486,0,0,0,1.427-.687c1.237-2.109-1.431-9.308-7.132-19.264a12.054,12.054,0,0,1-1.526-4.513c-.485-3.89-.839-6.3-.994-6.78-.234-.721-.418-.777-.42-.777-.094.036-.332.569-.263,1.555.122,1.758.118,2.948.118,2.959a.222.222,0,0,1-.426.087c-.01-.024-1.042-2.425-1.587-3.727-.454-1.082-.972-1.507-1.1-1.489,0,0-.182.212.115,1.316.5,1.868.624,2.482.629,2.511a.222.222,0,0,1-.411.153c-.052-.09-1.283-2.229-1.614-2.933-.284-.6-.656-.831-.777-.785-.079.032-.176.319.039,1.011a35.683,35.683,0,0,0,1.364,3.631.222.222,0,0,1-.368.24c-1.356-1.507-3.114-3.045-3.58-2.913-.017,0-.061.018-.085.152-.177,1,1.922,3.079,2.819,3.966.225.223.387.384.473.483.058.067.195.226.055.378s-.284.048-.482-.1c-1.157-.844-1.931-1.112-2.3-.8-.111.333,1.558,1.851,2.663,2.857,1.689,1.536,3.6,3.277,4.061,4.512l.082.223c3.368,9.083,3.4,9.944,3.085,10.169a.31.31,0,0,1-.4-.054c-3.886-3.243-5.927-3.06-6.312-2.986Z" transform="translate(13.087 13.716)" fill="#1a3a68"/>
      <path id="Path_319" data-name="Path 319" d="M53.827,54.711a8.022,8.022,0,0,0-8.192.383c-2.678,1.775-3.323,4.811-3.777,6.952-.8,3.785.469,4.64-.377,6.964-1.5,4.118-6.21,3.405-8.562,6.831-3.589,5.223-.166,17.787,7.865,20.353,5.356,1.708,10.636-2.042,12.072-3.063,4.361-3.1,9.02-9.271,8.019-15.224-.829-4.922-5.2-7.8-3.917-12.582a11.6,11.6,0,0,0,.861-3.081A8.181,8.181,0,0,0,53.827,54.711Z" transform="translate(7.921 14.592)" fill="#1a3a68"/>
      <path id="Path_320" data-name="Path 320" d="M47.648,57.687c.8-1.252-.755-3.646-1.925-4.83-.438-.444-2.4-2.43-3.917-1.827-1.558.62-2.2,3.79-.936,5.718C42.453,59.157,46.707,59.154,47.648,57.687Z" transform="translate(8.981 11.337)" fill="#1a3a68"/>
      <path id="Path_321" data-name="Path 321" d="M33.729,115.017c5.269,1.017,17.763,3.1,26.139,1.814a3.616,3.616,0,0,0,3.056-3.711c-.457-6.328-2.657-12.822-1.406-23.745a4.029,4.029,0,0,1,3.543-3.547l-.333-9.8s-7.067-3.457-14.405-2.952c-3.7.254-7.776,2.109-10.909,3.885a8.711,8.711,0,0,0-4.272,9.065l1.615,9.342a14.815,14.815,0,0,1-.941,8.268l-3.6,8.558a2.063,2.063,0,0,0,1.511,2.827Z" transform="translate(8.23 19.987)" fill="#fff"/>
      <path id="Path_322" data-name="Path 322" d="M53.775,117.457a115.882,115.882,0,0,1-20.09-2.222,2.284,2.284,0,0,1-1.673-3.129l3.6-8.558a14.564,14.564,0,0,0,.927-8.144L34.92,86.062A8.952,8.952,0,0,1,39.3,76.768c2.891-1.639,7.146-3.649,11-3.918,7.315-.5,14.447,2.94,14.518,2.975a.22.22,0,0,1,.124.192l.333,9.8a.222.222,0,0,1-.2.228A3.793,3.793,0,0,0,61.731,89.4a62.059,62.059,0,0,0,.682,17.947c.3,2,.591,3.885.726,5.756a3.835,3.835,0,0,1-3.243,3.947A41.039,41.039,0,0,1,53.775,117.457Zm-20-2.658c5.042.974,17.679,3.1,26.064,1.808a3.389,3.389,0,0,0,2.868-3.483c-.134-1.847-.42-3.724-.722-5.713A62.484,62.484,0,0,1,61.3,89.345a4.234,4.234,0,0,1,3.536-3.717l-.321-9.468c-.958-.443-7.495-3.332-14.173-2.874-3.774.259-7.964,2.241-10.814,3.857a8.506,8.506,0,0,0-4.163,8.833l1.615,9.342a15.024,15.024,0,0,1-.955,8.393l-3.6,8.557a1.841,1.841,0,0,0,1.348,2.522Z" transform="translate(8.194 19.981)" fill="#1a3a68"/>
      <path id="Path_323" data-name="Path 323" d="M49,64.97c-.022.139-.876,3.415-1.6,6.709a2.969,2.969,0,0,1-1.472,2.2l-2.712,1.306a.461.461,0,0,0,.015.839c1.708.739,5.639,2.284,8.777.944,5.771-2.465,3.531-3.864,1.8-4.46A1.847,1.847,0,0,1,52.568,70.7c.032-.982.072-2.223.092-2.94a6.166,6.166,0,0,0,1.264.307,1.04,1.04,0,0,0,1.145-.8c.171-.855.478-1.965.552-2.449a.333.333,0,0,1,.215-.262c.269-.1.578-.11.758-.42a.355.355,0,0,0-.035-.4c-.765-.988-.581-2.959-.833-3.894C54.819,56.478,49.946,58.924,49,64.97Z" transform="translate(9.909 13.791)" fill="#fff"/>
      <path id="Path_324" data-name="Path 324" d="M49.23,77.714a15.767,15.767,0,0,1-6.083-1.49.683.683,0,0,1-.023-1.243l2.712-1.306a2.72,2.72,0,0,0,1.35-2.051c.532-2.419,1.136-4.832,1.426-5.991.092-.369.165-.661.174-.7.648-4.137,3.1-6.722,5.089-6.83a1.994,1.994,0,0,1,2.067,1.678,7.6,7.6,0,0,1,.166,1.259,5.162,5.162,0,0,0,.629,2.557.573.573,0,0,1,.051.645,1.031,1.031,0,0,1-.7.46c-.059.017-.118.033-.176.055a.112.112,0,0,0-.073.088c-.04.26-.14.674-.256,1.154-.1.42-.216.9-.3,1.306a1.268,1.268,0,0,1-1.392.983,6.171,6.171,0,0,1-1.021-.224c-.021.731-.055,1.786-.083,2.644A1.617,1.617,0,0,0,53.879,72.3c1.344.462,2.039,1.056,2.065,1.764.035.971-1.224,1.989-3.85,3.114A7.237,7.237,0,0,1,49.23,77.714ZM49.224,65c-.007.045-.049.215-.182.743-.289,1.157-.892,3.566-1.422,5.979a3.127,3.127,0,0,1-1.592,2.356l-2.712,1.306a.24.24,0,0,0,.006.436c3.565,1.542,6.459,1.859,8.6.943,3.151-1.346,3.6-2.261,3.581-2.686-.018-.492-.646-.975-1.767-1.36a2.059,2.059,0,0,1-1.392-2.026c.032-.982.072-2.223.092-2.939a.231.231,0,0,1,.2-.215.218.218,0,0,1,.1.012,6.022,6.022,0,0,0,1.218.3.817.817,0,0,0,.9-.63c.082-.416.2-.9.3-1.322.108-.45.212-.876.249-1.117a.555.555,0,0,1,.357-.437c.068-.026.139-.046.21-.066.218-.061.346-.1.435-.257a.139.139,0,0,0-.019-.149,5.42,5.42,0,0,1-.72-2.793,7.387,7.387,0,0,0-.153-1.179,1.559,1.559,0,0,0-1.614-1.35c-1.787.092-4.079,2.59-4.684,6.454Z" transform="translate(9.881 13.77)" fill="#1a3a68"/>
      <path id="Path_325" data-name="Path 325" d="M52.357,67.87a.21.21,0,0,1-.055-.007,4.273,4.273,0,0,1-2.4-1.645.222.222,0,1,1,.373-.241,3.893,3.893,0,0,0,2.136,1.457.222.222,0,0,1-.055.437Z" transform="translate(10.875 14.245)" fill="#1a3a68"/>
      <path id="Path_326" data-name="Path 326" d="M51.666,64.173a5.175,5.175,0,0,1-.564,2.109s-.19-2.516-.284-3.925c-.183-2.726-1.444-2.9-1.507-.452-.05,1.928-.109,2.54-.109,2.54s-.591-2.451-.708-3.214c-.209-1.356-1.561-1.43-1.388.124.227,2.039.628,4.17.628,4.17s-1.372-2.276-1.921-3.2c-.581-.977-1.708-.758-1.214.508.542,1.38,1.443,3.386,1.727,4S45.1,64.814,43.98,65.327c-1.049.479.717,1.808,1.718,3.808,1.426,2.847,2.32,2.745,2.487,5.23.2,2.913.378,8.656.463,9.85.042.572-.517.056-1.257-.846-1.347-1.645-7.246,2.226-5.083,4.646,2.5,2.8,6.015,6.049,9.551,7.086,5.35,1.567,1.942-14.666.478-20.793a11.679,11.679,0,0,1-.177-4.621c.409-2.464.822-5.181.88-5.857C53.182,62.184,51.969,62.137,51.666,64.173Z" transform="translate(9.61 15.573)" fill="#fff"/>
      <path id="Path_327" data-name="Path 327" d="M52.541,95.431a2.679,2.679,0,0,1-.744-.116c-3.65-1.07-7.264-4.479-9.653-7.151a1.991,1.991,0,0,1-.4-2.082,5.967,5.967,0,0,1,4.138-3.28,1.669,1.669,0,0,1,1.678.428,6.574,6.574,0,0,0,.859.922c-.035-.538-.083-1.715-.144-3.184-.088-2.171-.2-4.872-.314-6.588a4.56,4.56,0,0,0-1.069-2.854,16.109,16.109,0,0,1-1.4-2.291,12.892,12.892,0,0,0-1.205-1.871c-.558-.765-.959-1.319-.84-1.778a.71.71,0,0,1,.431-.46c.574-.262,1.186.111,1.681.573-.377-.854-.845-1.937-1.176-2.78-.3-.759-.068-1.2.247-1.35.368-.18.97-.014,1.364.648.306.514.87,1.451,1.306,2.179-.134-.8-.3-1.928-.426-3.013-.105-.946.3-1.342.688-1.393.454-.06,1,.345,1.139,1.212.052.334.2,1.015.347,1.66.01-.277.02-.6.029-.964.032-1.205.353-1.926.859-1.936h.011c.569,0,.982.9,1.081,2.38.055.816.143,2.017.206,2.875.066-.276.136-.629.2-1.074.19-1.276.729-1.792,1.176-1.74.348.04.725.445.638,1.449-.056.649-.452,3.284-.882,5.874a11.349,11.349,0,0,0,.174,4.532c1.587,6.654,3.86,18.186,1.238,20.677A1.756,1.756,0,0,1,52.541,95.431ZM46.4,83.2a2.511,2.511,0,0,0-.436.041,5.557,5.557,0,0,0-3.8,2.988,1.555,1.555,0,0,0,.307,1.642c2.351,2.628,5.9,5.98,9.447,7.02a1.5,1.5,0,0,0,1.565-.277c1.77-1.682,1.26-9.253-1.365-20.253a11.82,11.82,0,0,1-.18-4.708c.429-2.581.823-5.2.878-5.84s-.116-.954-.248-.97c-.165-.016-.536.361-.686,1.365a5.065,5.065,0,0,1-.613,2.21.222.222,0,0,1-.391-.127c0-.025-.191-2.533-.284-3.926-.1-1.485-.508-1.965-.64-1.965-.1,0-.394.362-.424,1.507-.05,1.909-.108,2.531-.11,2.556a.222.222,0,0,1-.437.031c-.024-.1-.595-2.468-.711-3.228-.086-.559-.4-.872-.643-.84-.2.026-.371.316-.3.9.223,2.009.621,4.132.625,4.153a.222.222,0,0,1-.14.248.219.219,0,0,1-.268-.092s-1.373-2.277-1.921-3.2c-.245-.413-.6-.569-.788-.476s-.185.395-.03.79c.54,1.374,1.447,3.394,1.722,3.994.034.073.124.269-.052.376s-.286-.031-.435-.223c-.322-.415-1.306-1.677-1.968-1.373-.16.073-.179.146-.186.17-.066.254.34.813.769,1.406a13.856,13.856,0,0,1,1.24,1.934,15.891,15.891,0,0,0,1.361,2.234,4.953,4.953,0,0,1,1.149,3.081c.117,1.721.227,4.426.315,6.6.061,1.484.114,2.764.149,3.25.021.3-.1.413-.208.456-.241.1-.555-.061-1.442-1.145A1.032,1.032,0,0,0,46.4,83.2Z" transform="translate(9.582 15.556)" fill="#1a3a68"/>
      <path id="Path_328" data-name="Path 328" d="M41.425,90.359a2.281,2.281,0,0,1-1.72-.775l-2.833-3.232a.222.222,0,0,1,.333-.292l2.833,3.232a1.847,1.847,0,0,0,2.582.184.222.222,0,1,1,.288.337A2.268,2.268,0,0,1,41.425,90.359Z" transform="translate(8.16 18.818)" fill="#1a3a68"/>
      <path id="Path_329" data-name="Path 329" d="M45.787,32.085a.222.222,0,0,1-.13-.4,72.963,72.963,0,0,1,18.6-9.591.222.222,0,0,1,.145.42,72.506,72.506,0,0,0-18.483,9.533A.222.222,0,0,1,45.787,32.085Z" transform="translate(10.82 0)" fill="#1a3a68"/>
      <path id="Path_330" data-name="Path 330" d="M35.5,35.076A.225.225,0,0,1,35.336,35a.222.222,0,0,1-.033-.245.22.22,0,0,1,.053-.069A79.191,79.191,0,0,1,66.729,17.51a.222.222,0,1,1,.118.428,78.782,78.782,0,0,0-31.2,17.087A.226.226,0,0,1,35.5,35.076Z" transform="translate(8.995 0)" fill="#1a3a68"/>
      <path id="Path_331" data-name="Path 331" d="M79.492,16.267a.221.221,0,0,1-.181-.35l.993-1.406a.222.222,0,0,1,.235-.1.224.224,0,0,1,.082.036.222.222,0,0,1,.045.32l-.992,1.406a.221.221,0,0,1-.182.094Z" transform="translate(17.21 0)" fill="#1a3a68"/>
      <path id="Path_332" data-name="Path 332" d="M77.179,19.541a.222.222,0,0,1-.182-.35l.993-1.406a.222.222,0,0,1,.363.256l-.993,1.406a.223.223,0,0,1-.181.093Z" transform="translate(16.706 0)" fill="#1a3a68"/>
      <path id="Path_333" data-name="Path 333" d="M77.9,16.54a.22.22,0,0,1-.127-.04l-1.406-.993a.222.222,0,0,1-.1-.235.223.223,0,0,1,.1-.144.224.224,0,0,1,.085-.03.222.222,0,0,1,.17.047l1.406.992a.222.222,0,0,1-.129.4Z" transform="translate(16.589 0)" fill="#1a3a68"/>
      <path id="Path_334" data-name="Path 334" d="M81.172,18.85a.226.226,0,0,1-.129-.04l-1.406-.993a.222.222,0,0,1,.09-.4.222.222,0,0,1,.166.039l1.406.993a.222.222,0,0,1-.128.4Z" transform="translate(17.305 0)" fill="#1a3a68"/>
      <path id="Path_335" data-name="Path 335" d="M72,19.274a1.884,1.884,0,1,1,.7-.14A1.884,1.884,0,0,1,72,19.274Zm0-3.315a1.437,1.437,0,1,0,.556.113A1.438,1.438,0,0,0,72,15.959Z" transform="translate(15.393 0)" fill="#1a3a68"/>
      <path id="Path_336" data-name="Path 336" d="M108.269,24.655a4.9,4.9,0,0,1,.847-1.607,5.843,5.843,0,0,1,7.945-.843,5.309,5.309,0,0,1,1.831,6.718l.613.441,1.6-.488,1.228,1.115c.073-.166.141-.332.2-.5a.515.515,0,0,1,.457-.328l1.592-.1a.5.5,0,0,0,.485-.444l.129-1.227a.553.553,0,0,0-.38-.566l-1.527-.551a.562.562,0,0,1-.377-.446,7.9,7.9,0,0,0-.139-.8.482.482,0,0,1,.209-.508l1.286-.85a.487.487,0,0,0,.171-.624l-.546-1.156a.594.594,0,0,0-.616-.325l-1.575.228a.6.6,0,0,1-.553-.221q-.254-.332-.542-.644a.5.5,0,0,1-.1-.555l.627-1.36a.523.523,0,0,0-.189-.638l-1.074-.774a.585.585,0,0,0-.695,0l-1.2.945a.567.567,0,0,1-.584.063q-.395-.18-.8-.322a.562.562,0,0,1-.374-.449l-.2-1.507a.577.577,0,0,0-.5-.48l-1.315-.186a.528.528,0,0,0-.583.326l-.5,1.411a.509.509,0,0,1-.455.33q-.423.025-.841.089a.6.6,0,0,1-.553-.224l-.963-1.258a.6.6,0,0,0-.674-.194l-1.205.453a.489.489,0,0,0-.315.566l.325,1.493a.48.48,0,0,1-.023.288.471.471,0,0,1-.183.223c-.227.148-.446.307-.659.477a.573.573,0,0,1-.284.111.567.567,0,0,1-.3-.05l-1.485-.655a.561.561,0,0,0-.669.145l-.77.97a.5.5,0,0,0,.037.654L105.161,22a.489.489,0,0,1,.135.261.5.5,0,0,1-.034.292c-.028.059-.053.12-.079.18l1.716.066Z" transform="translate(25.065 0)" fill="#1a3a68"/>
      <path id="Path_337" data-name="Path 337" d="M122.727,33.084l-1.092-1.162a.5.5,0,0,1-.138-.259.5.5,0,0,1,.03-.292c.035-.078.065-.157.1-.235l-1.249-1.094-1.585.516-.621-.43a4.887,4.887,0,0,1-.5.813,5.824,5.824,0,0,1-7.918.985,5.413,5.413,0,0,1-2.277-5.882l-1.406-1.834-1.716-.036c-.076.185-.148.371-.211.559a.509.509,0,0,1-.45.337l-1.592.137a.5.5,0,0,0-.475.452l-.1,1.232a.549.549,0,0,0,.1.347.557.557,0,0,0,.291.213l1.537.523a.563.563,0,0,1,.386.441q.059.4.155.794a.481.481,0,0,1-.2.512l-1.266.873a.487.487,0,0,0-.159.628l.568,1.147a.6.6,0,0,0,.627.315l1.567-.256a.6.6,0,0,1,.557.212q.261.327.555.635a.5.5,0,0,1,.138.26.506.506,0,0,1-.031.293l-.6,1.372a.527.527,0,0,0,.2.636l1.088.755a.582.582,0,0,0,.694-.012l1.182-.968a.568.568,0,0,1,.582-.073c.264.115.533.218.8.309a.564.564,0,0,1,.381.442l.229,1.507a.58.58,0,0,0,.508.471l1.317.163a.525.525,0,0,0,.575-.337l.477-1.42a.511.511,0,0,1,.45-.34c.282-.023.561-.057.838-.1a.6.6,0,0,1,.557.215l1,1.236a.6.6,0,0,0,.678.182l1.192-.475a.486.486,0,0,0,.3-.571l-.352-1.491a.479.479,0,0,1,.2-.513c.223-.152.439-.315.648-.489a.569.569,0,0,1,.583-.071l1.493.634a.559.559,0,0,0,.666-.156l.749-.985a.507.507,0,0,0,.1-.339A.5.5,0,0,0,122.727,33.084Z" transform="translate(24.493 0)" fill="#1a3a68"/>
    </g>
  </g>
</svg>
