<svg xmlns="http://www.w3.org/2000/svg" width="441.198" height="287.779" viewBox="0 0 441.198 287.779">
  <g id="Group_31" data-name="Group 31" transform="translate(-1741.802 -1501)">
    <g id="Group_30" data-name="Group 30" transform="translate(77 13)">
      <g id="Group_27" data-name="Group 27" transform="translate(925.982 3.221)">
        <g id="Group_29" data-name="Group 29" transform="translate(738.819 1540)">
          <g id="Group_28" data-name="Group 28">
            <g id="Group_26" data-name="Group 26">
              <path id="Path_181" data-name="Path 181" d="M183.183,1653.084v0a74.533,74.533,0,0,1,3.248-8.489,25.022,25.022,0,0,1,3.531-5.511h0l17.089-3.824,401.388-98.426h6.117l5.932,2.289,3.894,4.61v225.66h-441.2Z" transform="translate(-183.183 -1536.834)" fill="#fff"/>
            </g>
            <circle id="Ellipse_11" data-name="Ellipse 11" cx="12" cy="12" r="12" transform="translate(402.018 22)" fill="#404040"/>
          </g>
        </g>
      </g>
      <g id="svgviewer-output_2_" data-name="svgviewer-output (2)" transform="translate(1751.482 1488)">
        <path id="Path_465" data-name="Path 465" d="M270.3,116.041a10.472,10.472,0,0,0-3.331-2.447,10.629,10.629,0,0,0-4.036-.982h-.018c-.154,0-.312-.011-.468-.011a10.741,10.741,0,0,0-6.454,2.147l-.11-49.153a10.86,10.86,0,0,0-3.058-7.525,11.237,11.237,0,0,0-7.482-3.4l-27.553-1.452a8.534,8.534,0,0,0,1.051-8.022,7.2,7.2,0,0,0-.422-.928L202.645,15.427a8.654,8.654,0,0,0-2.65-3.075,8.851,8.851,0,0,0-3.782-1.555h-.023a8.945,8.945,0,0,0-4.221.353,8.815,8.815,0,0,0-3.562,2.251c-.07.073-.14.147-.206.223l-2.946,3.348a7.1,7.1,0,0,0,0-2.314,9.652,9.652,0,0,0,.424-8.9,9.836,9.836,0,0,0-2.861-3.616,10.1,10.1,0,0,0-12.957.427,9.789,9.789,0,0,0-2.608,3.8,9.633,9.633,0,0,0-.568,4.547,7.094,7.094,0,0,0-.527.942,7.452,7.452,0,0,0-8.577.674L143.109,24.7a7.145,7.145,0,0,0-1.406-3.65,7.334,7.334,0,0,0-3.132-2.4,7.45,7.45,0,0,0-7.551,1.19l-29.353,24.7A7.182,7.182,0,0,0,99.782,47l-8.355-.44a7.118,7.118,0,0,0-.094-4.922c.183.087.366.172.554.249a10.767,10.767,0,0,0,8.207.024,10.561,10.561,0,0,0,5.847-13.7,10.443,10.443,0,0,0-2.279-3.472,10.653,10.653,0,0,0-3.47-2.334,10.816,10.816,0,0,0-8.243-.03,10.613,10.613,0,0,0-6.606,9.736,15.382,15.382,0,0,1-7.021.813,7.465,7.465,0,0,0-2.825.555,7.365,7.365,0,0,0-2.391,1.579,7.218,7.218,0,0,0-1.591,2.36,7.118,7.118,0,0,0-.546,2.78c-.228-.177-.463-.344-.7-.5a8.624,8.624,0,0,0-.8-8.036L67.8,29.116a8.872,8.872,0,0,0-3.06-2.873,9.053,9.053,0,0,0-4.062-1.167,8.665,8.665,0,0,0-1.582-3.861,8.861,8.861,0,0,0-3.218-2.706l-2.756-1.383a9.124,9.124,0,0,0-8.258.022,8.979,8.979,0,0,0-3.135-2.479,9.138,9.138,0,0,0-3.921-.89c-.141,0-.282,0-.435.011l-3.107.147a9.079,9.079,0,0,0-4.078,1.168,8.9,8.9,0,0,0-3.072,2.882,9.145,9.145,0,0,0-8.21.746L16.273,20.38a8.849,8.849,0,0,0-2.946,3,8.669,8.669,0,0,0-1.209,3.994,9.052,9.052,0,0,0-3.947,1.524A8.857,8.857,0,0,0,5.379,32.03l-1.438,2.7A8.649,8.649,0,0,0,3.884,42.8a8.81,8.81,0,0,0-2.638,3.262,8.653,8.653,0,0,0-.811,4.09l.141,3.035A8.643,8.643,0,0,0,1.74,57.183,8.821,8.821,0,0,0,4.646,60.2a8.623,8.623,0,0,0,.8,8.036l1.671,2.552a8.875,8.875,0,0,0,3.061,2.873,9.058,9.058,0,0,0,4.063,1.167,8.672,8.672,0,0,0,2.9,5.288V137a67.707,67.707,0,0,0-6.817,13.319,98.142,98.142,0,0,0-5.083,18.224v.023a7.132,7.132,0,0,0,.286,3.35,7.238,7.238,0,0,0,1.792,2.864l.014.012.032.032A41.149,41.149,0,0,0,9.129,184.2a32.032,32.032,0,0,0,7.108,12.355q.443.474.9.923V198.8a12.141,12.141,0,0,0,2.969,7.934l-.891,30.887a7.064,7.064,0,0,0,.59,3.066,7.173,7.173,0,0,0,1.859,2.53c-.3,5.046-.683,11.581-1.113,18.634a7.157,7.157,0,0,0,1.842,5.222,7.414,7.414,0,0,0,5.055,2.422h.117c.11,0,.221.007.327.007a7.432,7.432,0,0,0,2.125-.309h25.13c.079.024.156.047.237.069a14.406,14.406,0,0,1,7.642.242,4.559,4.559,0,0,0,.488-.017,7.393,7.393,0,0,0,1.641-.293h22.2a7.523,7.523,0,0,0,2.1.309H89.5a7.43,7.43,0,0,0,5.182-2.11,7.176,7.176,0,0,0,2.169-5.083c.027-5.053.084-10.6.175-16.549a7.355,7.355,0,0,0,.925-.917,22.942,22.942,0,0,0,3.941,5.9,9.38,9.38,0,0,0,6.259,2.82,7.311,7.311,0,0,0,2.838,1.754c7.38,2.489,16.741,3.757,27.826,3.757a181.434,181.434,0,0,0,28.961-2.46,7.416,7.416,0,0,0,3.921-2.071,7.2,7.2,0,0,0,1.99-3.914c4.879-1.015,8.045-1.87,8.6-2.022a7.476,7.476,0,0,0,.712.378l.018.008a7.5,7.5,0,0,0,3.1.672,7.386,7.386,0,0,0,4.251-1.332l4.855-3.383a9.829,9.829,0,0,0,.281,1.66v3.995c0,1.829.594,5.348,4.532,8.377a24.537,24.537,0,0,0,7.7,3.715c.188.059.38.116.564.171a67.681,67.681,0,0,0,18.342,2.313,65.628,65.628,0,0,0,19.656-2.7,23.148,23.148,0,0,0,7.378-3.735,10.445,10.445,0,0,0,4.307-8.226V246.53l.016-.062a9.673,9.673,0,0,0,1.325-4.825v-3.988a9.63,9.63,0,0,0,.312-2.489,9.881,9.881,0,0,0-1.1-4.4,9.77,9.77,0,0,0,1.711-5.444v-3.988a9.574,9.574,0,0,0,.312-2.491,10.182,10.182,0,0,0-2.279-6.225,9.406,9.406,0,0,0,.441-2.821v-3.991a9.621,9.621,0,0,0,.312-2.489,10.33,10.33,0,0,0-2.851-6.9l-.111-50.5a7.319,7.319,0,0,0,1.184-.745c.16.011.32.016.48.016a7.454,7.454,0,0,0,3.88-1.091,7.281,7.281,0,0,0,2.71-2.938,7.129,7.129,0,0,0-.752-7.591v-.082a10.794,10.794,0,0,0,6.526-3.232,10.456,10.456,0,0,0,2.9-6.59,10.252,10.252,0,0,0-.564-4.082A10.357,10.357,0,0,0,270.3,116.041Z" transform="translate(0 0)" fill="#1f2f5c"/>
        <path id="Path_466" data-name="Path 466" d="M263.151,114.4a10.072,10.072,0,0,0-3.2-2.339,10.276,10.276,0,0,0-3.883-.939h-.015c-.149,0-.3-.011-.451-.011a10.376,10.376,0,0,0-6.209,2.052l-.1-46.983a10.348,10.348,0,0,0-2.942-7.193,10.838,10.838,0,0,0-7.2-3.253l-26.5-1.388a8.123,8.123,0,0,0,1.01-7.668,6.8,6.8,0,0,0-.406-.887L198.074,18.223a8.29,8.29,0,0,0-2.549-2.939,8.55,8.55,0,0,0-3.639-1.486h-.023a8.654,8.654,0,0,0-4.059.338,8.488,8.488,0,0,0-3.428,2.152c-.068.07-.135.14-.2.213l-2.835,3.2a6.765,6.765,0,0,0,0-2.212,9.177,9.177,0,0,0,.407-8.505A9.408,9.408,0,0,0,179,5.526a9.694,9.694,0,0,0-4.059-1.858,9.819,9.819,0,0,0-4.482.147,9.663,9.663,0,0,0-3.923,2.119,9.37,9.37,0,0,0-2.509,3.629,9.176,9.176,0,0,0-.546,4.346,6.857,6.857,0,0,0-.506.9,7.2,7.2,0,0,0-8.25.644L140.8,27.089a6.813,6.813,0,0,0-1.352-3.489,7.045,7.045,0,0,0-3.014-2.293,7.225,7.225,0,0,0-3.795-.426,7.145,7.145,0,0,0-3.468,1.565L100.94,46.056A6.87,6.87,0,0,0,99.125,48.4l-8.037-.42a6.762,6.762,0,0,0-.091-4.7c.176.083.352.164.534.238a10.417,10.417,0,0,0,7.895.022,10.029,10.029,0,0,0,3.432-16.409A10.25,10.25,0,0,0,99.52,24.9a10.464,10.464,0,0,0-7.929-.029,10.144,10.144,0,0,0-6.354,9.306,14.885,14.885,0,0,1-6.754.778,7.221,7.221,0,0,0-2.717.53,7.086,7.086,0,0,0-2.3,1.509,6.9,6.9,0,0,0-1.53,2.256,6.767,6.767,0,0,0-.525,2.657c-.219-.169-.445-.329-.677-.477a8.2,8.2,0,0,0-.768-7.681l-1.607-2.44a8.51,8.51,0,0,0-2.944-2.746,8.749,8.749,0,0,0-3.907-1.115,8.254,8.254,0,0,0-1.521-3.691,8.511,8.511,0,0,0-3.1-2.586l-2.651-1.322a8.827,8.827,0,0,0-7.944.021A8.632,8.632,0,0,0,43.279,17.5a8.837,8.837,0,0,0-3.771-.85c-.135,0-.271,0-.418.011L36.1,16.8a8.774,8.774,0,0,0-3.923,1.117,8.535,8.535,0,0,0-2.956,2.755,8.846,8.846,0,0,0-7.9.713L18.8,22.957a8.485,8.485,0,0,0-2.834,2.864A8.249,8.249,0,0,0,14.8,29.638,8.742,8.742,0,0,0,11,31.1a8.484,8.484,0,0,0-2.686,3l-1.384,2.58a8.221,8.221,0,0,0-.054,7.716,8.432,8.432,0,0,0-2.537,3.118,8.226,8.226,0,0,0-.78,3.91l.135,2.9a8.223,8.223,0,0,0,1.119,3.818,8.455,8.455,0,0,0,2.8,2.885A8.2,8.2,0,0,0,8.378,68.7l1.607,2.44a8.514,8.514,0,0,0,2.944,2.746A8.751,8.751,0,0,0,16.838,75a8.276,8.276,0,0,0,2.786,5.055V134.43a64.622,64.622,0,0,0-6.557,12.731,93.318,93.318,0,0,0-4.889,17.42v.02a6.783,6.783,0,0,0,.275,3.2,6.924,6.924,0,0,0,1.724,2.737l.013.011c.009.011.022.02.031.031a39.122,39.122,0,0,0,1.7,8.959,30.578,30.578,0,0,0,6.838,11.81q.426.453.868.882V193.5a11.561,11.561,0,0,0,2.856,7.583l-.857,29.524a6.717,6.717,0,0,0,.568,2.931,6.867,6.867,0,0,0,1.788,2.418c-.284,4.823-.657,11.069-1.071,17.811a6.819,6.819,0,0,0,1.772,4.991,7.147,7.147,0,0,0,4.863,2.314h.112c.106,0,.213.007.314.007a7.235,7.235,0,0,0,2.044-.3H56.191c.076.023.15.044.228.065a13.938,13.938,0,0,1,7.351.232,4.567,4.567,0,0,0,.47-.016,7.132,7.132,0,0,0,1.579-.28H87.177a7.289,7.289,0,0,0,2.016.3h.038a7.175,7.175,0,0,0,4.985-2.017A6.839,6.839,0,0,0,96.3,254.2c.026-4.829.081-10.133.168-15.819a7.067,7.067,0,0,0,.89-.877,21.9,21.9,0,0,0,3.791,5.643,9.049,9.049,0,0,0,6.021,2.7,7.043,7.043,0,0,0,2.73,1.677c7.1,2.379,16.1,3.591,26.766,3.591a175.565,175.565,0,0,0,27.859-2.352,7.128,7.128,0,0,0,3.773-1.98,6.856,6.856,0,0,0,1.915-3.741c4.693-.969,7.74-1.786,8.268-1.932a7.356,7.356,0,0,0,.686.361l.018.008a7.265,7.265,0,0,0,2.978.643,7.153,7.153,0,0,0,4.091-1.273l4.669-3.234a9.235,9.235,0,0,0,.272,1.586v3.819c0,1.749.571,5.112,4.357,8.007a23.706,23.706,0,0,0,7.41,3.551c.182.057.364.11.542.163a65.491,65.491,0,0,0,17.643,2.211,63.463,63.463,0,0,0,18.908-2.582,22.3,22.3,0,0,0,7.1-3.57,9.961,9.961,0,0,0,4.141-7.863v-3.811l.017-.061a9.192,9.192,0,0,0,1.275-4.611v-3.812a9.183,9.183,0,0,0,.3-2.38,9.414,9.414,0,0,0-1.059-4.2,9.3,9.3,0,0,0,1.647-5.2v-3.812a9.122,9.122,0,0,0,.3-2.38,9.69,9.69,0,0,0-2.192-5.95,8.916,8.916,0,0,0,.425-2.7V200.2a9.13,9.13,0,0,0,.3-2.38,9.833,9.833,0,0,0-2.742-6.6l-.108-48.271a7.166,7.166,0,0,0,1.141-.711c.153.009.308.013.461.013a7.194,7.194,0,0,0,3.733-1.043,6.978,6.978,0,0,0,2.607-2.807,6.783,6.783,0,0,0-.724-7.257v-.078a10.407,10.407,0,0,0,6.277-3.089,9.961,9.961,0,0,0,2.795-6.3,9.708,9.708,0,0,0-.543-3.9A9.879,9.879,0,0,0,263.151,114.4Z" transform="translate(0.885 0.985)" fill="#fff"/>
        <path id="Path_467" data-name="Path 467" d="M9.993,48.744l3.423.6a1.438,1.438,0,0,1,1.15,1.033q.23.853.528,1.674a1.437,1.437,0,0,1-.343,1.5L12.3,56.009a1.447,1.447,0,0,0-.2,1.8l1.5,2.324a1.462,1.462,0,0,0,1.729.578L18.6,59.529a1.465,1.465,0,0,1,1.523.326q.62.608,1.287,1.165A1.437,1.437,0,0,1,21.88,62.5l-.891,3.348a1.442,1.442,0,0,0,.739,1.655l2.47,1.26a1.475,1.475,0,0,0,1.794-.359l2.244-2.645a1.474,1.474,0,0,1,1.486-.475q.843.215,1.709.364a1.445,1.445,0,0,1,1.151,1.043l.913,3.328a1.452,1.452,0,0,0,1.475,1.063l2.784-.133a1.471,1.471,0,0,0,1.377-1.2l.617-3.4A1.454,1.454,0,0,1,40.8,65.2q.86-.234,1.688-.533A1.456,1.456,0,0,1,44,65l2.465,2.417a1.472,1.472,0,0,0,1.818.186l2.35-1.5a1.452,1.452,0,0,0,.591-1.719l-1.178-3.247a1.437,1.437,0,0,1,.33-1.511q.621-.63,1.193-1.3a1.467,1.467,0,0,1,1.483-.465l3.367.867a1.476,1.476,0,0,0,1.673-.742l1.287-2.459a1.444,1.444,0,0,0-.353-1.778l-2.639-2.207a1.437,1.437,0,0,1-.471-1.472q.223-.836.378-1.7a1.461,1.461,0,0,1,1.056-1.147L60.7,46.3a1.465,1.465,0,0,0,1.08-1.47l-.126-2.761a1.449,1.449,0,0,0-1.2-1.361l-3.423-.6a1.439,1.439,0,0,1-1.15-1.033q-.23-.853-.528-1.673a1.442,1.442,0,0,1,.344-1.5l2.449-2.46a1.446,1.446,0,0,0,.2-1.805l-1.5-2.324a1.463,1.463,0,0,0-1.729-.578L51.84,29.923a1.459,1.459,0,0,1-1.511-.32q-.63-.616-1.3-1.178a1.432,1.432,0,0,1-.46-1.47l.891-3.345a1.442,1.442,0,0,0-.739-1.656l-2.47-1.26a1.475,1.475,0,0,0-1.793.359L42.211,23.7a1.469,1.469,0,0,1-1.485.475q-.843-.215-1.71-.364a1.445,1.445,0,0,1-1.151-1.042l-.912-3.329a1.453,1.453,0,0,0-1.476-1.063l-2.782.134a1.47,1.47,0,0,0-1.377,1.2l-.618,3.4a1.457,1.457,0,0,1-1.048,1.147q-.858.233-1.688.532a1.457,1.457,0,0,1-1.512-.333L23.987,22.04a1.47,1.47,0,0,0-1.817-.185l-2.349,1.5a1.452,1.452,0,0,0-.592,1.721l1.178,3.247a1.441,1.441,0,0,1-.336,1.511q-.616.62-1.18,1.285a1.471,1.471,0,0,1-1.488.471l-3.368-.867a1.476,1.476,0,0,0-1.673.742L11.075,33.92a1.441,1.441,0,0,0,.353,1.778l2.653,2.214a1.435,1.435,0,0,1,.471,1.472q-.223.836-.378,1.7a1.466,1.466,0,0,1-1.057,1.149l-3.358.922a1.462,1.462,0,0,0-1.078,1.47l.126,2.762a1.447,1.447,0,0,0,1.187,1.357Zm22.332-13.27a9.7,9.7,0,1,1-6.443,12.173A9.741,9.741,0,0,1,32.325,35.473Z" transform="translate(2.337 5.203)" fill="#fff"/>
        <path id="Path_468" data-name="Path 468" d="M34.971,71.425A1.724,1.724,0,0,1,33.3,70.153l-.912-3.328a1.169,1.169,0,0,0-.927-.84c-.586-.1-1.169-.224-1.733-.369a1.2,1.2,0,0,0-1.2.378L26.28,68.639a1.748,1.748,0,0,1-2.141.427l-2.47-1.26a1.714,1.714,0,0,1-.882-1.979l.889-3.347a1.158,1.158,0,0,0-.378-1.187q-.671-.567-1.3-1.18a1.189,1.189,0,0,0-1.231-.263l-3.275,1.187a1.736,1.736,0,0,1-2.062-.69l-1.5-2.324a1.719,1.719,0,0,1,.233-2.156l2.449-2.46a1.157,1.157,0,0,0,.278-1.208c-.2-.55-.378-1.121-.534-1.7a1.161,1.161,0,0,0-.927-.83l-3.423-.6a1.719,1.719,0,0,1-1.436-1.625l-.12-2.762a1.733,1.733,0,0,1,1.285-1.753l3.358-.923a1.187,1.187,0,0,0,.854-.926c.1-.582.232-1.161.378-1.723a1.157,1.157,0,0,0-.378-1.183L11.3,35.978a1.713,1.713,0,0,1-.422-2.126l1.287-2.457a1.746,1.746,0,0,1,1.991-.882l3.367.867a1.194,1.194,0,0,0,1.2-.378c.378-.446.78-.882,1.2-1.3a1.167,1.167,0,0,0,.272-1.218l-1.179-3.247a1.724,1.724,0,0,1,.705-2.053l2.349-1.5a1.744,1.744,0,0,1,2.165.222L26.7,24.325a1.176,1.176,0,0,0,1.219.269c.554-.2,1.134-.378,1.71-.539a1.177,1.177,0,0,0,.844-.926l.618-3.4A1.743,1.743,0,0,1,32.731,18.3l2.782-.133a1.723,1.723,0,0,1,1.763,1.27l.907,3.32a1.17,1.17,0,0,0,.927.839c.588.1,1.171.224,1.733.369a1.2,1.2,0,0,0,1.2-.378l2.245-2.645a1.747,1.747,0,0,1,2.141-.428l2.47,1.259a1.714,1.714,0,0,1,.882,1.979l-.89,3.347a1.155,1.155,0,0,0,.368,1.181c.455.378.9.778,1.319,1.193a1.18,1.18,0,0,0,1.224.252l3.275-1.186a1.736,1.736,0,0,1,2.062.69l1.5,2.325A1.717,1.717,0,0,1,58.4,33.7l-2.449,2.46a1.163,1.163,0,0,0-.278,1.209c.2.55.378,1.121.535,1.7a1.158,1.158,0,0,0,.926.829l3.425.6A1.719,1.719,0,0,1,62,42.12l.126,2.761a1.735,1.735,0,0,1-1.286,1.753l-3.358.923a1.182,1.182,0,0,0-.853.927c-.1.581-.232,1.16-.378,1.722a1.161,1.161,0,0,0,.378,1.184L59.278,53.6a1.713,1.713,0,0,1,.421,2.125l-1.286,2.459a1.747,1.747,0,0,1-1.991.882L53.055,58.2a1.185,1.185,0,0,0-1.2.378c-.378.451-.787.893-1.208,1.314a1.162,1.162,0,0,0-.264,1.214l1.178,3.247a1.726,1.726,0,0,1-.7,2.053l-2.35,1.5a1.742,1.742,0,0,1-2.165-.222l-2.465-2.418A1.18,1.18,0,0,0,42.656,65c-.555.2-1.134.378-1.71.539a1.179,1.179,0,0,0-.844.926l-.617,3.4a1.744,1.744,0,0,1-1.637,1.431l-2.782.133Zm-5.534-6.407a1.766,1.766,0,0,1,.428.053c.55.142,1.117.263,1.688.36a1.736,1.736,0,0,1,1.375,1.244L33.84,70a1.159,1.159,0,0,0,1.192.857l2.782-.134a1.181,1.181,0,0,0,1.113-.97l.618-3.4a1.742,1.742,0,0,1,1.249-1.368c.564-.152,1.125-.33,1.666-.525a1.743,1.743,0,0,1,1.8.4l2.466,2.418a1.182,1.182,0,0,0,1.469.149l2.35-1.5a1.166,1.166,0,0,0,.477-1.386L49.851,61.3a1.728,1.728,0,0,1,.4-1.8c.409-.411.8-.841,1.176-1.28a1.763,1.763,0,0,1,1.763-.555l3.367.867a1.185,1.185,0,0,0,1.353-.6l1.287-2.457a1.154,1.154,0,0,0-.285-1.432l-2.653-2.214a1.727,1.727,0,0,1-.563-1.763c.146-.547.271-1.111.372-1.676a1.751,1.751,0,0,1,1.26-1.37l3.358-.922a1.174,1.174,0,0,0,.872-1.187l-.12-2.762a1.159,1.159,0,0,0-.97-1.095l-3.423-.6a1.73,1.73,0,0,1-1.374-1.238c-.151-.559-.326-1.115-.52-1.65a1.723,1.723,0,0,1,.409-1.8L58,33.307a1.16,1.16,0,0,0,.159-1.455l-1.5-2.324a1.176,1.176,0,0,0-1.4-.466l-3.275,1.187a1.746,1.746,0,0,1-1.81-.378c-.411-.4-.843-.794-1.284-1.161a1.718,1.718,0,0,1-.553-1.763l.891-3.347a1.154,1.154,0,0,0-.6-1.333l-2.47-1.26a1.186,1.186,0,0,0-1.451.291l-2.245,2.645a1.763,1.763,0,0,1-1.77.565c-.548-.141-1.115-.262-1.688-.36A1.732,1.732,0,0,1,37.645,22.9l-.912-3.329a1.162,1.162,0,0,0-1.19-.857l-2.775.13a1.182,1.182,0,0,0-1.115.969l-.617,3.4a1.746,1.746,0,0,1-1.251,1.368c-.566.154-1.126.33-1.666.525a1.743,1.743,0,0,1-1.8-.4L23.848,22.3a1.181,1.181,0,0,0-1.469-.149l-2.349,1.5a1.167,1.167,0,0,0-.479,1.386l1.178,3.248a1.731,1.731,0,0,1-.4,1.807c-.406.406-.8.833-1.166,1.267a1.764,1.764,0,0,1-1.772.562l-3.368-.865a1.188,1.188,0,0,0-1.353.6l-1.286,2.459a1.154,1.154,0,0,0,.283,1.432l2.654,2.214a1.725,1.725,0,0,1,.562,1.763c-.145.547-.27,1.11-.372,1.676a1.747,1.747,0,0,1-1.26,1.37l-3.358.922a1.176,1.176,0,0,0-.872,1.188l.126,2.761a1.159,1.159,0,0,0,.969,1.1l3.425.6a1.726,1.726,0,0,1,1.373,1.237c.151.559.326,1.115.52,1.65a1.728,1.728,0,0,1-.408,1.8l-2.449,2.459a1.161,1.161,0,0,0-.16,1.455l1.5,2.324a1.174,1.174,0,0,0,1.4.466l3.275-1.187a1.754,1.754,0,0,1,1.815.39c.407.4.835.786,1.271,1.15a1.724,1.724,0,0,1,.559,1.763l-.89,3.347a1.158,1.158,0,0,0,.6,1.334l2.47,1.26a1.188,1.188,0,0,0,1.451-.291L28.1,65.635a1.763,1.763,0,0,1,1.335-.617ZM35.23,54.775a10.036,10.036,0,0,1-4.624-1.134,9.915,9.915,0,0,1-4.212-13.467,10.084,10.084,0,0,1,18.5,1.6,9.868,9.868,0,0,1-.709,7.614,10.045,10.045,0,0,1-5.92,4.912,10.192,10.192,0,0,1-3.044.47Zm.106-19.411A9.572,9.572,0,0,0,26.9,40.441a9.352,9.352,0,0,0,3.974,12.7A9.564,9.564,0,0,0,43.7,49.133a9.305,9.305,0,0,0,.669-7.179,9.465,9.465,0,0,0-9.035-6.589Z" transform="translate(2.272 5.142)" fill="#1a3a68"/>
        <path id="Path_469" data-name="Path 469" d="M234.656,190.3,22.909,177.116,22.26,44.838a5.14,5.14,0,0,1,.48-2.2A5.559,5.559,0,0,1,24.129,40.8,6.156,6.156,0,0,1,26.2,39.612a6.563,6.563,0,0,1,2.416-.341l206.4,10.134a4.179,4.179,0,0,1,2.692,1.144,3.514,3.514,0,0,1,1.1,2.525l.318,133.385a3.571,3.571,0,0,1-.342,1.531,3.84,3.84,0,0,1-.981,1.281,4.277,4.277,0,0,1-1.456.816A4.56,4.56,0,0,1,234.656,190.3Z" transform="translate(6.183 16.915)" fill="#1a3a68"/>
        <path id="Path_470" data-name="Path 470" d="M233.193,198a4.942,4.942,0,0,1-.414,2,5.036,5.036,0,0,1-2.949,2.736,5.1,5.1,0,0,1-2.047.279L25.036,189.271a5.088,5.088,0,0,1-3.354-1.579,4.98,4.98,0,0,1-1.362-3.419V47.3A4.983,4.983,0,0,1,21.9,43.666,5.094,5.094,0,0,1,25.66,42.3L229.612,53.417a3.18,3.18,0,0,1,2.127.971,3.118,3.118,0,0,1,.873,2.152Z" transform="translate(5.633 11.976)" fill="#fff"/>
        <path id="Path_471" data-name="Path 471" d="M228.179,203.372a3.461,3.461,0,0,1-.379-.014L25.1,189.618a5.412,5.412,0,0,1-3.554-1.679,5.293,5.293,0,0,1-1.45-3.621V47.388a5.288,5.288,0,0,1,1.68-3.858,5.406,5.406,0,0,1,3.986-1.446L229.665,53.2A3.5,3.5,0,0,1,232,54.265a3.432,3.432,0,0,1,.96,2.358l.584,141.416a5.3,5.3,0,0,1-1.561,3.764,5.4,5.4,0,0,1-3.8,1.57ZM25.461,42.685a4.781,4.781,0,0,0-3.356,1.381,4.679,4.679,0,0,0-1.39,3.322v136.93A4.684,4.684,0,0,0,22,187.524a4.788,4.788,0,0,0,3.146,1.486l202.7,13.741a4.788,4.788,0,0,0,3.576-1.261,4.68,4.68,0,0,0,1.114-1.57,4.632,4.632,0,0,0,.389-1.878L232.34,56.624a2.821,2.821,0,0,0-.79-1.94,2.878,2.878,0,0,0-1.918-.878L25.731,42.692C25.642,42.686,25.551,42.685,25.461,42.685Z" transform="translate(5.571 11.914)" fill="#1a3a68"/>
        <path id="Path_472" data-name="Path 472" d="M157.814,168.818h-.063l-9.155-.386a2.045,2.045,0,0,1-1.737-2.2l-.094-93.094a2.416,2.416,0,0,1,.678-1.732,1.607,1.607,0,0,1,1.161-.479l9.248.239a2.034,2.034,0,0,1,1.763,2.208v93.24a2.4,2.4,0,0,1-.69,1.74A1.6,1.6,0,0,1,157.814,168.818Zm-9.249-97.334a1.032,1.032,0,0,0-.4.087,1.021,1.021,0,0,0-.332.233,1.874,1.874,0,0,0-.5,1.329l.094,93.093a1.5,1.5,0,0,0,1.2,1.637l9.154.386a1.019,1.019,0,0,0,.756-.309,1.885,1.885,0,0,0,.391-.616,1.859,1.859,0,0,0,.127-.719V73.37a1.5,1.5,0,0,0-1.216-1.645l-9.248-.239Z" transform="translate(55.661 27.063)" fill="#1a3a68"/>
        <path id="Path_473" data-name="Path 473" d="M144.22,163.718h-.058l-9.154-.287a1.75,1.75,0,0,1-1.743-1.71l-.094-75.049a1.682,1.682,0,0,1,.131-.649,1.664,1.664,0,0,1,.373-.546,1.829,1.829,0,0,1,1.331-.521l9.248.178a1.767,1.767,0,0,1,1.764,1.714v75.159a1.681,1.681,0,0,1-.135.653,1.659,1.659,0,0,1-.381.548A1.852,1.852,0,0,1,144.22,163.718Zm-.041-.563a1.273,1.273,0,0,0,.5-.081,1.307,1.307,0,0,0,.431-.272,1.112,1.112,0,0,0,.345-.8V86.843a1.2,1.2,0,0,0-1.213-1.151L135,85.514a1.247,1.247,0,0,0-.926.36,1.1,1.1,0,0,0-.249.362,1.081,1.081,0,0,0-.089.431l.094,75.05a1.188,1.188,0,0,0,1.2,1.148Z" transform="translate(50.49 31.52)" fill="#1a3a68"/>
        <path id="Path_474" data-name="Path 474" d="M130.882,159.749h-.05l-9.154-.218a1.613,1.613,0,0,1-1.744-1.372l-.092-62.669a1.147,1.147,0,0,1,.1-.462,1.182,1.182,0,0,1,.276-.384,2.027,2.027,0,0,1,1.463-.531l9.248.136c.989.014,1.763.617,1.763,1.374v62.751a1.169,1.169,0,0,1-.379.849A2.049,2.049,0,0,1,130.882,159.749Zm-9.244-65.073a1.487,1.487,0,0,0-1.032.369.635.635,0,0,0-.207.445l.092,62.669c0,.43.538.793,1.2.81l9.154.219a1.5,1.5,0,0,0,1.07-.364.632.632,0,0,0,.15-.2.644.644,0,0,0,.06-.245V95.624c0-.438-.543-.8-1.21-.812l-9.248-.136Z" transform="translate(45.42 34.351)" fill="#1a3a68"/>
        <path id="Path_475" data-name="Path 475" d="M117.437,160.375h-.053l-9.154-.253a1.662,1.662,0,0,1-1.743-1.521l-.094-68.152a1.387,1.387,0,0,1,.115-.543,1.406,1.406,0,0,1,.318-.455,1.96,1.96,0,0,1,1.4-.53l9.246.155a1.661,1.661,0,0,1,1.764,1.524v68.247a1.391,1.391,0,0,1-.441,1A1.943,1.943,0,0,1,117.437,160.375Zm-9.248-70.888a1.386,1.386,0,0,0-.971.368.839.839,0,0,0-.267.6l.095,68.153a1.13,1.13,0,0,0,1.2.959l9.153.251a1.382,1.382,0,0,0,.54-.078,1.367,1.367,0,0,0,.467-.285.835.835,0,0,0,.271-.6V90.6a1.124,1.124,0,0,0-1.211-.961l-9.248-.155Z" transform="translate(40.305 32.685)" fill="#1a3a68"/>
        <path id="Path_476" data-name="Path 476" d="M104.14,156.9h-.058l-9.155-.184c-.993-.021-1.743-.534-1.744-1.193L93.088,99.4a.946.946,0,0,1,.3-.676,2.177,2.177,0,0,1,1.533-.521l9.247.113c.991.013,1.764.538,1.764,1.2V155.7a.955.955,0,0,1-.085.372.926.926,0,0,1-.223.307A2.138,2.138,0,0,1,104.14,156.9ZM94.89,98.765a1.609,1.609,0,0,0-1.1.36.39.39,0,0,0-.136.273l.094,56.124c0,.287.49.618,1.193.63l9.155.184a1.637,1.637,0,0,0,1.143-.355.42.42,0,0,0,.1-.124.415.415,0,0,0,.041-.153V99.513c0-.292-.5-.63-1.211-.63l-9.247-.113Z" transform="translate(35.245 35.564)" fill="#1a3a68"/>
        <path id="Path_477" data-name="Path 477" d="M91.2,149.6H91.15L82,149.5c-.291,0-1.743-.053-1.747-.756l-.094-28.969a.481.481,0,0,1,.041-.186.474.474,0,0,1,.11-.155,2.776,2.776,0,0,1,1.683-.413l9.247.059c.816,0,1.763.205,1.763.756v29a.476.476,0,0,1-.152.341A2.612,2.612,0,0,1,91.2,149.6Zm-.047-.563a2.582,2.582,0,0,0,1.286-.236V119.893a2.409,2.409,0,0,0-1.209-.236l-9.248-.059h-.029a2.43,2.43,0,0,0-1.238.236l.093,28.874a2.418,2.418,0,0,0,1.192.235Z" transform="translate(30.325 41.939)" fill="#1a3a68"/>
        <path id="Path_478" data-name="Path 478" d="M78.482,145.77h-.047l-9.154-.055c-1.743-.012-1.747-.407-1.748-.556l-.094-17.016a.356.356,0,0,1,.107-.252c.291-.293,1.4-.308,1.726-.311l9.249.035c1.763.006,1.763.408,1.763.558v17.035a.358.358,0,0,1-.108.253C79.9,145.743,78.864,145.77,78.482,145.77Zm-10.387-.746a4.48,4.48,0,0,0,1.19.126l9.153.055a5.11,5.11,0,0,0,1.287-.126V128.3a4.558,4.558,0,0,0-1.208-.127l-9.247-.033a4.847,4.847,0,0,0-1.268.126Z" transform="translate(25.488 44.496)" fill="#1a3a68"/>
        <path id="Path_479" data-name="Path 479" d="M65.878,144.332l-9.153-.055c-.819,0-1.469-.127-1.47-.277l-.093-17.016c0-.154.7-.28,1.55-.277l9.248.035c.828,0,1.489.126,1.489.277v17.037C67.449,144.211,66.737,144.337,65.878,144.332Z" transform="translate(20.807 44.171)" fill="#fff"/>
        <path id="Path_480" data-name="Path 480" d="M120.855,160.828h-.018l-92.1-5.833a1.438,1.438,0,0,1-1.338-1.414l-.553-55.652a.28.28,0,1,1,.56-.006l.553,55.651a.871.871,0,0,0,.811.858l92.1,5.835a.281.281,0,1,1-.018.562Z" transform="translate(7.48 35.54)" fill="#1a3a68"/>
        <path id="Path_481" data-name="Path 481" d="M187.367,118.606a.284.284,0,0,1-.108-.022.275.275,0,0,1-.091-.06.269.269,0,0,1-.06-.091.284.284,0,0,1-.022-.108v-55a2.669,2.669,0,0,0-2.53-2.667l-104.9-5.6a.281.281,0,0,1,.03-.562l104.9,5.6a3.233,3.233,0,0,1,3.062,3.229v55a.284.284,0,0,1-.022.108.274.274,0,0,1-.151.151A.284.284,0,0,1,187.367,118.606Z" transform="translate(35.048 19.856)" fill="#1a3a68"/>
        <path id="Path_482" data-name="Path 482" d="M69.458,54.513h-.01l-6.114-.328a.281.281,0,1,1,.029-.562l6.115.326a.282.282,0,0,1-.015.563Z" transform="translate(23.674 18.465)" fill="#1a3a68"/>
        <path id="Path_483" data-name="Path 483" d="M27.123,103.7a.28.28,0,0,1-.2-.083.281.281,0,0,1-.082-.2l.174-48.682a.217.217,0,0,1,0-.029,3.237,3.237,0,0,1,3.391-2.884l4.692.252,14.278.756a.281.281,0,1,1-.03.562L30.375,52.376a2.67,2.67,0,0,0-2.8,2.367L27.4,103.411a.281.281,0,0,1-.08.2.279.279,0,0,1-.092.063A.283.283,0,0,1,27.123,103.7Z" transform="translate(7.48 18.63)" fill="#1a3a68"/>
        <path id="Path_484" data-name="Path 484" d="M171.569,108.943H150.135v68.615h21.434Z" transform="translate(57.479 39.906)" fill="#fff"/>
        <path id="Path_485" data-name="Path 485" d="M171.631,177.9H150.2a.275.275,0,0,1-.2-.083.279.279,0,0,1-.082-.2V109.005a.282.282,0,0,1,.082-.2.279.279,0,0,1,.2-.082h21.434a.282.282,0,0,1,.108.021.29.29,0,0,1,.153.153.279.279,0,0,1,.022.108V177.62a.28.28,0,0,1-.083.2.275.275,0,0,1-.091.06A.284.284,0,0,1,171.631,177.9Zm-21.152-.562H171.35V109.286H150.479Z" transform="translate(57.432 39.853)" fill="#1a3a68"/>
        <path id="Path_486" data-name="Path 486" d="M152.257,177.557H142.7V115.112l9.558-6.168Z" transform="translate(53.928 39.906)" fill="#fff"/>
        <path id="Path_487" data-name="Path 487" d="M152.319,177.9h-9.558a.283.283,0,0,1-.2-.083.279.279,0,0,1-.082-.2V115.174a.286.286,0,0,1,.033-.133.28.28,0,0,1,.092-.1l9.558-6.172a.282.282,0,0,1,.142-.045.269.269,0,0,1,.145.033.283.283,0,0,1,.148.248v68.615a.287.287,0,0,1-.021.108.275.275,0,0,1-.06.091.261.261,0,0,1-.091.062A.285.285,0,0,1,152.319,177.9Zm-9.276-.562h8.995V109.521l-8.995,5.806Z" transform="translate(53.876 39.852)" fill="#1a3a68"/>
        <path id="Path_488" data-name="Path 488" d="M155.905,171.382h-3.716a.278.278,0,0,1-.108-.021.3.3,0,0,1-.092-.06.323.323,0,0,1-.062-.092.278.278,0,0,1-.021-.108V112.727a.278.278,0,0,1,.021-.108.3.3,0,0,1,.062-.091.278.278,0,0,1,.2-.082h3.716a.282.282,0,0,1,.282.281V171.1a.279.279,0,0,1-.022.108.268.268,0,0,1-.153.153A.278.278,0,0,1,155.905,171.382Zm-3.436-.562h3.155V113.007h-3.155Z" transform="translate(57.112 40.733)" fill="#1a3a68"/>
        <path id="Path_489" data-name="Path 489" d="M160.818,171.382H157.1a.28.28,0,0,1-.281-.281V112.727a.28.28,0,0,1,.281-.281h3.717a.28.28,0,0,1,.281.281V171.1a.28.28,0,0,1-.281.281Zm-3.436-.562h3.158V113.007h-3.154Z" transform="translate(58.964 40.733)" fill="#1a3a68"/>
        <path id="Path_490" data-name="Path 490" d="M165.73,171.382h-3.717a.28.28,0,0,1-.281-.281V112.727a.28.28,0,0,1,.281-.281h3.717a.28.28,0,0,1,.281.281V171.1a.28.28,0,0,1-.281.281Zm-3.435-.562h3.149V113.007H162.3Z" transform="translate(63.964 40.733)" fill="#1a3a68"/>
        <path id="Path_491" data-name="Path 491" d="M145.954,93.187h-13.4v50.294h13.4Z" transform="translate(50.285 33.449)" fill="#fff"/>
        <path id="Path_492" data-name="Path 492" d="M146.017,143.825h-13.4a.28.28,0,0,1-.281-.281V93.25a.282.282,0,0,1,.021-.108.286.286,0,0,1,.153-.153.278.278,0,0,1,.108-.021h13.4a.283.283,0,0,1,.108.021.272.272,0,0,1,.091.061.289.289,0,0,1,.06.092.283.283,0,0,1,.022.108v50.295a.284.284,0,0,1-.022.108.274.274,0,0,1-.151.151A.284.284,0,0,1,146.017,143.825Zm-13.117-.557h12.834V93.53H132.9Z" transform="translate(50.232 33.389)" fill="#1a3a68"/>
        <path id="Path_493" data-name="Path 493" d="M142.828,98.967h-8.016a.28.28,0,0,1-.2-.083.289.289,0,0,1-.06-.092.283.283,0,0,1-.022-.108V95.24a.283.283,0,0,1,.022-.108.278.278,0,0,1,.151-.153.281.281,0,0,1,.108-.022h8.016a.281.281,0,0,1,.108.022.272.272,0,0,1,.091.061.268.268,0,0,1,.06.092.283.283,0,0,1,.022.108v3.445a.283.283,0,0,1-.022.108.269.269,0,0,1-.06.092.272.272,0,0,1-.091.061A.283.283,0,0,1,142.828,98.967Zm-7.734-.563h7.449V95.521h-7.451Z" transform="translate(50.781 32.769)" fill="#1a3a68"/>
        <path id="Path_494" data-name="Path 494" d="M133.882,143.482h-5.974V97.044l5.974-3.857Z" transform="translate(48.145 33.449)" fill="#fff"/>
        <path id="Path_495" data-name="Path 495" d="M133.945,143.825H127.97a.315.315,0,0,1-.108-.021.293.293,0,0,1-.091-.062.278.278,0,0,1-.062-.091.283.283,0,0,1-.022-.108V97.1a.286.286,0,0,1,.033-.134.274.274,0,0,1,.094-.1l5.973-3.857a.283.283,0,0,1,.142-.045.284.284,0,0,1,.253.138.283.283,0,0,1,.04.144v50.295a.28.28,0,0,1-.278.281Zm-5.693-.563h5.416V93.768l-5.416,3.493Z" transform="translate(48.089 33.389)" fill="#1a3a68"/>
        <path id="Path_496" data-name="Path 496" d="M152.253,99.713H130.819v80.46h21.434Z" transform="translate(50.063 37.08)" fill="#fff"/>
        <path id="Path_497" data-name="Path 497" d="M152.315,180.514H130.882a.284.284,0,0,1-.108-.022.276.276,0,0,1-.091-.06.273.273,0,0,1-.062-.091.283.283,0,0,1-.022-.108V99.774a.282.282,0,0,1,.022-.108.283.283,0,0,1,.153-.152.278.278,0,0,1,.108-.021h21.433a.278.278,0,0,1,.108.021.282.282,0,0,1,.091.061.27.27,0,0,1,.062.091.283.283,0,0,1,.022.108v80.46a.284.284,0,0,1-.022.108.273.273,0,0,1-.062.091.289.289,0,0,1-.091.06A.284.284,0,0,1,152.315,180.514Zm-21.152-.562h20.871v-79.9H131.163Z" transform="translate(50.01 37.026)" fill="#1a3a68"/>
        <path id="Path_498" data-name="Path 498" d="M132.941,180.17h-9.558V105.882l9.558-6.17Z" transform="translate(46.607 37.08)" fill="#fff"/>
        <path id="Path_499" data-name="Path 499" d="M133,180.514h-9.557a.26.26,0,0,1-.108-.021.276.276,0,0,1-.091-.06.28.28,0,0,1-.083-.2v-74.29a.287.287,0,0,1,.033-.135.281.281,0,0,1,.092-.1l9.558-6.172a.281.281,0,0,1,.287-.012.284.284,0,0,1,.106.1.272.272,0,0,1,.04.144v80.46a.287.287,0,0,1-.021.108.263.263,0,0,1-.06.091.288.288,0,0,1-.09.062A.283.283,0,0,1,133,180.514Zm-9.276-.561h8.995V100.291l-8.995,5.806Z" transform="translate(46.55 37.026)" fill="#1a3a68"/>
        <path id="Path_500" data-name="Path 500" d="M148.366,106.72H133.082a.282.282,0,0,1-.108-.021.29.29,0,0,1-.153-.153.279.279,0,0,1-.022-.108v-3.5a.278.278,0,0,1,.083-.2.282.282,0,0,1,.2-.082h15.29a.282.282,0,0,1,.108.021.309.309,0,0,1,.091.062.3.3,0,0,1,.06.091.29.29,0,0,1,.022.109v3.5a.268.268,0,0,1-.023.109.278.278,0,0,1-.062.092.3.3,0,0,1-.094.06A.265.265,0,0,1,148.366,106.72Zm-15.009-.563h14.728v-2.94H133.357Z" transform="translate(50.511 35.427)" fill="#1a3a68"/>
        <path id="Path_501" data-name="Path 501" d="M148.366,112.389H133.082a.285.285,0,0,1-.282-.282v-3.5a.284.284,0,0,1,.022-.108.272.272,0,0,1,.062-.091.275.275,0,0,1,.091-.06.284.284,0,0,1,.108-.022h15.29a.283.283,0,0,1,.281.281v3.5a.29.29,0,0,1-.022.109.269.269,0,0,1-.063.092.261.261,0,0,1-.094.06A.289.289,0,0,1,148.366,112.389Zm-15.009-.563h14.728v-2.94H133.357Z" transform="translate(50.511 37.383)" fill="#1a3a68"/>
        <path id="Path_502" data-name="Path 502" d="M148.366,118.058H133.082a.284.284,0,0,1-.108-.022.275.275,0,0,1-.091-.06.286.286,0,0,1-.062-.091.289.289,0,0,1-.022-.108v-3.5a.283.283,0,0,1,.282-.282h15.29a.284.284,0,0,1,.108.022.3.3,0,0,1,.091.06.3.3,0,0,1,.06.092.279.279,0,0,1,.022.108v3.5a.268.268,0,0,1-.023.109.272.272,0,0,1-.062.091.261.261,0,0,1-.094.06A.289.289,0,0,1,148.366,118.058Zm-15.009-.563h14.728v-2.94H133.357Z" transform="translate(50.511 39.339)" fill="#1a3a68"/>
        <path id="Path_503" data-name="Path 503" d="M148.366,123.726H133.082a.282.282,0,0,1-.2-.082.278.278,0,0,1-.083-.2v-3.5a.286.286,0,0,1,.083-.2.275.275,0,0,1,.091-.06.282.282,0,0,1,.108-.021h15.29a.283.283,0,0,1,.281.281v3.5a.292.292,0,0,1-.022.11.282.282,0,0,1-.063.092.3.3,0,0,1-.094.06A.265.265,0,0,1,148.366,123.726Zm-15.009-.563h14.728v-2.94H133.357Z" transform="translate(50.511 41.296)" fill="#1a3a68"/>
        <path id="Path_504" data-name="Path 504" d="M148.366,129.4H133.082a.282.282,0,0,1-.108-.021.29.29,0,0,1-.153-.153.284.284,0,0,1-.022-.108v-3.5a.278.278,0,0,1,.083-.2.283.283,0,0,1,.2-.083h15.29a.28.28,0,0,1,.2.083.29.29,0,0,1,.06.091.284.284,0,0,1,.022.108v3.5a.268.268,0,0,1-.023.109.278.278,0,0,1-.062.092.3.3,0,0,1-.094.06A.288.288,0,0,1,148.366,129.4Zm-15.009-.563h14.728v-2.94H133.357Z" transform="translate(50.511 43.252)" fill="#1a3a68"/>
        <path id="Path_505" data-name="Path 505" d="M148.366,135.064H133.082a.283.283,0,0,1-.2-.083.278.278,0,0,1-.083-.2v-3.5a.279.279,0,0,1,.022-.108.29.29,0,0,1,.153-.153.282.282,0,0,1,.108-.021h15.29a.283.283,0,0,1,.281.281v3.5a.29.29,0,0,1-.022.109.282.282,0,0,1-.063.092.3.3,0,0,1-.094.06A.289.289,0,0,1,148.366,135.064Zm-15.009-.563h14.728v-2.94H133.357Z" transform="translate(50.511 45.208)" fill="#1a3a68"/>
        <path id="Path_506" data-name="Path 506" d="M148.366,140.732H133.082a.282.282,0,0,1-.108-.021.29.29,0,0,1-.153-.153.279.279,0,0,1-.022-.108v-3.5a.278.278,0,0,1,.083-.2.282.282,0,0,1,.2-.082h15.29a.282.282,0,0,1,.108.021.308.308,0,0,1,.091.062.286.286,0,0,1,.082.2v3.5a.269.269,0,0,1-.023.109.277.277,0,0,1-.062.092.3.3,0,0,1-.094.06A.265.265,0,0,1,148.366,140.732Zm-15.009-.563h14.728v-2.94H133.357Z" transform="translate(50.511 47.165)" fill="#1a3a68"/>
        <path id="Path_507" data-name="Path 507" d="M148.366,146.4H133.082a.285.285,0,0,1-.282-.282v-3.5a.284.284,0,0,1,.022-.108.26.26,0,0,1,.062-.091.257.257,0,0,1,.091-.06.284.284,0,0,1,.108-.022h15.29a.283.283,0,0,1,.281.281v3.5a.29.29,0,0,1-.022.109.269.269,0,0,1-.063.092.261.261,0,0,1-.094.06A.289.289,0,0,1,148.366,146.4Zm-15.009-.563h14.728V142.9H133.357Z" transform="translate(50.511 49.121)" fill="#1a3a68"/>
        <path id="Path_508" data-name="Path 508" d="M148.366,152.07H133.082a.283.283,0,0,1-.2-.083.278.278,0,0,1-.083-.2v-3.5a.284.284,0,0,1,.022-.108.29.29,0,0,1,.153-.153.282.282,0,0,1,.108-.021h15.29a.283.283,0,0,1,.281.281v3.5a.29.29,0,0,1-.022.109.282.282,0,0,1-.063.092.3.3,0,0,1-.094.06A.289.289,0,0,1,148.366,152.07Zm-15.009-.563h14.728v-2.94H133.357Z" transform="translate(50.511 51.077)" fill="#1a3a68"/>
        <path id="Path_509" data-name="Path 509" d="M148.366,157.738H133.082a.282.282,0,0,1-.2-.082.278.278,0,0,1-.083-.2v-3.5a.278.278,0,0,1,.083-.2.282.282,0,0,1,.2-.082h15.29a.282.282,0,0,1,.108.021.309.309,0,0,1,.091.062.287.287,0,0,1,.082.2v3.5a.292.292,0,0,1-.022.11.277.277,0,0,1-.063.091.283.283,0,0,1-.094.062A.265.265,0,0,1,148.366,157.738Zm-15.009-.563h14.728v-2.94H133.357Z" transform="translate(50.511 53.033)" fill="#1a3a68"/>
        <path id="Path_510" data-name="Path 510" d="M131.959,117.7H110.525v57.374h21.434Z" transform="translate(42.271 42.565)" fill="#fff"/>
        <path id="Path_511" data-name="Path 511" d="M132.021,175.419H110.588a.28.28,0,0,1-.281-.28V117.765a.279.279,0,0,1,.082-.2.275.275,0,0,1,.2-.083h21.433a.283.283,0,0,1,.281.281v57.374a.279.279,0,0,1-.082.2A.282.282,0,0,1,132.021,175.419Zm-21.153-.561H131.74V118.052H110.868Z" transform="translate(42.214 42.511)" fill="#1a3a68"/>
        <path id="Path_512" data-name="Path 512" d="M112.647,175.077h-9.558v-51.2l9.558-6.169Z" transform="translate(38.914 42.565)" fill="#fff"/>
        <path id="Path_513" data-name="Path 513" d="M112.713,175.421h-9.558a.283.283,0,0,1-.281-.281v-51.2a.286.286,0,0,1,.033-.133.281.281,0,0,1,.092-.1l9.558-6.172a.276.276,0,0,1,.287-.012.268.268,0,0,1,.108.1.284.284,0,0,1,.039.144v57.374a.287.287,0,0,1-.021.108.285.285,0,0,1-.15.153A.311.311,0,0,1,112.713,175.421Zm-9.276-.562h8.995V118.283l-8.995,5.806Z" transform="translate(38.855 42.51)" fill="#1a3a68"/>
        <path id="Path_514" data-name="Path 514" d="M116.3,129.2h-3.716a.283.283,0,0,1-.282-.282v-7.431a.279.279,0,0,1,.022-.108.268.268,0,0,1,.153-.153.256.256,0,0,1,.108-.021H116.3a.28.28,0,0,1,.281.281v7.431a.282.282,0,0,1-.021.108.278.278,0,0,1-.153.153A.279.279,0,0,1,116.3,129.2Zm-3.435-.563h3.149v-6.873H112.86Z" transform="translate(42.178 41.949)" fill="#1a3a68"/>
        <path id="Path_515" data-name="Path 515" d="M121.209,129.2h-3.717a.283.283,0,0,1-.282-.282v-7.431a.279.279,0,0,1,.022-.108.268.268,0,0,1,.153-.153.256.256,0,0,1,.108-.021h3.717a.264.264,0,0,1,.108.021.289.289,0,0,1,.091.06.3.3,0,0,1,.062.092.278.278,0,0,1,.021.108v7.431a.282.282,0,0,1-.082.2A.278.278,0,0,1,121.209,129.2Zm-3.436-.563h3.149v-6.873h-3.149Z" transform="translate(44.03 41.949)" fill="#1a3a68"/>
        <path id="Path_516" data-name="Path 516" d="M126.12,129.2H122.4a.284.284,0,0,1-.108-.022.29.29,0,0,1-.153-.153.282.282,0,0,1-.021-.108v-7.431a.28.28,0,0,1,.281-.281h3.717a.264.264,0,0,1,.108.021.289.289,0,0,1,.091.06.3.3,0,0,1,.062.092.279.279,0,0,1,.022.108v7.431a.283.283,0,0,1-.083.2A.278.278,0,0,1,126.12,129.2Zm-3.436-.563h3.149v-6.873h-3.149Z" transform="translate(45.882 41.949)" fill="#1a3a68"/>
        <path id="Path_517" data-name="Path 517" d="M116.3,138.753h-3.716a.286.286,0,0,1-.2-.083.282.282,0,0,1-.082-.2v-7.432a.289.289,0,0,1,.022-.108.3.3,0,0,1,.06-.091.3.3,0,0,1,.092-.06.256.256,0,0,1,.108-.021H116.3a.282.282,0,0,1,.2.082.279.279,0,0,1,.082.2v7.432a.282.282,0,0,1-.021.108.279.279,0,0,1-.153.153A.279.279,0,0,1,116.3,138.753Zm-3.435-.563h3.149v-6.873H112.86Z" transform="translate(42.178 45.253)" fill="#1a3a68"/>
        <path id="Path_518" data-name="Path 518" d="M121.209,138.753h-3.717a.288.288,0,0,1-.2-.083.282.282,0,0,1-.082-.2v-7.432a.289.289,0,0,1,.022-.108.3.3,0,0,1,.06-.091.3.3,0,0,1,.092-.06.256.256,0,0,1,.108-.021h3.717a.264.264,0,0,1,.108.021.289.289,0,0,1,.091.06.309.309,0,0,1,.062.091.287.287,0,0,1,.021.108v7.432a.283.283,0,0,1-.281.282Zm-3.436-.563h3.149v-6.873h-3.149Z" transform="translate(44.03 45.253)" fill="#1a3a68"/>
        <path id="Path_519" data-name="Path 519" d="M126.12,138.753H122.4a.284.284,0,0,1-.108-.022.29.29,0,0,1-.153-.153.282.282,0,0,1-.021-.108v-7.432a.279.279,0,0,1,.082-.2.282.282,0,0,1,.2-.082h3.717a.264.264,0,0,1,.108.021.289.289,0,0,1,.091.06.309.309,0,0,1,.062.091.289.289,0,0,1,.022.108v7.432a.285.285,0,0,1-.282.282Zm-3.436-.563h3.149v-6.873h-3.149Z" transform="translate(45.882 45.253)" fill="#1a3a68"/>
        <path id="Path_520" data-name="Path 520" d="M116.3,148.3h-3.716a.285.285,0,0,1-.2-.082.282.282,0,0,1-.082-.2v-7.432a.284.284,0,0,1,.022-.108.289.289,0,0,1,.06-.091.3.3,0,0,1,.092-.06.279.279,0,0,1,.108-.022H116.3a.28.28,0,0,1,.281.281v7.432a.278.278,0,0,1-.081.2.3.3,0,0,1-.092.062A.278.278,0,0,1,116.3,148.3Zm-3.435-.562h3.149v-6.874H112.86Z" transform="translate(42.178 48.558)" fill="#1a3a68"/>
        <path id="Path_521" data-name="Path 521" d="M121.209,148.3h-3.717a.287.287,0,0,1-.2-.082.282.282,0,0,1-.082-.2v-7.432a.284.284,0,0,1,.022-.108.289.289,0,0,1,.06-.091.3.3,0,0,1,.092-.06.279.279,0,0,1,.108-.022h3.717a.287.287,0,0,1,.2.082.293.293,0,0,1,.062.091.282.282,0,0,1,.021.108v7.432a.28.28,0,0,1-.281.281Zm-3.436-.562h3.149v-6.874h-3.149Z" transform="translate(44.03 48.558)" fill="#1a3a68"/>
        <path id="Path_522" data-name="Path 522" d="M126.12,148.3H122.4a.283.283,0,0,1-.108-.021.279.279,0,0,1-.091-.062.273.273,0,0,1-.062-.091.287.287,0,0,1-.021-.108v-7.432a.28.28,0,0,1,.281-.281h3.717a.286.286,0,0,1,.2.082.293.293,0,0,1,.062.091.284.284,0,0,1,.022.108v7.432a.283.283,0,0,1-.282.281Zm-3.436-.562h3.149v-6.874h-3.149Z" transform="translate(45.882 48.558)" fill="#1a3a68"/>
        <path id="Path_523" data-name="Path 523" d="M116.3,157.85h-3.716a.28.28,0,0,1-.282-.282v-7.431a.284.284,0,0,1,.022-.108.275.275,0,0,1,.06-.091.3.3,0,0,1,.092-.062.3.3,0,0,1,.108-.021H116.3a.28.28,0,0,1,.281.281v7.431a.278.278,0,0,1-.021.108.268.268,0,0,1-.153.153A.257.257,0,0,1,116.3,157.85Zm-3.435-.563h3.149v-6.871H112.86Z" transform="translate(42.178 51.863)" fill="#1a3a68"/>
        <path id="Path_524" data-name="Path 524" d="M121.209,157.85h-3.717a.287.287,0,0,1-.2-.082.282.282,0,0,1-.082-.2v-7.431a.284.284,0,0,1,.022-.108.276.276,0,0,1,.06-.091.3.3,0,0,1,.092-.062.3.3,0,0,1,.108-.021h3.717a.315.315,0,0,1,.108.021.293.293,0,0,1,.091.062.279.279,0,0,1,.062.091.283.283,0,0,1,.021.108v7.431a.28.28,0,0,1-.281.282Zm-3.436-.563h3.149v-6.871h-3.149Z" transform="translate(44.03 51.863)" fill="#1a3a68"/>
        <path id="Path_525" data-name="Path 525" d="M126.12,157.85H122.4a.261.261,0,0,1-.108-.022.278.278,0,0,1-.173-.26v-7.431a.28.28,0,0,1,.281-.281h3.717a.315.315,0,0,1,.108.021.293.293,0,0,1,.091.062.279.279,0,0,1,.062.091.284.284,0,0,1,.022.108v7.431a.283.283,0,0,1-.282.282Zm-3.436-.563h3.149v-6.871h-3.149Z" transform="translate(45.882 51.863)" fill="#1a3a68"/>
        <path id="Path_526" data-name="Path 526" d="M187.812,176.7v5.826c0,1.764-2.042,3.536-6.149,4.907-8.216,2.738-21.624,2.854-30.213.291-.14-.041-.278-.083-.417-.126-4.352-1.368-6.538-3.186-6.54-5.009v-5.827c0,1.823,2.189,3.642,6.54,5.009l.418.127c8.589,2.561,22,2.446,30.212-.294C185.769,180.236,187.814,178.467,187.812,176.7Z" transform="translate(59.083 62.259)" fill="#1a3a68"/>
        <path id="Path_527" data-name="Path 527" d="M180.851,173.1c.142.041.281.085.421.126,8.565,2.693,8.74,7.132.39,9.915-8.216,2.74-21.623,2.855-30.211.294l-.42-.126c-8.565-2.693-8.74-7.133-.39-9.918C158.856,170.657,172.262,170.542,180.851,173.1Z" transform="translate(59.082 60.718)" fill="#fff"/>
        <path id="Path_528" data-name="Path 528" d="M166.131,185.644a53.431,53.431,0,0,1-14.7-1.87l-.421-.126c-4.328-1.361-6.72-3.228-6.738-5.261-.018-1.979,2.235-3.823,6.341-5.192,8.314-2.77,21.651-2.9,30.379-.3l.425.126c4.327,1.36,6.72,3.228,6.738,5.26.015,1.977-2.237,3.821-6.343,5.19A51.9,51.9,0,0,1,166.131,185.644Zm.185-14.024a51.684,51.684,0,0,0-15.522,2.108c-3.8,1.266-5.973,2.962-5.959,4.653.015,1.741,2.328,3.465,6.343,4.727l.414.127c8.491,2.532,21.968,2.4,30.043-.29,3.8-1.269,5.973-2.964,5.958-4.653-.015-1.744-2.326-3.466-6.343-4.728-.139-.042-.276-.086-.417-.126A53.026,53.026,0,0,0,166.315,171.62Z" transform="translate(59.02 60.653)" fill="#1a3a68"/>
        <path id="Path_529" data-name="Path 529" d="M188.746,170.4v5.827c0,1.763-2.044,3.535-6.151,4.906-8.215,2.738-21.623,2.854-30.211.294l-.42-.127c-4.351-1.368-6.536-3.186-6.539-5.009v-5.827c0,1.823,2.189,3.643,6.54,5.011l.418.126c8.589,2.56,22,2.444,30.211-.294C186.7,173.938,188.747,172.169,188.746,170.4Z" transform="translate(59.347 60.475)" fill="#1a3a68"/>
        <path id="Path_530" data-name="Path 530" d="M181.785,166.8l.42.126c8.565,2.693,8.741,7.132.39,9.916-8.215,2.738-21.623,2.854-30.211.294l-.418-.126c-8.565-2.693-8.74-7.132-.39-9.916C159.79,164.36,173.2,164.244,181.785,166.8Z" transform="translate(59.347 58.935)" fill="#fff"/>
        <path id="Path_531" data-name="Path 531" d="M167.065,179.347a53.444,53.444,0,0,1-14.7-1.87l-.422-.126c-4.326-1.36-6.719-3.228-6.737-5.26-.017-1.98,2.235-3.823,6.343-5.193,8.306-2.77,21.65-2.9,30.378-.3l.425.126c4.328,1.36,6.72,3.228,6.738,5.26.017,1.979-2.237,3.821-6.343,5.19A51.976,51.976,0,0,1,167.065,179.347Zm.185-14.024a51.714,51.714,0,0,0-15.522,2.107c-3.8,1.266-5.973,2.963-5.958,4.653.015,1.741,2.326,3.465,6.343,4.728l.414.126c8.489,2.532,21.968,2.4,30.043-.291,3.8-1.266,5.972-2.964,5.958-4.653-.015-1.743-2.328-3.466-6.344-4.728l-.416-.126A53.09,53.09,0,0,0,167.249,165.323Z" transform="translate(59.285 58.87)" fill="#1a3a68"/>
        <path id="Path_532" data-name="Path 532" d="M186.071,164.056v5.827c0,1.763-2.042,3.536-6.15,4.912-8.215,2.738-21.623,2.854-30.212.294l-.418-.127c-4.351-1.368-6.536-3.186-6.539-5.009v-5.827c0,1.823,2.188,3.643,6.539,5.011.139.044.278.085.42.126,8.588,2.56,22,2.444,30.212-.294C184.028,167.592,186.073,165.822,186.071,164.056Z" transform="translate(58.59 58.678)" fill="#1a3a68"/>
        <path id="Path_533" data-name="Path 533" d="M179.109,160.458l.421.126c8.565,2.693,8.74,7.133.39,9.916-8.216,2.738-21.624,2.854-30.211.294l-.42-.126c-8.565-2.693-8.74-7.132-.389-9.915C157.115,158.015,170.522,157.9,179.109,160.458Z" transform="translate(58.589 55.141)" fill="#fff"/>
        <path id="Path_534" data-name="Path 534" d="M164.388,173a53.428,53.428,0,0,1-14.7-1.87l-.423-.126c-4.326-1.36-6.717-3.228-6.735-5.26-.018-1.977,2.235-3.821,6.341-5.19,8.307-2.772,21.651-2.9,30.379-.3l.423.126c4.328,1.36,6.721,3.228,6.738,5.26.017,1.979-2.235,3.823-6.343,5.192A51.926,51.926,0,0,1,164.388,173Zm.185-14.022a51.743,51.743,0,0,0-15.521,2.106c-3.8,1.268-5.973,2.963-5.958,4.654.013,1.741,2.326,3.465,6.341,4.727l.414.126c8.491,2.532,21.968,2.4,30.043-.291,3.8-1.266,5.972-2.963,5.958-4.653-.015-1.741-2.328-3.465-6.345-4.727-.137-.044-.275-.086-.416-.126A53.031,53.031,0,0,0,164.573,158.977Z" transform="translate(58.527 55.087)" fill="#1a3a68"/>
        <path id="Path_535" data-name="Path 535" d="M189.386,158.828v5.827c0,1.763-2.043,3.536-6.15,4.906-8.216,2.738-21.623,2.854-30.211.294l-.42-.127c-4.351-1.368-6.538-3.186-6.54-5.009v-5.827c0,1.823,2.188,3.643,6.54,5.011l.418.126c8.588,2.56,22,2.444,30.211-.294C187.344,162.363,189.388,160.594,189.386,158.828Z" transform="translate(59.528 55.167)" fill="#1a3a68"/>
        <path id="Path_536" data-name="Path 536" d="M182.426,155.23l.42.126c8.565,2.693,8.741,7.133.39,9.916-8.215,2.738-21.623,2.855-30.211.294l-.418-.126c-8.565-2.693-8.74-7.132-.39-9.916C160.437,152.785,173.837,152.67,182.426,155.23Z" transform="translate(59.528 53.324)" fill="#fff"/>
        <path id="Path_537" data-name="Path 537" d="M167.7,167.771a53.442,53.442,0,0,1-14.7-1.87l-.422-.126c-4.326-1.36-6.72-3.228-6.737-5.26-.017-1.979,2.235-3.821,6.343-5.19,8.306-2.772,21.65-2.9,30.379-.3l.423.126c4.327,1.36,6.719,3.228,6.737,5.26.018,1.979-2.234,3.823-6.341,5.192A51.981,51.981,0,0,1,167.7,167.771Zm.186-14.024a51.736,51.736,0,0,0-15.524,2.107c-3.8,1.266-5.972,2.964-5.956,4.653.014,1.741,2.326,3.466,6.343,4.728.137.042.275.085.414.126,8.491,2.53,21.966,2.4,30.043-.291,3.8-1.266,5.971-2.963,5.956-4.653-.014-1.741-2.326-3.465-6.344-4.728l-.416-.126A53.08,53.08,0,0,0,167.89,153.748Z" transform="translate(59.466 53.269)" fill="#1a3a68"/>
        <path id="Path_538" data-name="Path 538" d="M185.464,153.649v5.827c0,1.763-2.042,3.536-6.149,4.912-8.216,2.738-21.624,2.854-30.213.294-.141-.044-.28-.085-.418-.126-4.351-1.368-6.536-3.187-6.539-5.011v-5.827c0,1.823,2.189,3.643,6.539,5.011.139.044.278.086.42.126,8.589,2.561,22,2.444,30.212-.294C183.421,157.185,185.466,155.415,185.464,153.649Z" transform="translate(58.418 53.368)" fill="#1a3a68"/>
        <path id="Path_539" data-name="Path 539" d="M178.5,150.046l.421.126c8.564,2.693,8.741,7.133.39,9.916-8.216,2.738-21.623,2.855-30.211.294l-.42-.126c-8.565-2.693-8.74-7.132-.39-9.916C156.509,147.607,169.914,147.491,178.5,150.046Z" transform="translate(58.418 51.523)" fill="#fff"/>
        <path id="Path_540" data-name="Path 540" d="M163.783,162.592a53.423,53.423,0,0,1-14.7-1.87l-.422-.126c-4.328-1.36-6.72-3.228-6.738-5.26-.017-1.979,2.237-3.821,6.343-5.19,8.306-2.772,21.65-2.9,30.379-.3.142.042.282.086.423.126,4.327,1.359,6.72,3.227,6.738,5.258.018,1.979-2.235,3.824-6.341,5.193A51.981,51.981,0,0,1,163.783,162.592Zm.185-14.024a51.8,51.8,0,0,0-15.522,2.107c-3.8,1.268-5.973,2.964-5.958,4.653.015,1.743,2.326,3.466,6.341,4.728l.416.126c8.491,2.53,21.966,2.4,30.041-.291,3.8-1.266,5.973-2.962,5.958-4.653-.014-1.741-2.326-3.465-6.343-4.727-.139-.044-.276-.085-.416-.126A53.039,53.039,0,0,0,163.967,148.569Z" transform="translate(58.355 51.467)" fill="#1a3a68"/>
        <path id="Path_541" data-name="Path 541" d="M188.322,147.812v5.827c0,1.764-2.043,3.536-6.15,4.906-8.216,2.74-21.624,2.855-30.211.293l-.42-.126c-4.353-1.368-6.538-3.186-6.54-5.011v-5.826c0,1.823,2.189,3.64,6.542,5.009.139.044.277.086.418.126,8.588,2.562,22,2.447,30.211-.293C186.278,151.348,188.322,149.579,188.322,147.812Z" transform="translate(59.227 51.341)" fill="#1a3a68"/>
        <path id="Path_542" data-name="Path 542" d="M181.36,144.215c.141.041.28.083.42.126,8.565,2.693,8.741,7.132.39,9.915-8.215,2.74-21.623,2.855-30.211.294l-.418-.127c-8.565-2.692-8.74-7.132-.39-9.916C159.365,141.769,172.771,141.654,181.36,144.215Z" transform="translate(59.227 49.494)" fill="#fff"/>
        <path id="Path_543" data-name="Path 543" d="M166.638,156.757a53.429,53.429,0,0,1-14.7-1.87c-.142-.044-.284-.085-.423-.126-4.318-1.36-6.712-3.231-6.735-5.265-.018-1.979,2.235-3.823,6.341-5.192,8.307-2.77,21.651-2.9,30.379-.3l.425.126c4.327,1.36,6.72,3.228,6.737,5.26.018,1.979-2.234,3.821-6.341,5.19A51.773,51.773,0,0,1,166.638,156.757Zm.186-14.024a51.708,51.708,0,0,0-15.522,2.108c-3.8,1.266-5.973,2.962-5.958,4.653.014,1.741,2.326,3.465,6.343,4.726.137.045.275.086.414.127,8.489,2.532,21.966,2.4,30.043-.29,3.8-1.269,5.971-2.964,5.956-4.653-.014-1.744-2.326-3.467-6.344-4.728l-.416-.126A53.078,53.078,0,0,0,166.824,142.733Z" transform="translate(59.164 49.436)" fill="#1a3a68"/>
        <path id="Path_544" data-name="Path 544" d="M169.253,144.677l-1.039.908a16.784,16.784,0,0,1,2.2.409,7.537,7.537,0,0,1,.935.311l-2.04,1.089a11.924,11.924,0,0,0-1.145-.379,12.731,12.731,0,0,0-1.95-.349c-1.578-.169-2.419.064-2.751.353-.389.34.214.649,1.9,1.2,2.393.743,2.91,1.437,1.846,2.365s-3.479,1.537-6.508,1.444l-1.2,1.051-2.379-.251,1.12-.979a19.255,19.255,0,0,1-2.393-.461,7.1,7.1,0,0,1-1.231-.43l2.111-1.133a9.064,9.064,0,0,0,1.447.512,13.6,13.6,0,0,0,2.066.377,4.66,4.66,0,0,0,3.063-.388c.449-.393-.045-.724-1.546-1.175-2.174-.652-3.355-1.358-2.211-2.36,1.041-.906,3.359-1.456,6.207-1.394l1.123-.98Z" transform="translate(58.89 50.006)" fill="#1a3a68"/>
        <path id="Path_545" data-name="Path 545" d="M60.873,32.807a.282.282,0,0,1-.234-.436l.82-1.252a.281.281,0,1,1,.47.308l-.82,1.252a.282.282,0,0,1-.236.127Z" transform="translate(22.62 8.776)" fill="#1a3a68"/>
        <path id="Path_546" data-name="Path 546" d="M58.637,36.221a.291.291,0,0,1-.155-.045.282.282,0,0,1-.081-.39l.82-1.251a.281.281,0,0,1,.471.307l-.82,1.252a.284.284,0,0,1-.236.127Z" transform="translate(21.778 9.743)" fill="#1a3a68"/>
        <path id="Path_547" data-name="Path 547" d="M59.151,33.126a.277.277,0,0,1-.157-.048l-1.223-.824a.282.282,0,0,1,.315-.467l1.223.825a.281.281,0,0,1-.157.514Z" transform="translate(21.525 8.99)" fill="#1a3a68"/>
        <path id="Path_548" data-name="Path 548" d="M62.487,35.377a.277.277,0,0,1-.157-.048L61.108,34.5a.281.281,0,0,1,.315-.466l1.222.824a.282.282,0,0,1-.025.483A.277.277,0,0,1,62.487,35.377Z" transform="translate(22.776 9.625)" fill="#1a3a68"/>
        <path id="Path_549" data-name="Path 549" d="M181.457,99.487a.281.281,0,0,1-.244-.411l.7-1.323a.3.3,0,0,1,.069-.085.286.286,0,0,1,.207-.063.289.289,0,0,1,.105.031.281.281,0,0,1,.085.069.3.3,0,0,1,.053.1.286.286,0,0,1,.01.109.276.276,0,0,1-.031.105l-.7,1.322a.279.279,0,0,1-.106.109A.285.285,0,0,1,181.457,99.487Z" transform="translate(69.472 33.632)" fill="#1a3a68"/>
        <path id="Path_550" data-name="Path 550" d="M179.547,103.093a.275.275,0,0,1-.127-.032.314.314,0,0,1-.085-.069.268.268,0,0,1-.051-.1.256.256,0,0,1-.012-.108.3.3,0,0,1,.031-.105l.7-1.322a.275.275,0,0,1,.166-.137.265.265,0,0,1,.109-.012.293.293,0,0,1,.105.031.3.3,0,0,1,.086.069.285.285,0,0,1,.051.1.26.26,0,0,1,.012.109.309.309,0,0,1-.031.105l-.7,1.322a.284.284,0,0,1-.106.11A.276.276,0,0,1,179.547,103.093Z" transform="translate(68.931 34.875)" fill="#1a3a68"/>
        <path id="Path_551" data-name="Path 551" d="M179.793,99.949a.273.273,0,0,1-.135-.034l-1.29-.712a.282.282,0,0,1,.064-.506.28.28,0,0,1,.207.013l1.293.708a.281.281,0,0,1-.136.528Z" transform="translate(68.638 33.989)" fill="#1a3a68"/>
        <path id="Path_552" data-name="Path 552" d="M183.33,101.88a.287.287,0,0,1-.135-.033l-1.293-.708a.28.28,0,0,1-.085-.071.276.276,0,0,1-.05-.1.292.292,0,0,1-.01-.11.293.293,0,0,1,.1-.189.294.294,0,0,1,.1-.05.264.264,0,0,1,.109-.01.3.3,0,0,1,.105.032l1.293.708a.274.274,0,0,1,.123.135.278.278,0,0,1,.015.182.286.286,0,0,1-.1.153A.282.282,0,0,1,183.33,101.88Z" transform="translate(69.634 34.653)" fill="#1a3a68"/>
        <path id="Path_553" data-name="Path 553" d="M70.931,30.34a3.22,3.22,0,0,1-1.248-.252,3.267,3.267,0,0,1-1.773-1.82,3.354,3.354,0,0,1,1.8-4.33,3.184,3.184,0,0,1,2.481,0,3.275,3.275,0,0,1,1.773,1.82,3.354,3.354,0,0,1-1.8,4.33A3.218,3.218,0,0,1,70.931,30.34Zm.008-6.09a2.654,2.654,0,0,0-1.018.2,2.789,2.789,0,0,0-1.489,3.6A2.711,2.711,0,0,0,69.9,29.568a2.632,2.632,0,0,0,2.048,0,2.788,2.788,0,0,0,1.486-3.593,2.706,2.706,0,0,0-1.47-1.511A2.622,2.622,0,0,0,70.938,24.25Z" transform="translate(25.41 6.707)" fill="#1a3a68"/>
        <path id="Path_554" data-name="Path 554" d="M186.9,94.781h-.15a3.13,3.13,0,0,1-2.2-1.044,3.206,3.206,0,0,1-.814-2.358,3.3,3.3,0,0,1,3.4-3.095,3.13,3.13,0,0,1,2.2,1.044,3.2,3.2,0,0,1,.815,2.358,3.3,3.3,0,0,1-3.253,3.095Zm.092-5.941a2.731,2.731,0,0,0-2.7,2.57,2.652,2.652,0,0,0,.671,1.948,2.581,2.581,0,0,0,1.809.858,2.727,2.727,0,0,0,2.819-2.567,2.646,2.646,0,0,0-.672-1.948,2.575,2.575,0,0,0-1.808-.858C187.07,88.84,187.029,88.84,186.988,88.84Z" transform="translate(70.192 30.52)" fill="#1a3a68"/>
        <path id="Path_555" data-name="Path 555" d="M111.884,39.909a2.152,2.152,0,0,1-.79-.15,2.2,2.2,0,0,1-1.232-1.2,2.266,2.266,0,0,1,1.133-2.955,2.16,2.16,0,0,1,1.677-.04,2.193,2.193,0,0,1,1.231,1.2,2.266,2.266,0,0,1-1.133,2.955A2.166,2.166,0,0,1,111.884,39.909Zm0-3.929a1.6,1.6,0,0,0-.657.141,1.7,1.7,0,0,0-.847,2.219,1.672,1.672,0,0,0,.368.54,1.655,1.655,0,0,0,.55.354,1.6,1.6,0,0,0,1.243-.03,1.7,1.7,0,0,0,.847-2.219,1.649,1.649,0,0,0-.92-.894,1.6,1.6,0,0,0-.586-.116Z" transform="translate(41.195 10.029)" fill="#1a3a68"/>
        <path id="Path_556" data-name="Path 556" d="M127.238,12.258a.28.28,0,0,1-.168-.054.269.269,0,0,1-.1-.144.279.279,0,0,1,0-.177.283.283,0,0,1,.109-.139l1.241-.835a.281.281,0,0,1,.21-.043.281.281,0,0,1,.1.509l-1.241.836A.277.277,0,0,1,127.238,12.258Z" transform="translate(47.588 3.075)" fill="#1a3a68"/>
        <path id="Path_557" data-name="Path 557" d="M123.856,14.538a.283.283,0,0,1-.168-.055.28.28,0,0,1-.1-.144.281.281,0,0,1,.112-.315l1.241-.836a.281.281,0,1,1,.314.466l-1.242.836A.273.273,0,0,1,123.856,14.538Z" transform="translate(46.316 3.721)" fill="#1a3a68"/>
        <path id="Path_558" data-name="Path 558" d="M125.419,11.958a.284.284,0,0,1-.133-.033.281.281,0,0,1-.1-.093l-.807-1.234a.281.281,0,0,1,.293-.429.284.284,0,0,1,.178.122l.807,1.233a.282.282,0,0,1-.082.39A.286.286,0,0,1,125.419,11.958Z" transform="translate(46.581 2.878)" fill="#1a3a68"/>
        <path id="Path_559" data-name="Path 559" d="M127.621,15.323a.283.283,0,0,1-.133-.033.273.273,0,0,1-.1-.093l-.807-1.234a.286.286,0,0,1-.04-.212.282.282,0,0,1,.334-.217.277.277,0,0,1,.177.122l.807,1.233a.292.292,0,0,1,.045.142.273.273,0,0,1-.033.145.282.282,0,0,1-.246.149Z" transform="translate(47.409 3.831)" fill="#1a3a68"/>
        <path id="Path_560" data-name="Path 560" d="M77.549,44.277a.281.281,0,0,1-.183-.5L103.621,21.3a.281.281,0,0,1,.365.428L77.733,44.21A.284.284,0,0,1,77.549,44.277Z" transform="translate(29.686 6.013)" fill="#1a3a68"/>
        <path id="Path_561" data-name="Path 561" d="M103.788,30.6a.273.273,0,0,1-.117-.025.285.285,0,0,1-.1-.073.3.3,0,0,1-.054-.1.284.284,0,0,1-.013-.109.279.279,0,0,1,.1-.192l16.344-13.994a.282.282,0,0,1,.367.427L103.97,30.531A.283.283,0,0,1,103.788,30.6Z" transform="translate(39.379 4.544)" fill="#1a3a68"/>
        <path id="Path_562" data-name="Path 562" d="M104.454,180.382A78.179,78.179,0,0,1,85.1,178.2a.284.284,0,0,1-.1-.047.274.274,0,0,1-.073-.082.278.278,0,0,1-.03-.212.28.28,0,0,1,.047-.1.269.269,0,0,1,.082-.073.274.274,0,0,1,.1-.037.286.286,0,0,1,.109.006c23.955,6.19,55.87-2.84,56.191-2.931a.287.287,0,0,1,.205.032.283.283,0,0,1,.106.372.286.286,0,0,1-.158.137A153.734,153.734,0,0,1,104.454,180.382Z" transform="translate(33.958 61.697)" fill="#1a3a68"/>
        <path id="Path_563" data-name="Path 563" d="M105.142,183.2c-7.747,0-16.04-.738-22.852-3.078a.284.284,0,0,1-.174-.141.275.275,0,0,1-.032-.109.289.289,0,0,1,.014-.114.28.28,0,0,1,.058-.1.3.3,0,0,1,.093-.068.279.279,0,0,1,.112-.024.261.261,0,0,1,.112.022c18.161,6.244,47.037.979,47.325.925a.29.29,0,0,1,.11,0,.279.279,0,0,1,.177.122.269.269,0,0,1,.041.1.291.291,0,0,1,0,.11.259.259,0,0,1-.044.1.279.279,0,0,1-.078.077.268.268,0,0,1-.1.041A153.892,153.892,0,0,1,105.142,183.2Z" transform="translate(32.413 63.07)" fill="#1a3a68"/>
        <path id="Path_564" data-name="Path 564" d="M79.434,179.378a1.991,1.991,0,1,1,1.341-.52A2,2,0,0,1,79.434,179.378Zm0-3.454a1.438,1.438,0,0,0-.689.176,1.44,1.44,0,1,0,.689-.176Z" transform="translate(29.028 61.889)" fill="#1a3a68"/>
        <path id="Path_565" data-name="Path 565" d="M133.2,177.063a.266.266,0,0,1-.118-.027.278.278,0,0,1-.113-.094.284.284,0,0,1-.05-.139l-.447-5.511a.3.3,0,0,1,.022-.133.291.291,0,0,1,.082-.108.278.278,0,0,1,.257-.051l5.795,1.718a.28.28,0,0,1,.081.5l-5.35,3.794A.272.272,0,0,1,133.2,177.063Zm-.126-5.407.377,4.61,4.476-3.173Z" transform="translate(49.887 60.641)" fill="#1a3a68"/>
        <path id="Path_566" data-name="Path 566" d="M182.77,43.3,168.59,16.922a1.279,1.279,0,0,0-2.089-.341L144.98,41.451a1.278,1.278,0,0,0,.874,2.154l9.467.285a1.4,1.4,0,0,1,1.259,1.93,117.96,117.96,0,0,1-30.335,43.494c-34.614,31.056-76.74,30.643-87.192,30.24l2.619,17.831c11.108-.059,57.271-1.565,93.922-37.435A130.826,130.826,0,0,0,168.6,45.723a2.054,2.054,0,0,1,2.113-1.431l10.844.829A1.328,1.328,0,0,0,182.77,43.3Z" transform="translate(19.141 4.582)" fill="#1a3a68"/>
        <path id="Path_567" data-name="Path 567" d="M41.731,137.725a.283.283,0,0,1-.278-.241l-2.619-17.83a.278.278,0,0,1,.069-.229.266.266,0,0,1,.22-.093c15.385.591,54.664-1.164,86.992-30.17a116.621,116.621,0,0,0,30.263-43.39,1.12,1.12,0,0,0-1.009-1.542l-9.466-.286a1.56,1.56,0,0,1-1.071-2.629l21.515-24.857a1.559,1.559,0,0,1,2.556.407l14.171,26.367a.2.2,0,0,1,.017.037,1.612,1.612,0,0,1-1.459,2.192h-.04l-10.844-.828a1.753,1.753,0,0,0-1.822,1.234,131.3,131.3,0,0,1-33.081,54.344c-34.321,33.588-77.253,37.424-94.118,37.514ZM39.44,119.908l2.534,17.256c16.963-.126,59.473-4.069,93.482-37.352A130.724,130.724,0,0,0,168.393,45.7a2.325,2.325,0,0,1,2.4-1.627l10.825.828a1.108,1.108,0,0,0,.932-.63,1.087,1.087,0,0,0,.023-.794L168.4,17.114a.994.994,0,0,0-.756-.581.978.978,0,0,0-.882.3L145.252,41.69a1,1,0,0,0-.208,1.062,1,1,0,0,0,.882.626l9.463.286a1.684,1.684,0,0,1,1.363.763,1.706,1.706,0,0,1,.266.758,1.685,1.685,0,0,1-.117.8,117.173,117.173,0,0,1-30.408,43.6C94.245,118.515,55.125,120.462,39.44,119.908Z" transform="translate(19.073 4.52)" fill="#fff"/>
        <path id="Path_568" data-name="Path 568" d="M78.307,164.765s-.126,4.87-.242,11.976c-.1,5.65-.194,12.708-.23,19.856H54.156l-.792-14.805S51.084,188.731,49,196.6H22.69c.547-9.1,1.039-17.67,1.352-23.2.219-3.887.351-6.27.351-6.27Z" transform="translate(6.304 58.879)" fill="#fff"/>
        <path id="Path_569" data-name="Path 569" d="M43.253,193.178a.279.279,0,0,1-.125-.028.267.267,0,0,1-.1-.081.272.272,0,0,1-.053-.115.282.282,0,0,1,0-.128c2.066-7.784,4.348-14.753,4.37-14.822a.286.286,0,0,1,.118-.15.28.28,0,0,1,.186-.04.281.281,0,0,1,.244.263l.792,14.806a.281.281,0,0,1-.562.03l-.712-13.279c-.775,2.446-2.393,7.675-3.895,13.336a.279.279,0,0,1-.272.209Z" transform="translate(16.064 62.573)" fill="#1a3a68"/>
        <path id="Path_570" data-name="Path 570" d="M22.752,196.936h-.018a.28.28,0,0,1-.193-.094.283.283,0,0,1-.07-.2c.6-9.937,1.1-18.8,1.35-23.2.219-3.889.351-6.272.351-6.272a.281.281,0,0,1,.268-.264l53.914-2.364a.264.264,0,0,1,.113.018.287.287,0,0,1,.1.062.284.284,0,0,1,.064.1.276.276,0,0,1,.021.113c0,.049-.126,4.949-.242,11.972-.126,7.24-.2,13.918-.232,19.853a.283.283,0,0,1-.021.108.3.3,0,0,1-.061.091.287.287,0,0,1-.091.06.283.283,0,0,1-.215,0,.283.283,0,0,1-.151-.153.278.278,0,0,1-.021-.108c.03-5.937.107-12.619.231-19.858.1-6.039.206-10.509.234-11.678l-53.359,2.346c-.04.711-.16,2.87-.338,6.017-.252,4.4-.756,13.261-1.351,23.2a.282.282,0,0,1-.09.185A.278.278,0,0,1,22.752,196.936Z" transform="translate(6.242 58.816)" fill="#1a3a68"/>
        <path id="Path_571" data-name="Path 571" d="M70.537,111.588c.967-.077,5.712,9.64,20.561,9.234S117.86,103.8,117.86,103.8s5.128-8.647,9.019-11.774,4.5-3.538,4.5-3.538a3.173,3.173,0,0,1,0,3.538,55.58,55.58,0,0,1-4.589,5.492,4.933,4.933,0,0,1,2.036,6.282c-1.925,4.88-7.349,4.489-7.349,4.489s-11.008,48.744-56.507,25.58Z" transform="translate(26.362 31.805)" fill="#fff"/>
        <path id="Path_572" data-name="Path 572" d="M87.6,140.454c-6.891,0-14.477-2.094-22.689-6.275a.28.28,0,0,1-.146-.318l5.566-22.28a.282.282,0,0,1,.091-.148.275.275,0,0,1,.16-.065c.338-.026.663.335,1.373,1.127,2.261,2.52,7.557,8.432,19.2,8.107,14.54-.4,26.421-16.74,26.54-16.906.2-.334,5.185-8.706,9.069-11.828,3.855-3.1,4.495-3.535,4.519-3.552a.281.281,0,0,1,.379.064,3.488,3.488,0,0,1,.012,3.858,51.174,51.174,0,0,1-4.392,5.29,5.181,5.181,0,0,1,1.866,6.437c-1.73,4.387-6.228,4.673-7.368,4.673h-.023a56.07,56.07,0,0,1-4.438,11.483c-3,5.793-8.368,13.537-16.939,17.56A29.656,29.656,0,0,1,87.6,140.454Zm-22.235-6.676c13.42,6.79,25.123,7.924,34.783,3.39,16.143-7.58,21.075-28.672,21.123-28.884a.279.279,0,0,1,.107-.164.286.286,0,0,1,.187-.055c.212.015,5.243.316,7.068-4.311a4.607,4.607,0,0,0-1.912-5.931.281.281,0,0,1-.094-.085.284.284,0,0,1,.024-.355,55.37,55.37,0,0,0,4.558-5.45,2.9,2.9,0,0,0,.155-2.979c-.425.317-1.535,1.173-4.246,3.349-3.806,3.058-8.9,11.612-8.953,11.7-.133.187-12.179,16.752-27,17.16-.311.009-.62.013-.922.013-11.268,0-16.462-5.795-18.714-8.306-.275-.307-.555-.62-.747-.8Z" transform="translate(26.296 31.745)" fill="#1a3a68"/>
        <path id="Path_573" data-name="Path 573" d="M11.958,132.927s4.456-28.754,20.194-35.836S69.193,91,75.065,94.532s21.18,19.51,21.18,19.51L82.723,132.927s3.091,50.833.647,64.253c0,0-15.048,1.754-21.43-.756s-27.367-6.036-37.4-1.427l1.824-64.362Z" transform="translate(3.266 38.22)" fill="#1a3a68"/>
        <path id="Path_574" data-name="Path 574" d="M72.808,198.127c-3.981,0-8.187-.313-10.908-1.386-6.3-2.479-27.122-6.046-37.177-1.432a.287.287,0,0,1-.139.024.278.278,0,0,1-.133-.046.275.275,0,0,1-.095-.1.282.282,0,0,1-.032-.137l1.814-64.02-14.075,2.239a.281.281,0,0,1-.13-.01.275.275,0,0,1-.111-.068.283.283,0,0,1-.081-.241,85.154,85.154,0,0,1,4.212-15.322c2.83-7.418,7.935-17.035,16.15-20.729a67.174,67.174,0,0,1,25.265-5.283c7.794-.191,14.823.882,17.907,2.74,5.838,3.513,20.612,18.9,21.24,19.558a.283.283,0,0,1,.025.358l-13.468,18.8c.151,2.545,3.008,51.2.636,64.221a.284.284,0,0,1-.243.23A103.009,103.009,0,0,1,72.808,198.127Zm-34.564-5.6c9.493,0,19.749,2.077,23.863,3.7,5.84,2.3,19.253.959,21.086.762,2.343-13.543-.658-63.473-.688-63.984a.28.28,0,0,1,.052-.181l13.391-18.693c-1.656-1.719-15.509-16.017-20.96-19.3-3-1.8-9.907-2.847-17.6-2.659a66.6,66.6,0,0,0-25.049,5.232C17.892,103.9,12.97,129.222,12.365,132.648l14.021-2.228a.281.281,0,0,1,.122.008.282.282,0,0,1,.179.158.275.275,0,0,1,.023.119L24.9,194.619C28.465,193.1,33.248,192.529,38.243,192.529Z" transform="translate(3.203 38.159)" fill="#fff"/>
        <path id="Path_575" data-name="Path 575" d="M32.605,166.91a.28.28,0,0,1-.283-.255.279.279,0,0,1,.234-.3c12.558-2.22,20.34-7.831,24.659-12.146a30.484,30.484,0,0,0,6.411-8.89.283.283,0,0,1,.366-.155.282.282,0,0,1,.155.367,31.051,31.051,0,0,1-6.535,9.076c-4.376,4.373-12.258,10.056-24.959,12.3A.159.159,0,0,1,32.605,166.91Z" transform="translate(12.396 50.765)" fill="#1a3a68"/>
        <path id="Path_576" data-name="Path 576" d="M72.978,147.07H42.345l9.6-34.218H82.574Z" transform="translate(16.465 39.891)" fill="#fff"/>
        <path id="Path_577" data-name="Path 577" d="M73.04,147.413H42.407a.281.281,0,0,1-.224-.112.272.272,0,0,1-.052-.117.28.28,0,0,1,.005-.128l9.6-34.219a.282.282,0,0,1,.1-.148.289.289,0,0,1,.17-.058H82.635a.284.284,0,0,1,.125.029.28.28,0,0,1,.1.082.283.283,0,0,1,.052.118.278.278,0,0,1-.006.128l-9.6,34.218a.275.275,0,0,1-.1.148A.281.281,0,0,1,73.04,147.413Zm-30.262-.563H72.827L82.265,113.2H52.215Z" transform="translate(16.391 39.833)" fill="#1a3a68"/>
        <path id="Path_578" data-name="Path 578" d="M13.512,124.225l15.947-2.793s-1.889,22.555,29.473,10.424a22.355,22.355,0,0,1-.993-7.318c.164-3.943,2.519-.126,2.853,3.077s7.694,1.9,12.119.642,10.235-.438,0,5.207-12.477,3.128-12.477,3.128S47.364,154.88,31.1,151C11.1,146.218,13.512,124.225,13.512,124.225Z" transform="translate(3.68 42.769)" fill="#fff"/>
        <path id="Path_579" data-name="Path 579" d="M35.7,151.876a19.7,19.7,0,0,1-4.609-.543,21.788,21.788,0,0,1-16.5-15.366,32.487,32.487,0,0,1-1.306-11.714.28.28,0,0,1,.074-.164.275.275,0,0,1,.158-.087l15.947-2.792a.283.283,0,0,1,.127.006.271.271,0,0,1,.111.063.28.28,0,0,1,.072.105.287.287,0,0,1,.019.126c-.006.073-.544,7.323,4.66,11.217,4.857,3.634,12.992,3.3,24.183-.983a22.7,22.7,0,0,1-.925-7.164c.019-.476.079-1.925.9-1.949h.018c1.049,0,2.267,2.787,2.5,5.011a1.475,1.475,0,0,0,.212.64,1.459,1.459,0,0,0,.476.477c1.872,1.269,7.137.405,11.075-.719,2.161-.617,5.448-.9,5.985.4.484,1.173-1.4,2.914-5.773,5.323-8.59,4.739-11.7,3.789-12.554,3.275A47.807,47.807,0,0,1,52.1,145.53C48.117,148.609,42.323,151.876,35.7,151.876ZM13.831,124.53a32.033,32.033,0,0,0,1.308,11.288c2.489,7.976,7.9,13.014,16.087,14.969a19.3,19.3,0,0,0,4.48.527c13.791,0,24.441-14.656,24.561-14.821a.279.279,0,0,1,.093-.083.282.282,0,0,1,.12-.035.272.272,0,0,1,.123.022.275.275,0,0,1,.1.072c.019.018,2.328,2.222,12.131-3.186,5.615-3.1,5.648-4.317,5.524-4.614-.307-.748-2.839-.783-5.31-.078-2.063.589-8.99,2.374-11.546.644a2.035,2.035,0,0,1-.932-1.527c-.241-2.342-1.469-4.505-1.931-4.505-.077,0-.307.268-.355,1.411a22.177,22.177,0,0,0,.979,7.215.283.283,0,0,1-.165.354c-11.513,4.453-19.916,4.786-24.974,1-4.769-3.571-4.935-9.793-4.9-11.352Z" transform="translate(3.618 42.71)" fill="#1a3a68"/>
        <path id="Path_580" data-name="Path 580" d="M49.3,91.694c-1.34,1.226-3.957,2.723-6.007,1.692-1.525-.768-2.377-2.758-2.325-5.038a3.047,3.047,0,0,1-2.292-.576c-1.018-.9-.828-2.553-.787-3.641.183-5.018-2.732-5.794-2.015-9.195a8.1,8.1,0,0,1,3.056-4.57c1.985-1.505,3.33-1.019,6.667-1.889,5.615-1.471,5.794-3.892,9.493-3.9.214,0,5.25.055,6.958,3.534,1.385,2.829-.233,6.267-1.912,8.074-2.173,2.339-3.733,1.183-5.92,3.149C50.389,82.767,53.281,88.052,49.3,91.694Z" transform="translate(13.651 22.724)" fill="#1a3a68"/>
        <path id="Path_581" data-name="Path 581" d="M59.579,80.859l-.222-.191A6.848,6.848,0,0,1,56.8,77.161c-1.26-6.107-6.851-8.326-7.108-2.717-.066,1.416-5.235,1.343-4.621,2.828,1.6,3.874,1.637,2.831-.622,4.26a1.936,1.936,0,0,0-.749.178,2.588,2.588,0,0,0-.914,3.51,2.99,2.99,0,0,0,1.836,1.645v6.12a5.648,5.648,0,0,1-3.51,5.228l-2.067.845s9.636,6.289,19.416-.616l-1.3-.586a6.586,6.586,0,0,1-3.887-5.8l-.011-1.2a5.119,5.119,0,0,0,1.883-.157c2.736-.8,3.644-3.947,3.179-7.866l1.113-.6a.84.84,0,0,0,.151-1.378Z" transform="translate(14.815 25.091)" fill="#fff"/>
        <path id="Path_582" data-name="Path 582" d="M48.627,102a19.553,19.553,0,0,1-9.678-2.645.282.282,0,0,1,.048-.5l2.066-.845A5.347,5.347,0,0,0,44.4,93.05V87.13a3.473,3.473,0,0,1-2.049-4,2.392,2.392,0,0,1,1.29-1.616,2.192,2.192,0,0,1,.778-.2c.378-.238.694-.406.947-.54.462-.252.612-.338.63-.463a4.912,4.912,0,0,0-.524-1.469c-.164-.378-.364-.839-.6-1.4a.812.812,0,0,1,.008-.685c.286-.588,1.307-.882,2.393-1.178.971-.272,2.18-.611,2.2-1.086.137-2.993,1.678-3.436,2.334-3.488,1.931-.15,4.509,2.161,5.329,6.16a6.635,6.635,0,0,0,2.471,3.35l.222.191a1.122,1.122,0,0,1-.2,1.839l-.946.5c.466,4.31-.768,7.212-3.4,7.978a5.154,5.154,0,0,1-1.676.188l.008.894a6.339,6.339,0,0,0,3.721,5.542l1.3.586a.277.277,0,0,1,.165.229.281.281,0,0,1-.117.252A17.121,17.121,0,0,1,48.627,102Zm-8.888-2.837c2.015,1.1,10.062,4.832,18.208-.608l-.849-.378a6.909,6.909,0,0,1-4.053-6.046l-.01-1.2a.283.283,0,0,1,.306-.283,4.839,4.839,0,0,0,1.78-.146c2.381-.693,3.466-3.45,2.978-7.557a.281.281,0,0,1,.146-.281l1.114-.6a.559.559,0,0,0,.1-.917l-.22-.19A7.09,7.09,0,0,1,56.582,77.3c-.736-3.582-3.039-5.842-4.735-5.712-1.072.083-1.734,1.16-1.816,2.951-.04.882-1.29,1.232-2.614,1.6-.829.232-1.859.521-2.035.882a.252.252,0,0,0,0,.223c.232.559.429,1.016.593,1.393.77,1.772.869,2-.351,2.653-.252.137-.581.31-.974.558a.287.287,0,0,1-.139.044,1.663,1.663,0,0,0-.641.151,1.842,1.842,0,0,0-.984,1.25,2.809,2.809,0,0,0,.2,1.889,2.727,2.727,0,0,0,1.66,1.494.285.285,0,0,1,.2.271v6.12a5.91,5.91,0,0,1-3.687,5.489Z" transform="translate(14.741 25.026)" fill="#1a3a68"/>
        <path id="Path_583" data-name="Path 583" d="M51.394,87.649h-.043a8.249,8.249,0,0,1-5.7-3.683.281.281,0,1,1,.487-.281,7.821,7.821,0,0,0,5.3,3.4.281.281,0,0,1-.042.559Z" transform="translate(17.067 28.832)" fill="#1a3a68"/>
        <path id="Path_584" data-name="Path 584" d="M62.886,63.016a9.587,9.587,0,1,0-13.766-.388A9.741,9.741,0,0,0,62.886,63.016Z" transform="translate(17.714 16.137)" fill="#fff"/>
        <path id="Path_585" data-name="Path 585" d="M56.663,66.2A10.638,10.638,0,0,1,47.342,60.8a9.906,9.906,0,0,1-.054-9.559.281.281,0,1,1,.494.268,9.342,9.342,0,0,0,.053,9.017,10.144,10.144,0,0,0,13.443,4,9.51,9.51,0,0,0,4.808-5.714,9.3,9.3,0,0,0-.785-7.266,10.144,10.144,0,0,0-13.443-4,.282.282,0,0,1-.252-.5A10.71,10.71,0,0,1,65.8,51.266a9.868,9.868,0,0,1,.83,7.7,10.068,10.068,0,0,1-5.089,6.046A10.6,10.6,0,0,1,56.663,66.2Z" transform="translate(17.521 16.022)" fill="#1a3a68"/>
        <path id="Path_586" data-name="Path 586" d="M53.047,60.594l.315-1.321a5.483,5.483,0,0,1-2.212-1.086l.8-1.542a4.845,4.845,0,0,0,2.154,1.088c.79.164,1.4-.03,1.535-.587.126-.529-.238-.955-1.18-1.511-1.363-.807-2.208-1.713-1.889-3.062A2.733,2.733,0,0,1,55.5,50.581l.315-1.321,1.356.281-.291,1.224a4.957,4.957,0,0,1,1.9.874l-.776,1.489a4.566,4.566,0,0,0-1.882-.882c-.9-.186-1.283.144-1.377.533-.11.458.306.852,1.378,1.54,1.511.925,1.991,1.828,1.693,3.08a2.821,2.821,0,0,1-3.078,2.063L54.4,60.881Z" transform="translate(19.189 17.094)" fill="#1a3a68"/>
        <path id="Path_587" data-name="Path 587" d="M78.36,65.717a6.855,6.855,0,1,0-9.5-2.6A6.965,6.965,0,0,0,78.36,65.717Z" transform="translate(25.75 18.355)" fill="#fff"/>
        <path id="Path_588" data-name="Path 588" d="M74.974,67.254a7.456,7.456,0,0,1-3.205-.72,7.137,7.137,0,0,1-3.732-4.177,7.28,7.28,0,0,1,.442-5.7A7.739,7.739,0,0,1,78.594,53.17a7.218,7.218,0,0,1,3.854,5.775.282.282,0,0,1-.559.071,6.577,6.577,0,0,0-3.537-5.338,7.171,7.171,0,0,0-9.372,3.237,6.716,6.716,0,0,0-.409,5.262,6.57,6.57,0,0,0,3.44,3.849,7.171,7.171,0,0,0,9.373-3.237.284.284,0,0,1,.065-.094.282.282,0,0,1,.464.123.283.283,0,0,1-.026.222,7.79,7.79,0,0,1-6.914,4.213Z" transform="translate(25.623 18.245)" fill="#1a3a68"/>
        <path id="Path_589" data-name="Path 589" d="M74.02,63.356l-.118-.964a3.958,3.958,0,0,1-1.753-.176l.155-1.233a3.467,3.467,0,0,0,1.714.191c.569-.087.932-.37.882-.776-.047-.385-.4-.579-1.168-.72-1.115-.2-1.907-.6-2.028-1.581a1.954,1.954,0,0,1,1.467-2.066l-.118-.964.98-.15.11.893a3.537,3.537,0,0,1,1.49.112l-.149,1.191A3.266,3.266,0,0,0,74,56.989c-.65.1-.825.416-.791.7.042.335.418.494,1.307.689,1.242.243,1.79.728,1.9,1.637a2.018,2.018,0,0,1-1.548,2.15L75,63.2Z" transform="translate(26.88 19.012)" fill="#1a3a68"/>
        <path id="Path_590" data-name="Path 590" d="M84.956,77.971a7.53,7.53,0,1,0-8.627,6.523A7.65,7.65,0,0,0,84.956,77.971Z" transform="translate(26.52 24.034)" fill="#fff"/>
        <path id="Path_591" data-name="Path 591" d="M77.555,85.224a7.819,7.819,0,0,1-2.528-.422,7.964,7.964,0,0,1-4.649-4.187A8.473,8.473,0,0,1,74.1,69.508a7.836,7.836,0,0,1,7.557.214.281.281,0,0,1-.286.485,7.276,7.276,0,0,0-7.021-.2,7.907,7.907,0,0,0-3.474,10.365A7.415,7.415,0,0,0,75.2,84.269a7.254,7.254,0,0,0,5.678-.418,7.906,7.906,0,0,0,3.472-10.365.281.281,0,0,1-.031-.227.281.281,0,0,1,.535-.013,8.475,8.475,0,0,1-3.726,11.107A7.876,7.876,0,0,1,77.555,85.224Z" transform="translate(26.392 23.909)" fill="#1a3a68"/>
        <path id="Path_592" data-name="Path 592" d="M77.941,80.48l-.456-.965a4.326,4.326,0,0,1-1.889.422L75.33,78.6a3.8,3.8,0,0,0,1.854-.392c.564-.287.845-.708.652-1.113-.183-.385-.613-.468-1.466-.349-1.232.175-2.194.035-2.66-.948a2.145,2.145,0,0,1,.819-2.66l-.457-.965.97-.494.423.893a3.89,3.89,0,0,1,1.593-.4l.252,1.294a3.554,3.554,0,0,0-1.588.378c-.644.327-.717.718-.583,1.008.159.335.606.378,1.6.267,1.379-.174,2.119.142,2.551,1.055a2.206,2.206,0,0,1-.874,2.771l.49,1.035Z" transform="translate(27.605 24.821)" fill="#1a3a68"/>
      </g>
    </g>
  </g>
</svg>
