<svg width="16" height="17" viewBox="0 0 16 17" fill="none" xmlns="http://www.w3.org/2000/svg">
<path id="Vector" d="M9.92582 3.89087C10.5607 3.39433 11.2145 2.72708 11.5462 1.91533C11.7193 1.49175 11.6633 1.01079 11.3971 0.629C11.1229 0.235167 10.6684 0 10.1818 0H5.81818C5.33164 0 4.87709 0.235167 4.60291 0.629C4.33673 1.01079 4.28145 1.49175 4.45382 1.91533C4.78545 2.72637 5.43927 3.39433 6.07418 3.89087C2.688 5.11487 0 9.32096 0 12.75C0 15.0939 1.95709 17 4.36364 17H11.6364C14.0429 17 16 15.0939 16 12.75C16 9.32096 13.312 5.11487 9.92582 3.89087ZM10.1942 1.39188C9.81891 2.31058 8.67127 3.08692 7.99855 3.45312C7.32727 3.08975 6.184 2.31979 5.81745 1.41667L10.1942 1.39188ZM11.6356 15.5833H4.36364C2.75927 15.5833 1.45455 14.3126 1.45455 12.75C1.45455 9.03621 4.88 4.95833 8 4.95833C11.12 4.95833 14.5455 9.03621 14.5455 12.75C14.5455 14.3126 13.24 15.5833 11.6356 15.5833ZM7.99927 15.5833C7.59782 15.5833 7.272 15.266 7.272 14.875V14.1667H7.07709C6.30036 14.1667 5.57673 13.7601 5.18764 13.1049C4.98691 12.7663 5.10545 12.3335 5.45309 12.1373C5.79927 11.9411 6.24509 12.0565 6.44655 12.3958C6.576 12.614 6.81818 12.75 7.07709 12.75H8.72655C9.12727 12.75 9.45382 12.432 9.45382 12.0417C9.45382 11.7739 9.25673 11.5472 8.98545 11.5033L6.77309 11.1442C5.79782 10.9862 5.08945 10.1717 5.08945 9.20833C5.08945 8.03675 6.06836 7.08333 7.27127 7.08333V6.375C7.27127 5.984 7.59709 5.66667 7.99855 5.66667C8.4 5.66667 8.72582 5.984 8.72582 6.375V7.08333H8.92073C9.69673 7.08333 10.4211 7.49062 10.8102 8.14583C11.0109 8.48442 10.8924 8.91721 10.5447 9.11342C10.1978 9.30962 9.75273 9.19417 9.55127 8.85487C9.42109 8.636 9.17964 8.50071 8.92073 8.50071H7.27127C6.87055 8.50071 6.544 8.81875 6.544 9.20904C6.544 9.47679 6.74109 9.70346 7.01236 9.74737L9.22473 10.1065C10.2 10.2645 10.9084 11.079 10.9084 12.0424C10.9084 13.214 9.92945 14.1674 8.72655 14.1674V14.8757C8.72655 15.2667 8.40073 15.5833 7.99927 15.5833Z" fill="white"/>
</svg>
