<svg width="360" height="93" viewBox="0 0 360 93" fill="none" xmlns="http://www.w3.org/2000/svg">
<path d="M348.085 82.8167L345.608 59.0068H340.547V39.2453H341.173V37.4585H338.715V29.7631H338.416V37.4585H336.717V31.1541H336.415V37.4585H326.175V39.2453H326.875V79.3337H315.185V61.3815H308.528V17.256H309.137V15.0905H307.804V12.3142H306.274V11.2739V8.10751V5.35956H304.43V0.446045H304.206H303.986V5.35956H302.987L302.386 8.10751H298.359V12.3142H287.813V15.0905H286.48V17.256H287.089V45.9625H278.265V74.1714L268.474 67.9348V40.5514H270.055V38.5442H267.275V33.0822H255.376V38.5442H251.487V33.0822H249.49V38.5442H247.492V33.0822H245.294V38.5442H240.697V40.5514H241.393V78.5025H236.93V78.1067H236.124V67.2902H236.93V66.4251H236.124V55.6086H236.93V54.7435H236.124V43.927H236.93V43.0619H236.124V32.2453H236.93V31.3803H236.124V20.5637H236.93V19.693H236.124V8.5033H237.508V7.63255H238.212V5.25778H225.067V2.62292H225.495V1.8596H218.339V2.62292H218.764V5.25778H215.508V7.63255H216.212V8.5033H217.596V19.693H216.786V20.5637H217.596V31.3803H216.786V32.2453H217.596V43.0619H216.786V43.927H217.596V54.7435H216.786V55.6086H217.596V66.4251H216.786V67.2902H217.596V78.1067H216.786V78.9718H217.596V87.8093H213.109V53.6635H195.056V78.5025H192.123V1.11324H189.956V3.10353L185.953 4.51143V3.22226H183.787V5.27474L179.784 6.68264V5.20124H177.613V7.44596L173.614 8.85386V7.63255H171.444V9.61718L167.445 11.0251V9.96774H165.274V85.966H162.223V45.4536H150.921V70.3661H139.337V49.1175H137.91V42.1402H138.759V41.4391H135.008V39.2453H134.611V41.4391H133.411V30.1816H133.113V41.4391H131.548V42.1402H132.468V49.1175H124.823V65.3282H117.38L113.491 85.966H105.693V18.5735H95.3635V16.1591H95.9533V15.3166H88.1322V16.1591H88.7456V18.5735V22.4579V68.6133H83.8776V51.1757H85.6077V49.5981H73.355V39.0587H71.0154V36.8988H65.8013V39.0587H61.5545V76.6818H47.6267V48.7783H35.9009V70.8184H25.7244V84.9144H18.3869V67.1884H8.73733V82.3021H0V92.9999H8.73733H11.6904H16.5113H18.3869H25.7244H35.9009H39.3219H41.1504H47.6267H61.5545H65.8013H71.0154H73.355H82.4934H83.8776H88.7456H96.9128H100.935H105.693H124.823H129.239H136.699H139.337H151.122H154.287H165.274H166.359H167.445H171.444H173.614H177.613H179.426H179.784H183.787H185.953H189.394H189.956H191.038H192.123H195.056H209.979H212.11H213.109H217.596H225.495H232.727H236.124H241.393H254.488H268.329H268.474H278.265H283.743H287.089H289.209H305.59H308.528H312.035H315.185H326.875H335.569H337.351H340.547H360V82.8167H348.085Z" fill="#19264C"/>
</svg>
