<svg width="17" height="17" viewBox="0 0 17 17" fill="none" xmlns="http://www.w3.org/2000/svg">
<path id="Vector" d="M16.3081 6.22625C15.8901 5.84375 15.3446 5.6525 14.7708 5.67375C14.2041 5.70208 13.6798 5.95 13.2902 6.36792L11.009 8.86833C10.6194 8.22375 9.91096 7.79167 9.10335 7.79167H6.3688V7.08333H6.638C7.66523 7.08333 8.4941 6.2475 8.4941 5.2275C8.4941 4.31375 7.84234 3.54167 6.94263 3.39292L4.61189 3.00333C4.39936 2.96792 4.24351 2.78375 4.24351 2.56417C4.24351 2.32333 4.44187 2.125 4.68273 2.125H6.3688C6.75844 2.125 7.07723 2.44375 7.07723 2.83333H8.4941C8.4941 1.66458 7.53771 0.708333 6.3688 0.708333V0H4.95194V0.708333H4.68273C3.65551 0.708333 2.82664 1.54417 2.82664 2.56417C2.82664 3.47792 3.4784 4.25 4.37811 4.39875L6.70885 4.78833C6.92138 4.82375 7.07723 5.00792 7.07723 5.2275C7.07723 5.46833 6.87887 5.66667 6.638 5.66667H4.95194C4.5623 5.66667 4.24351 5.34792 4.24351 4.95833H2.82664C2.82664 6.12708 3.78303 7.08333 4.95194 7.08333V7.79167H2.12529C0.956383 7.79167 0 8.74792 0 9.91667V14.875C0 16.0437 0.956383 17 2.12529 17H9.52841L16.464 9.21542C17.2361 8.34417 17.1653 7.00542 16.3081 6.21917V6.22625ZM15.4084 8.28042L8.8979 15.5904H2.12529C1.73566 15.5904 1.41686 15.2717 1.41686 14.8821V9.92375C1.41686 9.53417 1.73566 9.21542 2.12529 9.21542H9.11043C9.55674 9.21542 9.91804 9.57667 9.91804 10.0229C9.91804 10.4196 9.6205 10.7667 9.22378 10.8233L5.56827 11.3475L5.76663 12.75L9.42214 12.2258C10.2581 12.1054 10.9311 11.5246 11.2003 10.7667L14.3387 7.32417C14.4662 7.1825 14.6433 7.0975 14.8346 7.09042C15.0258 7.09042 15.21 7.14708 15.3517 7.27458C15.6422 7.53667 15.6634 7.99 15.4013 8.28042H15.4084Z" fill="white"/>
</svg>
