<svg width="298" height="297" viewBox="0 0 298 297" fill="none" xmlns="http://www.w3.org/2000/svg">
<path d="M229 17.1555C213.794 20.1968 199.799 29.1333 189.39 35.3384C169.538 47.1721 161.639 42.2642 160.268 35.3384C158.494 26.3803 165.318 14.5466 186.959 16.1466C208.6 17.7465 224.304 38.8553 222.06 62.8398C219.817 86.8242 188.488 134.908 178.259 154.634C172.135 166.453 178.259 185.263 198.457 182.776" stroke="#20305B" stroke-width="2" stroke-miterlimit="10" stroke-dasharray="4 4"/>
<path d="M227.957 17L261 11.7759L221 0L227.957 17Z" fill="#F8F7FF"/>
<path d="M228.411 17.1032L261 12L227 35L228.411 17.1032Z" fill="#4B65B0"/>
<path d="M283.576 188.537C287.846 164.43 287.745 143.539 272.238 133.275C256.732 123.01 267.969 86 238.5 86C209.031 86 220.275 123.01 204.769 133.275C189.263 143.539 189.162 164.43 193.424 188.537C197.686 212.644 182 216.359 182 233.469C182 263.945 210.971 271 238.5 271C266.029 271 295 263.945 295 233.469C295 216.359 279.314 212.644 283.576 188.537Z" fill="#4B65B0"/>
<path d="M204.97 133.273C189.32 143.537 189.225 164.427 193.525 188.533C197.825 212.639 182 216.354 182 233.464C182 263.938 211.228 271 239 271V86C209.27 86 220.614 123.009 204.97 133.273Z" fill="#BED1FF"/>
<path d="M239 86V293" stroke="white" stroke-width="1.7" stroke-miterlimit="10"/>
<path d="M219 100L239 121" stroke="white" stroke-width="1.7" stroke-miterlimit="10"/>
<path d="M265 122L239 148" stroke="white" stroke-width="1.7" stroke-miterlimit="10"/>
<path d="M195 145L239 179" stroke="white" stroke-width="1.7" stroke-miterlimit="10"/>
<path d="M286 177L239 213" stroke="white" stroke-width="1.7" stroke-miterlimit="10"/>
<path d="M188 216L239 248" stroke="white" stroke-width="1.7" stroke-miterlimit="10"/>
<path d="M163.107 191L205 292H177.387L154 240.913L163.107 191Z" fill="#3B4F8A"/>
<g style="mix-blend-mode:multiply" opacity="0.3">
<path d="M163.05 191L154 240.913L177.241 292L195 268.604L163.05 191Z" fill="#3B4F8A"/>
</g>
<path d="M236.263 231.675L216.746 233.993C216.52 234.015 216.293 233.987 216.079 233.913C215.865 233.839 215.668 233.719 215.503 233.562C215.338 233.405 215.208 233.213 215.121 233.001C215.035 232.789 214.994 232.56 215.001 232.331L216.265 195.882C216.278 195.491 216.432 195.118 216.696 194.832C216.96 194.547 217.317 194.368 217.701 194.329L237.225 192.011C237.453 191.984 237.684 192.007 237.902 192.078C238.121 192.15 238.321 192.269 238.489 192.427C238.658 192.585 238.791 192.778 238.879 192.994C238.967 193.209 239.008 193.441 238.999 193.673L237.735 230.122C237.72 230.519 237.562 230.897 237.291 231.183C237.019 231.469 236.653 231.644 236.263 231.675Z" fill="white"/>
<path d="M168 292L165.934 197.096C165.881 194.669 165.028 192.327 163.507 190.433C161.987 188.54 159.884 187.201 157.525 186.624L134.487 181C123.127 181 114.269 182.276 107.425 184.066C101.409 185.657 96.0192 189.04 91.9717 193.766C87.9242 198.492 85.4105 204.338 84.7643 210.526L76 292H168Z" fill="#BED1FF"/>
<path d="M205 225.106C205 225.106 208.084 210.451 215.906 208L215.714 213.342L228 210.127C228 210.127 227.565 226.151 215.596 229.453L207.804 237L205 225.106Z" fill="#FF9C91"/>
<path d="M167.137 132.007C167.137 132.007 182.789 133.708 186.186 123.508C189.583 113.307 181.252 108.708 181.252 108.708C181.252 108.708 181.938 98.3417 173.766 92.5602C167.57 88.17 157.436 91.3707 157.436 91.3707C157.436 91.3707 150.123 80.7521 137.703 85.0053C125.282 89.2585 124.604 101.91 124.604 101.91C124.604 101.91 112.343 104.462 110.309 114.662C108.275 124.863 116.945 132.115 116.945 132.115C116.945 132.115 112.696 146.973 126.812 157C126.833 157 167.325 140.002 167.137 132.007Z" fill="#1F2F5C"/>
<path d="M142.956 129.179C142.519 131.735 141.882 134.253 141.051 136.708C139.998 134.472 138.186 132.994 136.123 132.994C132.864 132.994 130.214 136.701 130.214 141.274C130.214 145.039 132.019 148.176 134.476 149.208C132.222 152.251 129.456 154.873 126.303 156.954L120 181H148.378L150.162 168.313C150.281 167.46 150.57 166.64 151.012 165.903C151.454 165.165 152.04 164.525 152.733 164.021C153.427 163.517 154.215 163.16 155.049 162.97C155.884 162.781 156.748 162.763 157.589 162.918L160.913 163.531C163.206 163.952 165.57 163.438 167.487 162.103C169.404 160.768 170.716 158.721 171.134 156.413L177 124C167.359 127.058 156.558 125.724 149.932 124.339C149.157 124.178 148.358 124.176 147.582 124.335C146.806 124.493 146.07 124.807 145.419 125.26C144.767 125.712 144.213 126.292 143.79 126.966C143.366 127.639 143.083 128.392 142.956 129.179Z" fill="#FF9C91"/>
<path d="M160 163.171C136.643 158.517 134.624 149 134.624 149C132.347 152.063 129.553 154.702 126.368 156.797L120 181H148.669L150.47 168.23C150.591 167.372 150.883 166.547 151.33 165.804C151.776 165.062 152.367 164.418 153.068 163.911C153.769 163.403 154.565 163.043 155.408 162.853C156.251 162.662 157.124 162.644 157.974 162.8L160 163.171Z" fill="url(#paint0_linear_0_1)"/>
<path style="mix-blend-mode:multiply" opacity="0.3" d="M107 145L92.0109 124.861C100.692 117.539 106.038 107.808 106.038 97.0836C106.038 74.3912 82.3027 56 53.0189 56C23.7352 56 0 74.3912 0 97.0836C0 119.776 23.7424 138.174 53.0262 138.174C59.768 138.185 66.4719 137.171 72.9056 135.168L107 145Z" fill="url(#paint1_linear_0_1)"/>
<path d="M107 145L92.0109 119.804C100.692 112.495 106.038 102.772 106.038 92.0567C106.038 69.3832 82.3027 51 53.0189 51C23.7352 51 0 69.3832 0 92.0567C0 114.73 23.7424 133.113 53.0262 133.113C59.7714 133.124 66.4783 132.106 72.9128 130.095L107 145Z" fill="white"/>
<path d="M30 93C30 93.394 29.9224 93.7841 29.7717 94.148C29.6209 94.512 29.3999 94.8427 29.1213 95.1213C28.8427 95.3999 28.512 95.6209 28.148 95.7716C27.7841 95.9224 27.394 96 27 96C26.606 96 26.2159 95.9224 25.8519 95.7716C25.4879 95.6209 25.1572 95.3999 24.8786 95.1213C24.6001 94.8427 24.3791 94.512 24.2283 94.148C24.0776 93.7841 24 93.394 24 93C24 92.2043 24.316 91.4413 24.8786 90.8787C25.4413 90.3161 26.2043 90 27 90C27.7957 90 28.5587 90.3161 29.1213 90.8787C29.6839 91.4413 30 92.2043 30 93Z" fill="#1F2F5C"/>
<path d="M43 93C43 93.394 42.9224 93.7841 42.7716 94.148C42.6209 94.512 42.3999 94.8427 42.1213 95.1213C41.8427 95.3999 41.512 95.6209 41.1481 95.7716C40.7841 95.9224 40.394 96 40 96C39.6061 96 39.2159 95.9224 38.852 95.7716C38.488 95.6209 38.1573 95.3999 37.8787 95.1213C37.6001 94.8427 37.3791 94.512 37.2284 94.148C37.0776 93.7841 37 93.394 37 93C37 92.2043 37.3161 91.4413 37.8787 90.8787C38.4413 90.3161 39.2044 90 40 90C40.7957 90 41.5587 90.3161 42.1213 90.8787C42.6839 91.4413 43 92.2043 43 93Z" fill="#1F2F5C"/>
<path d="M56 93C56 93.394 55.9224 93.7841 55.7716 94.148C55.6209 94.512 55.3999 94.8427 55.1213 95.1213C54.8427 95.3999 54.512 95.6209 54.148 95.7716C53.7841 95.9224 53.394 96 53 96C52.2043 96 51.4413 95.6839 50.8786 95.1213C50.316 94.5587 50 93.7956 50 93C50 92.2043 50.316 91.4413 50.8786 90.8787C51.4413 90.3161 52.2043 90 53 90C53.7957 90 54.5587 90.3161 55.1213 90.8787C55.6839 91.4413 56 92.2043 56 93Z" fill="#1F2F5C"/>
<path d="M69 93C69 93.394 68.9224 93.7841 68.7716 94.148C68.6209 94.512 68.3999 94.8427 68.1213 95.1213C67.8427 95.3999 67.512 95.6209 67.1481 95.7716C66.7841 95.9224 66.3939 96 66 96C65.606 96 65.2159 95.9224 64.852 95.7716C64.488 95.6209 64.1573 95.3999 63.8787 95.1213C63.6001 94.8427 63.3791 94.512 63.2284 94.148C63.0776 93.7841 63 93.394 63 93C63 92.2043 63.3161 91.4413 63.8787 90.8787C64.4413 90.3161 65.2043 90 66 90C66.7956 90 67.5587 90.3161 68.1213 90.8787C68.6839 91.4413 69 92.2043 69 93Z" fill="#1F2F5C"/>
<path d="M83 93C83 93.394 82.9224 93.7841 82.7716 94.148C82.6209 94.512 82.3999 94.8427 82.1213 95.1213C81.8427 95.3999 81.512 95.6209 81.1481 95.7716C80.7841 95.9224 80.394 96 80 96C79.6061 96 79.2159 95.9224 78.852 95.7716C78.488 95.6209 78.1573 95.3999 77.8787 95.1213C77.6001 94.8427 77.3791 94.512 77.2284 94.148C77.0776 93.7841 77 93.394 77 93C77 92.2043 77.3161 91.4413 77.8787 90.8787C78.4413 90.3161 79.2044 90 80 90C80.7957 90 81.5587 90.3161 82.1213 90.8787C82.6839 91.4413 83 92.2043 83 93Z" fill="#1F2F5C"/>
<path d="M152.06 186L114 183.562L114.944 175.875C115.012 175.334 115.267 174.84 115.659 174.493C116.05 174.146 116.549 173.971 117.055 174.004L151.109 176.186C151.385 176.202 151.654 176.28 151.9 176.414C152.146 176.548 152.364 176.735 152.54 176.964C152.716 177.193 152.846 177.459 152.922 177.744C152.998 178.03 153.019 178.329 152.983 178.624L152.06 186Z" fill="#20305B"/>
<path style="mix-blend-mode:multiply" opacity="0.3" d="M271.856 137.183C266.824 137.828 262.142 140.081 258.523 143.6C254.905 147.119 252.547 151.711 251.809 156.677C251.06 161.812 252.098 167.046 254.753 171.52L245.122 187.889C245.033 188.021 244.99 188.179 245.002 188.338C245.013 188.496 245.078 188.647 245.186 188.765C245.294 188.883 245.438 188.962 245.597 188.989C245.755 189.017 245.918 188.991 246.06 188.916L264.592 180.568C269.04 182.738 274.076 183.434 278.954 182.551C283.834 181.66 288.298 179.25 291.695 175.673C295.093 172.095 297.246 167.537 297.84 162.664C298.253 159.2 297.864 155.688 296.701 152.395C295.538 149.102 293.632 146.114 291.128 143.658C288.623 141.202 285.586 139.342 282.247 138.22C278.908 137.098 275.355 136.744 271.856 137.183Z" fill="url(#paint2_linear_0_1)"/>
<path d="M271.854 135.183C266.822 135.826 262.141 138.077 258.523 141.592C254.904 145.107 252.547 149.695 251.809 154.657C251.057 159.788 252.095 165.019 254.752 169.489L245.122 185.89C245.033 186.022 244.99 186.179 245.002 186.338C245.013 186.497 245.078 186.647 245.186 186.765C245.294 186.883 245.438 186.962 245.597 186.989C245.755 187.017 245.918 186.991 246.06 186.917L264.59 178.566C269.037 180.738 274.073 181.435 278.952 180.556C283.831 179.666 288.295 177.257 291.692 173.682C295.089 170.107 297.241 165.552 297.835 160.683C298.255 157.218 297.87 153.704 296.71 150.409C295.55 147.113 293.645 144.123 291.14 141.664C288.635 139.206 285.596 137.344 282.254 136.221C278.912 135.098 275.355 134.743 271.854 135.183Z" fill="white"/>
<path d="M278 151V164H274.738V158.835H270.255V164H267V151H270.255V155.976H274.738V151H278Z" fill="#1F2F5C"/>
<path d="M280 151.741C280.005 151.281 280.164 150.841 280.445 150.516C280.725 150.191 281.104 150.005 281.5 150C281.896 150.005 282.275 150.191 282.555 150.516C282.836 150.841 282.995 151.281 283 151.741C282.995 152.201 282.836 152.641 282.555 152.966C282.275 153.292 281.896 153.477 281.5 153.482C281.104 153.477 280.725 153.292 280.445 152.966C280.164 152.641 280.005 152.201 280 151.741ZM280.248 154.332H282.746V164H280.248V154.332Z" fill="#1F2F5C"/>
<path d="M95.3269 190L147.079 268.175L203.252 224.369L212 234.667C212 234.667 165.207 297 146.404 297C121.965 297 82.0294 229.719 82.0294 229.719C82.0294 229.719 80.7355 199.407 95.3269 190Z" fill="#3B4F8A"/>
<defs>
<linearGradient id="paint0_linear_0_1" x1="135.268" y1="176.521" x2="147.903" y2="150.295" gradientUnits="userSpaceOnUse">
<stop offset="0.19" stop-color="#FF9C91"/>
<stop offset="1" stop-color="#F27C6F"/>
</linearGradient>
<linearGradient id="paint1_linear_0_1" x1="53.4964" y1="87.46" x2="53.4964" y2="185.508" gradientUnits="userSpaceOnUse">
<stop offset="0.13"/>
<stop offset="1" stop-color="white"/>
</linearGradient>
<linearGradient id="paint2_linear_0_1" x1="245.021" y1="162.993" x2="297.998" y2="162.993" gradientUnits="userSpaceOnUse">
<stop offset="0.13"/>
<stop offset="1" stop-color="white"/>
</linearGradient>
</defs>
</svg>
