<svg width="17" height="17" viewBox="0 0 17 17" fill="none" xmlns="http://www.w3.org/2000/svg">
<path id="Vector" d="M14.875 7.79167H11.3333C10.1617 7.79167 9.20833 8.74508 9.20833 9.91667V14.875C9.20833 16.0466 10.1617 17 11.3333 17H14.875C16.0466 17 17 16.0466 17 14.875V9.91667C17 8.74508 16.0466 7.79167 14.875 7.79167ZM15.5833 14.875C15.5833 15.2653 15.266 15.5833 14.875 15.5833H11.3333C10.9423 15.5833 10.625 15.2653 10.625 14.875V9.91667C10.625 9.52637 10.9423 9.20833 11.3333 9.20833H14.875C15.266 9.20833 15.5833 9.52637 15.5833 9.91667V14.875ZM14.875 11.3312C14.875 11.7222 14.5584 12.0395 14.1667 12.0395H12.0417C11.65 12.0395 11.3333 11.7222 11.3333 11.3312C11.3333 10.9402 11.65 10.6229 12.0417 10.6229H14.1667C14.5584 10.6229 14.875 10.9402 14.875 11.3312ZM14.875 13.4583C14.875 13.8493 14.5584 14.1667 14.1667 14.1667H12.0417C11.65 14.1667 11.3333 13.8493 11.3333 13.4583C11.3333 13.0673 11.65 12.75 12.0417 12.75H14.1667C14.5584 12.75 14.875 13.0673 14.875 13.4583ZM6.375 8.5C8.71887 8.5 10.625 6.59387 10.625 4.25C10.625 1.90612 8.71887 0 6.375 0C4.03113 0 2.125 1.90612 2.125 4.25C2.125 6.59387 4.03113 8.5 6.375 8.5ZM6.375 1.41667C7.93758 1.41667 9.20833 2.68742 9.20833 4.25C9.20833 5.81258 7.93758 7.08333 6.375 7.08333C4.81242 7.08333 3.54167 5.81258 3.54167 4.25C3.54167 2.68742 4.81242 1.41667 6.375 1.41667ZM7.79167 10.625C7.79167 11.016 7.47504 11.3333 7.08333 11.3333H6.375C3.64154 11.3333 1.41667 13.5575 1.41667 16.2917C1.41667 16.6827 1.10004 17 0.708333 17C0.316625 17 0 16.6827 0 16.2917C0 12.7769 2.85954 9.91667 6.375 9.91667H7.08333C7.47504 9.91667 7.79167 10.234 7.79167 10.625Z" fill="white"/>
</svg>
