<svg width="68" height="63" viewBox="0 0 68 63" fill="none" xmlns="http://www.w3.org/2000/svg">
<path id="Vector" d="M22.6657 29.5C13.2906 29.5 5.66643 21.9876 5.66643 12.75C5.66643 3.51238 13.2906 -4 22.6657 -4C32.0408 -4 39.665 3.51238 39.665 12.75C39.665 21.9876 32.0408 29.5 22.6657 29.5ZM52.4173 63C51.9838 63 51.5475 62.9023 51.1509 62.7069L50.5814 62.4249C47.3544 60.8365 36.8318 54.8763 36.8318 44.9156V36.3033C36.8318 32.6881 39.172 29.4944 42.6541 28.3526L51.5249 25.4549C52.1 25.2678 52.7318 25.2678 53.3069 25.4549L62.1749 28.3526C65.6569 29.4916 68 32.6881 68 36.3033V44.9156C68 56.1716 57.3358 61.2692 54.0691 62.5645L53.4769 62.799C53.137 62.933 52.7771 63 52.4202 63H52.4173ZM31.1654 44.9128V39.2122C31.1654 37.6489 30.1086 36.2614 28.5758 35.8538C25.8673 35.1308 22.9575 34.8935 19.9515 35.2397C8.41748 36.5713 0 46.7162 0 58.1593V60.2083C0 61.7493 1.26928 63 2.83322 63H41.076C36.2907 59.2061 31.1654 53.2068 31.1654 44.9128Z" fill="#AEC5FC"/>
</svg>
