<svg width="59" height="63" viewBox="0 0 59 63" fill="none" xmlns="http://www.w3.org/2000/svg">
<path id="Vector" d="M3.14132 17.8748C1.20869 17.8748 -0.292376 16.0846 0.0484919 14.1339C1.17117 7.71399 4.28902 1.74647 8.97673 -2.76126C15.0279 -8.5844 22.9304 -11.488 31.2614 -10.9329C46.9632 -9.89341 59.2282 4.13027 58.9968 20.8842C58.8717 29.9254 51.5258 37.1281 42.7102 37.1281H33.5411C32.4153 38.2382 30.8955 38.928 29.213 38.928C25.7575 38.928 22.9586 36.0565 22.9586 32.5113C22.9586 28.9661 25.7575 26.0946 29.213 26.0946C32.0526 26.0946 34.423 28.0485 35.1861 30.7114H42.7102C48.139 30.7114 52.6829 26.2743 52.7423 20.7078C52.8862 7.40599 43.2199 -3.70451 30.858 -4.52585C24.2939 -4.94293 18.0332 -2.67142 13.2517 1.92614C9.47084 5.56119 7.03472 10.2165 6.18099 15.3306C5.93081 16.8257 4.61738 17.8812 3.14132 17.8812V17.8748ZM29.2912 43.5416C17.7361 43.5416 7.73835 50.8951 4.41411 61.8356C4.11702 62.8109 4.28902 63.8729 4.88006 64.6942C5.47111 65.5155 6.40615 66 7.40061 66H51.1818C52.1763 66 53.1113 65.5155 53.7024 64.6942C54.2934 63.8729 54.4654 62.8109 54.1683 61.8356C50.8441 50.8951 40.8463 43.5416 29.2912 43.5416ZM38.4665 24.2915H45.828C46.2502 22.7611 46.491 21.1505 46.491 19.479C46.491 9.73204 38.7917 1.83309 29.2912 1.83309C19.7907 1.83309 12.0915 9.73204 12.0915 19.479C12.0915 24.2626 13.9553 28.5939 16.9668 31.7734C17.3452 25.1449 22.6552 19.8736 29.213 19.8736C32.9376 19.8736 36.2212 21.6093 38.4696 24.2915H38.4665Z" fill="#AEC5FC"/>
</svg>
