<svg width="358" height="173" viewBox="0 0 358 173" fill="none" xmlns="http://www.w3.org/2000/svg">
<ellipse cx="178" cy="160.5" rx="137" ry="12.5" fill="#5C7BC7"/>
<path d="M56.2871 31.7285C56.2426 31.9062 59.1303 30.1165 59.1303 30.1165L60.3488 28.2125C60.3488 28.2125 61.542 27.4446 62.3924 27.0257C63.2429 26.6068 64.8232 24.0555 64.8232 24.0555L64.1885 23.2749C63.8254 23.7292 63.4264 24.1537 62.9953 24.5442C62.7038 24.6342 62.392 24.6342 62.1005 24.5442C62.2895 23.8952 62.5205 23.2592 62.7923 22.6402C63.3271 21.5897 63.9649 20.5947 64.6962 19.6701L64.1504 19.0989C63.7308 19.5009 63.3325 19.9245 62.9573 20.3682C62.6463 20.7871 62.037 21.6375 62.037 21.6375C62.3281 20.9081 62.6695 20.1998 63.0588 19.5178C63.446 18.9466 63.8712 18.1659 63.8712 18.1659L63.2365 17.728C62.8288 18.2348 62.4536 18.7668 62.1132 19.321C61.7324 20.0064 61.0279 21.1425 61.0279 21.1425C61.256 20.3817 61.5251 19.6338 61.8339 18.9021C62.0941 18.4008 62.1957 18.1405 62.1957 18.1405L61.4468 17.8867C61.0714 18.3648 60.7717 18.8978 60.5583 19.467C60.4058 19.9184 60.2147 20.3558 59.9871 20.7744C60.0741 20.1246 60.2316 19.4861 60.4567 18.8704C60.5845 18.6781 60.6729 18.4624 60.7169 18.2358L60.0823 18.1215C60.0823 18.1215 58.9145 20.273 58.2989 21.6058C57.6833 22.9385 57.2073 24.7409 56.8583 25.7183C56.5131 27.1344 56.2483 28.5689 56.0649 30.0149L56.2871 31.7285Z" fill="#FF9C91"/>
<path d="M74.2797 44.5039L59.4986 41.9653C59.2512 39.4494 59.1982 36.918 59.34 34.3939C59.6002 29.9513 60.1396 28.7328 60.1396 28.7328L56.1731 28.187C56.1731 28.187 55.3924 31.6713 54.8276 34.1718C53.5583 39.725 52.4413 44.9609 53.3933 46.0906C54.7768 47.7724 67.0764 51.1678 71.2905 54.3411C73.8228 56.2387 73.6768 50.1587 74.2797 44.5039Z" fill="#BED1FF"/>
<path d="M95.2487 86.537L94.4998 91.6523L96.0483 95.1556L97.1716 93.6261L97.4319 90.7702L99.101 91.024L99.9197 89.9959L99.8499 87.8508L99.577 82.0247L95.2487 86.537Z" fill="#FEC4AD"/>
<path d="M94.208 47.5631C93.0657 47.1379 89.3529 47.4172 89.3529 47.4172C89.3529 47.4172 89.0039 51.3837 90.508 54.4491C92.0121 57.5145 95.7629 68.6844 96.2199 69.7316C96.6768 70.7787 95.2235 86.5372 95.2235 86.5372L100.656 85.4265C100.656 85.4265 103.277 73.2729 103.252 70.1948C103.226 67.1168 100.345 55.5407 98.2889 51.8597C96.2326 48.1787 96.9751 48.5849 94.208 47.5631Z" fill="#BED1FF"/>
<path d="M85.259 36.1965C85.259 36.1965 84.0659 41.4324 84.9988 42.651C85.551 43.3681 87.8675 45.9131 87.8675 45.9131C87.8675 45.9131 80.1755 49.9748 77.9161 49.9748C75.6567 49.9748 76.4437 45.4371 76.4437 45.4371C76.4437 45.4371 78.9125 43.4887 79.2806 42.505C79.5817 41.2548 79.7729 39.9806 79.8518 38.6971L85.259 36.1965Z" fill="#F98C80"/>
<path d="M86.1541 36.3869C86.1541 36.3869 86.0652 34.483 87.6646 34.5274C88.6864 34.5591 88.7625 35.4984 87.9692 36.7042C87.6328 37.212 87.6011 38.3607 87.1886 38.7288C86.776 39.0969 86.2556 38.4876 86.1033 38.1703C85.9788 37.5802 85.9962 36.969 86.1541 36.3869Z" fill="#FF9C91"/>
<path d="M77.5481 36.3869C77.5481 36.3869 77.637 34.483 76.0377 34.5274C75.0159 34.5591 74.9334 35.4984 75.733 36.7042C76.0631 37.212 76.1011 38.3607 76.5137 38.7288C77.0214 39.1794 77.4466 38.4876 77.5989 38.1703C77.7235 37.5802 77.706 36.969 77.5481 36.3869Z" fill="#FF9C91"/>
<path d="M87.7788 31.7157C87.7086 32.3684 87.6027 33.0167 87.4615 33.6577C87.4234 33.8799 87.379 34.1337 87.3345 34.4257C87.0045 36.7168 86.5856 39.8329 86.4079 40.2962C86.1096 41.0705 84.4722 42.3144 83.6916 42.7714C82.5561 43.1975 81.299 43.1634 80.1883 42.6762C79.4077 42.2192 77.6497 41.0705 77.3514 40.2962C77.1674 39.8266 76.7168 36.6216 76.3995 34.2924C76.3614 34.0258 76.3297 33.7974 76.2916 33.5943C76.1503 32.9661 76.0444 32.3304 75.9743 31.6903C75.86 29.7864 78.0369 26.9431 81.8829 26.9431C86.427 26.9685 87.8994 29.78 87.7788 31.7157Z" fill="#FF9C91"/>
<g style="mix-blend-mode:multiply">
<path d="M77.9033 29.2786C79.0358 28.856 80.2406 28.6615 81.4484 28.7061C82.6563 28.7508 83.8435 29.0338 84.9416 29.5388L86.2998 28.6757C84.7909 27.9793 83.1444 27.6322 81.4828 27.6603C78.6395 27.6793 77.9033 29.2786 77.9033 29.2786Z" fill="#E8D4E5"/>
</g>
<path d="M87.4611 33.6579C87.4231 33.88 87.3786 34.1339 87.3342 34.4258C87.0042 36.7169 86.5853 39.833 86.4076 40.2963C86.1093 41.0706 84.4719 42.3145 83.6913 42.7715C82.5558 43.1976 81.2987 43.1635 80.188 42.6763C79.4074 42.2193 77.6494 41.0706 77.3511 40.2963C77.1671 39.8267 76.7165 36.6217 76.3991 34.2925C76.3611 34.026 76.3293 33.7975 76.2913 33.5944L76.6086 33.1248C76.6086 33.1248 77.1734 36.444 78.0366 37.4785C78.8997 38.513 79.071 38.5574 79.071 38.5574L80.8417 38.1195L80.9877 38.0814C81.6642 37.907 82.3738 37.907 83.0503 38.0814L83.1645 38.1131L83.2915 38.1512L84.6369 38.5383C84.6369 38.5383 84.9479 38.4876 85.8174 37.4594C86.6869 36.4313 87.0867 33.1057 87.0867 33.1057L87.4611 33.6579Z" fill="#1F2F5C"/>
<path d="M88.0583 30.4783C88.0583 30.5418 87.7346 32.8075 87.6077 33.1629C87.4109 33.7087 87.2586 34.1085 87.2586 34.1085L87.0301 33.6008C86.5992 32.6617 86.3638 31.6446 86.3384 30.6116L86.3003 28.6759L86.9349 28.1047C88.2169 28.2951 88.3502 29.0313 88.0583 30.4783Z" fill="#1F2F5C"/>
<path d="M77.9796 28.7709L77.6686 30.7637C77.5271 31.6898 77.2128 32.5811 76.742 33.3912V33.4356L76.3866 34.0702L76.1391 33.2135C76.0312 32.8454 75.771 30.9541 75.7075 30.6749C75.7075 30.5923 75.6694 30.5098 75.6568 30.4337C75.3839 29.0121 75.6568 28.4155 76.9261 28.2314L77.9796 28.7709Z" fill="#1F2F5C"/>
<path d="M86.9415 28.1046L86.3068 28.6758L85.0756 29.1137C83.7109 28.5278 82.2306 28.2609 80.7472 28.3331C78.2784 28.5235 77.9421 29.2343 77.9103 29.2787L77.6565 29.228L76.4443 28.9614L76.1968 28.9043C76.3123 28.4347 76.4739 27.9777 76.6791 27.5398C77.6501 26.0801 80.2839 25.1345 82.6829 25.3756H82.9241C84.1255 25.4763 85.2657 25.9488 86.1862 26.7274L86.9415 28.1046Z" fill="#1F2F5C"/>
<path d="M92.9388 152.427V157.225H83.7173C83.7173 157.225 84.0663 155.486 88.4391 154.686L89.0738 152.427H92.9388Z" fill="#133A50"/>
<path d="M78.9122 152.427V157.225H69.6907C69.6907 157.225 70.0397 155.486 74.4125 154.686L75.0471 152.427H78.9122Z" fill="#133A50"/>
<path d="M91.3898 80.9902C91.3898 80.9902 92.6591 96.4504 92.7289 109.055C92.7987 121.659 93.5222 153.525 93.5222 153.525H88.445C88.445 153.525 83.1964 122.922 81.2925 114.811C79.3885 106.7 74.4192 81.1362 74.4192 81.1362L91.3898 80.9902Z" fill="#133A50"/>
<path d="M80.3214 97.5928C80.3214 97.5928 79.3694 116.797 79.179 120.58C78.9886 124.362 79.179 153.506 79.179 153.506C79.179 153.506 74.4065 153.633 74.4065 153.506C74.4065 153.379 69.9131 122.465 69.3292 113.148C68.7454 103.831 69.0881 92.7884 68.3138 91.5001C67.5395 90.2117 70.4018 81.0347 70.4018 81.0347L77.1545 82.8371L80.3214 97.5928Z" fill="#133A50"/>
<path d="M78.2463 43.6979C78.2463 43.6979 76.1329 48.4959 79.3125 49.0227C84.3897 49.8668 85.9129 43.3933 85.9129 43.3933L91.4915 46.2619C91.4915 46.2619 91.3899 80.9902 93.5858 91.5952C94.8552 97.7513 73.6704 94.8129 70.5606 89.3485C67.876 84.6204 75.6379 45.329 75.6379 45.329L78.2463 43.6979Z" fill="white"/>
<path d="M87.2265 43.9963C87.0741 44.2058 79.6106 66.1076 82.1492 86.7212C82.7395 91.5255 91.504 87.5462 93.573 87.5462C93.573 87.5462 94.563 72.1622 94.8106 66.444C95.0581 60.7258 92.3227 58.8282 92.5702 56.042C92.8178 53.2559 95.8577 48.2549 95.8577 48.2549L87.2265 43.9963Z" fill="#BED1FF"/>
<path d="M74.73 88.8981C75.5868 74.574 75.9358 44.5802 75.9358 44.5802L70.8586 44.1995C70.8586 44.1995 68.32 69.3571 68.32 72.2194C68.32 73.3554 68.6627 87.1718 67.8948 89.7548C69.5766 90.0087 74.6158 90.6243 74.73 88.8981Z" fill="#BED1FF"/>
<path d="M129.78 36.1902C125.813 37.5547 121.733 38.9763 118.585 41.7498C115.437 44.5232 113.4 48.9975 114.726 52.9831C116.052 56.9687 121.587 59.2789 124.785 56.5625C125.934 55.5852 126.645 53.9097 126.055 52.5388C124.83 49.8162 120.584 51.0918 118.591 53.3068C116.224 55.9406 114.726 59.5327 115.31 63.0233C115.894 66.5139 118.94 69.6427 122.475 69.6364C126.01 69.63 131.049 64.299 128.022 62.4712C124.176 60.1547 119.238 65.6825 117.347 69.7506C115.456 73.8188 116.636 79.3402 120.52 81.625C124.404 83.9097 133.448 81.0221 131.075 77.1824C128.536 73.1587 121.149 78.9658 120.165 83.6051C119.181 88.2444 122.811 93.3343 127.521 93.9055C132.23 94.4767 140.398 89.1139 137.136 85.655C132.42 80.673 124.563 93.3597 126.835 99.8268C129.107 106.294 138.468 108.877 143.73 104.472C144.713 103.647 145.634 102.467 145.418 101.198C145.113 99.0779 142.213 98.4814 140.188 99.1604C134.889 100.931 132.503 108.338 135.746 112.869C138.989 117.4 146.795 117.483 150.152 113.021C150.512 112.612 150.78 112.131 150.94 111.61C151.1 111.09 151.147 110.541 151.079 110C150.743 108.515 148.991 107.684 147.499 107.963C146.009 108.347 144.731 109.305 143.945 110.629C140.931 115.103 141.946 121.824 146.16 125.226C150.374 128.627 157.153 128.139 160.865 124.217C161.83 123.195 162.63 121.83 162.376 120.447C162.077 118.847 160.37 117.775 158.746 117.813C157.106 117.95 155.583 118.72 154.5 119.958C149.759 124.877 151.783 134.403 158.117 136.973C164.451 139.543 177.011 132.467 172.568 127.282C169.598 123.817 163.74 131.312 164.489 135.812C165.238 140.311 170.417 143.383 174.828 142.222C179.238 141.06 185.058 134.733 181.644 131.699C179.232 129.554 175.297 134.092 174.586 137.233C174.249 138.816 174.438 140.467 175.126 141.932C175.813 143.398 176.961 144.598 178.394 145.35C181.517 146.88 185.337 145.985 188.339 144.202C191.341 142.418 193.829 139.937 196.717 138.008C199.634 136.076 202.909 134.748 206.349 134.104C209.788 133.46 213.321 133.512 216.74 134.257" stroke="#1F2F5C" stroke-width="2" stroke-miterlimit="10"/>
<path d="M330.058 56.8733C323.629 52.7671 266.326 101.077 268.426 139.239C268.426 139.239 279.577 124.178 289.3 116.835C299.023 109.492 299.975 101.807 299.956 94.1973C299.937 86.5878 314.477 89.7547 316.114 81.2821C319.015 66.3424 335.839 60.5607 330.058 56.8733Z" fill="#BED1FF"/>
<path d="M333.821 92.4584C324.561 98.0687 327.29 105.539 321.832 109.905C317.859 113.078 311.234 111.422 307.933 115.744C304.214 120.618 308.441 127.326 308.758 133.197C309.19 141.314 301.955 147.394 294.599 149.856C286.063 152.719 275.014 151.824 270.343 143.332C264.821 133.317 268.953 118.206 278.632 113.503C280.98 112.361 283.969 112.05 285.886 109.734C289.129 105.831 287.047 100.214 288.551 95.2381C290.011 90.4021 294.802 86.9877 299.213 85.4835C303.624 83.9794 308.098 83.6684 312.427 81.9168C318.291 79.5368 323.432 74.301 328.293 70.7659C332.653 67.5927 347.967 61.6967 350.449 72.0352C352.74 81.4154 341.595 87.7175 333.821 92.4584Z" fill="#4B65B0"/>
<path d="M334.773 77.3665C334.773 77.3665 296.935 96.406 266.744 157.739" stroke="white" stroke-miterlimit="10"/>
<path d="M357.627 106.027C357.627 106.027 308.968 105.482 268.541 151.856" stroke="white" stroke-miterlimit="10"/>
<path d="M333.497 127.72C328.864 129.579 327.601 137.398 322.613 138.388C318.976 139.112 315.105 135.894 311.551 137.563C307.553 139.467 308.257 145.084 306.62 148.911C304.367 154.204 297.652 155.708 292.023 154.877C285.454 153.906 278.403 149.736 277.965 142.818C277.445 134.657 284.946 126.412 292.829 126.577C294.733 126.615 296.827 127.396 298.832 126.577C302.209 125.156 302.59 120.91 305.147 118.244C307.705 115.579 311.881 115.071 315.302 115.522C318.722 115.972 321.782 117.273 325.196 117.572C329.842 117.971 334.893 116.302 339.247 115.668C343.131 115.084 358.991 115.395 353.559 123.696C349.751 129.433 339.679 125.251 333.497 127.72Z" fill="#BED1FF"/>
<path d="M343.506 120.06C343.506 120.06 309.704 122.922 270.407 152.059" stroke="white" stroke-miterlimit="10"/>
<path d="M27.5696 56.8733C33.9987 52.7671 91.3015 101.077 89.2008 139.239C89.2008 139.239 78.0499 124.178 68.327 116.835C58.6042 109.492 57.6522 101.807 57.6712 94.1973C57.6903 86.5878 43.1504 89.7547 41.513 81.2821C38.6126 66.3424 21.788 60.5607 27.5696 56.8733Z" fill="#BED1FF"/>
<path d="M23.8063 92.4584C33.0659 98.0687 30.3369 105.539 35.7949 109.905C39.7678 113.078 46.3936 111.422 49.6938 115.744C53.4128 120.618 49.1861 127.326 48.8687 133.197C48.4372 141.314 55.6722 147.394 63.0278 149.856C71.5639 152.719 82.6132 151.824 87.2843 143.332C92.8057 133.317 88.6742 118.206 78.9957 113.503C76.6475 112.361 73.6583 112.05 71.7416 109.734C68.4985 105.831 70.5802 100.214 69.0761 95.2381C67.6164 90.4021 62.8247 86.9877 58.4139 85.4835C54.0031 83.9794 49.5288 83.6684 45.2004 81.9168C39.3362 79.5368 34.1956 74.301 29.3341 70.7659C24.9741 67.5927 9.65987 61.6967 7.17838 72.0352C4.91902 81.4154 16.0318 87.7175 23.8063 92.4584Z" fill="#4B65B0"/>
<path d="M22.8535 77.3665C22.8535 77.3665 60.6915 96.406 90.882 157.739" stroke="white" stroke-miterlimit="10"/>
<path d="M0 106.027C0 106.027 48.6588 105.482 89.0862 151.856" stroke="white" stroke-miterlimit="10"/>
<path d="M24.1296 127.72C28.7625 129.579 30.0255 137.398 35.0139 138.388C38.6504 139.112 42.5218 135.894 46.0759 137.563C50.0742 139.467 49.3697 145.084 51.0071 148.911C53.2601 154.204 59.9748 155.708 65.6041 154.877C72.1728 153.906 79.2238 149.736 79.6617 142.818C80.1821 134.657 72.6805 126.412 64.7981 126.577C62.8942 126.615 60.7998 127.396 58.7943 126.577C55.4179 125.156 55.0372 120.91 52.4478 118.244C49.8584 115.579 45.7141 115.071 42.2933 115.522C38.8726 115.972 35.8135 117.273 32.3991 117.572C27.7534 117.971 22.7016 116.302 18.3479 115.668C14.4638 115.084 -1.39616 115.395 4.03646 123.696C7.87611 129.433 17.9481 125.251 24.1296 127.72Z" fill="#BED1FF"/>
<path d="M14.1206 120.06C14.1206 120.06 47.9222 122.941 87.2199 152.059" stroke="white" stroke-miterlimit="10"/>
<path d="M207.132 157.574H195.162C194.524 157.576 193.908 157.337 193.438 156.906C192.967 156.474 192.677 155.881 192.624 155.245L191.85 145.769H210.451L209.664 155.219C209.618 155.859 209.331 156.458 208.861 156.894C208.391 157.331 207.774 157.574 207.132 157.574Z" fill="#21295B"/>
<path d="M277.82 157.574H265.837C265.199 157.576 264.583 157.337 264.112 156.906C263.642 156.474 263.351 155.881 263.299 155.245L262.518 145.769H281.12L280.358 155.245C280.305 155.881 280.015 156.474 279.544 156.906C279.074 157.337 278.458 157.576 277.82 157.574Z" fill="#21295B"/>
<path d="M279.876 133.394H193.093L199.23 88.6505C199.461 86.9631 200.295 85.4164 201.579 84.2973C202.863 83.1781 204.508 82.5624 206.212 82.5642H266.757C268.46 82.5624 270.106 83.1781 271.39 84.2973C272.674 85.4164 273.508 86.9631 273.739 88.6505L279.876 133.394Z" fill="#E4ECFF"/>
<path d="M268.166 124.718H204.834L209.277 79.7654C209.439 78.1528 210.194 76.6579 211.396 75.5708C212.598 74.4837 214.161 73.8819 215.782 73.8821H257.136C258.761 73.8756 260.33 74.4746 261.537 75.5623C262.745 76.65 263.504 78.1484 263.666 79.7654L268.166 124.718Z" fill="white"/>
<g style="mix-blend-mode:multiply">
<path d="M194.483 123.233L193.093 133.393H279.882L278.486 123.233H194.483Z" fill="#4B65B0"/>
</g>
<path d="M289.275 150.751H183.7L185.655 127.815H287.32L289.275 150.751Z" fill="#E4ECFF"/>
<g style="mix-blend-mode:multiply">
<path d="M247.027 118.005C255.965 112.185 258.492 100.221 252.672 91.2825C246.852 82.3444 234.888 79.8167 225.95 85.6367C217.012 91.4567 214.484 103.421 220.304 112.359C226.125 121.297 238.088 123.825 247.027 118.005Z" fill="#4B65B0"/>
</g>
<path d="M236.879 118.548C246.102 118.332 253.403 110.681 253.188 101.458C252.972 92.2349 245.32 84.9332 236.097 85.1489C226.875 85.3647 219.573 93.0162 219.789 102.239C220.004 111.462 227.656 118.764 236.879 118.548Z" fill="white"/>
<path d="M241.149 115.585C240.574 115.582 240.022 115.355 239.613 114.951C239.512 114.848 239.423 114.736 239.346 114.614C239.269 114.497 239.201 114.374 239.143 114.246C239.094 114.114 239.053 113.978 239.023 113.84C238.995 113.7 238.98 113.557 238.978 113.415C238.981 112.841 239.209 112.292 239.613 111.885C239.867 111.635 240.179 111.449 240.52 111.346C240.862 111.242 241.223 111.222 241.574 111.289C241.711 111.318 241.845 111.361 241.974 111.416C242.108 111.467 242.235 111.533 242.355 111.612C242.472 111.694 242.582 111.786 242.685 111.885C243.089 112.292 243.317 112.841 243.319 113.415C243.317 113.557 243.302 113.7 243.275 113.84C243.244 113.978 243.204 114.114 243.154 114.246C243.096 114.373 243.031 114.496 242.958 114.614C242.877 114.734 242.785 114.847 242.685 114.951C242.582 115.048 242.472 115.137 242.355 115.217C242.237 115.299 242.109 115.365 241.974 115.414C241.846 115.471 241.712 115.514 241.574 115.541C241.434 115.571 241.292 115.586 241.149 115.585Z" fill="#1F2F5C"/>
<path d="M234.428 116.353C233.859 116.27 233.346 115.965 233.001 115.505C232.656 115.044 232.507 114.466 232.587 113.897C232.67 113.328 232.976 112.815 233.436 112.47C233.896 112.125 234.474 111.977 235.043 112.056C235.612 112.14 236.125 112.445 236.47 112.905C236.815 113.365 236.964 113.943 236.884 114.513C236.809 115.03 236.55 115.502 236.155 115.844C235.76 116.185 235.255 116.373 234.732 116.372L234.428 116.353ZM227.447 113.389C226.995 113.033 226.703 112.513 226.634 111.942C226.565 111.371 226.725 110.796 227.078 110.343C227.253 110.118 227.471 109.931 227.718 109.791C227.966 109.65 228.238 109.56 228.521 109.525C228.803 109.491 229.09 109.512 229.364 109.588C229.638 109.664 229.894 109.793 230.118 109.968C230.57 110.323 230.863 110.841 230.933 111.411C231.003 111.981 230.845 112.555 230.493 113.008C230.29 113.27 230.03 113.481 229.733 113.626C229.436 113.771 229.11 113.847 228.779 113.846C228.302 113.848 227.838 113.692 227.459 113.402L227.447 113.389ZM222.896 107.328C222.681 106.796 222.685 106.201 222.909 105.672C223.133 105.144 223.557 104.726 224.089 104.51C224.623 104.295 225.22 104.301 225.75 104.526C226.279 104.75 226.698 105.176 226.913 105.71C227.127 106.244 227.121 106.84 226.896 107.369C226.671 107.898 226.246 108.317 225.714 108.534C225.455 108.634 225.179 108.686 224.902 108.686C224.472 108.685 224.052 108.555 223.697 108.313C223.342 108.071 223.067 107.728 222.909 107.328H222.896ZM223.81 102.251C223.24 102.169 222.725 101.865 222.379 101.405C222.033 100.944 221.883 100.365 221.963 99.7949C222.048 99.2267 222.353 98.7148 222.813 98.3703C223.273 98.0257 223.85 97.8763 224.419 97.9545C224.987 98.0378 225.5 98.3417 225.845 98.8003C226.191 99.2588 226.342 99.835 226.266 100.404C226.193 100.922 225.934 101.396 225.539 101.739C225.144 102.082 224.638 102.271 224.115 102.27C224.017 102.274 223.92 102.271 223.823 102.264L223.81 102.251ZM225.308 95.8728C225.083 95.6978 224.894 95.4802 224.753 95.2324C224.612 94.9846 224.522 94.7114 224.486 94.4285C224.451 94.1456 224.472 93.8585 224.547 93.5836C224.623 93.3088 224.752 93.0515 224.927 92.8264C225.102 92.6021 225.319 92.4144 225.567 92.2741C225.814 92.1338 226.087 92.0437 226.369 92.0089C226.652 91.9742 226.938 91.9954 227.212 92.0714C227.486 92.1474 227.743 92.2768 227.967 92.452C228.192 92.6259 228.381 92.8428 228.523 93.09C228.664 93.3373 228.755 93.6101 228.79 93.8927C228.826 94.1753 228.805 94.4621 228.729 94.7366C228.653 95.0111 228.523 95.2678 228.348 95.492C228.146 95.754 227.886 95.9658 227.589 96.1111C227.292 96.2564 226.965 96.3312 226.634 96.3297C226.159 96.3293 225.698 96.1732 225.32 95.8855L225.308 95.8728ZM242.811 93.715C242.587 93.5406 242.398 93.3235 242.257 93.0762C242.117 92.8289 242.026 92.5563 241.991 92.274C241.955 91.9916 241.976 91.705 242.051 91.4306C242.127 91.1563 242.256 90.8995 242.431 90.675C242.605 90.4494 242.822 90.2605 243.07 90.119C243.318 89.9774 243.591 89.8861 243.874 89.8501C244.157 89.8142 244.444 89.8343 244.719 89.9094C244.994 89.9845 245.252 90.1131 245.477 90.2878C245.929 90.6432 246.222 91.163 246.292 91.7338C246.363 92.3046 246.204 92.8799 245.851 93.3342C245.649 93.5942 245.39 93.8048 245.094 93.95C244.799 94.0951 244.474 94.171 244.144 94.1719C243.667 94.1729 243.203 94.0167 242.824 93.7277L242.811 93.715ZM229.782 91.0875C229.675 90.8238 229.621 90.5415 229.623 90.2569C229.625 89.9722 229.684 89.6908 229.795 89.4289C229.907 89.167 230.069 88.9297 230.273 88.7307C230.476 88.5318 230.717 88.3751 230.982 88.2696C231.514 88.0558 232.11 88.0612 232.639 88.2847C233.168 88.5082 233.588 88.9316 233.806 89.4628C233.912 89.7274 233.965 90.0104 233.962 90.2955C233.959 90.5807 233.9 90.8625 233.788 91.1248C233.676 91.3871 233.514 91.6247 233.31 91.8241C233.106 92.0235 232.865 92.1808 232.6 92.287C232.344 92.3919 232.07 92.4458 231.794 92.4457C231.365 92.4448 230.946 92.3165 230.59 92.0769C230.234 91.8374 229.957 91.4974 229.795 91.1002L229.782 91.0875ZM237.893 91.6333C237.323 91.5516 236.809 91.247 236.464 90.7864C236.119 90.3258 235.971 89.7469 236.052 89.1772C236.134 88.6087 236.438 88.0958 236.897 87.7509C237.356 87.4059 237.933 87.257 238.502 87.3367C239.072 87.4169 239.586 87.72 239.933 88.1794C240.279 88.6387 240.429 89.2168 240.349 89.7865C240.274 90.303 240.017 90.7755 239.623 91.118C239.229 91.4605 238.726 91.6501 238.204 91.6524C238.104 91.6561 238.005 91.654 237.906 91.646L237.893 91.6333Z" fill="#1F2F5C"/>
<path d="M248.054 99.357C247.911 99.3551 247.769 99.3403 247.629 99.3126C247.49 99.285 247.354 99.2446 247.222 99.192C247.094 99.1327 246.969 99.0671 246.848 98.9953C246.731 98.9129 246.621 98.8216 246.518 98.7224C246.113 98.316 245.885 97.7664 245.883 97.1928C245.882 97.0478 245.897 96.9031 245.928 96.7613C245.955 96.6236 245.997 96.4894 246.055 96.3614C246.105 96.2272 246.171 96.0993 246.251 95.9807C246.331 95.8637 246.42 95.7533 246.518 95.6506C246.619 95.5516 246.73 95.4623 246.848 95.3841C246.967 95.3065 247.092 95.2386 247.222 95.181C247.354 95.1304 247.49 95.0921 247.629 95.0667C247.977 94.9964 248.338 95.0129 248.679 95.1147C249.02 95.2165 249.33 95.4006 249.583 95.6506C249.685 95.7516 249.776 95.8621 249.856 95.9807C249.934 96.1008 250 96.2283 250.053 96.3614C250.111 96.4894 250.153 96.6236 250.18 96.7613C250.208 96.9033 250.221 97.048 250.218 97.1928C250.218 97.7668 249.99 98.3173 249.584 98.7231C249.178 99.129 248.628 99.357 248.054 99.357Z" fill="#1F2F5C"/>
<path d="M211.581 31.5317C210.946 29.9053 210.784 28.1326 211.113 26.418C211.442 24.7034 212.249 23.1167 213.44 21.8406C213.44 21.8406 229.148 31.995 246.703 29.1454C246.703 29.1454 248.607 34.4384 243.231 39.3443C243.231 39.3126 224.439 42.8793 211.581 31.5317Z" fill="#4B65B0"/>
<path d="M238.471 8.96984C227.168 -0.549951 205.761 -1.90176 178.661 2.46465C155.357 6.21545 131.627 15.0181 123.7 27.4509C120.096 33.112 122.545 48.8387 122.545 48.8387C144.009 50.1779 151.873 31.7031 151.873 31.7031C151.873 31.7031 150.438 26.4672 155.249 24.1507C172.074 16.0526 198.171 13.2918 207.874 15.6781C209.319 16.0003 210.629 16.7599 211.626 17.8536C212.623 18.9473 213.259 20.3218 213.447 21.7898C213.447 21.7898 226.705 36.8438 246.664 28.8345C246.658 28.8535 243.599 13.2982 238.471 8.96984Z" fill="white"/>
<path d="M156.251 40.1567C156.345 38.4124 155.944 36.6771 155.094 35.1511C154.244 33.625 152.979 32.3703 151.447 31.5317C151.447 31.5317 139.725 46.1288 122.158 48.9085C122.158 48.9085 121.993 54.5379 128.657 57.5017C128.676 57.5144 147.614 55.0139 156.251 40.1567Z" fill="#4B65B0"/>
<mask id="mask0_13_1066" style="mask-type:luminance" maskUnits="userSpaceOnUse" x="57" y="89" width="104" height="69">
<path d="M151.955 89.4565H67.0003C62.0161 89.4565 57.9756 93.4971 57.9756 98.4813V148.441C57.9756 153.425 62.0161 157.466 67.0003 157.466H151.955C156.939 157.466 160.98 153.425 160.98 148.441V98.4813C160.98 93.4971 156.939 89.4565 151.955 89.4565Z" fill="white"/>
</mask>
<g mask="url(#mask0_13_1066)">
<path d="M151.96 89.4502H67.0055C62.0212 89.4502 57.9807 93.4907 57.9807 98.475V148.435C57.9807 153.419 62.0212 157.46 67.0055 157.46H151.96C156.944 157.46 160.985 153.419 160.985 148.435V98.475C160.985 93.4907 156.944 89.4502 151.96 89.4502Z" fill="#BED1FF"/>
<g style="mix-blend-mode:multiply">
<path d="M160.979 98.4816C160.98 97.2962 160.747 96.1223 160.294 95.0269C159.841 93.9316 159.176 92.9364 158.338 92.0982C157.5 91.26 156.505 90.5953 155.409 90.1421C154.314 89.6888 153.14 89.456 151.955 89.4568H67.0064C65.8208 89.456 64.6465 89.6888 63.5509 90.1419C62.4552 90.5951 61.4596 91.2597 60.6209 92.0978C59.7822 92.9359 59.1169 93.9311 58.6629 95.0265C58.209 96.1218 57.9753 97.2959 57.9753 98.4816L104.686 136.345C106.026 137.431 107.699 138.023 109.423 138.023C111.148 138.023 112.821 137.431 114.161 136.345L160.979 98.4816Z" fill="#D4E6FF"/>
</g>
<path style="mix-blend-mode:overlay" opacity="0.7" d="M63.9918 150.447V100.487C63.9918 98.0935 64.9427 95.7981 66.6351 94.1056C68.3276 92.4131 70.6231 91.4623 73.0166 91.4623H157.565C155.98 90.1712 153.999 89.4633 151.955 89.4568H67.0064C65.8208 89.456 64.6465 89.6888 63.5509 90.1419C62.4552 90.5951 61.4596 91.2597 60.6209 92.0978C59.7822 92.9359 59.1169 93.9311 58.6629 95.0265C58.209 96.1218 57.9753 97.2959 57.9753 98.4816V148.441C57.977 150.836 58.9293 153.131 60.6227 154.823C62.3162 156.516 64.6123 157.466 67.0064 157.466H67.4063C66.3449 156.629 65.4866 155.563 64.8953 154.348C64.304 153.132 63.9952 151.799 63.9918 150.447Z" fill="url(#paint0_radial_13_1066)"/>
<path d="M103.785 129.764L57.9753 89.4568H160.979L115.17 129.764C113.597 131.148 111.573 131.911 109.477 131.911C107.382 131.911 105.358 131.148 103.785 129.764Z" fill="#BED1FF"/>
<g style="mix-blend-mode:overlay" opacity="0.7">
<path d="M103.785 129.764L57.9753 89.4568H160.979L115.17 129.764C113.597 131.148 111.573 131.911 109.477 131.911C107.382 131.911 105.358 131.148 103.785 129.764Z" fill="#BED1FF"/>
</g>
</g>
<path d="M191.805 48.3121C191.805 48.3121 194.737 39.8521 194.946 38.9192C196.158 33.4231 196.489 21.5043 196.412 18.9721C196.336 16.4398 196.101 14.2122 196.051 13.8949C196 13.5775 194.426 11.864 194.42 11.883C194.258 11.9147 194.095 11.9338 193.931 11.9401V12.2574L193.252 11.6672H192.687L192.63 11.9338L191.817 11.5466H191.043C191.043 11.5466 191.545 13.1587 191.83 14.136C192.116 15.1134 191.83 15.1959 191.83 15.1959C191.552 15.3091 191.254 15.3631 190.954 15.3545C190.589 15.3043 190.219 15.2873 189.85 15.3038C189.85 15.3038 192.217 18.3882 192.325 18.6738C192.79 19.3046 193.115 20.0268 193.279 20.7927C193.443 21.5586 193.442 22.3507 193.277 23.1164C192.387 27.2807 191.262 31.3913 189.907 35.4286C189.983 35.2573 186.734 44.5613 186.734 44.5613L191.805 48.3121Z" fill="#FF9C91"/>
<path d="M190.238 59.5072C191.145 52.3864 194.788 44.0724 194.788 44.0724C194.788 44.0724 189.222 42.9745 187.807 40.9944C187.807 40.9944 185.903 45.6781 184.786 48.0073C183.561 50.5903 181.854 53.3955 184.005 54.9314C186.157 56.4672 189.914 61.995 190.238 59.5072Z" fill="#3B4F8A"/>
<path d="M168.888 152.966V157.542H177.69C177.69 157.542 177.354 155.886 173.184 155.118L172.55 152.966H168.888Z" fill="#133A50"/>
<path d="M182.272 152.966V157.542H191.068C191.068 157.542 190.738 155.886 186.562 155.118L185.928 152.966H182.272Z" fill="#133A50"/>
<path d="M170.366 84.8425C170.366 84.8425 169.135 97.6371 169.097 109.657C169.059 121.678 168.335 154.032 168.335 154.032H173.191C173.191 154.032 178.198 122.884 180.019 115.154C181.841 107.423 186.569 84.9885 186.569 84.9885L170.366 84.8425Z" fill="#1F2F5C"/>
<path d="M177.836 42.4033C177.836 42.4033 177.519 44.8531 177.259 46.097C177.14 46.8794 176.927 47.6445 176.624 48.3754C176.205 49.2195 173.622 51.7898 173.622 51.7898C173.622 51.7898 181.669 56.0357 184.037 56.0357C186.404 56.0357 185.573 51.2885 185.573 51.2885C185.573 51.2885 182.996 49.2512 182.609 48.2231C182.284 46.9113 182.076 45.5733 181.987 44.2248L177.836 42.4033Z" fill="#F98C80"/>
<path d="M180.927 98.7033C180.927 98.7033 181.835 119.012 182.019 122.585C182.203 126.158 182.019 153.994 182.019 153.994C182.019 153.994 186.569 154.115 186.569 153.994C186.569 153.874 190.859 122.433 191.411 113.548C191.964 104.663 191.646 94.1211 192.382 92.8899C193.119 91.6587 190.39 84.8806 190.39 84.8806L183.948 84.6458L180.927 98.7033Z" fill="#1F2F5C"/>
<path d="M175.234 49.3972C175.234 49.3972 168.437 46.6682 167.314 48.9085C166.463 50.5967 167.193 61.4746 167.574 64.5146C167.904 67.1547 169.732 89.3993 169.732 89.3993C169.732 89.3993 172.271 93.3342 184.5 91.7666C189.209 91.1319 191.532 88.8662 191.532 88.8662C191.532 88.8662 190.206 62.325 189.844 59.6722C189.444 57.3687 188.902 55.0923 188.219 52.856L184.583 50.457C184.583 50.457 185.744 52.9956 182.457 53.7509C175.844 55.2106 175.234 49.3972 175.234 49.3972Z" fill="#3B4F8A"/>
<path d="M184.265 33.1501C185.039 33.4611 186.385 34.1529 186.537 34.7939C186.876 35.9893 187.132 37.2065 187.305 38.4368C187.375 39.5665 187.533 41.6989 187.533 43.0317C187.533 44.3645 186.727 47.0554 186.423 47.341C185.389 47.7976 184.254 47.9811 183.129 47.8741C182.374 47.6583 177.938 45.3355 177.658 42.5557C177.658 42.5557 176.871 42.9682 175.424 40.62C175.05 39.9854 176.351 35.473 176.522 34.6606C176.947 32.6932 181.803 34.2417 182.869 33.9308C183.411 33.8415 183.905 33.5653 184.265 33.1501Z" fill="#FF9C91"/>
<path d="M186.538 34.7937C186.538 34.7937 183.136 36.9262 181.81 37.0341C180.483 37.142 178.535 38.9698 178.573 39.5346C178.561 39.726 178.505 39.912 178.408 40.0775C178.311 40.2429 178.176 40.3831 178.014 40.4866C178.014 40.4866 177.189 39.1729 176.51 39.3061C175.171 39.579 175.958 41.2101 176.688 41.5909C177.151 41.8229 177.63 42.0202 178.122 42.1811C178.189 42.6476 178.208 43.1197 178.179 43.59C178.066 44.1678 177.874 44.7273 177.608 45.2528C177.608 45.2528 176.041 41.9463 174.638 40.7151C171.293 37.783 173.711 32.3376 177.005 31.3159C178.338 30.9033 181.987 30.6304 183.771 31.4237C184.463 31.7304 185.074 32.1949 185.554 32.7801C186.035 33.3654 186.372 34.055 186.538 34.7937Z" fill="#1F2F5C"/>
<path d="M179.448 39.4522C179.499 39.5854 179.841 39.6108 179.905 39.6362C179.968 39.6616 179.987 39.7187 180.597 40.658C181.053 41.3498 181.809 41.5719 183.218 41.0959C184.303 40.7342 184.151 39.8266 184.227 39.3633C184.303 38.9 184.398 38.8492 184.569 38.8175C184.741 38.7858 184.836 38.8175 185.058 39.2173C185.28 39.6172 185.382 40.6136 186.511 40.4486C187.286 40.328 187.489 40.1122 187.597 39.4966C187.685 39.0069 187.715 38.5083 187.686 38.0115C187.654 37.6053 187.648 37.3769 187.438 37.3324C187.126 37.3297 186.815 37.3638 186.511 37.434C185.984 37.4586 185.468 37.5926 184.995 37.8275C184.627 38.094 184.665 38.259 184.474 38.2908C184.284 38.3225 184.246 38.1638 183.84 38.0369C182.864 38.0301 181.891 38.1345 180.939 38.3479C180.267 38.4621 179.34 38.716 179.359 38.9825C179.371 39.1419 179.401 39.2995 179.448 39.4522ZM185.261 38.4494C185.293 38.1194 185.318 38.1575 186.15 37.9671C186.981 37.7767 187.07 37.8148 187.241 37.9671C187.482 38.3694 187.555 38.8505 187.444 39.3062C187.457 39.5392 187.381 39.7685 187.232 39.9476C187.082 40.1267 186.87 40.2423 186.638 40.2709C185.909 40.3978 185.737 40.0361 185.528 39.5283C185.365 39.1892 185.264 38.8239 185.229 38.4494H185.261ZM180.412 38.9889C180.527 38.8112 181.65 38.6589 182.5 38.551C183.351 38.4431 183.63 38.4113 183.77 38.7096C183.874 39.0635 183.911 39.4338 183.878 39.8012C183.878 40.347 183.751 40.823 182.431 41.0705C182.091 41.186 181.72 41.1692 181.391 41.0233C181.063 40.8775 180.802 40.6134 180.66 40.2836C180.521 40.1016 180.424 39.8912 180.376 39.6674C180.327 39.4436 180.329 39.2119 180.381 38.9889H180.412ZM177.544 39.833L179.403 39.4522L180.038 38.5319C180.038 38.5319 179.321 38.6335 178.134 38.9C177.734 39.0083 177.355 39.1867 177.017 39.4268C177.217 39.5266 177.396 39.6646 177.544 39.833Z" fill="white"/>
<path d="M162.902 49.0926C162.902 49.0926 161.296 38.9001 161.277 37.9481C161.189 32.3188 164.038 24.7537 164.622 22.2913C165.206 19.8288 165.587 20.2096 165.707 19.8859C165.828 19.5622 169.909 18.9339 169.909 18.9339C170.35 18.7431 170.804 18.5819 171.267 18.4516C171.521 18.4516 172.6 18.1025 172.6 18.1025L171.965 19.2322C171.965 19.2322 169.426 21.1362 169.249 21.4281C168.668 21.9568 168.206 22.6021 167.892 23.3217C167.578 24.0413 167.42 24.8191 167.427 25.6041C167.319 30.6433 167.338 36.095 167.338 36.095C167.3 35.9109 169.75 46.5286 169.75 46.5286L162.902 49.0926Z" fill="#FF9C91"/>
<path d="M167.574 64.5338C165.842 59.6216 161.862 46.4398 161.862 46.4398C161.862 46.4398 167.746 44.9548 169.402 43.1587L172.213 51.498C173.127 54.2016 174.498 57.2099 172.182 58.4792C169.865 59.7485 168.406 66.8693 167.574 64.5338Z" fill="#3B4F8A"/>
<path d="M281.361 72.7398C282.89 74.1614 283.969 73.6855 286.26 81.5361C287.726 86.5562 293.07 111.86 293.07 111.86L289.897 113.243C285.581 101.147 285.587 101.185 280.542 91.3478C279.025 88.3396 277.86 85.1665 277.07 81.8915L267.747 81.333C261.915 78.9404 263.939 70.4297 263.939 70.4297C263.939 70.4297 279.831 71.3182 281.361 72.7398Z" fill="url(#paint1_linear_13_1066)"/>
<path d="M246.036 65.2193L254.451 59.8311L262.587 66.1776L272.742 69.4524H272.685C276.766 70.8677 281.418 72.9303 282.839 74.2631C284.369 75.6847 287.383 77.7029 284.953 85.5155C283.404 90.5038 276.639 115.788 276.639 115.788L273.212 115.154C273.212 115.154 274.43 100.5 275.649 89.5392C276.239 84.2271 276.442 82.7484 276.442 82.7484C276.442 82.7484 253.804 85.2172 246.512 81.3648C241.396 78.6993 246.036 69.3064 246.036 65.2193Z" fill="url(#paint2_linear_13_1066)"/>
<path d="M276.874 113.96C276.874 113.96 276.772 114.881 275.3 115.293C274.853 115.397 274.386 115.377 273.949 115.236C273.512 115.095 273.121 114.839 272.819 114.494L272.495 117.502L277.204 120.821H281.113L279 118.473L276.874 113.96Z" fill="#133A50"/>
<path d="M292.569 109.797C292.76 110.16 292.806 110.583 292.698 110.979C292.589 111.374 292.334 111.714 291.985 111.93C291.591 112.166 291.14 112.29 290.681 112.29C290.221 112.29 289.771 112.166 289.376 111.93L290.011 114.893L301.13 111.415L292.569 109.797Z" fill="#133A50"/>
<path d="M279.768 34.8955C279.106 34.1997 278.487 33.4643 277.915 32.6933L277.489 30.7576C277.489 30.7576 276.74 29.7548 276.163 29.1456C275.585 28.5363 275.065 25.9723 275.065 25.9723L275.82 25.5154C275.979 26.002 276.177 26.4752 276.41 26.9306C276.62 27.1029 276.877 27.207 277.147 27.2289C277.186 26.6287 277.186 26.0267 277.147 25.4265C277.02 24.3907 276.791 23.3702 276.461 22.3802L277.096 22.0755C277.319 22.5304 277.518 22.9964 277.692 23.4718C277.826 23.916 278.061 24.8236 278.061 24.8236C278.041 24.1324 277.976 23.4433 277.864 22.761C277.724 22.1644 277.61 21.3901 277.61 21.3901L278.245 21.2251C278.428 21.7689 278.574 22.3244 278.682 22.8879C278.784 23.567 279.019 24.722 279.019 24.722C279.055 24.0223 279.055 23.3211 279.019 22.6213C278.955 22.1263 278.949 21.8851 278.949 21.8851H279.647C279.81 22.3962 279.893 22.9291 279.895 23.4654C279.881 23.8897 279.905 24.3144 279.964 24.7347C280.091 24.1722 280.157 23.5977 280.161 23.0212C280.124 22.8283 280.124 22.6302 280.161 22.4373L280.701 22.5325C280.701 22.5325 281.005 24.6649 281.1 25.9533C281.196 27.2416 281.043 28.879 281.031 29.7929C281.018 30.7068 281.031 31.4176 281.031 31.4176L279.768 34.8955Z" fill="#FF9C91"/>
<path d="M265.507 37.3959C268.268 39.6413 271.168 41.7102 274.189 43.5901C274.189 43.5901 275.801 39.541 276.569 36.6724C277.49 33.2453 277.762 31.665 277.762 31.665L281.037 31.3984C281.037 31.3984 279.996 40.1567 278.708 46.1034C277.439 51.8787 275.884 50.8442 274.5 50.5459C273.117 50.2476 260.087 43.2601 260.087 43.2601L261.477 35.822C261.477 35.822 262.41 34.8446 265.507 37.3959Z" fill="#FF9C91"/>
<path d="M251.741 16.3572C252.439 15.9573 255.803 15.6844 257.91 16.9918C261.94 19.4733 260.004 26.2768 259.757 27.838C259.509 29.3993 260.95 32.2298 260.925 34.0957C260.899 35.9616 260.455 36.6343 259.059 38.4558C258.78 38.8935 258.602 39.3878 258.538 39.9028C257.502 38.2238 256.852 36.3358 256.634 34.3749C256.304 31.1573 255.625 31.9125 254.013 28.3775C252.401 24.8425 252.331 19.5241 252.331 19.5241L251.741 16.3572Z" fill="#1F2F5C"/>
<path d="M255.092 18.661L251.741 16.3572C250.862 16.2775 249.978 16.4364 249.181 16.8173C248.385 17.1982 247.706 17.7869 247.216 18.5214C245.554 21.06 244.976 24.7537 244.602 27.5271C244.227 30.3006 243.25 35.5047 243.332 37.5737C243.415 39.6427 245.909 39.9219 245.909 39.9219L254.337 36.279C253.753 33.2609 253.727 30.1611 254.261 27.1336C254.804 24.3419 255.082 21.5051 255.092 18.661Z" fill="#1F2F5C"/>
<path d="M250.529 26.7148C250.529 26.7148 250.986 31.6207 249.958 33.9308C249.241 35.5238 246.36 36.2029 246.36 36.2029C246.454 39.2973 247.429 42.3005 249.171 44.8596C252.065 49.1244 261.122 50.6984 261.122 50.6984C262.284 48.2878 263.201 45.766 263.857 43.1714C264.107 41.9469 264.093 40.6833 263.818 39.4644C263.542 38.2455 263.01 37.0991 262.258 36.1014C262.258 36.1014 259.814 35.3017 258.64 34.832C255.784 33.7595 256.102 29.2281 256.102 29.2281L250.529 26.7148Z" fill="#F98C80"/>
<path d="M257.898 19.3655C258.076 20.4127 258.888 23.4908 258.964 25.4646C259.04 27.4383 258.812 30.6941 257.504 31.5953C256.197 32.4965 253.741 31.773 251.945 31.0305C250.149 30.2879 249.711 29.025 249.362 27.8572C249.013 26.6894 249.133 23.6241 249.546 21.4218C249.656 20.5528 250.054 19.7457 250.676 19.1292C251.299 18.5127 252.109 18.1222 252.979 18.0201C254.598 17.7218 257.898 19.3655 257.898 19.3655Z" fill="#FF9C91"/>
<path d="M256.057 38.0876C256.057 38.0876 250.199 36.6025 248.441 35.4602L242.641 38.9063C242.641 38.9063 239.226 42.1621 245.046 50.7172C245.046 50.7172 247.254 58.5044 243.669 72.2319C243.669 72.2319 244.64 75.7669 250.079 73.882C254.756 72.2637 254.864 70.9944 258.964 69.9535C265.018 68.424 266.611 67.4784 266.611 67.4784C263.438 62.6994 263.997 55.2359 263.997 55.2359C263.997 55.2359 267.601 51.7834 266.053 48.2548C263.825 43.1775 263.076 35.9615 263.076 35.9615L259.967 35.1746C259.209 36.1176 258.379 37.0003 257.485 37.8147C257.299 37.9943 257.065 38.1157 256.812 38.1642C256.558 38.2127 256.296 38.1861 256.057 38.0876Z" fill="#BED1FF"/>
<path d="M258.608 34.8574C258.608 34.8574 257.891 37.5103 256.069 38.0878C256.069 38.0878 256.786 41.718 258.506 41.0897C260.924 40.2012 259.979 35.1811 259.979 35.1811L258.608 34.8574Z" fill="white"/>
<path d="M247.743 35.0096C247.743 35.0096 248.891 40.5628 251.957 41.0134C255.022 41.464 256.057 38.0877 256.057 38.0877C256.057 38.0877 249.558 36.1837 248.923 34.1909L247.743 35.0096Z" fill="white"/>
<path d="M253.144 17.9755C252.58 18.0073 252.161 20.6855 252.104 22.1769C252.046 23.6684 249.819 24.8488 250.803 28.13C251.786 31.4111 251.653 34.5844 252.973 38.1765C254.293 41.7687 252.649 43.0951 251.939 44.3327C250.573 42.8636 249.301 41.3099 248.131 39.6807C247.738 38.987 247.134 38.4372 246.407 38.1117C245.679 37.7862 244.867 37.7022 244.088 37.8719C244.088 37.8719 248.404 29.4818 248.258 27.2161C248.112 24.9504 247.712 21.5042 249.527 19.4353C251.342 17.3663 253.144 17.9755 253.144 17.9755Z" fill="#1F2F5C"/>
<path d="M250.872 24.671C250.872 24.671 249.672 23.3573 248.879 23.5604C248.086 23.7635 248.035 24.9503 248.638 25.9213C249.241 26.8923 251.481 27.4445 251.481 27.4445L250.872 24.671Z" fill="#FF9C91"/>
<path d="M253.607 22.1135C254.749 22.1501 255.891 22.0672 257.015 21.866C259.192 21.6248 260.106 22.1833 260.106 22.1833L259.287 18.5658C259.287 18.5658 256.749 17.1505 254.946 17.1632C252.649 17.1632 250.643 18.058 251.773 18.8006C252.903 19.5431 253.607 22.1135 253.607 22.1135Z" fill="#1F2F5C"/>
<path d="M247.566 42.9555C247.179 47.4933 245.84 60.4402 245.84 60.4402C249.977 64.0514 255.823 70.0679 255.823 70.0679C255.823 70.0679 254.16 73.3491 253.449 72.7969C247.737 68.3544 241.245 65.7079 240.756 62.6425C239.988 57.5653 239.728 44.7453 241.6 40.5756C243.072 37.3452 247.991 38.1449 247.566 42.9555Z" fill="#FF9C91"/>
<path d="M258.336 70.4803C260.062 71.115 261.153 71.7496 261.052 72.3843C260.976 72.8285 259.503 72.0162 258.615 72.0416C259.089 72.9287 259.825 73.6486 260.722 74.1042C261.864 74.669 262.505 75.4497 261.89 76.1097C261.274 76.7697 260.151 77.6963 259.414 77.379C258.678 77.0617 256.063 75.2148 255.08 74.7071C254.096 74.1994 253.703 72.9682 253.176 72.6255C252.649 72.2827 254.102 69.687 254.102 69.687C254.375 69.7632 255.797 70.0678 255.797 70.0678C256.265 70.1432 256.738 70.1835 257.212 70.1884C257.6 70.2214 257.98 70.3201 258.336 70.4803Z" fill="#FF9C91"/>
<defs>
<radialGradient id="paint0_radial_13_1066" cx="0" cy="0" r="1" gradientUnits="userSpaceOnUse" gradientTransform="translate(68.8533 113.846) scale(42.636 42.636)">
<stop stop-color="white"/>
<stop offset="1" stop-color="white" stop-opacity="0"/>
</radialGradient>
<linearGradient id="paint1_linear_13_1066" x1="293.07" y1="91.8365" x2="263.565" y2="91.8365" gradientUnits="userSpaceOnUse">
<stop stop-color="#343A44"/>
<stop offset="0.3" stop-color="#232D3E"/>
<stop offset="0.64" stop-color="#182439"/>
<stop offset="1" stop-color="#142138"/>
</linearGradient>
<linearGradient id="paint2_linear_13_1066" x1="285.86" y1="87.8129" x2="244.106" y2="87.8129" gradientUnits="userSpaceOnUse">
<stop stop-color="#343A44"/>
<stop offset="0.3" stop-color="#232D3E"/>
<stop offset="0.64" stop-color="#182439"/>
<stop offset="1" stop-color="#142138"/>
</linearGradient>
</defs>
</svg>
