<svg width="81" height="81" viewBox="0 0 81 81" fill="none" xmlns="http://www.w3.org/2000/svg">
<path id="Vector" d="M40.5 0C32.4899 0 24.6596 2.37528 17.9994 6.82548C11.3392 11.2757 6.14825 17.6009 3.0829 25.0013C0.0175503 32.4017 -0.784488 40.5449 0.778213 48.4011C2.34091 56.2574 6.19817 63.4738 11.8622 69.1378C17.5262 74.8018 24.7426 78.6591 32.5989 80.2218C40.4551 81.7845 48.5983 80.9825 55.9987 77.9171C63.3991 74.8518 69.7243 69.6608 74.1745 63.0006C78.6247 56.3404 81 48.5101 81 40.5C81 29.7587 76.7331 19.4574 69.1378 11.8622C61.5426 4.26695 51.2413 0 40.5 0ZM53.6585 28.921C51.4391 28.921 49.2035 28.921 46.6884 28.921C46.6884 29.8525 46.6884 30.5127 46.6884 31.1728C46.6884 40.747 46.679 50.3212 46.6601 59.8954C46.6601 62.37 46.4819 62.536 44.0154 62.5522C42.5331 62.5522 41.0468 62.5522 39.5604 62.5522C35.393 62.5522 34.182 61.3372 34.1739 57.0807C34.1577 48.5892 34.151 40.095 34.1537 31.5981V28.9413C30.6383 28.9413 27.3578 28.9413 24.0773 28.9413C21.6108 28.9413 21.4205 28.7388 21.4043 26.2926C21.4043 24.4053 21.4569 22.518 21.4043 20.6226C21.3516 19.1808 21.9227 18.472 23.3807 18.472C34.101 18.472 44.8214 18.4032 55.5417 18.472C57.9717 18.472 59.5917 20.1973 59.5917 22.6354C59.5634 29.8525 60.4949 28.8684 53.6585 28.921Z" fill="white"/>
</svg>
