<svg xmlns="http://www.w3.org/2000/svg" width="254" height="71" viewBox="0 0 254 71" fill="none">
  <path d="M7.46178 55.4207L0.0417518 32.0202C-0.0915422 31.5536 0.108399 30.9538 0.441634 30.6132L11.8086 21.5196C12.2085 21.1863 12.7417 21.3196 13.0083 21.7195L21.4947 33.6197C21.7613 34.0196 21.7613 34.6194 21.4947 35.0933L8.1949 55.6132C7.99496 55.8798 7.66172 55.8798 7.46178 55.4133" fill="#0154A6"/>
  <path d="M45.0951 69.4536L30.0551 50.2667C29.7885 49.8668 29.1221 49.6668 28.7148 49.8668L15.0077 54.4136C14.5412 54.5469 14.3412 55.08 14.4745 55.5466L19.4879 69.3869C19.6212 69.8535 20.1543 70.1867 20.6209 70.1867H44.7545C45.2876 70.12 45.4209 69.8535 45.0877 69.4536" fill="#0154A6"/>
  <path d="M69.562 38.0406L46.9686 46.6677C46.5021 46.8677 46.1689 47.3342 46.1689 47.8674V62.5741C46.1689 63.0407 46.5688 63.4405 47.0353 63.4405L61.4755 62.9074C61.942 62.9074 62.4752 62.5075 62.6085 62.0409L70.0952 38.6405C70.2284 38.1073 69.9619 37.8407 69.562 38.0406Z" fill="#0154A6"/>
  <path d="M47.7684 4.68019L48.8347 29.2137C48.8347 29.6802 49.2346 30.2134 49.7012 30.3467L63.4082 34.8935C63.8747 35.0268 64.3413 34.7602 64.4746 34.2937L68.4215 20.1201C68.5548 19.6535 68.3549 19.0537 67.955 18.7797L48.4349 4.33955C48.035 4.00631 47.7017 4.20625 47.7684 4.67278" fill="#0154A6"/>
  <path d="M9.86846 15.4399L33.1357 21.9935C33.6022 22.1268 34.202 21.9269 34.476 21.527L42.9624 9.62679C43.229 9.2269 43.1623 8.69373 42.7624 8.42714L30.7216 0.199941C30.3217 -0.066647 29.7219 -0.066647 29.3146 0.199941L9.80181 14.6401C9.33528 14.9734 9.40193 15.3066 9.86846 15.4399Z" fill="#0154A6"/>
  <path d="M118.896 44.8534H120.702L119.769 53.8804C116.089 55.4873 112.149 56.7536 106.47 56.7536C95.0359 56.7536 88.2898 48.2672 88.2898 38.7737C88.2898 26.8069 96.6429 19.3868 106.877 19.3868C113.097 19.3868 116.77 21.0604 118.91 22.3934L119.177 30.2133H117.437C115.363 24.4002 111.824 22.1934 106.544 22.1934C97.3834 22.1934 94.0436 28.8803 94.0436 36.8335C94.0436 45.5273 98.1239 53.7471 107.41 53.7471C114.23 53.8137 116.837 50.6739 118.91 44.8534" fill="black"/>
  <path d="M136.75 31.1538C129.663 31.1538 123.583 36.3004 123.583 44.4536C123.583 51.6737 128.53 56.8869 135.816 56.8869C143.103 56.8869 148.983 51.7403 148.983 43.5872C148.983 36.3671 144.036 31.1538 136.75 31.1538ZM137.216 53.9471C131.67 53.9471 128.456 48.8671 128.456 42.8467C128.456 37.7667 130.729 34.0196 135.343 34.0196C140.889 34.0196 144.103 39.0996 144.103 45.1201C144.103 50.2 141.763 53.9471 137.216 53.9471Z" fill="black"/>
  <path d="M152.189 53.6137L151.856 44.8534H153.53C154.937 49.7334 158.077 54.0803 163.49 54.0803C168.57 54.0803 171.909 51.6736 171.909 47.6599C171.909 44.1202 169.17 42.58 165.356 41.0397L160.343 39.0329C155.929 37.226 152.189 35.2192 152.189 29.2728C152.189 24.1928 157.136 19.446 164.29 19.446C168.436 19.446 172.643 20.6457 174.516 22.5192V30.2725H173.176C171.976 25.3924 169.295 22.1193 163.949 22.1193C159.669 22.1193 156.529 24.4594 156.529 28.199C156.529 31.2722 158.602 32.7458 162.142 34.1454L167.489 36.2855C172.569 38.359 176.249 40.4324 176.249 46.4455C176.249 53.1324 170.169 56.872 162.675 56.872C158.328 56.8054 154.522 55.5317 152.182 53.5989" fill="black"/>
  <path d="M186.016 31.2205H192.703V34.1603H186.016V48.6672C186.016 52.0069 187.357 53.5472 190.163 53.5472C191.23 53.5472 192.237 53.3472 193.237 52.9474C193.436 53.4805 193.636 53.9471 193.836 54.421C192.637 55.6207 190.697 56.8944 187.89 56.8944C184.417 56.8944 181.203 55.0875 181.203 50.2741V34.1603H177.389V32.5534C180.263 31.0798 182.136 29.2803 184.476 26.333H186.016V31.213V31.2205Z" fill="black"/>
  <path d="M218.503 53.4804C217.97 53.5471 217.303 53.6137 216.963 53.6137C215.623 53.6137 214.689 52.4807 214.689 50.4073V40.1807C214.689 33.627 211.083 31.2203 205.396 31.2203C200.249 31.2203 196.236 33.4937 196.236 37.3C196.236 38.433 196.569 39.1735 197.235 39.84L201.049 39.3735C200.916 38.4404 200.782 37.5666 200.782 37.1001C200.782 34.6934 201.849 33.627 204.463 33.627C208.41 33.627 209.943 36.6336 209.943 40.4472V41.4469L201.316 44.1202C197.776 45.1199 194.962 46.1937 194.962 50.5406C194.962 54.2209 197.369 56.9609 201.915 56.9609C206.129 56.9609 208.802 54.6208 210.476 52.6807C211.209 55.2873 212.349 56.9609 214.756 56.9609C216.296 56.9609 217.629 56.3611 219.103 55.0874C218.97 54.7541 218.636 53.9544 218.503 53.4804ZM209.883 50.6072C208.01 52.2808 206.41 53.4804 203.663 53.4138C201.123 53.4138 199.649 52.0734 199.649 49.4002C199.649 47.6599 200.449 46.7269 202.056 46.1937L209.876 43.6537V50.6072H209.883Z" fill="black"/>
  <path d="M228.663 38.3073C230.803 34.4269 232.943 31.1538 236.283 31.1538C237.349 31.1538 237.623 31.4204 238.623 31.7536V36.0338H236.616C233.676 36.0338 231.936 36.767 229.063 40.4474V51.6811C229.063 54.0211 229.996 54.1544 232.877 54.5543V56.5611H220.443V54.5543C222.383 54.2877 224.257 54.0211 224.257 51.881V36.2412L220.443 34.5676V33.5013L227.263 31.2279H228.87L228.67 38.3147L228.663 38.3073Z" fill="black"/>
  <path d="M247.376 31.8943V32.6274H245.303V38.0406H244.503V32.6274H242.429V31.8943H247.376Z" fill="black"/>
  <path d="M248.117 31.8943H249.316L251.057 37.1076L252.797 31.8943H253.996V38.048H253.197V32.8348L251.456 38.048H250.657L248.916 32.8348V38.048H248.117V31.8943Z" fill="black"/>
</svg>