<svg xmlns="http://www.w3.org/2000/svg" width="200" height="56" viewBox="0 0 200 56" fill="none">
  <path d="M5.8755 43.639L0.0328759 25.2132C-0.0720815 24.8458 0.0853546 24.3735 0.347748 24.1053L9.29828 16.9449C9.61315 16.6825 10.033 16.7874 10.2429 17.1023L16.9252 26.4727C17.1351 26.7875 17.1351 27.2598 16.9252 27.633L6.45277 43.7906C6.29533 44.0005 6.03294 44.0005 5.8755 43.6332" fill="white"/>
  <path d="M35.5085 54.6885L23.6658 39.5805C23.4559 39.2656 22.9311 39.1082 22.6104 39.2656L11.8173 42.8458C11.4499 42.9508 11.2925 43.3706 11.3974 43.738L15.345 54.636C15.45 55.0034 15.8698 55.2658 16.2371 55.2658H35.2402C35.6601 55.2133 35.765 55.0034 35.5026 54.6885" fill="white"/>
  <path d="M54.774 29.9536L36.9837 36.7467C36.6164 36.9041 36.354 37.2715 36.354 37.6913V49.2716C36.354 49.639 36.6688 49.9538 37.0362 49.9538L48.4066 49.534C48.7739 49.534 49.1937 49.2191 49.2987 48.8518L55.1938 30.4259C55.2988 30.0061 55.0889 29.7962 54.774 29.9536Z" fill="white"/>
  <path d="M37.6135 3.68514L38.4531 23.0031C38.4531 23.3705 38.768 23.7903 39.1353 23.8953L49.9285 27.4755C50.2958 27.5804 50.6632 27.3705 50.7681 27.0032L53.876 15.8427C53.981 15.4754 53.8235 15.003 53.5087 14.7873L38.1382 3.41692C37.8234 3.15453 37.561 3.31196 37.6135 3.67931" fill="white"/>
  <path d="M7.77055 12.1576L26.0914 17.318C26.4588 17.4229 26.9311 17.2655 27.1469 16.9506L33.8291 7.58025C34.0391 7.26538 33.9866 6.84555 33.6717 6.63564L24.1906 0.157436C23.8757 -0.0524787 23.4034 -0.0524787 23.0827 0.157436L7.71807 11.5278C7.35072 11.7902 7.4032 12.0526 7.77055 12.1576Z" fill="white"/>
  <path d="M93.6199 35.3181H95.0426L94.3079 42.426C91.4099 43.6913 88.3079 44.6884 83.8355 44.6884C74.8325 44.6884 69.5205 38.0061 69.5205 30.5308C69.5205 21.108 76.0978 15.2654 84.1562 15.2654C89.0542 15.2654 91.9464 16.5832 93.6315 17.6328L93.8415 23.7903H92.4712C90.8385 19.2129 88.0513 17.4753 83.8938 17.4753C76.6809 17.4753 74.0512 22.7407 74.0512 29.0031C74.0512 35.8487 77.264 42.3211 84.5761 42.3211C89.9464 42.3735 91.9989 39.9012 93.6315 35.3181" fill="white"/>
  <path d="M107.678 24.5308C102.098 24.5308 97.3109 28.5833 97.3109 35.0032C97.3109 40.6884 101.206 44.7934 106.944 44.7934C112.681 44.7934 117.311 40.7408 117.311 34.321C117.311 28.6358 113.416 24.5308 107.678 24.5308ZM108.046 42.4785C103.678 42.4785 101.148 38.4784 101.148 33.7379C101.148 29.7378 102.938 26.7873 106.57 26.7873C110.938 26.7873 113.468 30.7874 113.468 35.528C113.468 39.528 111.626 42.4785 108.046 42.4785Z" fill="white"/>
  <path d="M119.836 42.2161L119.573 35.3181H120.891C121.999 39.1607 124.472 42.5834 128.734 42.5834C132.734 42.5834 135.364 40.6884 135.364 37.528C135.364 34.7408 133.206 33.5279 130.203 32.3151L126.256 30.7349C122.781 29.3122 119.836 27.732 119.836 23.0497C119.836 19.0497 123.731 15.312 129.364 15.312C132.629 15.312 135.941 16.2566 137.416 17.7319V23.8369H136.361C135.416 19.9943 133.305 17.417 129.095 17.417C125.725 17.417 123.253 19.2596 123.253 22.2042C123.253 24.6241 124.886 25.7844 127.673 26.8865L131.883 28.5716C135.883 30.2043 138.781 31.837 138.781 36.5717C138.781 41.8371 133.993 44.7817 128.093 44.7817C124.67 44.7292 121.673 43.7263 119.83 42.2044" fill="white"/>
  <path d="M146.472 24.5833H151.737V26.8982H146.472V38.3211C146.472 40.9508 147.527 42.1637 149.737 42.1637C150.577 42.1637 151.37 42.0062 152.157 41.6914C152.314 42.1112 152.472 42.4785 152.629 42.8517C151.685 43.7963 150.157 44.7993 147.947 44.7993C145.212 44.7993 142.682 43.3765 142.682 39.5864V26.8982H139.679V25.6329C141.941 24.4725 143.416 23.0556 145.259 20.7349H146.472V24.5775V24.5833Z" fill="white"/>
  <path d="M172.052 42.1111C171.632 42.1636 171.108 42.2161 170.839 42.2161C169.784 42.2161 169.049 41.324 169.049 39.6913V31.6387C169.049 26.4783 166.21 24.5833 161.731 24.5833C157.679 24.5833 154.518 26.3734 154.518 29.3705C154.518 30.2626 154.781 30.8457 155.306 31.3705L158.309 31.0031C158.204 30.2684 158.099 29.5804 158.099 29.213C158.099 27.318 158.938 26.4783 160.997 26.4783C164.105 26.4783 165.312 28.8457 165.312 31.8486V32.6358L158.519 34.7408C155.731 35.528 153.516 36.3735 153.516 39.7962C153.516 42.6942 155.411 44.8517 158.991 44.8517C162.309 44.8517 164.414 43.0091 165.731 41.4814C166.309 43.5339 167.207 44.8517 169.102 44.8517C170.315 44.8517 171.364 44.3794 172.524 43.3765C172.42 43.1141 172.157 42.4843 172.052 42.1111ZM165.265 39.8487C163.79 41.1665 162.53 42.1111 160.367 42.0587C158.367 42.0587 157.207 41.0032 157.207 38.8983C157.207 37.528 157.836 36.7933 159.102 36.3735L165.259 34.3734V39.8487H165.265Z" fill="white"/>
  <path d="M180.052 30.1635C181.737 27.108 183.423 24.5308 186.052 24.5308C186.892 24.5308 187.108 24.7407 187.895 25.0031V28.3734H186.315C184 28.3734 182.63 28.9506 180.367 31.8486V40.6942C180.367 42.5368 181.102 42.6417 183.37 42.9566V44.5368H173.58V42.9566C175.108 42.7467 176.583 42.5368 176.583 40.8516V28.5366L173.58 27.2188V26.3792L178.95 24.5891H180.216L180.058 30.1693L180.052 30.1635Z" fill="white"/>
  <path d="M194.787 25.1138V25.691H193.154V29.9535H192.525V25.691H190.892V25.1138H194.787Z" fill="white"/>
  <path d="M195.37 25.1138H196.315L197.685 29.2188L199.055 25.1138H200V29.9593H199.37V25.8543L198 29.9593H197.37L196 25.8543V29.9593H195.37V25.1138Z" fill="white"/>
</svg>